<?xml version="1.0" encoding="UTF-8"?>
<svg width="72px" height="72px" viewBox="0 0 72 72" version="1.1" xmlns="http://www.w3.org/2000/svg" xmlns:xlink="http://www.w3.org/1999/xlink">
    <!-- Generator: Sketch 50.2 (55047) - http://www.bohemiancoding.com/sketch -->
    <title>logo</title>
    <desc>Created with Sketch.</desc>
    <defs></defs>
    <g id="Page-1" stroke="none" stroke-width="1" fill="none" fill-rule="evenodd">
        <path d="M35.3584958,71.3340617 C15.8306001,70.993201 0.276435001,54.8863915 0.617295688,35.3584958 C0.958156376,15.8306001 17.0649659,0.276435001 36.5928616,0.617295688 C56.1207573,0.958156376 71.6749224,17.0649659 71.3340617,36.5928616 C70.993201,56.1207573 54.8863915,71.6749224 35.3584958,71.3340617 Z M35.570677,68.4307114 C53.4043717,68.7419997 68.1137868,54.5372827 68.4250751,36.703588 C68.7363634,18.8698933 54.5316464,4.16047825 36.6979516,3.84918995 C18.8642569,3.53790165 4.15484187,17.7426186 3.84355358,35.5763134 C3.53226528,53.4100081 17.7369823,68.1194231 35.570677,68.4307114 Z M7.19893861,41.0277375 C4.90147276,27.9518244 11.6084642,15.3781412 22.8411408,9.74443224 C23.1286056,10.0190798 23.3054979,10.3757262 23.3748705,10.7705565 C23.4567684,11.2366747 23.5729013,12.2374216 23.542854,14.1051037 L22.614849,40.7629634 C22.5067591,43.5455999 22.3266762,44.8991447 21.7921452,45.5944948 C21.2576141,46.289845 20.4879586,46.6663436 16.6531091,47.9456973 L16.6160155,49.0937107 C19.8277218,48.3451586 23.3494042,47.6619076 24.9127129,47.3852744 C27.9235296,46.8524992 38.4239623,45.1145616 43.9244929,44.1412224 C44.3077239,44.0734083 44.6383864,43.971032 44.9260273,43.8336947 L44.8751217,53.3694516 C44.8619879,58.2205115 43.3875727,61.6852916 42.8530417,62.3806418 C42.3185106,63.075992 41.8231426,64.460795 38.9370116,65.0239392 C23.8501415,66.6939477 9.87993778,56.2865115 7.19893861,41.0277375 Z M48.5990263,60.8976701 C48.476191,60.2010201 48.4450929,59.0093208 48.5226626,57.0801503 L49.4590251,30.5770185 C49.5803031,27.2035215 49.8047224,26.4456397 50.2811173,25.7630451 C50.7949154,24.9541368 51.6492736,24.3844729 55.0127619,23.4920897 L55.0497758,22.3482393 C51.9551938,23.0734877 48.8980149,23.6724225 47.3353694,23.9479655 C45.772724,24.2235084 42.4635695,24.747156 39.3075698,25.1240794 L39.2705559,26.2679298 C41.2690405,26.0951123 42.7671158,26.1302508 43.7171423,26.4416047 C44.5309447,26.6572609 44.9907982,27.234625 45.1136335,27.931275 C45.1955236,28.3957084 45.3116645,29.3928345 45.2817343,31.2537455 L44.8797604,41.7578082 C40.0270293,42.6722081 35.8492457,43.4845373 32.3464094,44.1947958 C30.7338053,44.5217781 29.1530065,44.6980328 28.0974647,44.4651436 C27.4198863,44.3451852 27.0009779,44.0000378 26.8679064,43.2453336 C26.7450712,42.5486835 26.6356247,41.2510812 26.7234307,39.379965 L27.5414635,16.913131 C27.6627415,13.539634 27.9488048,9.02421899 28.9868431,8.15431838 C30.0248814,7.28441777 30.6431576,7.20288711 30.7150255,7.19021457 C46.5371552,4.40028147 61.6320779,15.0045035 64.430479,30.8754073 C66.7060807,43.7812969 60.1497426,56.1956672 49.1126717,61.883962 C48.8156237,61.6490173 48.6719452,61.3112237 48.5990263,60.8976701 Z" id="logo" fill="#FFFFFF" transform="translate(35.975679, 35.975679) rotate(-1.000000) translate(-35.975679, -35.975679) "></path>
    </g>
</svg>