<svg width="3200" height="4246" viewBox="0 0 3200 4246" fill="none" xmlns="http://www.w3.org/2000/svg">
<path fill-rule="evenodd" clip-rule="evenodd" d="M1274.18 1424.6C1272.57 1432.21 1271.57 1440.3 1273.32 1440.73C1274.89 1438.37 1277.87 1428.99 1281.14 1417.39C1287.95 1393.19 1296.02 1359.33 1295.13 1359.33C1288.53 1374.71 1282.69 1391.23 1278.23 1407.76C1277.63 1409.98 1277.06 1412.19 1276.51 1414.4L1276.51 1414.41C1275.67 1417.82 1274.89 1421.22 1274.18 1424.6C1275.87 1416.56 1272.57 1432.21 1274.18 1424.6Z" fill="black"/>
<path fill-rule="evenodd" clip-rule="evenodd" d="M727.681 1331.11C730.319 1333.82 732.957 1336.53 735.596 1339.23C735.801 1339.44 736.006 1339.65 736.212 1339.86C736.051 1339.5 735.889 1339.14 735.724 1338.78C727.153 1320.11 713.379 1302.34 699.324 1286.62C700.267 1286.5 726.907 1330.11 727.681 1331.11C723.817 1326.1 731.08 1335.51 727.681 1331.11Z" fill="black"/>
<path fill-rule="evenodd" clip-rule="evenodd" d="M730.524 1323.96C732.531 1328.06 734.119 1331.33 737.108 1334.33C738.359 1333.84 715.745 1274.99 710.905 1274.99C710.894 1275.01 710.882 1275.01 710.866 1275.01C711.685 1275.01 730.052 1323 730.524 1323.96C727.747 1318.29 733.053 1329.13 730.524 1323.96Z" fill="black"/>
<path fill-rule="evenodd" clip-rule="evenodd" d="M725.712 1338.99L730.516 1343.29L731.166 1343.87L734.961 1347.27C734.837 1347.01 735.185 1347.22 735.269 1347.19C735.638 1346.91 734.84 1345.22 733.234 1342.61C725.434 1329.94 698.572 1295.56 693.906 1295.56C693.889 1295.59 693.867 1295.6 693.839 1295.6C694.178 1295.54 699.292 1302.43 705.329 1310.73C706.404 1312.21 707.509 1313.74 708.622 1315.28C710.053 1317.26 711.496 1319.26 712.905 1321.22C714.083 1322.85 715.236 1324.46 716.339 1325.99C717.629 1327.79 718.849 1329.49 719.957 1331.03C723.211 1335.57 725.495 1338.75 725.712 1338.99C721.444 1334.17 729.431 1343.18 725.712 1338.99Z" fill="black"/>
<path fill-rule="evenodd" clip-rule="evenodd" d="M740.757 1335.34L740.763 1335.35C747.19 1326.24 765.485 1278.39 768.278 1278.4C764.498 1284.68 737.673 1334.47 740.757 1335.34Z" fill="black"/>
<path fill-rule="evenodd" clip-rule="evenodd" d="M739.722 1329C744.585 1329 743.609 1264.27 744.349 1264.27C741.203 1285.63 738.662 1307.48 739.722 1329Z" fill="black"/>
<path fill-rule="evenodd" clip-rule="evenodd" d="M733.259 1319.02C734.6 1323.46 735.598 1326.82 738.094 1330.31C739.945 1329.91 725.609 1267.53 721.756 1267.52C724.639 1284.68 728.189 1302.3 733.259 1319.02C731.425 1312.98 734.948 1324.61 733.259 1319.02Z" fill="black"/>
<path fill-rule="evenodd" clip-rule="evenodd" d="M743.726 1334.71C743.613 1334.94 743.5 1335.18 743.387 1335.42C740.934 1340.6 738.866 1345.93 739.895 1346.44C741.596 1344.29 744.685 1338.87 748.276 1332.19C748.74 1331.33 749.211 1330.44 749.69 1329.54C750.692 1327.66 751.722 1325.7 752.764 1323.7C761.126 1307.69 770.186 1289.46 770.871 1289.47C760.944 1303.75 751.365 1318.97 743.726 1334.71C746.485 1329.02 741.129 1340.1 743.726 1334.71Z" fill="black"/>
<path fill-rule="evenodd" clip-rule="evenodd" d="M1279.08 1455.28C1280.4 1453.12 1282.57 1447.05 1285.08 1439.11C1292.78 1414.7 1303.58 1372.65 1301.95 1372.65C1299.84 1377.41 1291.32 1399.66 1284.94 1419.88C1284.13 1422.46 1283.35 1425 1282.62 1427.47C1282.61 1427.52 1282.59 1427.57 1282.58 1427.63C1278.25 1442.38 1275.82 1454.47 1279.08 1455.28Z" fill="black"/>
<path fill-rule="evenodd" clip-rule="evenodd" d="M1183.91 1302.83C1186.27 1306.14 1188.33 1309.03 1191.09 1311.55C1191.48 1311.91 1191.89 1312.26 1192.32 1312.61C1192.36 1312.59 1192.13 1312.09 1191.66 1311.22C1187.03 1302.49 1159.44 1255.65 1154.42 1255.64C1154.37 1255.57 1154.4 1255.69 1154.39 1255.67C1157.05 1255.67 1182.62 1301.03 1183.91 1302.83C1180.04 1297.4 1187.4 1307.72 1183.91 1302.83Z" fill="black"/>
<path fill-rule="evenodd" clip-rule="evenodd" d="M1237.82 1359.8C1236.28 1364.75 1236.19 1369.66 1237.56 1374.52C1239.41 1370.92 1243.4 1355.44 1247.02 1339.45C1251.47 1319.78 1255.36 1299.35 1254.04 1299.35C1250.97 1307.58 1248.18 1316.11 1245.72 1324.77C1242.43 1336.35 1239.75 1348.16 1237.82 1359.8C1239.05 1352.4 1236.66 1366.81 1237.82 1359.8Z" fill="black"/>
<path fill-rule="evenodd" clip-rule="evenodd" d="M1230.25 1348.02C1228.79 1352.88 1228.74 1357.7 1230.1 1362.45C1230.13 1362.47 1230.18 1362.47 1230.22 1362.47C1235.87 1362.47 1238.82 1342.62 1240.84 1323.49C1242.73 1305.7 1243.81 1288.53 1245.52 1288.53C1245.51 1288.52 1245.5 1288.53 1245.51 1288.54C1241.85 1298.72 1238.62 1309.38 1235.92 1320.16C1233.61 1329.43 1231.69 1338.79 1230.25 1348.02C1231.39 1340.75 1229.18 1354.9 1230.25 1348.02Z" fill="black"/>
<path fill-rule="evenodd" clip-rule="evenodd" d="M1252.98 1384.47C1251.27 1389.59 1251.11 1394.68 1252.48 1399.74C1254.48 1396.1 1258.77 1380.61 1262.75 1364.42C1267.82 1343.83 1272.38 1322.09 1271.09 1322.09C1266.95 1332.65 1263.17 1343.72 1259.97 1354.93C1259.42 1356.84 1258.89 1358.76 1258.38 1360.68C1258.35 1360.76 1258.33 1360.84 1258.31 1360.91C1256.22 1368.77 1254.42 1376.66 1252.98 1384.47C1254.39 1376.82 1251.65 1391.72 1252.98 1384.47Z" fill="black"/>
<path fill-rule="evenodd" clip-rule="evenodd" d="M1267.91 1412.3C1266.04 1417.59 1265.79 1422.87 1267.18 1428.13C1268.71 1425.49 1271.51 1416.76 1274.57 1405.99C1281.37 1382.05 1289.47 1347.99 1287.92 1347.99H1287.91V1347.99C1283.84 1357.94 1280 1368.4 1276.64 1379.01C1276.02 1380.97 1275.41 1382.95 1274.82 1384.92C1274.76 1385.13 1274.7 1385.34 1274.64 1385.55C1271.99 1394.48 1269.7 1403.46 1267.91 1412.3C1269.52 1404.39 1266.4 1419.79 1267.91 1412.3Z" fill="black"/>
<path fill-rule="evenodd" clip-rule="evenodd" d="M1260.75 1397.02C1258.95 1402.23 1258.75 1407.41 1260.12 1412.58C1262.4 1408.55 1267.56 1390.21 1272.05 1372.22C1276.91 1352.74 1281 1333.68 1279.8 1333.68L1279.79 1333.68V1333.69C1275.33 1344.9 1271.19 1356.74 1267.69 1368.71C1264.92 1378.15 1262.56 1387.67 1260.75 1397.02C1262.26 1389.24 1259.32 1404.39 1260.75 1397.02Z" fill="black"/>
<path fill-rule="evenodd" clip-rule="evenodd" d="M1222.83 1336.75C1221.45 1341.53 1221.43 1346.24 1222.79 1350.89C1224.42 1346.75 1228.05 1332.09 1231.31 1317.01C1235.43 1297.96 1238.97 1278.23 1237.16 1278.23C1232.63 1291.28 1228.82 1305.1 1225.96 1318.96C1224.73 1324.9 1223.68 1330.85 1222.83 1336.75C1223.86 1329.61 1221.83 1343.51 1222.83 1336.75Z" fill="black"/>
<path fill-rule="evenodd" clip-rule="evenodd" d="M1245.43 1371.98C1243.81 1377.02 1243.68 1382.02 1245.05 1386.98C1246.98 1383.35 1251.13 1367.81 1254.95 1351.69C1259.7 1331.58 1263.91 1310.57 1262.59 1310.56C1258.56 1321.02 1254.93 1332.1 1251.87 1343.32C1251.41 1345.01 1250.97 1346.7 1250.53 1348.39C1250.51 1348.5 1250.48 1348.61 1250.45 1348.72C1248.47 1356.5 1246.78 1364.31 1245.43 1371.98C1246.75 1364.45 1244.18 1379.1 1245.43 1371.98Z" fill="black"/>
<path fill-rule="evenodd" clip-rule="evenodd" d="M1217.67 1328.64C1216.39 1333.34 1216.42 1337.96 1217.78 1342.52C1219 1339.27 1221.41 1329.49 1223.87 1318.16C1228.43 1297.25 1233.17 1271.09 1231.06 1271.09C1226.59 1285.74 1222.48 1301.06 1219.65 1316.37C1218.9 1320.46 1218.23 1324.56 1217.67 1328.64C1218.63 1321.63 1216.78 1335.29 1217.67 1328.64Z" fill="black"/>
<path fill-rule="evenodd" clip-rule="evenodd" d="M1200.92 1320.81C1201.4 1319.02 1202.09 1315.26 1202.86 1310.38C1205.97 1290.66 1210.36 1252.67 1207.32 1252.66C1206.13 1258.52 1200.23 1292.02 1199.35 1309.77C1199.03 1316.32 1199.39 1320.72 1200.92 1320.81Z" fill="black"/>
<path fill-rule="evenodd" clip-rule="evenodd" d="M1189.31 1301.1C1190.44 1304.77 1191.34 1307.74 1192.96 1310.62C1193.41 1311.41 1193.9 1312.19 1194.47 1312.98C1194.73 1312.92 1194.72 1311.89 1194.5 1310.12C1192.91 1297.44 1180.3 1246.86 1176.84 1246.86C1179.97 1264.94 1183.83 1283.5 1189.31 1301.1C1187.33 1294.73 1191.12 1306.98 1189.31 1301.1Z" fill="black"/>
<path fill-rule="evenodd" clip-rule="evenodd" d="M1194.27 1303.59C1194.6 1305.96 1194.88 1308 1195.31 1309.95C1195.77 1312.04 1196.4 1314.02 1197.47 1316.14C1198.02 1316.11 1198.21 1313.67 1198.15 1309.71C1197.87 1292.74 1192.82 1248.04 1190.68 1248.04C1190.89 1266.41 1191.73 1285.33 1194.27 1303.59C1193.35 1296.99 1195.13 1309.77 1194.27 1303.59Z" fill="black"/>
<path fill-rule="evenodd" clip-rule="evenodd" d="M1211.57 1321.96C1210.36 1326.57 1210.43 1331.09 1211.77 1335.54C1212.81 1332.68 1214.73 1324.66 1216.77 1315.02C1221.22 1294.03 1226.23 1265.37 1224 1265.37C1219.42 1280.81 1215.4 1296.92 1212.83 1313.03C1212.36 1316.01 1211.94 1318.99 1211.57 1321.96C1212.42 1315.07 1210.76 1328.49 1211.57 1321.96Z" fill="black"/>
<path fill-rule="evenodd" clip-rule="evenodd" d="M1205.85 1326.98C1206.62 1324.81 1207.97 1318.83 1209.48 1311.24C1213.6 1290.6 1218.92 1258.05 1217.03 1258.05C1215.93 1261.97 1208.4 1292.13 1205.57 1311.23C1204.24 1320.2 1203.95 1326.73 1205.85 1326.98Z" fill="black"/>
<path fill-rule="evenodd" clip-rule="evenodd" d="M3161.32 1364C3162.93 1365.64 3164.44 1363.59 3165.96 1362.02C3167.14 1360.79 3168.33 1359.85 3169.57 1361.12C3161.04 1342.05 3146.89 1306.65 3132.57 1290.62C3133.42 1290.51 3155.43 1349.33 3160.37 1361.73C3160.91 1363.1 3161.24 1363.9 3161.32 1364C3157.46 1358.99 3164.72 1368.4 3161.32 1364Z" fill="black"/>
<path fill-rule="evenodd" clip-rule="evenodd" d="M3153.08 1355.36C3153.88 1356.07 3154.68 1356.77 3155.48 1357.47C3156.77 1358.59 3158.06 1359.72 3159.35 1360.84C3159.69 1361.14 3160.03 1361.44 3160.37 1361.73C3161.12 1362.39 3161.87 1363.04 3162.62 1363.69C3162.26 1363.03 3161.9 1362.36 3161.53 1361.7C3151.36 1343.44 3135.68 1326.3 3120.05 1311.47C3120.73 1311.32 3152.27 1354.49 3153.08 1355.36C3148.65 1350.5 3156.91 1359.59 3153.08 1355.36Z" fill="black"/>
<path fill-rule="evenodd" clip-rule="evenodd" d="M3156.82 1334.25C3157.84 1336.33 3162.46 1349.1 3169.7 1361.96C3176.73 1374.44 3186.24 1387 3197.32 1389.91C3197.32 1389.91 3144.28 1281.55 3139.45 1281.55C3139.44 1281.57 3139.42 1281.57 3139.41 1281.57C3140.23 1281.57 3156.82 1334.25 3156.82 1334.25C3154.05 1328.57 3159.35 1339.41 3156.82 1334.25Z" fill="black"/>
<path fill-rule="evenodd" clip-rule="evenodd" d="M3157.83 1354.73C3160.54 1357.16 3163.25 1359.59 3165.96 1362.02C3166.33 1362.35 3166.7 1362.68 3167.07 1363.01C3166.95 1362.75 3167.29 1362.95 3167.38 1362.93C3167.57 1362.78 3167.48 1362.24 3167.16 1361.36C3163.82 1352.49 3135.82 1309.88 3130.7 1309.88C3131.54 1309.71 3157.01 1353.8 3157.83 1354.73C3153.55 1349.9 3161.54 1358.92 3157.83 1354.73Z" fill="black"/>
<path fill-rule="evenodd" clip-rule="evenodd" d="M3169.3 1341.9L3169.3 1341.91C3175.73 1332.8 3194.03 1284.95 3196.82 1284.96C3193.04 1291.25 3166.21 1341.03 3169.3 1341.9Z" fill="black"/>
<path fill-rule="evenodd" clip-rule="evenodd" d="M3168.26 1335.56C3173.13 1335.56 3172.15 1270.83 3172.89 1270.83C3169.74 1292.19 3167.21 1314.04 3168.26 1335.56Z" fill="black"/>
<path fill-rule="evenodd" clip-rule="evenodd" d="M3161.8 1325.58C3163.14 1330.02 3164.14 1333.38 3166.64 1336.87C3168.49 1336.47 3154.15 1274.09 3150.3 1274.08C3153.19 1291.25 3156.74 1308.87 3161.8 1325.58C3159.97 1319.54 3163.49 1331.17 3161.8 1325.58Z" fill="black"/>
<path fill-rule="evenodd" clip-rule="evenodd" d="M3172.77 1351.27C3171.01 1354.91 3169.38 1358.76 3168.85 1361.02C3168.59 1362.11 3168.59 1362.83 3168.94 1363C3169.17 1362.71 3169.42 1362.36 3169.7 1361.96C3176.78 1351.65 3198.83 1306.02 3199.91 1306.03C3189.99 1320.31 3180.41 1335.53 3172.77 1351.27C3175.53 1345.58 3170.17 1356.66 3172.77 1351.27Z" fill="black"/>
<path fill-rule="evenodd" clip-rule="evenodd" d="M3151.07 1363.9C3152.07 1364.76 3153.08 1365.61 3154.08 1366.46C3156.35 1368.39 3158.63 1370.32 3160.91 1372.26C3158.67 1368.12 3156.14 1364.05 3153.38 1360.04C3143.26 1345.37 3130.04 1331.63 3116.91 1319.49C3117.63 1319.32 3150.24 1363 3151.07 1363.9C3146.51 1358.99 3155.01 1368.14 3151.07 1363.9Z" fill="black"/>
<path fill-rule="evenodd" clip-rule="evenodd" d="M3140.24 1353.53C3132.44 1344.57 3124.13 1336.12 3115.31 1328.19L3115.22 1328.24C3115.38 1328.2 3115.95 1328.72 3116.85 1329.7C3117.81 1330.74 3119.15 1332.28 3120.77 1334.2C3122 1335.66 3123.38 1337.33 3124.89 1339.16C3126.05 1340.56 3127.27 1342.05 3128.54 1343.61C3129.68 1344.99 3130.85 1346.42 3132.04 1347.88C3143.1 1361.4 3156.36 1377.59 3161.04 1381.4C3162.48 1380.22 3157.75 1373.72 3152.33 1367.18C3144.9 1358.21 3136.18 1349.16 3140.24 1353.53C3145.77 1359.48 3129.32 1341.73 3140.24 1353.53Z" fill="black"/>
<path d="M1273.32 1440.73C1271.57 1440.3 1272.57 1432.21 1274.18 1424.6C1274.89 1421.22 1275.67 1417.82 1276.51 1414.41L1276.48 1414.39L1276.51 1414.4C1277.06 1412.19 1277.63 1409.98 1278.23 1407.76C1276.85 1407.08 1275.6 1406.48 1274.57 1405.99C1271.51 1416.76 1268.71 1425.49 1267.18 1428.13C1265.79 1422.87 1266.04 1417.59 1267.91 1412.3C1269.7 1403.46 1271.99 1394.48 1274.64 1385.55C1274.37 1385.15 1274.18 1384.75 1274.08 1384.37C1274.33 1384.57 1274.58 1384.75 1274.82 1384.92C1275.41 1382.95 1276.02 1380.97 1276.64 1379.01C1275.6 1377.09 1274.55 1375.17 1273.48 1373.26C1273.01 1372.93 1272.53 1372.58 1272.05 1372.22C1267.56 1390.21 1262.4 1408.55 1260.12 1412.58C1258.75 1407.41 1258.95 1402.23 1260.75 1397.02C1262.56 1387.67 1264.92 1378.15 1267.69 1368.71C1266.04 1367.31 1264.39 1365.85 1262.75 1364.42C1258.77 1380.61 1254.48 1396.1 1252.48 1399.74C1251.11 1394.68 1251.27 1389.59 1252.98 1384.47C1254.42 1376.66 1256.22 1368.77 1258.31 1360.91C1257.55 1360.33 1256.78 1359.63 1256.01 1358.82C1256.8 1359.41 1257.58 1360.03 1258.38 1360.68C1258.89 1358.76 1259.42 1356.84 1259.97 1354.93C1258.56 1353.88 1257.1 1352.85 1255.73 1351.89C1255.47 1351.84 1255.21 1351.77 1254.95 1351.69C1251.13 1367.81 1246.98 1383.35 1245.05 1386.98C1243.68 1382.02 1243.81 1377.02 1245.43 1371.98C1246.78 1364.31 1248.47 1356.5 1250.45 1348.72C1250.14 1348.41 1249.83 1348.08 1249.51 1347.72L1249.64 1347.8C1249.84 1347.93 1250.14 1348.13 1250.53 1348.39C1250.97 1346.7 1251.41 1345.01 1251.87 1343.32C1250.05 1341.97 1248.29 1340.63 1247.02 1339.45C1243.4 1355.44 1239.41 1370.92 1237.56 1374.52C1236.19 1369.66 1236.28 1364.75 1237.82 1359.8C1239.75 1348.16 1242.43 1336.35 1245.72 1324.77C1244.37 1324.34 1243.06 1324.11 1241.77 1324.11C1241.52 1323.95 1241.21 1323.74 1240.84 1323.49C1238.82 1342.62 1235.87 1362.47 1230.22 1362.47C1230.18 1362.47 1230.13 1362.47 1230.1 1362.45C1228.74 1357.7 1228.79 1352.88 1230.25 1348.02C1231.69 1338.79 1233.61 1329.43 1235.92 1320.16L1233.91 1318.79C1233.09 1318.22 1232.22 1317.63 1231.31 1317.01C1228.05 1332.09 1224.42 1346.75 1222.79 1350.89C1221.43 1346.24 1221.45 1341.53 1222.83 1336.75C1223.68 1330.85 1224.73 1324.9 1225.96 1318.96C1225.26 1318.71 1224.57 1318.44 1223.87 1318.16C1221.41 1329.49 1219 1339.27 1217.78 1342.52C1216.42 1337.96 1216.39 1333.34 1217.67 1328.64C1218.23 1324.56 1218.9 1320.46 1219.65 1316.37C1218.69 1315.93 1217.73 1315.48 1216.77 1315.02C1214.73 1324.66 1212.81 1332.68 1211.77 1335.54C1210.43 1331.09 1210.36 1326.57 1211.57 1321.96C1211.94 1318.99 1212.36 1316.01 1212.83 1313.03C1211.71 1312.45 1210.6 1311.85 1209.48 1311.24C1207.97 1318.83 1206.62 1324.81 1205.85 1326.98C1203.95 1326.73 1204.24 1320.2 1205.57 1311.23C1204.63 1310.89 1203.73 1310.6 1202.86 1310.38C1202.09 1315.26 1201.4 1319.02 1200.92 1320.81C1199.39 1320.72 1199.03 1316.32 1199.35 1309.77C1198.94 1309.74 1198.54 1309.72 1198.15 1309.71C1198.21 1313.67 1198.02 1316.11 1197.47 1316.14C1196.4 1314.02 1195.77 1312.04 1195.31 1309.95C1195.03 1310 1194.77 1310.06 1194.5 1310.12C1194.72 1311.89 1194.73 1312.92 1194.47 1312.98C1193.9 1312.19 1193.41 1311.41 1192.96 1310.62C1192.52 1310.79 1192.08 1311 1191.66 1311.22C1192.13 1312.09 1192.36 1312.59 1192.32 1312.61C1191.89 1312.26 1191.48 1311.91 1191.09 1311.55C1177.27 1319.92 1180.01 1354.59 1183.7 1367.05C1177.49 1359.52 1186.35 1286.45 1156 1323.47C1142.55 1339.86 1161.45 1402.06 1162.9 1421.54C1135.09 1402.15 1160.42 1342.56 1144.3 1328.16C1135.39 1320.18 1114.65 1356.15 1113.02 1365.86C1107.77 1397.18 1133.93 1419.8 1141.63 1446.82C1117.2 1435.16 1108.44 1365.02 1102.92 1363.47C1087.12 1380.54 1083.81 1368.81 1069.88 1368.81C1070.33 1368.81 1032.27 1425.23 1026.54 1428.59C1028.98 1415.85 1097.62 1309.9 1037.15 1316.67C1027.31 1317.77 1027.62 1388.84 1002.16 1405.21C1002.93 1400.44 1025.57 1338.42 1027.02 1338.66C1025.05 1337.59 1023.43 1339 1022.16 1342.87C1023.75 1330.43 1000.77 1267.34 985.406 1284.74C985.333 1284.83 981.183 1334.79 977.504 1342.76C978.457 1322.06 987.291 1279.84 958.844 1278.76C951.648 1278.49 948.593 1280.17 947.766 1283.19C949.496 1287.19 950.724 1292.53 951.317 1299.45C953.925 1307.48 956.217 1316.82 951.946 1325.48C953.051 1319.41 952.972 1313.41 951.705 1307.48C951.66 1304.59 951.529 1301.92 951.317 1299.45C949.139 1292.74 946.742 1286.93 947.766 1283.19C933.832 1251 887.29 1306.11 876.769 1327.18C876.769 1327.18 877.324 1325 872.013 1318.31C871.48 1328.12 872.546 1337.82 875.215 1347.4C860.448 1338.66 854.116 1359.71 861.306 1376.09L861.023 1375.59C854.888 1364.87 848.608 1353.89 840.902 1344.56C847.167 1371.16 858.266 1386.13 855.462 1413.02C848.194 1409.93 844.363 1405.4 843.976 1399.44C843.71 1399.29 840.909 1396.11 839.06 1392.91C836.854 1392.65 834.173 1388.67 833.303 1387.7C836.079 1382.81 837.936 1378.02 840.555 1373.31C836.965 1377.02 834.301 1380.55 830.97 1385.1C828.901 1382.79 832.647 1371 835.893 1364.57C832.321 1369.12 828.782 1373.53 825.171 1378.68C819.461 1372.43 833.494 1355.68 837.941 1347.65C831.867 1356.05 825.686 1363.84 819.669 1372.74C816.475 1369.35 835.267 1335.42 836.889 1335.27C832.049 1335.31 817.191 1363.21 814.475 1367.37C816.089 1363.42 826.289 1339.21 832.225 1328.46C824.163 1339.49 816.651 1351.03 809.618 1362.8C811.192 1359.53 824.931 1328.34 831.292 1316.73C821.818 1330.6 796.924 1368.39 801.474 1370.9C802.71 1371.27 803.788 1371.12 804.708 1370.44C806.164 1367.28 807.484 1364.63 807.75 1364.07C807.073 1367.33 806.06 1369.45 804.708 1370.44C802.241 1375.81 799.383 1382.66 800.6 1383.36C805.056 1380.05 808.115 1375.51 811.136 1370.68C806.988 1377.35 802.463 1387.56 800.151 1396.06C806.511 1390.81 810.852 1383.94 815.176 1376.56C812.232 1383.72 805.911 1393.3 801.968 1401.63C798.759 1399.31 797.25 1394.61 796.779 1388.72C796.576 1391.65 796.391 1394.58 796.219 1397.51C790.106 1393.18 782.22 1379.21 777.846 1374.4C783.062 1378.69 749.82 1333.1 751.289 1331.71C755.608 1337.49 774.189 1367.72 782.708 1367.72C778.556 1359.85 764.736 1336.33 752.764 1323.7C751.722 1325.7 750.692 1327.66 749.69 1329.54C750.092 1330.1 750.505 1330.66 750.93 1331.23C749.951 1331.74 749.074 1332.05 748.276 1332.19C744.685 1338.87 741.596 1344.29 739.895 1346.44C738.866 1345.93 740.934 1340.6 743.387 1335.42C741.16 1335.85 737.473 1335.52 735.734 1334.07C736.077 1335.85 736.073 1337.42 735.724 1338.78C735.889 1339.14 736.051 1339.5 736.212 1339.86L735.596 1339.23C735.164 1340.57 734.377 1341.69 733.234 1342.61C734.84 1345.22 735.638 1346.91 735.269 1347.19C735.185 1347.22 734.837 1347.01 734.961 1347.27L731.166 1343.87C730.993 1343.95 730.815 1344.03 730.633 1344.11C730.66 1344.4 730.606 1344.08 730.516 1343.29L725.712 1338.99C725.495 1338.75 723.211 1335.57 719.957 1331.03C719.496 1333.13 718.739 1335.04 717.52 1336.64C717.198 1333.08 716.804 1329.53 716.339 1325.99C715.236 1324.46 714.083 1322.85 712.905 1321.22C712.972 1328.66 712.934 1336.1 712.776 1342.91C712.85 1343.52 709.803 1325.91 708.622 1315.28C707.509 1313.74 706.404 1312.21 705.329 1310.73C704.714 1318.5 702.347 1325.61 699.629 1334.89C698.779 1333.38 697.626 1321.3 698.244 1316.47C696.894 1319.83 696.402 1322.21 695.114 1327.06C693.409 1324.07 680.633 1298.17 677.453 1298.16C686.096 1309.07 695.406 1325.57 691.99 1339.19C690.224 1337.63 687.526 1323.36 689.696 1323.36C689.29 1323.27 689.007 1323.04 688.814 1322.74C688.483 1324.99 687.764 1328.63 686.365 1334.29C680.719 1329.21 674.834 1324.23 668.822 1319.5C674.011 1326.03 679.237 1335.83 678.608 1338.47C699.998 1351.4 681.207 1340.08 666.951 1331.67C672.261 1337.56 676.903 1345.96 676.242 1349.07C671.404 1348.71 669.929 1345.99 671.817 1340.94C668.49 1348.22 661.709 1346.75 653.61 1342.11C653.644 1342.16 653.677 1342.21 653.71 1342.26C660.897 1347.25 670.453 1344.77 668.216 1355.53C663.297 1355.92 661.615 1353.72 663.174 1348.95C656.346 1360.16 656.782 1346.98 653.71 1342.26C653.51 1342.12 653.313 1341.97 653.118 1341.82C653.282 1341.92 653.447 1342.01 653.61 1342.11C653.011 1341.24 652.281 1340.7 651.345 1340.7C652.338 1345.17 653.112 1347.16 654.823 1352.33C652.276 1352.58 656.449 1357.23 657.834 1361.32C657.829 1361.85 658.277 1369.53 657.582 1373.23C652.867 1369.56 651.525 1364.7 653.566 1358.62C650.073 1357.15 644.107 1354.46 640.342 1352.48C644.567 1357.9 650.511 1370.63 650.067 1372.96C647.584 1370.84 641.783 1364.66 637.225 1361.13C640.358 1365.74 641.823 1374.83 641.452 1376.71C641.385 1376.67 635.793 1373.22 631.679 1371.34C635.531 1374.27 640.606 1381.1 640.207 1383.28C635.322 1383.17 633.207 1381.05 633.875 1376.93C620.891 1382 642.024 1396.81 623.656 1404.7C624.357 1398.48 624.368 1392.27 623.673 1386.07C622.086 1395.09 621.929 1405.15 613.678 1409.55C614.206 1404.66 614.105 1399.8 613.37 1394.97C611.082 1404.24 612.018 1410.39 602.977 1415.69C603.42 1411.38 603.252 1407.1 602.484 1402.87C600.588 1411.72 600.74 1416.89 592.691 1422.42C592.473 1418.49 592.265 1414.56 592.052 1410.62C589.287 1410.52 591.929 1407.3 590.038 1418.68C588.148 1417.26 585.955 1416.15 584.452 1416.07C550.481 1405.51 650.117 1246.85 533.992 1364.55C547.06 1285.44 530.459 1233.58 484.329 1331.94C467.61 1245.82 445.036 1303.66 432.838 1357.52C414.817 1313.98 404.072 1359.87 397.734 1385.84C392.967 1383 386.186 1380.89 381.98 1377.64C381.341 1366.58 375.104 1319.71 361.778 1319.7C363.747 1319.7 332.507 1354.84 329.675 1357.06C345.351 1342.84 377.622 1274 330.942 1274C323.893 1274 316.484 1344.53 284.218 1345.68C305.087 1326.15 334.801 1281.19 318.385 1253.98C296.568 1217.82 284.857 1291.48 271.374 1304.92C278.749 1268.44 315.85 1243.08 265.474 1222.73C215.502 1202.53 188.418 1241.89 229.692 1281.6C216.175 1276.61 206.545 1239.09 202.793 1239.08C154.498 1239.07 232.698 1331.31 238.132 1339.49C209.204 1337.31 188.278 1288.11 176.04 1268.05C150.701 1268.05 178.401 1336.44 174.772 1344.13C164.711 1333.02 157.84 1305.57 149.422 1334.91C144.671 1351.47 162.142 1364.54 161.66 1372.99C160.611 1391.35 142.899 1416.12 135.956 1432.91C136.438 1429.01 149.164 1315.23 146.006 1315.22C131.721 1351.64 126.141 1393.94 118.844 1432.56C118.479 1428.11 111.553 1320.93 105.563 1320.93C101.014 1347.51 102.405 1376.42 102.501 1403.61C100.33 1397.96 70.7452 1326 66.4995 1325.99C65.4847 1332.31 65.5606 1335.2 65.8741 1336.51C66.1411 1336.87 66.4094 1337.23 66.679 1337.6C66.679 1337.6 66.1704 1337.76 65.8741 1336.51C-3.27127 1244.23 16.217 1462 16.217 1462L16.1973 4245.46L3198.19 4239.46L3199.2 1508C3198.78 1507.99 3197.32 1389.91 3197.32 1389.91C3186.24 1387 3176.73 1374.44 3169.7 1361.96C3169.42 1362.36 3169.17 1362.71 3168.94 1363C3168.59 1362.83 3168.59 1362.11 3168.85 1361.02C3168.76 1360.97 3168.67 1360.91 3168.58 1360.86C3168.08 1361.05 3167.6 1361.22 3167.16 1361.36C3167.48 1362.24 3167.57 1362.78 3167.38 1362.93C3167.29 1362.95 3166.95 1362.75 3167.07 1363.01C3166.7 1362.68 3166.33 1362.35 3165.96 1362.02C3164.44 1363.59 3162.93 1365.64 3161.32 1364C3161.24 1363.9 3160.91 1363.1 3160.37 1361.73L3159.35 1360.84C3158.06 1359.72 3156.77 1358.59 3155.48 1357.47C3155.44 1357.47 3155.39 1357.46 3155.34 1357.46C3154.56 1358.42 3153.92 1359.28 3153.38 1360.04C3156.14 1364.05 3158.67 1368.12 3160.91 1372.26C3158.63 1370.32 3156.35 1368.39 3154.08 1366.46L3153.8 1366.57L3153.53 1366.68L3153.1 1366.86C3152.88 1366.95 3152.62 1367.06 3152.33 1367.18C3157.75 1373.72 3162.48 1380.22 3161.04 1381.4C3156.36 1377.59 3143.1 1361.4 3132.04 1347.88C3131.57 1349.87 3130.81 1351.69 3129.62 1353.21C3129.32 1350 3128.96 1346.8 3128.54 1343.61C3127.27 1342.05 3126.05 1340.56 3124.89 1339.16C3124.94 1346.15 3124.9 1353.1 3124.75 1359.47C3124.81 1360.04 3122.12 1344.88 3120.77 1334.2C3119.15 1332.28 3117.81 1330.74 3116.85 1329.7C3115.98 1336.55 3113.76 1343.1 3111.25 1351.45C3110.38 1349.94 3109.19 1337.87 3109.82 1333.04C3108.44 1336.38 3107.93 1338.77 3106.61 1343.62C3104.83 1340.58 3091.76 1314.73 3088.48 1314.72C3097.29 1325.54 3106.92 1342.11 3103.41 1355.75C3101.58 1354.18 3098.82 1339.92 3101.05 1339.92C3100.62 1339.83 3100.32 1339.59 3100.12 1339.27C3099.81 1341.44 3099.1 1345.07 3097.63 1350.85C3091.86 1345.79 3085.84 1340.83 3079.7 1336.13C3085.01 1342.64 3090.33 1352.34 3089.66 1355.03C3111.21 1367.72 3092.31 1356.62 3077.82 1348.3C3083.23 1354.15 3087.94 1362.44 3087.24 1365.63C3082.2 1365.31 3080.74 1362.48 3082.85 1357.13C3080.58 1362.19 3076.73 1363.3 3071.95 1362.1C3076.78 1363.59 3080.53 1364.94 3079 1372.1C3073.99 1372.53 3072.27 1370.34 3073.82 1365.51C3066.85 1376.71 3067.25 1363.55 3064.1 1358.82C3063.89 1358.68 3063.69 1358.54 3063.49 1358.39C3063.66 1358.49 3063.83 1358.58 3064 1358.68C3063.39 1357.81 3062.64 1357.26 3061.68 1357.26C3062.7 1361.74 3063.49 1363.73 3065.25 1368.9C3062.62 1369.11 3066.92 1373.81 3068.34 1377.89C3068.33 1378.4 3068.83 1385.95 3068.08 1389.79C3063.25 1386.17 3061.88 1381.29 3063.97 1375.14C3060.39 1373.66 3054.11 1370.88 3050.24 1368.9C3054.61 1374.21 3060.83 1387.14 3060.36 1389.52C3057.77 1387.37 3051.81 1381.16 3047.13 1377.63C3050.38 1382.19 3051.92 1391.28 3051.52 1393.26L3051.4 1393.2C3048.42 1391.63 3045.52 1390.1 3042.56 1388.72C3046.33 1391.93 3050.62 1397.79 3050.24 1399.84C3045.25 1399.78 3043.09 1397.67 3043.74 1393.49C3030.17 1398.52 3052.15 1413.36 3033.25 1421.26C3033.97 1415.04 3033.98 1408.83 3033.26 1402.64L3033.24 1402.64C3031.62 1411.75 3031.41 1421.74 3023.01 1426.11C3023.55 1421.22 3023.44 1416.36 3022.69 1411.53C3020.32 1420.89 3021.28 1427.04 3012.02 1432.25C3012.47 1427.94 3012.29 1423.66 3011.51 1419.43C3009.54 1428.39 3009.69 1433.47 3001.45 1438.98L3001.42 1438.4C3001.21 1434.66 3001 1430.92 3000.8 1427.18C2998.03 1427.08 3000.62 1424.13 2998.73 1435.24C2997.49 1434.33 2994.06 1431.05 2993 1432.63C2958.04 1422.17 3060.66 1263.17 2941.19 1381.12C2954.8 1300.89 2937.17 1250.97 2890.2 1348.51C2873.07 1262.59 2849.93 1319.88 2837.32 1374.09C2819.11 1331.22 2808.13 1375.08 2801.5 1401.58L2801.29 1402.4C2796.39 1399.57 2789.42 1397.48 2785.12 1394.19C2784.44 1382.97 2777.98 1336.27 2764.37 1336.26C2766.13 1336.27 2734.54 1371.23 2731.41 1373.63C2747.76 1359.18 2780.35 1290.56 2732.71 1290.56C2725.56 1290.56 2717.41 1361.11 2684.74 1362.24C2706.01 1342.85 2736.55 1297.93 2719.82 1270.54C2697.62 1234.2 2685.4 1308.04 2671.56 1321.48C2679.27 1284.34 2717.04 1259.77 2665.49 1239.29C2627.47 1224.18 2601.11 1242.54 2609.47 1269.98C2615.27 1278.42 2620.92 1288.94 2625.01 1294.46C2626.19 1295.69 2627.44 1296.93 2628.76 1298.16C2627.76 1297.8 2626.48 1296.46 2625.01 1294.46C2616.81 1285.95 2611.8 1277.62 2609.47 1269.98C2600.86 1257.45 2591.91 1249.51 2587.26 1269.34C2580.56 1297.98 2620.3 1330.94 2637.43 1356.05C2601.48 1353.42 2595.98 1288.91 2574.32 1284.68C2552.75 1315.81 2583.26 1338.3 2572.74 1359.94C2518.18 1295.67 2537.44 1341.76 2524.55 1402.37C2523.35 1399.13 2502.99 1349.97 2501.12 1339.46C2500.6 1343.32 2499.25 1349.38 2499.14 1351.32C2479.01 1319.61 2453.68 1280.83 2451.79 1342.22C2405.02 1287.07 2397.57 1308.29 2410.43 1370.44C2365.88 1356.03 2311.18 1207.26 2333.57 1371.31C2309.02 1358.15 2298.07 1313.89 2263.73 1317.16C2250.88 1318.38 2237.02 1338.4 2235.79 1341.12L2235.73 1341.42C2235.68 1341.42 2235.7 1341.31 2235.79 1341.12C2243.53 1304.81 2216.86 1329.02 2212.64 1351.81C2208.61 1373.6 2210.54 1409.36 2220.89 1426.91C2192.71 1407.78 2217.87 1347.53 2201.79 1333.53C2192.56 1325.48 2171.35 1361.35 2169.68 1371.24C2164.35 1402.76 2191.15 1425.16 2199.05 1452.2C2174.25 1440.66 2164.68 1370.32 2159.31 1368.84C2118.61 1383.48 2136.99 1419.67 2154.58 1447.19C2132.67 1458.09 2142.04 1424.97 2127.77 1424.97C2122.36 1429.04 2117.55 1433.76 2113.38 1439.12C2150.9 1361.89 2134.82 1339.71 2070.16 1403.55C2083.76 1323.34 2066.13 1273.39 2019.16 1370.94C2002.04 1285.03 1978.89 1342.31 1966.29 1396.52C1954.02 1367.63 1935.29 1389.58 1920.97 1417.19C1926.35 1425.53 1910.45 1454.29 1902.88 1461.2C1902.15 1463.64 1901.58 1465.76 1901.2 1467.5C1900.97 1468.52 1900.77 1469.51 1900.59 1470.49C1890.17 1465.16 1856.5 1464.85 1849.02 1460.55C1863.46 1458.88 1888.71 1468.89 1901.23 1462.42C1901.72 1462.17 1902.27 1461.76 1902.88 1461.2C1906.21 1450.14 1912.89 1432.77 1920.97 1417.19C1920.04 1415.75 1918.47 1414.92 1916.11 1414.92C1908.15 1414.92 1851.77 1452.22 1847.4 1434.84C1864.37 1427.96 1905.88 1422.51 1913.88 1404.02C1917.09 1396.6 1903.39 1348.7 1893.33 1348.7C1886.72 1348.7 1861.16 1401.84 1835.98 1405.18C1845.72 1394.46 1931.29 1303 1861.67 1303C1853.77 1303 1848.75 1387.15 1820.24 1368.25C1833.02 1354.9 1877.75 1291.6 1843.85 1276.72C1820.46 1266.45 1819.5 1315.48 1800.52 1333.92C1808.23 1296.78 1846 1272.21 1794.46 1251.72C1744.33 1231.8 1714.47 1270.06 1757.72 1310.6C1733.45 1301.87 1741.42 1257.63 1721.11 1276.51C1698.39 1297.63 1740.66 1333.45 1754.11 1351.39C1719.18 1360.44 1725.95 1301.56 1703.28 1297.12C1685.38 1319.72 1688.44 1346.62 1709.77 1366.72C1687.66 1382.16 1695.86 1345.39 1685.12 1348.81C1674.33 1352.25 1679.78 1365.95 1674.31 1370.79C1629.14 1410.86 1672.81 1437.72 1673.22 1486.18C1653.78 1467.57 1650.77 1413.51 1625.56 1428.66C1619.63 1414.13 1565.59 1308.55 1539.02 1318.85C1511.11 1329.66 1561.52 1451.33 1567.19 1462.63C1539.95 1430.47 1436.23 1191.12 1462.54 1383.75C1390.68 1345.25 1294.18 1332.89 1397.57 1418.96C1390.61 1418.63 1368.02 1416.18 1366.49 1416.18C1353.83 1428.85 1364.73 1404.87 1362.08 1404.87C1359.31 1411.42 1358.91 1420.1 1351.16 1421.58C1353.78 1412.61 1355.48 1403.5 1356.26 1394.23C1342.89 1415.54 1332.31 1453.67 1332.31 1478.11C1335.26 1473.89 1336.8 1474.33 1337.67 1476.22C1340.36 1470.9 1343.29 1481.53 1341.1 1478.99C1340.9 1479.83 1340.72 1480.54 1340.55 1481.14L1373.03 1481.61C1370.09 1494.35 1365.04 1503.33 1347.2 1499.26C1348.06 1496.11 1347.32 1498 1345.73 1499.26C1346.82 1494.5 1348.12 1489.79 1349.64 1485.14C1347.11 1492.47 1342.02 1495.85 1339.49 1499.26C1340.01 1493.2 1341.1 1487.26 1342.76 1481.44L1340.37 1487.09L1336.82 1495.48C1337.34 1496.95 1337.78 1498.21 1338.13 1499.26C1337.57 1498.31 1337 1497.35 1336.44 1496.39C1336.44 1496.39 1321.75 1528.69 1335.38 1494.57C1332.79 1490.1 1330.27 1485.56 1327.79 1480.95L1324.85 1480.91C1328.64 1483.36 1330.77 1485.53 1330.05 1487.1C1329.2 1489.27 1319.46 1485.52 1307.81 1480.67C1308.31 1481.47 1309.13 1482.38 1310.17 1483.37C1323.8 1489.16 1334.81 1495.2 1333.04 1499.15C1333.39 1499.33 1317.01 1489.84 1310.17 1483.37C1307.98 1482.44 1305.72 1481.51 1303.44 1480.6C1319.35 1488.72 1315.45 1497.18 1333.04 1499.15C1334.81 1495.2 1323.8 1489.16 1310.17 1483.37C1317.01 1489.84 1333.39 1499.33 1333.04 1499.15C1315.45 1497.18 1319.35 1488.72 1303.44 1480.6C1287.77 1474.37 1270.9 1468.88 1266.45 1467.26C1270.17 1464.34 1290.98 1473.65 1307.81 1480.67L1324.85 1480.91C1312.09 1472.68 1280.53 1461.35 1275.82 1459.5C1281.61 1454.4 1321.79 1481.34 1324.78 1475.29L1324.64 1475.04C1317.08 1468.6 1282.96 1454.44 1284.6 1449.61C1279.43 1446.91 1311.88 1463.91 1318.52 1463.13C1317.59 1461.29 1316.67 1459.44 1315.75 1457.59C1307.02 1451.22 1286.83 1441.94 1285.08 1439.11C1282.57 1447.05 1280.4 1453.12 1279.08 1455.28C1275.82 1454.47 1278.25 1442.38 1282.58 1427.63C1282.01 1427.28 1281.61 1427.02 1281.39 1426.86C1281.35 1426.84 1281.8 1427.06 1282.62 1427.47C1283.35 1425 1284.13 1422.46 1284.94 1419.88C1283.65 1419.03 1282.39 1418.2 1281.14 1417.39C1277.87 1428.99 1274.89 1438.37 1273.32 1440.73Z" fill="black"/>
</svg>
