<svg width="3180" height="2155" viewBox="0 0 3180 2155" fill="none" xmlns="http://www.w3.org/2000/svg">
<path fill-rule="evenodd" clip-rule="evenodd" d="M98.0714 -35.4556C88.3742 -34.6607 14 -9.99998 3.38306 -6.14874L-2 2164L3178 2156V92C3178 92 3142.11 96.7529 3139.82 104.117C3139.03 106.672 3138.28 109.087 3137.39 111.048C3132.28 98.9743 3124.45 86.8299 3116.4 74.3426C3108.08 61.4264 3099.52 48.1432 3093.48 34.1914C3097.02 33.394 3100.52 33.5369 3103.97 34.62C3105.86 35.9135 3108.63 37.4108 3112.28 39.1118C3109.54 36.9959 3106.77 35.4986 3103.97 34.62C3099.43 31.5118 3099.97 29.5802 3105.59 28.8252C3107.36 28.7816 3109.43 28.6615 3111.8 28.465C3109.3 28.485 3107.23 28.6051 3105.59 28.8252C3092.6 29.146 3095.86 25.3432 3115.39 17.4206C3092.1 26.2203 3090.07 20.2027 3109.29 -0.637691C3097 9.53736 3093.92 10.1974 3092.43 12.1008C3091.7 13.0362 3091.36 14.2719 3090.49 17.0847C3089.61 14.6339 3088.8 12.1667 3088.06 9.68316C3087.91 4.83926 3086.29 -2.87964 3083.2 -13.4733C3084.18 -5.60454 3085.8 2.11507 3088.06 9.68316C3088.34 18.3024 3083.97 17.8186 3074.96 8.2303C3074.65 7.88336 3074.31 7.52116 3073.95 7.14316C3074.29 7.5177 3074.63 7.88007 3074.96 8.2303C3083.92 18.1947 3073.72 15.5765 3065.21 13.3913C3061.79 12.5124 3058.64 11.7036 3057.12 11.8117C3065.92 13.4686 3073 17.7901 3078.38 24.7704C3071.14 22.0163 3064.6 23.1135 3058.76 28.0619C3075.42 25.75 3076.26 30.6984 3061.28 42.9071C3077.35 30.0939 3080.77 30.5921 3071.52 44.3961C3080.68 35.7051 3084.5 33.7802 3083 38.6213C3080.58 41.0718 3078.83 44.6249 3077.73 49.2829C3080.57 44.356 3082.32 40.8021 3083 38.6213C3085.11 36.4836 3087.72 35.1848 3090.83 34.7232C3101.44 59.2477 3112.05 83.7667 3122.66 108.286L3122.7 108.386L3122.83 108.686C3117.03 101.767 3109.56 98.8229 3100.42 99.8473C3113.11 103.519 3119.15 109.733 3121.44 121.802C3114.51 111.709 3091.91 101.265 3073.01 92.5344C3063.95 88.3512 3055.75 84.5612 3050.53 81.3916L3067.55 81.4755C3049.53 79.0685 3049.37 76.6223 3067.07 74.1425C3050.83 73.0163 3052.29 70.2635 3071.43 65.8783C3053.37 69.9868 3049.92 66.5038 3061.06 55.4348C3053.37 57.0246 3048.2 61.5364 3045.55 68.9646C3044.84 66.3668 3044.36 63.7668 3044.1 61.1645C3045.35 58.5823 3045.92 52.7616 3045.79 43.702C3044.1 49.5356 3043.54 55.3558 3044.1 61.1645C3042.45 64.5766 3039.59 62.3342 3035.53 54.4384C3034.24 57.6652 3033.97 60.4171 3033.78 62.4061C3033.33 67.0833 3033.28 67.5418 3021.29 60.0362C3026.33 63.3277 3030.65 67.3804 3034.26 72.1889C3030.95 71.0073 3029.98 70.4652 3029.02 70.4786C3027.25 70.5033 3025.51 72.4041 3009.31 75.6595C3037.04 73.3084 3040.76 78.268 3020.49 90.5271C3038.04 80.6804 3042.91 80.5398 3035.09 90.1052C3034.03 91.155 3032.81 92.544 3031.45 94.272C3032.87 92.7229 3034.09 91.3339 3035.09 90.1052C3040.56 84.7137 3042.13 88.2656 3039.8 100.771C3045.28 73.0656 3066.27 90.1975 3083.93 104.603C3088.83 108.604 3093.48 112.394 3097.46 114.956C3096.73 115.386 3098.22 116.142 3100.47 117.281C3105.27 119.713 3113.51 123.889 3110.91 130.366C3110.9 130.322 3101.54 126.528 3093.72 123.356C3088.59 121.273 3084.11 119.459 3083.39 119.152L3083.38 119.143C3083.25 119.091 3083.25 119.096 3083.39 119.152C3093.59 136.245 3091.5 139.113 3077.13 127.763C3076.82 127.405 3076.42 127.085 3075.93 126.806C3076.34 127.136 3076.74 127.455 3077.13 127.763C3081.58 132.939 3067.36 146.015 3055.4 157.009C3054.37 157.96 3053.35 158.896 3052.36 159.81C3020.12 189.652 2983.96 216.202 2937.18 230.409L2934.71 163.298C2940.91 168.229 2944.46 174.633 2945.34 182.492C2947.06 174.711 2946.09 167.238 2942.43 160.079C2950.79 165.24 2956.2 172.64 2958.64 182.274C2960.05 172.971 2956.95 165.072 2949.34 158.562C2958.54 161.736 2965.44 167.692 2970.05 176.43C2968.9 166.354 2963.58 159.519 2954.1 155.931C2965.11 151.761 2975.75 152.505 2986.05 158.17C2978.58 147.467 2968.52 144.081 2955.89 148.016C2959.35 141.646 2964.82 137.906 2972.29 136.798C2963.11 134.878 2955.46 137.755 2949.33 145.43C2954.52 131.553 2964.33 122.58 2977.83 115.84C2975.22 116.321 2969.33 119.879 2962.9 123.769C2954.08 129.108 2944.22 135.073 2940.33 134.581C2943.36 124.494 2948.85 116.142 2956.83 109.526C2947.7 113.282 2940.5 119.16 2935.2 127.164C2933.06 116.59 2925.19 93.673 2911.67 91.182C2918.11 97.2779 2925.78 133.277 2924.27 132.331C2920.67 122.932 2914.04 116.887 2904.4 114.2C2912.13 121.135 2917.08 129.773 2919.24 140.112C2914.92 131.906 2908.1 127.338 2898.79 126.403C2907 130.249 2912.99 136.378 2916.78 144.792C2905.66 142.804 2896.06 145.771 2887.99 153.675C2896.62 149.303 2905.09 149.096 2913.42 153.048C2903.81 151.839 2895.63 154.839 2888.89 162.044C2897.31 158.831 2906.03 157.666 2915.07 158.556C2910.73 161.193 2899.54 179.877 2894.37 188.503C2893.34 190.226 2892.54 191.548 2892.1 192.26C2890.55 181.199 2893.24 171.565 2900.17 163.359C2892.47 168.532 2887.47 175.478 2885.17 184.205C2883.3 173.642 2877.28 167.054 2867.12 164.44C2868.85 165.257 2883.37 189.316 2878.4 188.398C2876.62 181.042 2872.29 175.887 2865.42 172.937C2871.33 178.238 2875.12 184.843 2876.78 192.753C2868.52 184.39 2859.39 183.802 2849.39 190.99C2859.24 187.239 2866.85 189.814 2872.21 198.703C2864.36 193.346 2857.92 194.819 2852.91 203.12C2859.72 197.791 2866.2 197.623 2872.3 202.627C2864.58 200.439 2858.34 202.728 2853.59 209.496C2859.86 205.342 2866.53 204.463 2873.58 206.848C2865.86 209.647 2863.13 215.211 2865.37 223.529C2866.44 215.972 2870.72 211.416 2878.2 209.865C2873.6 215.222 2872.72 221.094 2875.56 227.47C2875.14 218.771 2878.57 213.045 2885.88 210.291C2885.92 211.569 2885.97 212.834 2886.02 214.085C2887.4 249.613 2888.35 274.202 2845.33 288.239C2834.67 291.715 2823.66 290.473 2812.59 289.226C2801 287.919 2789.35 286.605 2777.97 290.691C2763.11 296.03 2754.2 305.554 2744.93 315.462C2739.6 321.156 2734.15 326.978 2727.39 332.204C2704.94 349.548 2682.1 351.603 2660.54 353.542C2642.29 355.183 2624.95 356.742 2609.55 367.419C2603.04 371.935 2599.68 379.835 2596.29 387.823C2591.78 398.43 2587.21 409.194 2575.08 412.403C2566.39 414.706 2557.7 411.285 2548.65 407.723C2539.48 404.115 2529.95 400.361 2519.66 402.254C2519.02 384.993 2518.38 367.733 2517.75 350.472C2517.11 333.211 2516.48 315.951 2515.84 298.69C2522.03 303.633 2525.57 310.037 2526.44 317.896C2528.17 310.115 2527.2 302.648 2523.54 295.494C2531.92 300.649 2537.32 308.05 2539.75 317.689C2541.16 308.38 2538.06 300.47 2530.44 293.966C2539.64 297.14 2546.55 303.101 2551.17 311.839C2550.02 301.758 2544.7 294.923 2535.21 291.34C2546.21 287.176 2556.86 287.915 2567.16 293.574C2559.7 282.86 2549.65 279.473 2537.01 283.414C2540.47 277.044 2545.93 273.31 2553.4 272.207C2544.23 270.282 2536.57 273.159 2530.44 280.833C2535.6 266.951 2545.45 257.978 2558.95 251.249C2556.34 251.728 2550.46 255.284 2544.02 259.174C2535.19 264.51 2525.33 270.475 2521.46 269.979C2524.47 259.887 2529.97 251.54 2537.95 244.946C2528.81 248.68 2521.61 254.552 2516.34 262.574C2514.18 251.994 2506.3 229.082 2492.79 226.58C2499.22 232.676 2506.89 268.692 2505.39 267.74C2501.78 258.342 2495.16 252.296 2485.51 249.609C2493.24 256.539 2498.2 265.176 2500.36 275.516C2496.04 267.315 2489.22 262.747 2479.91 261.807C2488.11 265.658 2494.11 271.787 2497.9 280.19C2486.77 278.208 2477.17 281.175 2469.1 289.084C2477.72 284.718 2486.2 284.505 2494.52 288.446C2484.91 287.248 2476.74 290.249 2470 297.447C2478.43 294.229 2487.15 293.064 2496.19 293.966C2491.84 296.594 2480.43 315.664 2475.34 324.171C2474.38 325.775 2473.64 327.003 2473.22 327.675C2471.65 316.603 2474.34 306.964 2481.3 298.757C2473.6 303.935 2468.59 310.888 2466.27 319.609C2464.4 309.046 2458.39 302.457 2448.22 299.827C2449.89 300.621 2464.54 324.72 2459.51 323.796C2457.74 316.446 2453.41 311.291 2446.54 308.341C2452.45 313.642 2456.23 320.247 2457.89 328.157C2449.63 319.794 2440.5 319.2 2430.5 326.371C2440.36 322.632 2447.96 325.218 2453.32 334.118C2445.47 328.756 2439.04 330.222 2434.01 338.507C2440.83 333.195 2447.31 333.027 2453.42 338.014C2445.7 335.831 2439.45 338.132 2434.7 344.905C2440.97 340.757 2447.65 339.867 2454.7 342.235C2447 345.051 2444.25 350.62 2446.48 358.939C2447.54 351.37 2451.82 346.814 2459.32 345.269C2454.71 350.626 2453.83 356.492 2456.67 362.863C2456.26 354.18 2459.7 348.448 2466.99 345.683C2467.25 352.603 2468.1 360.482 2469 368.751C2471.51 391.917 2474.35 418.148 2465.29 434.934C2456.28 451.62 2410.22 477.028 2392.12 485.151C2386.06 487.874 2380.09 491.655 2374.22 495.377C2370.98 497.432 2367.77 499.469 2364.59 501.3C2367.25 499.772 2353.28 489.293 2350.14 489.232C2358.67 486.052 2366.56 487.479 2373.82 493.508C2368.42 485.056 2360.83 482.145 2351.06 484.77C2354.91 480.202 2359.87 477.588 2365.98 476.922C2357.94 475.579 2351 477.952 2345.19 484.031C2349.26 472.399 2357.61 464.697 2370.23 460.918C2357.61 462.715 2347.79 468.744 2340.77 478.999C2339.2 467.921 2341.89 458.276 2348.86 450.075C2341.16 455.248 2336.14 462.2 2333.82 470.927C2331.96 460.364 2325.95 453.77 2315.78 451.145C2317.42 451.923 2332.13 476.032 2327.08 475.114C2325.28 467.77 2320.96 462.614 2314.1 459.653C2320 464.96 2323.78 471.559 2325.45 479.458C2317.19 471.1 2308.06 470.513 2298.07 477.695C2307.91 473.961 2315.51 476.536 2320.87 485.419C2313.03 480.074 2306.59 481.54 2301.56 489.819C2308.4 484.507 2314.87 484.35 2320.99 489.343C2313.26 487.155 2307.01 489.45 2302.26 496.234C2308.53 492.081 2315.21 491.185 2322.26 493.559C2318.71 493.878 2280.37 524.688 2273.95 530.392C2273.04 506.058 2272.13 481.714 2271.23 457.369C2277.04 460.7 2279.75 465.598 2279.35 472.069C2283.13 466.146 2282.4 460.437 2277.14 454.94C2284.93 457.722 2289.05 463.376 2289.52 471.901C2293.07 464.187 2290.7 458.142 2282.41 453.764C2290.4 454.817 2295.67 459.373 2298.25 467.428C2298.97 456.703 2294.25 450.697 2284.1 449.42C2292.63 446.263 2300.52 447.691 2307.78 453.714C2302.39 445.273 2294.81 442.35 2285.04 444.959C2288.88 440.402 2293.86 437.794 2299.96 437.128C2291.9 435.784 2284.97 438.152 2279.16 444.237C2283.23 432.605 2291.58 424.902 2304.19 421.118C2291.58 422.921 2281.77 428.944 2274.75 439.193C2273.18 428.127 2275.88 418.493 2282.81 410.287C2275.11 415.459 2270.11 422.406 2267.79 431.127C2265.93 420.564 2259.91 413.97 2249.75 411.345C2251.4 412.128 2266.11 436.238 2261.04 435.32C2259.25 427.975 2254.92 422.82 2248.06 419.853C2253.97 425.16 2257.75 431.765 2259.41 439.669C2251.16 431.312 2242.04 430.718 2232.04 437.9C2241.88 434.167 2249.48 436.747 2254.84 445.636C2246.99 440.279 2240.55 441.752 2235.53 450.047C2242.35 444.724 2248.83 444.55 2254.96 449.527C2247.22 447.36 2240.97 449.661 2236.22 456.434C2242.49 452.286 2249.16 451.391 2256.22 453.747C2248.52 456.558 2245.79 462.122 2248.02 470.44C2249.08 462.9 2253.36 458.354 2260.83 456.798C2256.25 462.155 2255.37 468.022 2258.2 474.386C2257.79 465.704 2261.23 459.983 2268.5 457.212C2268.78 464.767 2269.33 472.171 2269.86 479.307C2272.91 520.524 2275.3 552.807 2221.84 553.656C2225.26 545.086 2230.99 538.704 2239.03 534.512C2229.76 535.844 2223.14 540.703 2219.17 549.083C2220.9 538.665 2225.47 529.826 2232.89 522.56C2223.37 525.662 2217.02 531.981 2213.83 541.526C2212.38 542.533 2218.47 506.243 2224.63 499.873C2211.24 502.952 2204.35 526.182 2202.67 536.846C2197.04 529.071 2189.58 523.506 2180.31 520.153C2188.56 526.412 2194.41 534.517 2197.84 544.47C2194.02 545.131 2183.88 539.585 2174.82 534.629C2168.23 531.024 2162.21 527.732 2159.6 527.369C2173.41 533.538 2183.54 542.063 2189.36 555.705C2182.9 548.293 2175.12 545.752 2166.04 548.064C2173.55 548.847 2179.17 552.352 2182.89 558.565C2170.1 555.184 2160.21 559.002 2153.21 570.007C2163.25 563.911 2173.84 562.707 2185.02 566.402C2175.71 570.399 2170.69 577.452 2169.98 587.567C2174.21 578.639 2180.85 572.391 2189.9 568.815C2179.7 577.517 2178.74 581.547 2178.13 584.091C2177.39 587.204 2177.18 588.091 2161.21 592.588C2155.99 594.058 2147.77 592.66 2140.79 591.473C2138.18 591.028 2135.73 590.612 2133.69 590.388C2128.7 589.839 2124.33 589.729 2120.27 589.626C2110.71 589.386 2102.84 589.188 2092.5 583.413C2075.4 573.862 2060.32 544.631 2061.99 542.624L2062.06 542.561C2062.03 542.578 2062.01 542.599 2061.99 542.624C2047.19 555.646 2044.6 553.21 2054.24 535.322C2054.63 535.106 2054.68 535.058 2054.29 535.228L2054.24 535.322C2051.16 537.016 2026.93 549.038 2027.27 547.633C2025.24 543.154 2086.5 471.084 2097.04 514.987C2094.15 502.585 2095.57 498.975 2101.3 504.151C2102.35 505.332 2103.62 506.661 2105.1 508.141C2103.67 506.482 2102.4 505.153 2101.3 504.151C2093.05 494.918 2097.91 494.842 2115.89 503.92C2095.11 492.545 2098.62 487.435 2126.42 488.588C2110.09 486.025 2108.27 484.204 2106.51 484.257C2105.55 484.286 2104.6 484.87 2101.35 486.192C2104.74 481.232 2108.88 477 2113.77 473.496C2102.12 481.506 2102.06 481.058 2101.4 476.411C2101.12 474.432 2100.73 471.692 2099.3 468.52C2095.59 476.591 2092.83 478.95 2091.04 475.595C2091.36 469.771 2090.55 463.986 2088.61 458.237C2088.88 467.277 2089.68 473.063 2091.04 475.595C2090.9 478.209 2090.53 480.831 2089.93 483.46C2086.96 476.15 2081.6 471.867 2073.84 470.613C2085.5 481.22 2082.15 484.836 2063.8 481.468C2083.24 485.047 2084.85 487.745 2068.63 489.562C2081.34 490.793 2084.95 492.392 2079.46 494.364C2079.46 493.327 2076.28 493.928 2068.49 496.912C2073.61 496.002 2077.26 495.153 2079.46 494.364C2079.46 496.796 2061.96 508.243 2045.37 519.092C2031.33 528.276 2017.94 537.031 2016.38 539.527C2018.16 527.363 2023.9 520.909 2036.42 516.683C2027.25 516.056 2019.92 519.325 2014.43 526.479C2024.02 501.39 2033.61 476.301 2043.2 451.206C2046.33 451.53 2049 452.718 2051.2 454.77C2051.97 456.919 2053.87 460.39 2056.91 465.184C2055.61 460.584 2053.71 457.113 2051.2 454.77C2049.49 449.992 2053.39 451.748 2062.91 460.034C2053.07 446.644 2056.46 446 2073.09 458.108C2057.6 446.554 2058.23 441.578 2074.97 443.173C2068.92 438.471 2062.35 437.654 2055.22 440.722C2060.29 433.517 2067.19 428.899 2075.9 426.862C2074.35 426.819 2071.22 427.774 2067.82 428.808C2059.4 431.375 2049.37 434.428 2058.03 423.904C2058.31 423.586 2058.58 423.258 2058.86 422.921C2058.57 423.261 2058.29 423.589 2058.03 423.904C2049.36 434.048 2044.98 434.751 2044.91 426.01C2046.83 418.373 2048.12 410.612 2048.75 402.724C2046.15 413.396 2044.86 421.158 2044.91 426.01C2044.27 428.541 2043.56 431.058 2042.78 433.562C2041.78 430.774 2041.39 429.558 2040.63 428.661C2039.07 426.841 2035.99 426.33 2023.24 416.674C2043.36 436.674 2041.58 442.77 2017.93 434.978C2037.77 442.052 2041.21 445.71 2028.24 445.953C2026.59 445.802 2024.5 445.771 2021.98 445.86C2024.37 445.955 2026.46 445.986 2028.24 445.953C2033.83 446.465 2034.46 448.356 2030.13 451.626C2027.36 452.623 2024.64 454.253 2021.98 456.513C2025.58 454.637 2028.3 453.008 2030.13 451.626C2033.52 450.41 2036.98 450.133 2040.54 450.797C2035.06 465.111 2027.09 478.723 2019.34 491.969C2011.88 504.706 2004.62 517.106 1999.97 529.468C1999 527.554 1998.15 525.182 1997.26 522.672C1994.66 515.409 1991.66 506.981 1984.01 505.101C2017.2 541.839 1970.91 512.888 1968.21 510.917C1951.96 507.851 1934.48 497.955 1917.2 488.174C1885.09 469.995 1853.68 452.213 1832.17 479.407L1831.77 413.315C1840.45 416.187 1844.78 422.725 1844.74 432.924C1847.74 425.294 1846.41 418.459 1840.72 412.414C1849.6 413.836 1854.86 418.963 1856.48 427.802C1858.68 417.922 1855.2 411.535 1846 408.641C1854.17 405.478 1862.04 406.183 1869.62 410.762C1863.7 403.032 1856.26 400.647 1847.3 403.625C1854.22 397.44 1861.83 397.3 1870.11 403.211C1866.08 391.439 1855.1 395.313 1847.2 399.007C1848.21 389.659 1866.78 383.742 1873.59 388.797C1866.36 381.481 1846.84 381.867 1841.56 392.251C1843.11 382.902 1847.2 374.959 1853.86 368.432C1845.96 372.267 1841.15 378.536 1839.43 387.252C1833.49 388.584 1849.59 359.521 1851.46 358.536C1839.66 362.135 1832.94 370.179 1831.3 382.667C1826.79 380.191 1825.65 376.244 1824.49 372.192C1822.99 366.982 1821.44 361.598 1812.6 358.944C1821.17 368.231 1824.81 379.41 1823.54 392.475C1815.57 380.915 1801.59 374.657 1788.05 372.743L1788.19 372.806C1794.74 375.727 1819.35 386.708 1818.62 398.627C1811.48 391.786 1803.22 389.357 1793.84 391.338C1801.03 391.809 1807.01 394.613 1811.76 399.763C1800.15 397.188 1791.39 401.006 1785.49 411.221C1793.7 403.765 1802.9 401.683 1813.08 404.963C1801.23 406.967 1796 414.25 1797.39 426.811C1800.01 417.233 1805.97 411.613 1815.26 409.962C1805.76 415.515 1803.29 422.73 1807.87 431.608C1807.98 421.566 1812.54 414.714 1821.54 411.053C1815.64 417.776 1815.07 424.522 1819.8 431.289C1819 423.721 1821.92 417.832 1828.56 413.623C1828.6 419.126 1829.32 426.089 1830.1 433.533C1831.82 450.067 1833.79 468.974 1828.99 479.531C1820.12 498.983 1804.01 499.453 1787.27 499.94C1775.26 500.29 1762.92 500.65 1752.68 508.034C1752.66 504.706 1752.39 501.072 1752.1 497.343C1751.51 489.574 1750.88 481.389 1752.49 474.683C1758.66 480.012 1762.98 486.561 1765.44 494.337C1768.46 486.707 1767.13 479.861 1761.45 473.799C1768.63 476.961 1773.88 482.094 1777.2 489.192C1777.14 480.846 1773.64 474.453 1766.72 470.014C1774.78 468.873 1782.66 469.583 1790.33 472.136C1784.01 465.951 1776.57 463.577 1768.01 465.027C1775.32 461.164 1782.93 461.025 1790.83 464.607C1783.29 457.823 1774.57 455.539 1764.67 457.739C1767.74 450.053 1772.87 444.332 1780.08 440.576C1771.77 441.768 1765.84 446.123 1762.29 453.641C1763.81 444.282 1767.91 436.344 1774.58 429.834C1766.04 432.627 1760.34 438.309 1757.47 446.873C1756.16 447.786 1761.61 415.185 1767.15 409.469C1755.17 417.138 1748.6 428.205 1747.45 442.67C1742.4 435.678 1735.71 430.685 1727.37 427.69C1734.78 433.299 1740.04 440.57 1743.14 449.493C1739.71 450.098 1730.54 445.092 1722.38 440.632C1716.47 437.409 1711.09 434.471 1708.78 434.144C1721.14 439.664 1730.32 447.332 1735.5 459.586C1729.7 452.947 1722.72 450.669 1714.56 452.74C1721.3 453.445 1726.35 456.58 1729.7 462.144C1718.21 459.11 1709.33 462.542 1703.04 472.422C1712.06 466.947 1721.58 465.867 1731.62 469.186C1723.24 472.763 1718.74 479.094 1718.11 488.179C1721.9 480.169 1727.87 474.56 1735.99 471.364C1729.4 477.493 1726.93 484.697 1728.59 492.993C1730.39 484.25 1734.94 477.409 1742.26 472.472C1739.23 479.032 1738.65 485.772 1740.51 492.691C1740.97 485.587 1743.91 479.704 1749.31 475.047C1759.53 530.974 1696.33 561.935 1646.18 553.981C1637.06 552.534 1630.89 549.042 1624.48 545.416C1619.95 542.853 1615.31 540.222 1609.41 538.201C1606.61 537.235 1603.42 538.916 1600.04 540.697C1595.94 542.86 1591.57 545.17 1587.25 543.071C1578.29 538.715 1574.23 533.182 1570.94 528.696C1565.83 521.744 1562.58 517.309 1545.79 523.686L1545.5 433.25C1551.66 438.573 1555.73 448.413 1558.2 456.177C1561.24 448.553 1559.91 441.712 1554.21 435.661C1561.42 438.813 1566.67 443.946 1569.96 451.061C1569.91 442.703 1566.41 436.311 1559.48 431.877C1567.54 430.724 1575.41 431.424 1583.09 433.993C1576.77 427.796 1569.34 425.417 1560.77 426.862C1568.08 423.01 1575.69 422.87 1583.59 426.447C1576.05 419.68 1567.33 417.39 1557.44 419.579C1560.5 411.893 1565.63 406.178 1572.85 402.439C1564.54 403.625 1558.61 407.98 1555.04 415.498C1556.59 406.139 1560.69 398.201 1567.36 391.68C1558.81 394.473 1553.11 400.155 1550.23 408.719C1548.94 409.615 1554.39 377.036 1559.91 371.31C1547.94 378.99 1541.37 390.062 1540.2 404.521C1535.17 397.529 1527.83 399 1519.5 396C1552 410 1538.65 511.072 1541.75 520C1524.74 522.885 1500.76 481.067 1496 470C1496 470 1498.97 378.515 1495.5 375.75C1502.68 378.924 1513.14 385.556 1516.46 392.648C1516.4 384.308 1512.9 377.921 1505.98 373.487C1514.05 372.345 1521.92 373.05 1529.6 375.603C1523.28 369.406 1515.84 367.038 1507.27 368.488C1514.58 364.62 1522.18 364.48 1530.07 368.057C1522.54 361.278 1513.83 358.989 1503.93 361.183C1507 353.503 1512.14 347.788 1519.35 344.043C1511.03 345.23 1505.09 349.585 1501.52 357.108C1503.08 347.754 1507.19 339.817 1513.84 333.295C1505.31 336.094 1499.6 341.77 1496.72 350.329C1495.46 351.203 1500.86 318.68 1506.41 312.936C1494.43 320.6 1487.86 331.661 1486.7 346.12C1481.66 339.139 1474.97 334.152 1466.64 331.146C1474.04 336.766 1479.3 344.032 1482.4 352.949C1478.95 353.545 1469.87 348.585 1461.75 344.146C1455.83 340.91 1450.42 337.951 1448.06 337.622C1460.42 343.131 1469.58 350.799 1474.75 363.047C1468.96 356.408 1461.98 354.125 1453.83 356.196C1460.56 356.907 1465.61 360.041 1468.96 365.605C1457.48 362.577 1448.6 366.009 1442.31 375.894C1451.33 370.408 1460.85 369.328 1470.89 372.659C1462.52 376.236 1458.01 382.567 1457.36 391.652C1461.17 383.636 1467.14 378.021 1475.26 374.808C1468.67 380.943 1466.21 388.159 1467.84 396.455C1469.65 387.722 1474.21 380.882 1481.51 375.933C1478.5 382.494 1477.93 389.234 1479.77 396.152C1480.25 389.054 1483.18 383.171 1488.57 378.497C1488.66 393.612 1488.75 408.728 1488.84 423.842C1488.92 438.87 1489.01 453.897 1489.1 468.923C1474.38 461.414 1468.01 449.79 1461.22 437.422C1455.74 427.42 1449.99 416.932 1439.34 407.74C1426.1 396.311 1409.36 390.012 1392.8 383.781C1376.42 377.621 1360.22 371.526 1347.76 360.607C1346.26 359.294 1343.88 353.966 1341.29 348.164C1338.6 342.135 1335.68 335.595 1333.28 332.512C1330.12 328.454 1325.06 325.468 1320.68 322.879C1314.86 319.445 1310.23 316.709 1312.77 313.095C1313.86 312.201 1315.04 311.195 1316.31 310.076C1314.58 311.16 1313.43 312.157 1312.77 313.095C1301.09 322.667 1299.66 319.258 1308.49 302.869C1308.88 302.649 1308.93 302.6 1308.54 302.771L1308.49 302.869C1305.39 304.575 1281.17 316.579 1281.51 315.17C1279.44 310.552 1340.64 238.778 1351.3 282.518C1348.41 270.115 1349.83 266.507 1355.57 271.699C1356.62 272.872 1357.88 274.193 1359.35 275.661C1357.93 274.016 1356.67 272.695 1355.57 271.699C1347.3 262.445 1352.16 262.366 1370.14 271.457C1349.35 260.066 1352.87 254.955 1380.68 256.125C1364.23 253.503 1362.49 251.712 1360.8 251.77C1359.87 251.801 1358.96 252.396 1355.61 253.724C1358.99 248.758 1363.14 244.526 1368.04 241.028C1356.36 249.012 1356.3 248.581 1355.65 243.938C1355.37 241.964 1354.99 239.227 1353.56 236.051C1349.84 244.134 1347.08 246.5 1345.28 243.149C1345.61 237.317 1344.8 231.521 1342.85 225.763C1343.11 234.822 1343.92 240.617 1345.28 243.149C1345.14 245.753 1344.77 248.363 1344.18 250.981C1341.2 243.676 1335.84 239.393 1328.08 238.139C1339.78 248.766 1336.41 252.379 1317.99 248.991C1337.48 252.58 1339.11 255.276 1322.89 257.088C1335.6 258.306 1339.21 259.905 1333.73 261.882C1333.66 260.886 1330.46 261.499 1322.74 264.443C1327.86 263.529 1331.53 262.675 1333.73 261.882C1333.88 264.251 1316.33 275.719 1299.67 286.596C1285.62 295.777 1272.21 304.536 1270.65 307.042C1272.4 294.889 1278.18 288.435 1290.68 284.226C1281.51 283.593 1274.17 286.857 1268.67 294.01C1278.27 268.916 1287.87 243.827 1297.46 218.738C1300.58 219.044 1303.24 220.213 1305.43 222.245C1306.19 224.389 1308.1 227.879 1311.17 232.715C1309.87 228.077 1307.96 224.587 1305.43 222.245C1303.77 217.54 1307.68 219.31 1317.16 227.554C1307.3 214.198 1310.69 213.56 1327.34 225.634C1311.86 214.092 1312.49 209.115 1329.22 210.705C1323.18 206.02 1316.6 205.202 1309.48 208.259C1314.55 201.054 1321.44 196.436 1330.16 194.399C1328.61 194.358 1325.47 195.313 1322.08 196.346C1313.63 198.92 1303.58 201.979 1312.35 191.358C1312.6 191.064 1312.85 190.762 1313.11 190.452C1312.84 190.765 1312.59 191.066 1312.35 191.358C1303.64 201.549 1299.24 202.29 1299.15 193.583C1301.08 185.932 1302.37 178.157 1303.01 170.256C1300.39 180.96 1299.11 188.736 1299.15 193.583C1298.52 196.1 1297.82 198.603 1297.05 201.094C1296.02 198.263 1295.63 197.05 1294.87 196.161C1293.33 194.373 1290.27 193.892 1277.51 184.211C1297.62 204.217 1295.85 210.319 1272.19 202.515C1292.01 209.594 1295.45 213.249 1282.52 213.48C1280.87 213.326 1278.77 213.293 1276.24 213.381C1278.64 213.479 1280.74 213.512 1282.52 213.48C1288.08 213.999 1288.71 215.886 1284.4 219.145C1281.62 220.142 1278.9 221.777 1276.23 224.05C1279.85 222.166 1282.57 220.531 1284.4 219.145C1287.78 217.934 1291.24 217.663 1294.79 218.329C1290.92 228.442 1283.4 241.049 1275.8 253.791C1265.66 270.771 1255.39 287.989 1253.43 299.86C1253.32 287.769 1248.26 278.701 1238.26 272.644C1245.18 281.27 1248.64 291.055 1248.65 301.987C1246.6 295.567 1228.34 278.98 1221.85 277.799C1229.37 282.983 1234.14 290.053 1236.13 299.02C1228.36 290.506 1211.96 274.295 1199.53 274.39C1208.73 279.479 1215.71 286.789 1220.47 296.322C1192.92 284.59 1172.89 284.925 1150.98 285.291C1136.1 285.539 1120.35 285.802 1100.78 282.311C1079.23 278.464 1058.16 262.378 1040.68 249.025C1031.5 242.016 1023.31 235.76 1016.55 232.424C984.556 216.633 946.384 217.053 908.454 228.332C903.491 229.81 900.158 230.436 897.394 230.956C891.993 231.971 888.763 232.577 879.789 238.335C875.215 241.271 871.504 247.208 867.687 253.315C862.259 262 856.615 271.028 847.971 272.258C832.948 274.391 824.897 260.928 816.402 246.723C810.363 236.624 804.1 226.151 794.948 220.641C777.613 210.21 767.642 212.537 755.74 215.315C748.686 216.962 740.954 218.767 730.607 218.167C708.697 216.896 695.824 206.161 682.653 195.178C673.606 187.634 664.418 179.973 652.065 175.182C639.84 170.439 630.005 168.626 621.143 166.992C605.131 164.041 592.293 161.674 574.264 143.672C571.519 140.931 569.676 137.027 567.749 132.946C563.035 122.962 557.82 111.915 537.662 114.228C527.812 115.356 519.314 127.925 513.297 136.824C509.88 141.878 507.264 145.748 505.655 145.665C502.856 145.518 499.412 140.669 495.803 135.588C491.139 129.022 486.2 122.067 482.02 124.371C475.617 127.899 473.056 131.387 471.382 133.667C468.28 137.892 468.221 137.973 452.402 126.493C450.506 125.117 446.308 115.969 441.487 105.466C434.085 89.3356 425.215 70.0092 420.966 70.7279C413.481 71.9978 411.658 74.1835 410.178 75.9589C408.323 78.1826 407.005 79.7628 395.772 78.0945C380.87 75.8778 364.634 66.3448 351.773 57.7523C342.041 51.2547 334.763 44.1975 327.704 37.3528C317.497 27.4566 307.749 18.0046 291.706 11.3303C276.705 5.08944 260.215 2.68196 243.648 0.263187C228.295 -1.97819 212.876 -4.22926 198.515 -9.5493C194.692 -10.9668 189.95 -15.6303 185.186 -20.3156C179.715 -25.6954 174.215 -31.1038 170.046 -31.6603C165.088 -32.3195 158.798 -29.7111 152.308 -27.0202C145.846 -24.3407 139.186 -21.5795 133.45 -21.8811C127.748 -22.1811 121.466 -25.6594 115.391 -29.0238C109.109 -32.5026 103.047 -35.8597 98.0714 -35.4556ZM2193.7 590.224C2207.49 589.212 2207 586.967 2206.03 582.465C2205.3 579.078 2204.29 574.414 2208.88 568.035C2200.98 573.42 2195.91 580.815 2193.7 590.224ZM2220.37 585.276C2223.56 584.201 2226.61 582.824 2229.53 581.145C2226.45 577.607 2223.36 574.069 2220.27 570.537L2220.37 585.276ZM2216.71 570.912C2219.95 581.884 2217.24 586.843 2207.16 588.607C2208.73 585.708 2210.29 582.81 2211.86 579.913L2216.71 570.912Z" fill="#53A4C1"/>
<path d="M3103.97 34.62C3100.52 33.5369 3097.02 33.394 3093.48 34.1914C3099.52 48.1432 3108.08 61.4264 3116.4 74.3426C3124.45 86.8299 3132.28 98.9743 3137.39 111.048C3138.28 109.087 3139.03 106.672 3139.82 104.117C3142.11 96.7529 3178 92 3178 92V2156L-2 2164L3.38306 -6.14874C14 -9.99998 88.3742 -34.6607 98.0714 -35.4556C103.047 -35.8597 109.109 -32.5026 115.391 -29.0238C121.466 -25.6594 127.748 -22.1811 133.45 -21.8811C139.186 -21.5795 145.846 -24.3407 152.308 -27.0202C158.798 -29.7111 165.088 -32.3195 170.046 -31.6603C174.215 -31.1038 179.715 -25.6954 185.186 -20.3156C189.95 -15.6303 194.692 -10.9668 198.515 -9.5493C212.876 -4.22926 228.295 -1.97819 243.648 0.263187C260.215 2.68196 276.705 5.08944 291.706 11.3303C307.749 18.0046 317.497 27.4566 327.704 37.3528C334.763 44.1975 342.041 51.2547 351.773 57.7523C364.634 66.3448 380.87 75.8778 395.772 78.0945C407.005 79.7628 408.323 78.1826 410.178 75.9589C411.658 74.1835 413.481 71.9978 420.966 70.7279C425.215 70.0092 434.085 89.3356 441.487 105.466C446.308 115.969 450.506 125.117 452.402 126.493C468.221 137.973 468.28 137.892 471.382 133.667C473.056 131.387 475.617 127.899 482.02 124.371C486.2 122.067 491.139 129.022 495.803 135.588C499.412 140.669 502.856 145.518 505.655 145.665C507.264 145.748 509.88 141.878 513.297 136.824C519.314 127.925 527.812 115.356 537.662 114.228C557.82 111.915 563.035 122.962 567.749 132.946C569.676 137.027 571.519 140.931 574.264 143.672C592.293 161.674 605.131 164.041 621.143 166.992C630.005 168.626 639.84 170.439 652.065 175.182C664.418 179.973 673.606 187.634 682.653 195.178C695.824 206.161 708.697 216.896 730.607 218.167C740.954 218.767 748.686 216.962 755.74 215.315C767.642 212.537 777.613 210.21 794.948 220.641C804.1 226.151 810.363 236.624 816.402 246.723C824.897 260.928 832.948 274.391 847.971 272.258C856.615 271.028 862.259 262 867.687 253.315C871.504 247.208 875.215 241.271 879.789 238.335C888.763 232.577 891.993 231.971 897.394 230.956C900.158 230.436 903.491 229.81 908.454 228.332C946.384 217.053 984.556 216.633 1016.55 232.424C1023.31 235.76 1031.5 242.016 1040.68 249.025C1058.16 262.378 1079.23 278.464 1100.78 282.311C1120.35 285.802 1136.1 285.539 1150.98 285.291C1172.89 284.925 1192.92 284.59 1220.47 296.322C1215.71 286.789 1208.73 279.479 1199.53 274.39C1211.96 274.295 1228.36 290.506 1236.13 299.02C1234.14 290.053 1229.37 282.983 1221.85 277.799C1228.34 278.98 1246.6 295.567 1248.65 301.987C1248.64 291.055 1245.18 281.27 1238.26 272.644C1248.26 278.701 1253.32 287.769 1253.43 299.86C1255.39 287.989 1265.66 270.771 1275.8 253.791C1283.4 241.049 1290.92 228.442 1294.79 218.329C1291.24 217.663 1287.78 217.934 1284.4 219.145M3103.97 34.62C3105.86 35.9135 3108.63 37.4108 3112.28 39.1118C3109.54 36.9959 3106.77 35.4986 3103.97 34.62ZM3103.97 34.62C3099.43 31.5118 3099.97 29.5802 3105.59 28.8252M3105.59 28.8252C3107.36 28.7816 3109.43 28.6615 3111.8 28.465C3109.3 28.485 3107.23 28.6051 3105.59 28.8252ZM3105.59 28.8252C3092.6 29.146 3095.86 25.3432 3115.39 17.4206C3092.1 26.2203 3090.07 20.2027 3109.29 -0.637691C3097 9.53736 3093.92 10.1974 3092.43 12.1008C3091.7 13.0362 3091.36 14.2719 3090.49 17.0847C3089.61 14.6339 3088.8 12.1667 3088.06 9.68316M3088.06 9.68316C3087.91 4.83926 3086.29 -2.87964 3083.2 -13.4733C3084.18 -5.60454 3085.8 2.11507 3088.06 9.68316ZM3088.06 9.68316C3088.34 18.3024 3083.97 17.8186 3074.96 8.2303M3074.96 8.2303C3074.65 7.88336 3074.31 7.52116 3073.95 7.14316C3074.29 7.5177 3074.63 7.88007 3074.96 8.2303ZM3074.96 8.2303C3083.92 18.1947 3073.72 15.5765 3065.21 13.3913C3061.79 12.5124 3058.64 11.7036 3057.12 11.8117C3065.92 13.4686 3073 17.7901 3078.38 24.7704C3071.14 22.0163 3064.6 23.1135 3058.76 28.0619C3075.42 25.75 3076.26 30.6984 3061.28 42.9071C3077.35 30.0939 3080.77 30.5921 3071.52 44.3961C3080.68 35.7051 3084.5 33.7802 3083 38.6213M3083 38.6213C3080.58 41.0718 3078.83 44.6249 3077.73 49.2829C3080.57 44.356 3082.32 40.8021 3083 38.6213ZM3083 38.6213C3085.11 36.4836 3087.72 35.1848 3090.83 34.7232C3101.44 59.2477 3112.05 83.7667 3122.66 108.286L3122.7 108.386L3122.83 108.686C3117.03 101.767 3109.56 98.8229 3100.42 99.8473C3113.11 103.519 3119.15 109.733 3121.44 121.802C3114.51 111.709 3091.91 101.265 3073.01 92.5344C3063.95 88.3512 3055.75 84.5612 3050.53 81.3916L3067.55 81.4755C3049.53 79.0685 3049.37 76.6223 3067.07 74.1425C3050.83 73.0163 3052.29 70.2635 3071.43 65.8783M3071.43 65.8783C3053.37 69.9868 3049.92 66.5038 3061.06 55.4348C3053.37 57.0246 3048.2 61.5364 3045.55 68.9646C3044.84 66.3668 3044.36 63.7668 3044.1 61.1645M3071.43 65.8783L3071.67 65.8242M3044.1 61.1645C3045.35 58.5823 3045.92 52.7616 3045.79 43.702C3044.1 49.5356 3043.54 55.3558 3044.1 61.1645ZM3044.1 61.1645C3042.45 64.5766 3039.59 62.3342 3035.53 54.4384C3034.24 57.6652 3033.97 60.4171 3033.78 62.4061C3033.33 67.0833 3033.28 67.5418 3021.29 60.0362C3026.33 63.3277 3030.65 67.3804 3034.26 72.1889C3030.95 71.0073 3029.98 70.4652 3029.02 70.4786C3027.25 70.5033 3025.51 72.4041 3009.31 75.6595C3037.04 73.3084 3040.76 78.268 3020.49 90.5271C3038.04 80.6804 3042.91 80.5398 3035.09 90.1052M3035.09 90.1052C3034.03 91.155 3032.81 92.544 3031.45 94.272C3032.87 92.7229 3034.09 91.3339 3035.09 90.1052ZM3035.09 90.1052C3040.56 84.7137 3042.13 88.2656 3039.8 100.771C3045.28 73.0656 3066.27 90.1975 3083.93 104.603C3088.83 108.604 3093.48 112.394 3097.46 114.956C3096.73 115.386 3098.22 116.142 3100.47 117.281C3105.27 119.713 3113.51 123.889 3110.91 130.366C3110.9 130.322 3101.54 126.528 3093.72 123.356C3088.59 121.273 3084.11 119.459 3083.39 119.152M3083.39 119.152L3083.38 119.143C3083.25 119.091 3083.25 119.096 3083.39 119.152ZM3083.39 119.152C3093.59 136.245 3091.5 139.113 3077.13 127.763M3077.13 127.763C3076.82 127.405 3076.42 127.085 3075.93 126.806C3076.34 127.136 3076.74 127.455 3077.13 127.763ZM3077.13 127.763C3081.58 132.939 3067.36 146.015 3055.4 157.009C3054.37 157.96 3053.35 158.896 3052.36 159.81C3020.12 189.652 2983.96 216.202 2937.18 230.409L2934.71 163.298C2940.91 168.229 2944.46 174.633 2945.34 182.492C2947.06 174.711 2946.09 167.238 2942.43 160.079C2950.79 165.24 2956.2 172.64 2958.64 182.274C2960.05 172.971 2956.95 165.072 2949.34 158.562C2958.54 161.736 2965.44 167.692 2970.05 176.43C2968.9 166.354 2963.58 159.519 2954.1 155.931C2965.11 151.761 2975.75 152.505 2986.05 158.17C2978.58 147.467 2968.52 144.081 2955.89 148.016C2959.35 141.646 2964.82 137.906 2972.29 136.798C2963.11 134.878 2955.46 137.755 2949.33 145.43C2954.52 131.553 2964.33 122.58 2977.83 115.84C2975.22 116.321 2969.33 119.879 2962.9 123.769C2954.08 129.108 2944.22 135.073 2940.33 134.581C2943.36 124.494 2948.85 116.142 2956.83 109.526C2947.7 113.282 2940.5 119.16 2935.2 127.164C2933.06 116.59 2925.19 93.673 2911.67 91.182C2918.11 97.2779 2925.78 133.277 2924.27 132.331C2920.67 122.932 2914.04 116.887 2904.4 114.2C2912.13 121.135 2917.08 129.773 2919.24 140.112C2914.92 131.906 2908.1 127.338 2898.79 126.403C2907 130.249 2912.99 136.378 2916.78 144.792C2905.66 142.804 2896.06 145.771 2887.99 153.675C2896.62 149.303 2905.09 149.096 2913.42 153.048C2903.81 151.839 2895.63 154.839 2888.89 162.044C2897.31 158.831 2906.03 157.666 2915.07 158.556C2910.73 161.193 2899.54 179.877 2894.37 188.503C2893.34 190.226 2892.54 191.548 2892.1 192.26C2890.55 181.199 2893.24 171.565 2900.17 163.359C2892.47 168.532 2887.47 175.478 2885.17 184.205C2883.3 173.642 2877.28 167.054 2867.12 164.44C2868.85 165.257 2883.37 189.316 2878.4 188.398C2876.62 181.042 2872.29 175.887 2865.42 172.937C2871.33 178.238 2875.12 184.843 2876.78 192.753C2868.52 184.39 2859.39 183.802 2849.39 190.99C2859.24 187.239 2866.85 189.814 2872.21 198.703C2864.36 193.346 2857.92 194.819 2852.91 203.12C2859.72 197.791 2866.2 197.623 2872.3 202.627C2864.58 200.439 2858.34 202.728 2853.59 209.496C2859.86 205.342 2866.53 204.463 2873.58 206.848C2865.86 209.647 2863.13 215.211 2865.37 223.529C2866.44 215.972 2870.72 211.416 2878.2 209.865C2873.6 215.222 2872.72 221.094 2875.56 227.47C2875.14 218.771 2878.57 213.045 2885.88 210.291C2885.92 211.569 2885.97 212.834 2886.02 214.085C2887.4 249.613 2888.35 274.202 2845.33 288.239C2834.67 291.715 2823.66 290.473 2812.59 289.226C2801 287.919 2789.35 286.605 2777.97 290.691C2763.11 296.03 2754.2 305.554 2744.93 315.462C2739.6 321.156 2734.15 326.978 2727.39 332.204C2704.94 349.548 2682.1 351.603 2660.54 353.542C2642.29 355.183 2624.95 356.742 2609.55 367.419C2603.04 371.935 2599.68 379.835 2596.29 387.823C2591.78 398.43 2587.21 409.194 2575.08 412.403C2566.39 414.706 2557.7 411.285 2548.65 407.723C2539.48 404.115 2529.95 400.361 2519.66 402.254C2519.02 384.993 2518.38 367.733 2517.75 350.472C2517.11 333.211 2516.48 315.951 2515.84 298.69C2522.03 303.633 2525.57 310.037 2526.44 317.896C2528.17 310.115 2527.2 302.648 2523.54 295.494C2531.92 300.649 2537.32 308.05 2539.75 317.689C2541.16 308.38 2538.06 300.47 2530.44 293.966C2539.64 297.14 2546.55 303.101 2551.17 311.839C2550.02 301.758 2544.7 294.923 2535.21 291.34C2546.21 287.176 2556.86 287.915 2567.16 293.574C2559.7 282.86 2549.65 279.473 2537.01 283.414C2540.47 277.044 2545.93 273.31 2553.4 272.207C2544.23 270.282 2536.57 273.159 2530.44 280.833C2535.6 266.951 2545.45 257.978 2558.95 251.249C2556.34 251.728 2550.46 255.284 2544.02 259.174C2535.19 264.51 2525.33 270.475 2521.46 269.979C2524.47 259.887 2529.97 251.54 2537.95 244.946C2528.81 248.68 2521.61 254.552 2516.34 262.574C2514.18 251.994 2506.3 229.082 2492.79 226.58C2499.22 232.676 2506.89 268.692 2505.39 267.74C2501.78 258.342 2495.16 252.296 2485.51 249.609C2493.24 256.539 2498.2 265.176 2500.36 275.516C2496.04 267.315 2489.22 262.747 2479.91 261.807C2488.11 265.658 2494.11 271.787 2497.9 280.19C2486.77 278.208 2477.17 281.175 2469.1 289.084C2477.72 284.718 2486.2 284.505 2494.52 288.446C2484.91 287.248 2476.74 290.249 2470 297.447C2478.43 294.229 2487.15 293.064 2496.19 293.966C2491.84 296.594 2480.43 315.664 2475.34 324.171C2474.38 325.775 2473.64 327.003 2473.22 327.675C2471.65 316.603 2474.34 306.964 2481.3 298.757C2473.6 303.935 2468.59 310.888 2466.27 319.609C2464.4 309.046 2458.39 302.457 2448.22 299.827C2449.89 300.621 2464.54 324.72 2459.51 323.796C2457.74 316.446 2453.41 311.291 2446.54 308.341C2452.45 313.642 2456.23 320.247 2457.89 328.157C2449.63 319.794 2440.5 319.2 2430.5 326.371C2440.36 322.632 2447.96 325.218 2453.32 334.118C2445.47 328.756 2439.04 330.222 2434.01 338.507C2440.83 333.195 2447.31 333.027 2453.42 338.014C2445.7 335.831 2439.45 338.132 2434.7 344.905C2440.97 340.757 2447.65 339.867 2454.7 342.235C2447 345.051 2444.25 350.62 2446.48 358.939C2447.54 351.37 2451.82 346.814 2459.32 345.269C2454.71 350.626 2453.83 356.492 2456.67 362.863C2456.26 354.18 2459.7 348.448 2466.99 345.683C2467.25 352.603 2468.1 360.482 2469 368.751C2471.51 391.917 2474.35 418.148 2465.29 434.934C2456.28 451.62 2410.22 477.028 2392.12 485.151C2386.06 487.874 2380.09 491.655 2374.22 495.377C2370.98 497.432 2367.77 499.469 2364.59 501.3C2367.25 499.772 2353.28 489.293 2350.14 489.232C2358.67 486.052 2366.56 487.479 2373.82 493.508C2368.42 485.056 2360.83 482.145 2351.06 484.77C2354.91 480.202 2359.87 477.588 2365.98 476.922C2357.94 475.579 2351 477.952 2345.19 484.031C2349.26 472.399 2357.61 464.697 2370.23 460.918C2357.61 462.715 2347.79 468.744 2340.77 478.999C2339.2 467.921 2341.89 458.276 2348.86 450.075C2341.16 455.248 2336.14 462.2 2333.82 470.927C2331.96 460.364 2325.95 453.77 2315.78 451.145C2317.42 451.923 2332.13 476.032 2327.08 475.114C2325.28 467.77 2320.96 462.614 2314.1 459.653C2320 464.96 2323.78 471.559 2325.45 479.458C2317.19 471.1 2308.06 470.513 2298.07 477.695C2307.91 473.961 2315.51 476.536 2320.87 485.419C2313.03 480.074 2306.59 481.54 2301.56 489.819C2308.4 484.507 2314.87 484.35 2320.99 489.343C2313.26 487.155 2307.01 489.45 2302.26 496.234C2308.53 492.081 2315.21 491.185 2322.26 493.559C2318.71 493.878 2280.37 524.688 2273.95 530.392C2273.04 506.058 2272.13 481.714 2271.23 457.369C2277.04 460.7 2279.75 465.598 2279.35 472.069C2283.13 466.146 2282.4 460.437 2277.14 454.94C2284.93 457.722 2289.05 463.376 2289.52 471.901C2293.07 464.187 2290.7 458.142 2282.41 453.764C2290.4 454.817 2295.67 459.373 2298.25 467.428C2298.97 456.703 2294.25 450.697 2284.1 449.42C2292.63 446.263 2300.52 447.691 2307.78 453.714C2302.39 445.273 2294.81 442.35 2285.04 444.959C2288.88 440.402 2293.86 437.794 2299.96 437.128C2291.9 435.784 2284.97 438.152 2279.16 444.237C2283.23 432.605 2291.58 424.902 2304.19 421.118C2291.58 422.921 2281.77 428.944 2274.75 439.193C2273.18 428.127 2275.88 418.493 2282.81 410.287C2275.11 415.459 2270.11 422.406 2267.79 431.127C2265.93 420.564 2259.91 413.97 2249.75 411.345C2251.4 412.128 2266.11 436.238 2261.04 435.32C2259.25 427.975 2254.92 422.82 2248.06 419.853C2253.97 425.16 2257.75 431.765 2259.41 439.669C2251.16 431.312 2242.04 430.718 2232.04 437.9C2241.88 434.167 2249.48 436.747 2254.84 445.636C2246.99 440.279 2240.55 441.752 2235.53 450.047C2242.35 444.724 2248.83 444.55 2254.96 449.527C2247.22 447.36 2240.97 449.661 2236.22 456.434C2242.49 452.286 2249.16 451.391 2256.22 453.747C2248.52 456.558 2245.79 462.122 2248.02 470.44C2249.08 462.9 2253.36 458.354 2260.83 456.798C2256.25 462.155 2255.37 468.022 2258.2 474.386C2257.79 465.704 2261.23 459.983 2268.5 457.212C2268.78 464.767 2269.33 472.171 2269.86 479.307C2272.91 520.524 2275.3 552.807 2221.84 553.656C2225.26 545.086 2230.99 538.704 2239.03 534.512C2229.76 535.844 2223.14 540.703 2219.17 549.083C2220.9 538.665 2225.47 529.826 2232.89 522.56C2223.37 525.662 2217.02 531.981 2213.83 541.526C2212.38 542.533 2218.47 506.243 2224.63 499.873C2211.24 502.952 2204.35 526.182 2202.67 536.846C2197.04 529.071 2189.58 523.506 2180.31 520.153C2188.56 526.412 2194.41 534.517 2197.84 544.47C2194.02 545.131 2183.88 539.585 2174.82 534.629C2168.23 531.024 2162.21 527.732 2159.6 527.369C2173.41 533.538 2183.54 542.063 2189.36 555.705C2182.9 548.293 2175.12 545.752 2166.04 548.064C2173.55 548.847 2179.17 552.352 2182.89 558.565C2170.1 555.184 2160.21 559.002 2153.21 570.007C2163.25 563.911 2173.84 562.707 2185.02 566.402C2175.71 570.399 2170.69 577.452 2169.98 587.567C2174.21 578.639 2180.85 572.391 2189.9 568.815C2179.7 577.517 2178.74 581.547 2178.13 584.091C2177.39 587.204 2177.18 588.091 2161.21 592.588C2155.99 594.058 2147.77 592.66 2140.79 591.473C2138.18 591.028 2135.73 590.612 2133.69 590.388C2128.7 589.839 2124.33 589.729 2120.27 589.626C2110.71 589.386 2102.84 589.188 2092.5 583.413C2075.4 573.862 2060.32 544.631 2061.99 542.624M2061.99 542.624L2062.06 542.561C2062.03 542.578 2062.01 542.599 2061.99 542.624ZM2061.99 542.624C2047.19 555.646 2044.6 553.21 2054.24 535.322M2054.24 535.322C2054.63 535.106 2054.68 535.058 2054.29 535.228L2054.24 535.322ZM2054.24 535.322C2051.16 537.016 2026.93 549.038 2027.27 547.633C2025.24 543.154 2086.5 471.084 2097.04 514.987C2094.15 502.585 2095.57 498.975 2101.3 504.151M2101.3 504.151C2102.35 505.332 2103.62 506.661 2105.1 508.141C2103.67 506.482 2102.4 505.153 2101.3 504.151ZM2101.3 504.151C2093.05 494.918 2097.91 494.842 2115.89 503.92C2095.11 492.545 2098.62 487.435 2126.42 488.588C2110.09 486.025 2108.27 484.204 2106.51 484.257C2105.55 484.286 2104.6 484.87 2101.35 486.192C2104.74 481.232 2108.88 477 2113.77 473.496C2102.12 481.506 2102.06 481.058 2101.4 476.411C2101.12 474.432 2100.73 471.692 2099.3 468.52C2095.59 476.591 2092.83 478.95 2091.04 475.595M2091.04 475.595C2091.36 469.771 2090.55 463.986 2088.61 458.237C2088.88 467.277 2089.68 473.063 2091.04 475.595ZM2091.04 475.595C2090.9 478.209 2090.53 480.831 2089.93 483.46C2086.96 476.15 2081.6 471.867 2073.84 470.613C2085.5 481.22 2082.15 484.836 2063.8 481.468M2063.8 481.468C2083.24 485.047 2084.85 487.745 2068.63 489.562C2081.34 490.793 2084.95 492.392 2079.46 494.364M2063.8 481.468L2063.7 481.451M2079.46 494.364C2079.46 493.327 2076.28 493.928 2068.49 496.912C2073.61 496.002 2077.26 495.153 2079.46 494.364ZM2079.46 494.364C2079.46 496.796 2061.96 508.243 2045.37 519.092C2031.33 528.276 2017.94 537.031 2016.38 539.527C2018.16 527.363 2023.9 520.909 2036.42 516.683C2027.25 516.056 2019.92 519.325 2014.43 526.479C2024.02 501.39 2033.61 476.301 2043.2 451.206C2046.33 451.53 2049 452.718 2051.2 454.77M2051.2 454.77C2051.97 456.919 2053.87 460.39 2056.91 465.184C2055.61 460.584 2053.71 457.113 2051.2 454.77ZM2051.2 454.77C2049.49 449.992 2053.39 451.748 2062.91 460.034C2053.07 446.644 2056.46 446 2073.09 458.108C2057.6 446.554 2058.23 441.578 2074.97 443.173C2068.92 438.471 2062.35 437.654 2055.22 440.722C2060.29 433.517 2067.19 428.899 2075.9 426.862C2074.35 426.819 2071.22 427.774 2067.82 428.808C2059.4 431.375 2049.37 434.428 2058.03 423.904M2058.03 423.904C2058.31 423.586 2058.58 423.258 2058.86 422.921C2058.57 423.261 2058.29 423.589 2058.03 423.904ZM2058.03 423.904C2049.36 434.048 2044.98 434.751 2044.91 426.01M2044.91 426.01C2046.83 418.373 2048.12 410.612 2048.75 402.724C2046.15 413.396 2044.86 421.158 2044.91 426.01ZM2044.91 426.01C2044.27 428.541 2043.56 431.058 2042.78 433.562C2041.78 430.774 2041.39 429.558 2040.63 428.661C2039.07 426.841 2035.99 426.33 2023.24 416.674C2043.36 436.674 2041.58 442.77 2017.93 434.978C2037.77 442.052 2041.21 445.71 2028.24 445.953M2028.24 445.953C2026.59 445.802 2024.5 445.771 2021.98 445.86C2024.37 445.955 2026.46 445.986 2028.24 445.953ZM2028.24 445.953C2033.83 446.465 2034.46 448.356 2030.13 451.626M2030.13 451.626C2027.36 452.623 2024.64 454.253 2021.98 456.513C2025.58 454.637 2028.3 453.008 2030.13 451.626ZM2030.13 451.626C2033.52 450.41 2036.98 450.133 2040.54 450.797C2035.06 465.111 2027.09 478.723 2019.34 491.969C2011.88 504.706 2004.62 517.106 1999.97 529.468C1999 527.554 1998.15 525.182 1997.26 522.672C1994.66 515.409 1991.66 506.981 1984.01 505.101C2017.2 541.839 1970.91 512.888 1968.21 510.917C1951.96 507.851 1934.48 497.955 1917.2 488.174C1885.09 469.995 1853.68 452.213 1832.17 479.407L1831.77 413.315C1840.45 416.187 1844.78 422.725 1844.74 432.924C1847.74 425.294 1846.41 418.459 1840.72 412.414C1849.6 413.836 1854.86 418.963 1856.48 427.802C1858.68 417.922 1855.2 411.535 1846 408.641C1854.17 405.478 1862.04 406.183 1869.62 410.762C1863.7 403.032 1856.26 400.647 1847.3 403.625C1854.22 397.44 1861.83 397.3 1870.11 403.211C1866.08 391.439 1855.1 395.313 1847.2 399.007C1848.21 389.659 1866.78 383.742 1873.59 388.797C1866.36 381.481 1846.84 381.867 1841.56 392.251C1843.11 382.902 1847.2 374.959 1853.86 368.432C1845.96 372.267 1841.15 378.536 1839.43 387.252C1833.49 388.584 1849.59 359.521 1851.46 358.536C1839.66 362.135 1832.94 370.179 1831.3 382.667C1826.79 380.191 1825.65 376.244 1824.49 372.192C1822.99 366.982 1821.44 361.598 1812.6 358.944C1821.17 368.231 1824.81 379.41 1823.54 392.475C1815.57 380.915 1801.59 374.657 1788.05 372.743L1788.19 372.806C1794.74 375.727 1819.35 386.708 1818.62 398.627C1811.48 391.786 1803.22 389.357 1793.84 391.338C1801.03 391.809 1807.01 394.613 1811.76 399.763C1800.15 397.188 1791.39 401.006 1785.49 411.221C1793.7 403.765 1802.9 401.683 1813.08 404.963C1801.23 406.967 1796 414.25 1797.39 426.811C1800.01 417.233 1805.97 411.613 1815.26 409.962C1805.76 415.515 1803.29 422.73 1807.87 431.608C1807.98 421.566 1812.54 414.714 1821.54 411.053C1815.64 417.776 1815.07 424.522 1819.8 431.289C1819 423.721 1821.92 417.832 1828.56 413.623C1828.6 419.126 1829.32 426.089 1830.1 433.533C1831.82 450.067 1833.79 468.974 1828.99 479.531C1820.12 498.983 1804.01 499.453 1787.27 499.94C1775.26 500.29 1762.92 500.65 1752.68 508.034C1752.66 504.706 1752.39 501.072 1752.1 497.343C1751.51 489.574 1750.88 481.389 1752.49 474.683C1758.66 480.012 1762.98 486.561 1765.44 494.337C1768.46 486.707 1767.13 479.861 1761.45 473.799C1768.63 476.961 1773.88 482.094 1777.2 489.192C1777.14 480.846 1773.64 474.453 1766.72 470.014C1774.78 468.873 1782.66 469.583 1790.33 472.136C1784.01 465.951 1776.57 463.577 1768.01 465.027C1775.32 461.164 1782.93 461.025 1790.83 464.607C1783.29 457.823 1774.57 455.539 1764.67 457.739C1767.74 450.053 1772.87 444.332 1780.08 440.576C1771.77 441.768 1765.84 446.123 1762.29 453.641C1763.81 444.282 1767.91 436.344 1774.58 429.834C1766.04 432.627 1760.34 438.309 1757.47 446.873C1756.16 447.786 1761.61 415.185 1767.15 409.469C1755.17 417.138 1748.6 428.205 1747.45 442.67C1742.4 435.678 1735.71 430.685 1727.37 427.69C1734.78 433.299 1740.04 440.57 1743.14 449.493C1739.71 450.098 1730.54 445.092 1722.38 440.632C1716.47 437.409 1711.09 434.471 1708.78 434.144C1721.14 439.664 1730.32 447.332 1735.5 459.586C1729.7 452.947 1722.72 450.669 1714.56 452.74C1721.3 453.445 1726.35 456.58 1729.7 462.144C1718.21 459.11 1709.33 462.542 1703.04 472.422C1712.06 466.947 1721.58 465.867 1731.62 469.186C1723.24 472.763 1718.74 479.094 1718.11 488.179C1721.9 480.169 1727.87 474.56 1735.99 471.364C1729.4 477.493 1726.93 484.697 1728.59 492.993C1730.39 484.25 1734.94 477.409 1742.26 472.472C1739.23 479.032 1738.65 485.772 1740.51 492.691C1740.97 485.587 1743.91 479.704 1749.31 475.047C1759.53 530.974 1696.33 561.935 1646.18 553.981C1637.06 552.534 1630.89 549.042 1624.48 545.416C1619.95 542.853 1615.31 540.222 1609.41 538.201C1606.61 537.235 1603.42 538.916 1600.04 540.697C1595.94 542.86 1591.57 545.17 1587.25 543.071C1578.29 538.715 1574.23 533.182 1570.94 528.696C1565.83 521.744 1562.58 517.309 1545.79 523.686L1545.5 433.25C1551.66 438.573 1555.73 448.413 1558.2 456.177C1561.24 448.553 1559.91 441.712 1554.21 435.661C1561.42 438.813 1566.67 443.946 1569.96 451.061C1569.91 442.703 1566.41 436.311 1559.48 431.877C1567.54 430.724 1575.41 431.424 1583.09 433.993C1576.77 427.796 1569.34 425.417 1560.77 426.862C1568.08 423.01 1575.69 422.87 1583.59 426.447C1576.05 419.68 1567.33 417.39 1557.44 419.579C1560.5 411.893 1565.63 406.178 1572.85 402.439C1564.54 403.625 1558.61 407.98 1555.04 415.498C1556.59 406.139 1560.69 398.201 1567.36 391.68C1558.81 394.473 1553.11 400.155 1550.23 408.719C1548.94 409.615 1554.39 377.036 1559.91 371.31C1547.94 378.99 1541.37 390.062 1540.2 404.521C1535.17 397.529 1527.83 399 1519.5 396C1552 410 1538.65 511.072 1541.75 520C1524.74 522.885 1500.76 481.067 1496 470C1496 470 1498.97 378.515 1495.5 375.75C1502.68 378.924 1513.14 385.556 1516.46 392.648C1516.4 384.308 1512.9 377.921 1505.98 373.487C1514.05 372.345 1521.92 373.05 1529.6 375.603C1523.28 369.406 1515.84 367.038 1507.27 368.488C1514.58 364.62 1522.18 364.48 1530.07 368.057C1522.54 361.278 1513.83 358.989 1503.93 361.183C1507 353.503 1512.14 347.788 1519.35 344.043C1511.03 345.23 1505.09 349.585 1501.52 357.108C1503.08 347.754 1507.19 339.817 1513.84 333.295C1505.31 336.094 1499.6 341.77 1496.72 350.329C1495.46 351.203 1500.86 318.68 1506.41 312.936C1494.43 320.6 1487.86 331.661 1486.7 346.12C1481.66 339.139 1474.97 334.152 1466.64 331.146C1474.04 336.766 1479.3 344.032 1482.4 352.949C1478.95 353.545 1469.87 348.585 1461.75 344.146C1455.83 340.91 1450.42 337.951 1448.06 337.622C1460.42 343.131 1469.58 350.799 1474.75 363.047C1468.96 356.408 1461.98 354.125 1453.83 356.196C1460.56 356.907 1465.61 360.041 1468.96 365.605C1457.48 362.577 1448.6 366.009 1442.31 375.894C1451.33 370.408 1460.85 369.328 1470.89 372.659C1462.52 376.236 1458.01 382.567 1457.36 391.652C1461.17 383.636 1467.14 378.021 1475.26 374.808C1468.67 380.943 1466.21 388.159 1467.84 396.455C1469.65 387.722 1474.21 380.882 1481.51 375.933C1478.5 382.494 1477.93 389.234 1479.77 396.152C1480.25 389.054 1483.18 383.171 1488.57 378.497C1488.66 393.612 1488.75 408.728 1488.84 423.842C1488.92 438.87 1489.01 453.897 1489.1 468.923C1474.38 461.414 1468.01 449.79 1461.22 437.422C1455.74 427.42 1449.99 416.932 1439.34 407.74C1426.1 396.311 1409.36 390.012 1392.8 383.781C1376.42 377.621 1360.22 371.526 1347.76 360.607C1346.26 359.294 1343.88 353.966 1341.29 348.164C1338.6 342.135 1335.68 335.595 1333.28 332.512C1330.12 328.454 1325.06 325.468 1320.68 322.879C1314.86 319.445 1310.23 316.709 1312.77 313.095M1312.77 313.095C1313.86 312.201 1315.04 311.195 1316.31 310.076C1314.58 311.16 1313.43 312.157 1312.77 313.095ZM1312.77 313.095C1301.09 322.667 1299.66 319.258 1308.49 302.869M1308.49 302.869C1308.88 302.649 1308.93 302.6 1308.54 302.771L1308.49 302.869ZM1308.49 302.869C1305.39 304.575 1281.17 316.579 1281.51 315.17C1279.44 310.552 1340.64 238.778 1351.3 282.518C1348.41 270.115 1349.83 266.507 1355.57 271.699M1355.57 271.699C1356.62 272.872 1357.88 274.193 1359.35 275.661C1357.93 274.016 1356.67 272.695 1355.57 271.699ZM1355.57 271.699C1347.3 262.445 1352.16 262.366 1370.14 271.457C1349.35 260.066 1352.87 254.955 1380.68 256.125C1364.23 253.503 1362.49 251.712 1360.8 251.77C1359.87 251.801 1358.96 252.396 1355.61 253.724C1358.99 248.758 1363.14 244.526 1368.04 241.028C1356.36 249.012 1356.3 248.581 1355.65 243.938C1355.37 241.964 1354.99 239.227 1353.56 236.051C1349.84 244.134 1347.08 246.5 1345.28 243.149M1345.28 243.149C1345.61 237.317 1344.8 231.521 1342.85 225.763C1343.11 234.822 1343.92 240.617 1345.28 243.149ZM1345.28 243.149C1345.14 245.753 1344.77 248.363 1344.18 250.981C1341.2 243.676 1335.84 239.393 1328.08 238.139C1339.78 248.766 1336.41 252.379 1317.99 248.991M1317.99 248.991C1337.48 252.58 1339.11 255.276 1322.89 257.088C1335.6 258.306 1339.21 259.905 1333.73 261.882M1317.99 248.991L1317.94 248.982M1333.73 261.882C1333.66 260.886 1330.46 261.499 1322.74 264.443C1327.86 263.529 1331.53 262.675 1333.73 261.882ZM1333.73 261.882C1333.88 264.251 1316.33 275.719 1299.67 286.596C1285.62 295.777 1272.21 304.536 1270.65 307.042C1272.4 294.889 1278.18 288.435 1290.68 284.226C1281.51 283.593 1274.17 286.857 1268.67 294.01C1278.27 268.916 1287.87 243.827 1297.46 218.738C1300.58 219.044 1303.24 220.213 1305.43 222.245M1305.43 222.245C1306.19 224.389 1308.1 227.879 1311.17 232.715C1309.87 228.077 1307.96 224.587 1305.43 222.245ZM1305.43 222.245C1303.77 217.54 1307.68 219.31 1317.16 227.554C1307.3 214.198 1310.69 213.56 1327.34 225.634C1311.86 214.092 1312.49 209.115 1329.22 210.705C1323.18 206.02 1316.6 205.202 1309.48 208.259C1314.55 201.054 1321.44 196.436 1330.16 194.399C1328.61 194.358 1325.47 195.313 1322.08 196.346C1313.63 198.92 1303.58 201.979 1312.35 191.358M1312.35 191.358C1312.6 191.064 1312.85 190.762 1313.11 190.452C1312.84 190.765 1312.59 191.066 1312.35 191.358ZM1312.35 191.358C1303.64 201.549 1299.24 202.29 1299.15 193.583M1299.15 193.583C1301.08 185.932 1302.37 178.157 1303.01 170.256C1300.39 180.96 1299.11 188.736 1299.15 193.583ZM1299.15 193.583C1298.52 196.1 1297.82 198.603 1297.05 201.094C1296.02 198.263 1295.63 197.05 1294.87 196.161C1293.33 194.373 1290.27 193.892 1277.51 184.211C1297.62 204.217 1295.85 210.319 1272.19 202.515C1292.01 209.594 1295.45 213.249 1282.52 213.48M1282.52 213.48C1280.87 213.326 1278.77 213.293 1276.24 213.381C1278.64 213.479 1280.74 213.512 1282.52 213.48ZM1282.52 213.48C1288.08 213.999 1288.71 215.886 1284.4 219.145M1284.4 219.145C1281.62 220.142 1278.9 221.777 1276.23 224.05C1279.85 222.166 1282.57 220.531 1284.4 219.145ZM2206.03 582.465C2207 586.967 2207.49 589.212 2193.7 590.224C2195.91 580.815 2200.98 573.42 2208.88 568.035C2204.29 574.414 2205.3 579.078 2206.03 582.465ZM2229.53 581.145C2226.61 582.824 2223.56 584.201 2220.37 585.276L2220.27 570.537C2223.36 574.069 2226.45 577.607 2229.53 581.145ZM2207.16 588.607C2217.24 586.843 2219.95 581.884 2216.71 570.912L2211.86 579.913C2210.29 582.81 2208.73 585.708 2207.16 588.607Z" stroke="#53A4C1" stroke-width="3"/>
</svg>
