<?xml version="1.0" encoding="utf-8"?>
<!-- Generator: Adobe Illustrator 18.0.0, SVG Export Plug-In . SVG Version: 6.00 Build 0)  -->
<!DOCTYPE svg PUBLIC "-//W3C//DTD SVG 1.1 Tiny//EN" "http://www.w3.org/Graphics/SVG/1.1/DTD/svg11-tiny.dtd">
<svg version="1.1" baseProfile="tiny" id="Layer_1" xmlns="http://www.w3.org/2000/svg" xmlns:xlink="http://www.w3.org/1999/xlink"
	 x="0px" y="0px" viewBox="0 350.1 595.3 141.7" xml:space="preserve">
<g id="sky">
	<polygon fill="#499BD5" points="594.6,482.8 -0.7,482.9 -0.7,349.8 594.6,349.8 	"/>
</g>
<g id="hill2">
	<path fill="#303F7C" d="M-0.7,482.6v-61.8c5.9-2.6,41.4-15.2,45.2-15.5c5.5-0.4,25.8,2.4,25.8,2.4c-0.2,0,6.2,0.6,10-1
		c2.9-1.3,4.3-3.4,5.8-4.1c1.5-0.7,3.5-4.8,7.6-4.3c1.3,0.2,13.7,7.4,13.7,7.4l6.7-2.5c0,0,10.3-6.7,11.9-6.7c1.5,0,3.9,1.8,3.9,1.8
		s-0.8,1,1,0.5c1.8-0.5,1.3-1.5,3.6-1.5s-0.5,1.5,7.5-4.6c8-6.2,6-15.3,15.2-13.4c1.3,0.3,11.4,3.9,13.4,4.4
		c2.1,0.5,6.2,4.4,6.2,4.4s25.3,9.8,29.2,10.6c3.9,0.8,14.2-1,14.2-1s9.6,0.3,13.2,1.8c3.6,1.5-1.8,7.7,14.7,1.3
		s40.8-19.9,40.8-19.9l5.4-5.9c0,0,6.2-8,7.5-7.5c1.3,0.5,18.8,5.9,20.1,7.2s6.2,1.8,7.5,2.1c1.3,0.3,9,1.3,10.3,3.1
		c1.3,1.8,5.9,4.9,7.2,5.4c1.3,0.5,7,3.4,9.3,4.1c2.3,0.8,13.2,2.1,14.2,2.6c1,0.5,15.2-2.3,16.3-3.4c1-1,8.6-6.5,10.6-9
		c2.1-2.6,11.9-14.7,14.2-14.7c2.3,0,7.7,0.3,9.3,1c1.6,0.7,10.1,2.3,10.6,1.5c0.5-0.8,2.8-0.5,6.2,1.8s13.2,10.6,17.8,12.1
		c4.6,1.5,13.4,1.5,13.4,1.5s18.8,8.5,22.7,10.6c3.9,2.1,35.9,13.7,39,13.4c3.1-0.3,9.6-0.8,15.2-0.3c5.7,0.5,17.3,0.8,19.1-0.8
		c1.8-1.5,3.6-3.9,5.2-2.6s9,1.8,9,1.8l3.9-2.8l5.9-2.1l5.3,2.1v80.8"/>
</g>
<g id="hill1">
	<g>
		<path fill="#1E3363" d="M-0.7,467.6c0,0,69.7-1.8,92.2-1.7c22.6,0.1,45.4-0.2,52,0c6.6,0.2,31.3-0.6,49.3-3.1s57.7-8.8,59.8-10.8
			c2.1-2,32.5-7.3,35.5-9.7c3-2.4,21.9-6.5,25.9-6c3.9,0.5,8.4,1.2,14.4,1.7c6,0.5,13,0.8,16.7-0.3c3.8-1.1,6.8-0.7,13.4-4.5
			c6.6-3.9,22.4-6.2,26.3-8.3c3.9-2.1,12.5-7.1,27.8-5.1c15.3,2.1,28.2,7.6,31,8.2c2.7,0.6,11.4,4.1,11.4,4.1v49.8H-0.7V467.6z"/>
		<path fill="#1E3363" d="M442.1,429.8c0,0,17.1,4.2,22.6,5.6c5.5,1.4,31.9,11.3,36.7,9.8c7.2-2.1,27.8-12.4,35.1-12.2
			c18.4,0.6,24.2,16.5,38,15.5c13.7-1,6.8-1,11.9-0.7c5.2,0.3,7.8-25.1,7.8-25.1l1.1,60.1l-178.5-0.1L442.1,429.8z"/>
	</g>
</g>
<path fill="#192A54" d="M196.9,370.6c0,0.1-0.3-0.3-0.6-0.5c-0.4-0.3-0.6-0.5-0.6-0.6l0.1,0.6c0,0,0,0,0.2,0.2
	c0.2,0.2,0.2,0.5,0.3,0.4c0.2-0.1,0.3,0.3,0.4,0.2C196.7,370.7,196.9,370.6,196.9,370.6z"/>
<polygon fill="#192A54" points="150.3,349.8 153.5,349.8 154.4,481.3 150.3,481.3 "/>
<path fill="#192A54" d="M509.5,349.8v6.7l-3.2-4.8c0,0-0.4-0.5-0.6,0.1c-0.2,0.6-0.2,0.9,0,1.3c0.2,0.4,1.8,2.9,2.1,3.4
	c0.3,0.5,1.5,1.9,1.5,2.4c0,0.5-0.1,8.5-0.1,8.1c0-0.4-3.2,116.4-3.2,116.4h6.2l2.5-133.6C514.7,349.8,509.5,349.8,509.5,349.8z"/>
<polygon fill="#192A54" points="179.4,349.8 183.8,480.7 180.5,482.1 177.8,352.7 177.8,349.9 178.9,349.9 "/>
<polygon fill="#192A54" points="286.7,349.8 287.6,481.4 292.1,481.4 289.5,349.8 "/>
<polygon fill="#192A54" points="479.4,349.4 478.1,482 482.8,482 483.7,349.5 "/>
<path fill="#192A54" d="M471.1,350.5c0,0,9.3,9.3,10.4,11.6s0.1-2.5,0.1-2.5s-8.3-9.6-8.9-9.8c-0.6-0.2-2.3,0-2.3,0L471.1,350.5z"/>
<polygon fill="#192A54" points="370,349.8 370.7,482.2 380.7,481.9 376.3,349.8 "/>
<path fill="#192A54" d="M194.3,433.7l-6.6-14.3c0,0-0.3-0.9-0.6,0s0,2,0,2s6.5,14.2,6.8,15.3C194.1,437.9,194.3,433.7,194.3,433.7z"
	/>
<path fill="#192A54" d="M394.6,405.2c0,0,7.4-23.5,7.7-23.3c0.3,0.3,1.4-0.1,1.4-0.1s-9,27.1-9,28.8
	C394.8,412.4,394.6,405.2,394.6,405.2z"/>
<polygon fill="#192A54" points="291.9,349.8 296.5,475.1 305.6,475.1 298.7,349.8 "/>
<path fill="#192A54" d="M289.9,350c0,0,1.7,3.7,2.7,4.6c1,1,0.6,3.4,0.6,3.4s-1.3-1.3-5.2-8.3L289.9,350z"/>
<path fill="#192A54" d="M303.2,349.8c0,0-4.4,15.9-4.3,17c0.1,1.2,0,4.8,0,4.8s4.1-18.6,5.8-21.8
	C304.7,349.8,303.2,349.8,303.2,349.8z"/>
<g>
	<polygon fill="#192A54" points="363.5,349.1 363.1,482.6 358.8,482.6 361.6,349.1 	"/>
	<path fill="#192A54" d="M354.4,349.2c-0.8-1.1,3.6,15.1,7.5,24.5l-0.4,6.1c0,0-6.7-23.9-7-25.1
		C354.4,353.5,354.4,349.2,354.4,349.2z"/>
</g>
<g>
	<polygon fill="#192A54" points="342.7,350.1 341.6,481.8 351.9,481.5 351.3,405 350.7,350.1 	"/>
	<polygon fill="#192A54" points="348.4,423.1 356.9,411 356.9,413.1 348.4,424.6 	"/>
	<polygon fill="#192A54" points="345.5,383.5 340.5,373.9 340.5,378.7 342.4,381.5 	"/>
</g>
<polygon fill="#192A54" points="42.9,349.4 42,477.1 46,476.3 46,349.6 "/>
<polygon fill="#192A54" points="579.8,349.5 578.6,482.6 585.2,482.6 584.9,433.7 584.8,422.5 584.3,349.3 "/>
<polygon fill="#192A54" points="540,349.8 538.3,475.4 549.3,479.4 549.1,349.8 "/>
<path fill="#192A54" d="M105.8,426.5"/>
<polygon fill="#192A54" points="198.7,349.8 198.6,349.8 196.9,480.1 202.8,480.1 202.8,349.8 "/>
<polygon fill="#192A54" points="391.5,349.8 399.1,349.8 401,483.1 389,483.1 389.5,349.8 "/>
<polygon fill="#192A54" points="4.3,349.8 1.6,482.9 4.6,480.1 6.5,349.8 "/>
<polygon fill="#192A54" points="90.6,349.4 89.9,481.4 86,481 86.7,349.3 "/>
<g>
	<polygon fill="#192A54" points="121.3,349.8 120.2,478.2 130.6,477.9 129.9,403.3 129.4,349.8 	"/>
	<polygon fill="#192A54" points="127,421 135.6,409.2 135.6,411.2 127,422.5 	"/>
	<polygon fill="#192A54" points="124.1,382.4 119.2,373.1 119.2,377.7 121.1,380.5 	"/>
</g>
<path fill="#0C1B37" d="M273.3,382c0.1,0.1-0.6-0.3-1-0.4c-0.7-0.3-1-0.4-1.1-0.5l0.2,0.5c0,0,0,0,0.3,0.2c0.3,0.1,0.4,0.4,0.6,0.3
	c0.3-0.1,0.6,0.2,0.7,0.1C273,382.1,273.3,382,273.3,382z"/>
<path fill="#0C1B37" d="M163.4,349.8v6.6l-5.8-4.7c0,0-0.7-0.5-1.1,0.1c-0.4,0.6-0.4,0.9,0,1.3c0.4,0.4,3.1,2.9,3.7,3.3
	c0.6,0.4,2.6,1.9,2.6,2.3s-0.1,8.4-0.1,8c0-0.4-5.7,115.2-5.7,115.2h11.1l4.4-132.1C172.5,349.8,163.4,349.8,163.4,349.8z"/>
<polygon fill="#0C1B37" points="191.5,349.8 195.9,349.8 197,482.7 191.5,482.7 "/>
<polygon fill="#0C1B37" points="206.4,349.7 214.2,480.6 208.5,482 203.5,352.6 203.5,349.8 205.6,349.8 "/>
<polygon fill="#0C1B37" points="223.7,349.8 224.9,481.9 231,481.9 227.3,349.8 "/>
<polygon fill="#0C1B37" points="236.2,349.7 233.9,482.7 242.2,482.7 243.8,349.8 "/>
<path fill="#0C1B37" d="M217.9,350.5c0,0,16.5,10.4,18.4,13s0.1-2.8,0.1-2.8s-14.7-10.7-15.8-10.9c-1-0.2-4.1,0-4.1,0L217.9,350.5z"
	/>
<path fill="#0C1B37" d="M236.7,392.5l9.3-11.2c0,0,0.4-0.7,0.9,0s0,1.5,0,1.5s-9.1,11.1-9.5,11.9C237,395.5,236.7,392.5,236.7,392.5
	z"/>
<path fill="#0C1B37" d="M278.5,367.9c0,0,13.2-18.3,13.7-18.1c0.5,0.2,2.5-0.1,2.5-0.1s-16.1,21.1-16,22.4
	C278.9,373.5,278.5,367.9,278.5,367.9z"/>
<polygon fill="#0C1B37" points="309.4,349.8 308.4,482 311.6,482 311.6,349.8 "/>
<polygon fill="#0C1B37" points="323.9,349.8 331.8,482.7 348,482.7 336,349.8 "/>
<path fill="#0C1B37" d="M319.3,349.7c0,0,2.9,2.8,4.9,3.6c1.9,0.8,1,2.6,1,2.6s-2.4-1-9.2-6.4L319.3,349.7z"/>
<path fill="#0C1B37" d="M345.5,349.8c0,0-7.8,18.3-7.7,19.7c0.1,1.4,0,5.5,0,5.5s7.2-21.5,10.3-25.3h-2.6V349.8z"/>
<g>
	<polygon fill="#0C1B37" points="499.4,349.8 500.3,481.9 509.1,481.9 503.2,349.8 	"/>
	<path fill="#0C1B37" d="M518,349.8c1.6-1.1-7.4,15-15.5,24.2l0.8,6.1c0,0,13.8-23.7,14.3-24.8C518.2,354.1,518,349.8,518,349.8z"/>
</g>
<g>
	<polygon fill="#0C1B37" points="451.9,349.5 449.9,481.4 468.3,481 467.1,404.5 466.3,349.5 	"/>
	<polygon fill="#0C1B37" points="462,422.6 477.3,410.5 477.3,412.6 462,424.2 	"/>
	<polygon fill="#0C1B37" points="456.9,383 448.1,373.4 448.1,378.2 451.4,381 	"/>
</g>
<polygon fill="#0C1B37" points="57.3,349.3 58.3,481.2 65.5,480.3 62.9,349.4 "/>
<path fill="#0C1B37" d="M111.4,425.6"/>
<polygon fill="#0C1B37" points="107.7,372.5 113.2,370.1 113.6,371.8 107.3,374.6 "/>
<polygon fill="#0C1B37" points="486.1,349.6 487.3,476.3 492,464.2 489.1,349.3 "/>
<path fill="#0C1B37" d="M475.6,469c0.5-2.2,0-119.4,0-119.4h-2.7L471.5,470L475.6,469z"/>
<polygon fill="#0C1B37" points="18.8,349.3 24.7,349.4 23.8,479 14.5,478.9 17.1,349.3 "/>
<polygon fill="#0C1B37" points="30.1,349.8 25.3,478.7 30.7,475.9 34,349.8 "/>
<g>
	<polygon fill="#0C1B37" points="93.3,349.7 97.5,478 105.8,481.7 100,349.5 	"/>
	<path fill="#0C1B37" d="M103.8,362.1c0,0-3.3,2.6-4.2,4.3c-0.9,1.7-3.1,0.9-3.1,0.9s1.1-2.1,7.5-8.2L103.8,362.1z"/>
</g>
<path fill="#FFFFFF" d="M569.5,362.7c-1.1-2.6-4.1-3.9-6.7-3c2.6-0.6,5.3,0.6,6.4,3.1c1.1,2.5,0.2,5.4-2.1,6.8
	C569.6,368.4,570.7,365.4,569.5,362.7z"/>
<path fill="#FFFFFF" d="M313.1,382c0.1,0.1-0.7-0.3-1.2-0.4c-0.8-0.3-1.1-0.4-1.2-0.5l0.2,0.5c0,0,0,0,0.3,0.2
	c0.3,0.1,0.5,0.4,0.6,0.3c0.3-0.1,0.7,0.2,0.8,0.1C312.7,382.1,313.1,382,313.1,382z"/>
<polygon fill="#010101" points="172.5,349.8 179.1,349.8 180.9,482.2 172.5,482.2 "/>
<path fill="#010101" d="M208.3,349.7l-4.1,133h14.9l-2.6-114.3c0,0,18.4-16.3,18.6-18.5l-3-0.1c0,0-16,14.7-15.9,15.1
	s-0.3-9.6-0.5-15.1L208.3,349.7L208.3,349.7z"/>
<polygon fill="#010101" points="257,349.8 258.4,481.9 265.4,481.9 261.3,349.8 "/>
<polygon fill="#010101" points="270.4,349.7 267.8,482.7 277.3,482.7 279.1,349.8 "/>
<path fill="#010101" d="M249.4,350.5c0,0,19,10.4,21.2,13c2.2,2.6,0.1-2.8,0.1-2.8s-17-10.7-18.2-10.9c-1.2-0.2-4.7,0-4.7,0
	L249.4,350.5z"/>
<polygon fill="#010101" points="304.9,349.8 306.3,481.9 326.9,481.6 317.9,349.8 "/>
<path fill="#010101" d="M307.8,431.2l-13.4-11.1c0,0-0.6-0.7-1.3,0c-0.7,0.7,0,1.5,0,1.5s13.2,11.1,13.8,11.9
	C307.5,434.4,307.8,431.2,307.8,431.2z"/>
<path fill="#010101" d="M319,367.9c0,0,15.2-18.3,15.7-18.1c0.6,0.2,2.9-0.1,2.9-0.1s-18.4,21.1-18.3,22.4S319,367.9,319,367.9z"/>
<polygon fill="#010101" points="354.6,349.8 353.4,482 357.1,482 357.1,349.8 "/>
<polygon fill="#010101" points="371.2,349.8 380.4,482.7 399,482.7 385.1,349.8 "/>
<path fill="#010101" d="M366,349.7c0,0,3.4,2.8,5.6,3.6c2.2,0.8,1.2,2.6,1.2,2.6s-2.7-1-10.6-6.4L366,349.7z"/>
<path fill="#010101" d="M396,349.8c0,0-9,18.3-8.9,19.7c0.1,1.4,0,5.5,0,5.5s8.3-21.5,11.8-25.3H396V349.8z"/>
<g>
	<polygon fill="#010101" points="573,349.8 574,482 584.2,482 577.3,349.8 	"/>
	<path fill="#010101" d="M594.4,349.9c1.8-1.1-8.5,15-17.8,24.2l1,6.1c0,0,15.9-23.7,16.4-24.8C594.5,354.3,594.4,349.9,594.4,349.9
		z"/>
</g>
<polygon fill="#010101" points="78.3,412.9 69.5,402.5 68.5,404.4 76,412.9 74.9,411.3 "/>
<polygon fill="#010101" stroke="#010101" stroke-miterlimit="10" points="518.4,350 516.1,481.9 537.3,481.6 535.9,405 534.9,350 
	"/>
<polygon fill="#010101" stroke="#010101" stroke-miterlimit="10" points="522.8,407.1 540.4,395 540.4,397.1 522.8,408.7 "/>
<polygon fill="#010101" stroke="#010101" stroke-miterlimit="10" points="523,394.8 511.2,385.5 512.8,391.2 517.4,394.7 "/>
<polygon fill="#010101" stroke="#010101" stroke-miterlimit="10" points="72.1,350 69.8,482.6 83.2,482.6 82.5,433.9 82.4,422.7 
	81.4,349.8 "/>
<polygon fill="#010101" stroke="#010101" stroke-miterlimit="10" points="108.7,350 105.9,473.1 124.2,477 123.7,350 "/>
<path fill="#010101" stroke="#010101" stroke-miterlimit="10" d="M126.9,425.6"/>
<polygon fill="#010101" stroke="#010101" stroke-miterlimit="10" points="122.5,395 127.8,389.9 128.9,391.2 122.7,397.1 "/>
<polygon fill="#010101" stroke="#010101" stroke-miterlimit="10" points="557.8,350 559.1,469 564.5,457.5 561.2,349.8 "/>
<path fill="#010101" stroke="#010101" stroke-miterlimit="10" d="M545.6,460.6c0.5-2,0-110.6,0-110.6h-3.1l-1.7,111.4L545.6,460.6z"
	/>
<polygon fill="#010101" stroke="#010101" stroke-miterlimit="10" points="2.3,349.8 11.9,349.8 14.3,482.6 -1,482.6 -0.4,349.8 "/>
<polygon fill="#010101" stroke="#010101" stroke-miterlimit="10" points="37.5,349.8 31.9,479.5 38.1,476.6 41.9,349.8 "/>
<polygon fill="#010101" stroke="#010101" stroke-miterlimit="10" points="274.1,410.5 279.4,405.4 280.5,406.7 274.3,412.6 "/>
<polygon fill="#010101" stroke="#010101" stroke-miterlimit="10" points="104.4,372.6 110.3,377 109.2,378.3 102.3,373.2 "/>
<g id="foreground">
	<g>
		<path fill="#010101" d="M-0.7,493l385.5,0.9v-46c0,0-2,0-4.6,0c-2.9,0-6.7,0-9.9,0c-6.1-0.1-24.6,2.4-29.1,2.4s-18.8,7.1-28.6,9.5
			c-9.8,2.4-29.4,5.1-36.5,6.1c-7.1,1-27.8-2-34.4,0s-14.6,1.3-24.1,2.8c-9.5,1.4-53.2-0.1-60.3,0c-7.1,0.1-39.7,0.6-42.9,0.3
			c-3.1-0.4-52.2,2.8-67.2,5.4c-10.5,1.8-36.1,1.8-48,5.5"/>
		<path fill="#010101" d="M499.5,462.3c18.7,2.1,55-13.3,62-13.5c6.9-0.3,32.8-17.6,32.8-17.6l0.4,62.4L367,493.8l17.7-45.7
			c0.1-0.2,0.2-0.2,0.3-0.2C388.4,448.5,435.3,455.1,499.5,462.3z"/>
	</g>
</g>
<path fill="#010101" d="M419.3,428.6h0.2c0,0-0.1,0.2-0.1,0.7c0,0.5,0,1.2,0.1,1.2c0.1,0.1,0.4,0.7,0.5,0.7c0.2-0.1,0.6,0.2,0.8,0.2
	c0.2,0,0.7-0.1,0.8-0.2c0.1-0.1,0.3,0,0.3,0s0.2,0.4,0.1,0.7s-0.1,0.6-0.1,0.6s-0.2,0.3-0.1,0.3c0.1,0.1,0.2,0.1,0.1,0.2
	c-0.1,0.1-0.2,0.1-0.2,0.3c-0.1,0.2-0.2,0.4,0.1,0.4c0.3,0,0.2-0.1,0,0.4c-0.2,0.5-0.2,0.8-0.2,0.9c-0.1,0.1-0.3,0.5-0.2,1.2
	c0.1,0.6,0.5,1.5,0.5,1.7c0,0.2,0.5,1.1,0.5,1.3c-0.1,0.2,0.1,1,0.1,1.2c0.1,0.2,0.2,1.1,0.1,1.2c-0.1,0.1-0.1,0.7-0.1,0.7l0.2,0.2
	c0,0-0.2,0.9-0.3,0.9s-0.4,1.2-0.5,1.4c-0.1,0.2-0.3,0.3-0.3,2.5c0,0,0,0.8,0.1,1c0.1,0.2,0.3,2.1-0.2,3.8c0,0-0.1,0.3-0.2,0.4
	c-0.1,0.1-0.1,0.4-0.1,0.4s-0.2,0.1-0.2,0.2c0,0.1-0.1,0.4-0.1,0.5c0,0.1,0.2,0.3,0.2,0.3s0.6,0.1,0.7,0.1c0.1,0,0.6,0.1,0.7,0
	c0.2-0.1,0.4-0.2,0.4-0.2l0.9,0.1l0.8-0.1c0,0,0.1,0.2,0.1,0.3c0.1,0.1,0,0.3,0.3,0.4c0.3,0.1,1,0.2,1.1,0.2
	c0.1-0.1,0.5-0.2,0.5-0.2s0.5,0.3,0.6,0.3c0.1,0.1,0.8,0.3,0.9,0.3c0.1,0,1.3,0.1,1.4,0c0.1-0.1,0.8-0.2,0.9-0.2s0.6-0.5,0.4-0.7
	c-0.2-0.3-0.6-0.3-0.6-0.3l-0.7-0.2c0,0-0.8-0.4-0.9-0.5c-0.1-0.1-0.6-0.4-0.6-0.4h-0.2c0,0-0.4-0.3-0.4-0.4
	c-0.1-0.1-0.3-0.5-0.3-1.1c0-0.6-0.1-1.5,0.1-1.8c0.2-0.3,0.6-2.3,0.6-2.4c0.1-0.2,0.1-1.2,0.1-1.3c0-0.1,0.2-1,0.3-1.1
	c0.1-0.1,0.5-1.1,0.5-1.1c0-0.1,0.1-0.4,0.1-0.6c-0.1-0.2-0.3-0.6-0.3-0.6l0.1-0.2c0,0-0.1-0.8-0.2-0.9c-0.1-0.1-0.2-0.4-0.2-0.6
	c-0.1-0.2-0.3-0.9-0.3-0.9l-0.1-0.5c0,0-0.2-0.2-0.2-0.3c-0.1-0.1-0.1-0.6-0.1-0.6s-0.2-0.3-0.3-0.4c-0.1-0.1-0.1-0.5-0.1-0.5
	l0.1-0.3l0.2-0.5c0,0,0.4,0.4,0.3,0.6c-0.1,0.2-0.1,0.4-0.1,0.4l-0.2,0.1c0,0,0.1,0.2,0.2,0.2c0,0,0.2,0.2,0.3,0.2s0.2-0.1,0.2-0.1
	s-0.1,0.1,0.1,0.2c0.2,0.1,0.4,0.1,0.5-0.1c0,0,0.3-0.1,0.4-0.3c0.1-0.2,0.3-0.5,0.3-0.6c0-0.1-0.1-0.2-0.1-0.4
	c0-0.2,0.1-0.4-0.1-0.5c-0.1-0.1-0.6-0.7-0.6-0.7l-0.4-0.4c0,0,0.2-0.5-0.3-0.7l-0.6-0.7c0,0,0.6-2.4,0.3-4.7
	c-0.3-2.3-0.6-3.4-0.6-3.4l-0.4-0.9l-0.3-0.7c0,0,0.5-0.5,0.7-0.5s0.6-0.2,0.8-0.2s0.5-0.1,0.5-0.1s0.3-0.1,0.2-0.4l0.1-0.2l0.1-0.1
	l0.1-0.1l0.1-0.1l0.1-0.1c0,0,0.1,0,0.2,0s0.2,0,0.2-0.1c0-0.1-0.1-0.5-0.1-0.5l-0.1-0.4c0,0,0.1-0.2,0.2-0.3c0.1-0.2,0.1-0.9,0-1
	c0-0.1,0.1-0.2,0.1-0.2l0.1-0.3l-0.2-0.5l-0.2-0.1l-0.2-0.1l-0.4-0.1l-0.2-0.2c0,0-0.4-0.2-0.6-0.3s-0.5-0.1-0.7-0.1
	c-0.2,0-0.8,0.3-0.8,0.3c-0.3,0.1-0.5,0.2-0.5,0.3c-0.1,0.1-0.2,0.2-0.3,0.3c-0.1,0.2-0.3,0.4-0.3,0.4c-0.1,0.1-0.1,0.6-0.1,0.8
	s0,0.6,0,0.6s-0.1,0.6-0.2,0.8c-0.2,0.2-0.3,0.6-0.4,0.7c-0.1,0.1-0.6,0.2-0.6,0.3c-0.1,0.2-0.5,0.4-0.6,0.5s-0.6,0.7-0.6,0.8
	c0,0.1-0.3,0.7-0.4,0.8s-0.2,0.3-0.4,0.4s-0.8,0.6-1,0.8c-0.2,0.2-0.5,0.7-0.6,0.8s-0.3,0.5-0.3,0.5s-0.2-0.3-0.3-0.1
	c-0.2,0.2-0.2,0.7-0.2,0.8C419.4,428.2,419.4,428.5,419.3,428.6C419.2,428.4,419.3,428.6,419.3,428.6z M423.1,449.5
	c0,0,0.3-1.7,0.4-2.1c0.1-0.5,0.1-0.5,0.1-0.5l0.2-1.4c0,0,0.2-0.9,0.3-1.2c0.1-0.3,0.5-0.9,0.5-0.9l0.2-0.3l0.1-0.3l0.5-0.3
	l0.5-0.2c0,0,0.4,0.4,0.3,1s-0.3,0.8-0.3,0.8s-0.3,0.7-0.3,1c-0.1,0.3-0.2,0.7-0.1,1.5s0.1,0.8,0.1,0.8s0.1,1.7,0.1,2
	c0,0.3-0.1,1.5-0.1,1.5l-0.3,1l-0.1,0.2c0,0-0.6-0.2-0.6-0.3c-0.1-0.1-0.4-0.4-0.4-0.4l-0.2,0.1c0,0-0.4-0.1-0.5-0.6
	C423.4,450.4,423.1,449.5,423.1,449.5z"/>
</svg>
