<?xml version="1.0" encoding="utf-8"?>
<!-- Generator: Adobe Illustrator 18.0.0, SVG Export Plug-In . SVG Version: 6.00 Build 0)  -->
<!DOCTYPE svg PUBLIC "-//W3C//DTD SVG 1.1 Tiny//EN" "http://www.w3.org/Graphics/SVG/1.1/DTD/svg11-tiny.dtd">
<svg version="1.1" baseProfile="tiny" id="Layer_1" xmlns="http://www.w3.org/2000/svg" xmlns:xlink="http://www.w3.org/1999/xlink"
	 x="0px" y="0px" viewBox="0 350.1 595.3 141.7" xml:space="preserve">
<rect x="0.7" y="350" fill="#E4FFB6" width="595" height="141"/>
<path fill="#C7E28D" d="M205.3,454.4c0,0,3.8,5.2,12.3,5.3s16.5-2.3,16.5-2.3l36-1c0,0,5.5,3.3,7.3,3.8s16.3-0.7,17.7-2.2
	c1.3-1.5,31.3-1.2,31.3-1.2s-31.5,20.3-32,20.3s-137.7-4.7-137.7-4.7l-9.5-14.2c0,0,8,3.7,11.2,3.7s-8.7-3.2-8.7-3.2
	s15.6,3.1,20.4-2.2C175,451.4,205.3,454.4,205.3,454.4z"/>
<ellipse fill="#FEFAD1" cx="299.5" cy="397.5" rx="33.8" ry="34.8"/>
<path fill="#F9DF7C" d="M272,396.4c-0.7-0.6-2.2-0.1-2,0.8"/>
<path fill="#D1E2A1" d="M248.9,376.4c-0.9-0.1-1.8-0.2-2.7-0.3c0.3,0.9,0.7,1.7,1,2.6c2.8,0.4,5.7,0.8,8.5,1.3
	c-7.1-4.3-15.8-5.9-24-4.5c-1.3,0.2-3.3,0-3.2-1.4c-4.2,0.8-8.4,1.5-12.7,2c0.9,0,1.8,0.1,2.7,0.1c-2.9-1-6.2-0.2-8.5,1.9
	c-2.4-0.5-4.7,2.5-3.7,4.8c-2.7,0.9-5.5,1.3-8.3,1.4c-0.1,0.9-0.3,1.8-0.4,2.6c-1.9-0.9-4.4,0.5-4.6,2.6c-1.1,0-2.3,0-3.4,0.1
	c0,0.9,0,1.8,0,2.6c-2,0.5-4.1,1.1-6.1,1.6c-0.2-1-0.5-2-0.7-3c-5.5-0.4-11.9-0.4-15.3,4c-1.3,1.6-2.1,3.9-4,4.6
	c3.3,2.2,3.4,7.1,2.3,11c-1.1,3.9-2.9,7.8-2,11.7c0.9,3.9,4.2,6.7,7.4,9.2c5.8,4.5,11.8,9.1,18.7,11.6c5.1,1.8-8.4,11.3-3.1,12.4
	c5.3,1.1,20.6-5.9,25.8-4.5c10.3,2.8,29.7,4.1,40.4,4.5c12.4,0.5,24.6-1.8,36.9-3c17.3-1.8,34.8-2.7,52.1-2.8
	c2.6-6.9,5.8-13.6,9.8-19.9c-0.9-2.3-1.7-5.3,0-7.1c0.3-0.3,0.6-0.5,0.8-0.9c0.8-1.5-1.5-2.5-3-3.4c-2-1.2-2.9-4.1-1.8-6.2
	c-2.4-0.1-2.5-3.7-1.9-6.1c-0.8,0-1.6,0-2.5,0c0.1-1.3-0.1-2.7-0.7-3.8c-0.7,0-1.4,0.2-1.9,0.7c-0.9-0.6-1.6-1.6-1.9-2.7
	c-0.9,1.1-2.6,0.6-3.9,0.1c-2.7-1.1-5.4-2.2-8.1-3.3c-0.1-0.8,0.3-1.6,0.9-2c-2.2-0.8-4.3-1.6-6.5-2.4c-0.1-1-0.2-2.1-0.3-3.1
	c-2-0.4-4.1-0.8-6.1-1.2c-0.7-0.7-1.4-1.4-2-2.1c-5.8,2.3-12.3,3.1-18.5,2.3c-0.4,0.9-0.8,1.7-1.1,2.6c-3.1,0.3-6.2,1.3-9,2.9
	c-0.6,0.7-0.7,1.4-0.8,2.1"/>
<path fill="#D1E2A1" d="M281.2,395.4c0-2-2.9-2.1-3.5-4c-1-0.1-3.6-1.4-4.6-1.5c-0.5-4-11.4-8.9-14.9-6.9c-0.5,0.3,5.2,1.6,4.6,1.5
	c-0.3-0.1-2.6,3.4-2.9,3.2c4.3-13.8-5.1-5.4-5.1-7.9"/>
<path fill="#B8CE74" d="M123.1,395.1c-3.2,0.3-6.3,1.5-9,3.5c-0.1-1.1-0.2-2.3-0.8-3s-1.9-0.1-1.7,1c6.5,0.8,13.1,1.7,19.6,2.5
	c-4.9-0.3-9.8-0.6-14.7-0.9c0-2.3-0.3-4.6-0.9-6.8c-0.9-0.2-1.7-0.3-2.6-0.5c-0.5-4.6-4.8-7.6-7.8-5.4c-0.5,0.3-1,0.8-1.5,0.7
	c-0.3-0.1-0.5-0.3-0.7-0.6c-2.2-2.3-4.6-5.3-4.4-9c-3,0.6-6.2-1-8.3-4.1c1.1,0,2.1,0.1,3.2,0.1c-0.8-0.1-1.6-0.3-2.3-0.4
	c0.3,1,0.6,2,0.9,3c2.4,0.5,4.9,1,7.3,1.4c-6.1-4.9-13.6-6.8-20.6-5.1c-1.1,0.3-2.8,0-2.8-1.6c-3.6,0.9-7.3,1.7-10.9,2.3
	c0.8,0,1.5,0.1,2.3,0.1c-2.5-1.1-5.4-0.2-7.3,2.2c-2.1-0.5-4,2.9-3.2,5.5c-2.3,1-4.7,1.5-7.2,1.6c-0.1,1-0.2,2-0.3,3
	c-1.6-1-3.8,0.6-4,3c-1,0-2,0-2.9,0.1c0,1,0,2,0,3c-1.7,0.6-3.5,1.2-5.2,1.8c-0.2-1.2-0.4-2.3-0.6-3.5c-4.7-0.5-10.3-0.4-13.2,4.6
	c-1.1,1.9-1.8,4.4-3.4,5.3c2.9,2.5,2.9,8.2,2,12.6s-2.5,9-1.8,13.5c0.7,4.5,3.6,7.7,6.3,10.5c5,5.2,10.1,10.5,16,13.3
	c4.3,2.1,9,2.7,13.5,4s8.9,3.2,13.4,4.8c8.9,3.2,18,5,27.2,5.4c10.6,0.5,21.3-0.8,31.9-2.2c14.9-2,29.7-4.3,44.7-4.5
	c2.2-8,5-15.6,8.4-22.8c-0.8-2.7-1.5-6,0-8.1c0.2-0.3,0.5-0.6,0.7-1c0.6-1.7-1.3-2.9-2.6-3.9c-1.7-1.4-2.5-4.7-1.6-7.1
	c-2.1-0.2-2.2-4.3-1.6-7c-0.7,0-1.4,0-2.1,0c0.1-1.5-0.1-3-0.6-4.4c-0.6-0.1-1.2,0.2-1.6,0.8c-0.8-0.7-1.4-1.9-1.6-3.1
	c-0.8,1.2-2.2,0.7-3.3,0.1c-2.3-1.3-4.7-2.5-7-3.8c-0.1-0.9,0.2-1.8,0.8-2.3c-1.9-0.9-3.7-1.8-5.6-2.7c-0.1-1.2-0.2-2.4-0.3-3.6
	c-1.7-0.4-3.5-0.9-5.2-1.3c-0.6-0.8-1.2-1.6-1.7-2.4c-5,2.7-10.5,3.6-15.9,2.7c-0.3,1-0.6,2-1,3c-2.7,0.4-5.3,1.5-7.7,3.3
	C123.3,393.5,123.2,394.3,123.1,395.1z"/>
<polygon fill="#93AF3C" points="0,395.1 2.3,393.6 2.2,383 4.4,380.8 8,383 8,385.9 9.7,385.9 10,380.4 12.9,379.3 13.6,384.4 
	17.7,381 21.5,381 21.5,385.4 22.6,388.3 22.6,392 29,392 29,385 30.1,385 30.1,381 32,381 32,385 33.4,385 33.4,398.5 40.9,398.5 
	42.6,394.2 52.6,395.3 53.2,392 54.4,394.2 58.8,393.8 58.8,398.9 60.8,398.5 69.4,398.5 73.6,390.1 78.5,399.8 78.5,396 
	78.5,391.2 79.5,385.4 80.4,385.4 80.4,387.9 80.8,389.8 81.1,393.8 81.1,397.4 81.7,388.6 82.1,387.8 82.2,384.9 83.6,384.9 
	83.6,387.3 83.9,388.7 84,395.8 84.7,388.3 84.9,384.5 86.2,384.5 86.2,386.9 86.8,390.8 87.5,398 88.9,397.6 90.5,392.7 
	92.1,397.6 109.7,396.9 112.6,391.7 115.3,396.5 127.4,397.2 130.2,401.9 134.7,402 135.8,404.9 140.1,404.9 151.4,419.6 
	147.8,420.1 147.9,464 147.7,475 0,475 0,395.6 2,394 "/>
<path fill="#D1E2A1" d="M413.3,370.1c-8.5,0-15,1.5-18,2.6c-3,1-6.5,3.1-10,4.6s-7,2.6-7,2.6s-6.5,7.2-8.5,8.3
	c-2,1.1-6.5,6.7-6.5,6.7l-4.5,4.6l-4.5-32l-3.5,33l-3.5,0.5l-2,4.6l1.5,3.6l-3.5,4.6l-0.5,5.7v4.3l-3.5,19.1l2,10.8l28.5-2.6
	l46-65.5l15-10.3c0.3-0.7-7.2-3.9-10.7-3.2C418.6,371,416.5,370.1,413.3,370.1z"/>
<path fill="#B8CE74" d="M476.9,375.9c0-2,0.4-4,1-5.9c1-0.1,2-0.3,3-0.4c0.5-4,5.5-6.6,8.9-4.7c0.5,0.3,1.1,0.7,1.7,0.6
	c0.3-0.1,0.6-0.3,0.8-0.5c2.5-2,5.2-4.5,5-7.8c3.4,0.5,7.1-0.9,9.5-3.5c-1.2,0-2.4,0.1-3.6,0.1c0.9-0.1,1.8-0.2,2.7-0.3
	c-0.3,0.9-0.7,1.7-1,2.6c-2.8,0.4-5.5,0.8-8.3,1.2c7-4.2,15.5-5.8,23.4-4.4c1.3,0.2,3.2,0,3.1-1.4c4.1,0.8,8.2,1.4,12.4,2
	c-0.9,0-1.7,0.1-2.6,0.1c2.8-0.9,6.1-0.2,8.3,1.9c2.4-0.5,4.6,2.5,3.6,4.8c2.6,0.9,5.4,1.3,8.2,1.4c0.1,0.9,0.3,1.7,0.4,2.6
	c1.8-0.9,4.3,0.5,4.5,2.6c1.1,0,2.2,0,3.3,0.1c0,0.9,0,1.7,0,2.6c2,0.5,4,1,6,1.6c0.2-1,0.5-2,0.7-3c5.4-0.4,11.7-0.4,15,4
	c1.2,1.6,2,3.8,3.9,4.6c-3.3,2.1-3.3,7-2.3,10.9c1.1,3.8,2.8,7.7,2,11.6c-0.9,3.9-4.1,6.6-7.2,9.1c-5.7,4.5-11.5,9-18.2,11.5
	c-4.9,1.8-10.2,2.3-15.3,3.5c-5.1,1.1-10.2,2.8-15.2,4.1c-10.1,2.7-20.5,4.3-31,4.7c-12.1,0.5-24.2-0.7-36.2-1.9
	c-16.9-1.8-33.8-3.7-50.8-3.8c-2.5-6.9-5.7-13.5-9.5-19.7c0.9-2.3,1.7-5.2,0-7c-0.3-0.3-0.6-0.5-0.7-0.9c-0.7-1.5,1.5-2.5,2.9-3.3
	c2-1.2,2.8-4,1.8-6.2c2.4-0.1,2.5-3.7,1.8-6c0.8,0,1.6,0,2.4,0c-0.1-1.3,0.1-2.6,0.7-3.8c0.7,0,1.4,0.2,1.9,0.7
	c0.9-0.6,1.6-1.6,1.9-2.7c0.9,1,2.5,0.6,3.8,0.1c2.7-1.1,5.3-2.2,8-3.3c0.1-0.8-0.3-1.6-0.9-2c2.1-0.8,4.2-1.6,6.3-2.3
	c0.1-1,0.2-2.1,0.3-3.1c2-0.4,4-0.8,6-1.2c0.7-0.7,1.3-1.4,2-2.1c5.7,2.3,12,3.1,18.1,2.3c0.4,0.9,0.7,1.7,1.1,2.6
	c3.1,0.3,6.1,1.3,8.8,2.8c-0.2,0.5-0.1,1.2,0,1.9c3.6,0.2,7.1,1.3,10.3,3c0.1-0.9,0.2-2,0.9-2.6c0.7-0.6,2.1-0.1,2,0.8"/>
<polygon fill="#93AF3C" points="595.3,383.5 591.7,382.1 592,371.7 588.7,369.6 583.2,371.7 583.2,374.6 580.7,374.6 580.1,369.3 
	575.7,368.2 574.7,373.1 568.5,369.8 562.7,369.8 562.7,374.1 561,376.9 561,380.5 551.4,380.5 551.4,373.7 549.7,373.7 
	549.7,369.8 546.9,369.8 546.9,373.7 544.7,373.7 544.7,386.9 533.3,386.9 530.8,382.6 515.6,383.7 514.8,380.5 512.8,382.6 
	506.2,382.2 506.2,387.2 503.2,386.9 490.2,386.9 483.8,378.7 476.4,388.1 476.4,384.4 476.4,379.8 475,374.1 473.6,374.1 
	473.6,376.6 473,378.3 472.5,382.2 472.5,385.8 471.6,377.2 471,376.4 470.8,373.6 468.6,373.6 468.6,376 468.2,377.3 468,384.2 
	467,376.9 466.6,373.2 464.8,373.2 464.8,375.6 463.8,379.3 462.8,386.4 460.6,386 458.3,381.2 455.9,386 429.2,385.3 424.9,380.2 
	420.7,384.9 402.4,385.6 398.1,390.1 391.3,390.3 389.6,393.1 383.1,393.1 366,407.3 371.5,407.9 371.4,450.6 371.7,461.2 
	595.3,461.2 595.3,384 592.3,382.4 "/>
<path fill="#547A1F" d="M595.3,429.6l-4.8-0.2l-11.2,10l-55.8,2.5l-22.8,0.8l-22.7-6.6c0,0-13.2-2-14.2-2s-4-8.5-4-8.5l-7.5,0.5
	l-11.4-0.6l0,0c0,0-0.3,0-0.9,0h-0.5l0,0c-0.6,0-1.5-0.1-2.5-0.1c-18-0.9-92.6-4.5-99.4-2.7l-0.4-12.7l0.4-4.9l-7.7-3.3l-1.9-1.1
	h-13.4c0,0-10,0.4-10.9,0.4c-1,0-6.1,1.1-6.1,1.1l-0.6,9.4l1.5,0.7l-0.4,11.6l-1.6-0.9l-31.7,0.7c0,0-17.7-1.8-21.7,0
	c-4.2,1.8-32.1,2.2-32.1,2.2l-1.9,1.1l-10.6,2.2l-18.8-1.6l-47.1,4.2c-4.9-1.8-19.2-7-21.1-6.6c-2.2,0.5-34.2,3-34.2,3l-37.5,0.5
	l-5.8,0.8l-4.8,5.8l4,0.2c0,0,1,3.2,0,3.2c-1,0-5.2-0.6-5.2-0.6l-4,4l7.5,17.2l86.5,10.5l25-6.2l1.5-11.8c0,0.1,0.1,0.3,0.1,0.4
	c1.3,4.9,4.4,4,4.4,4s0.4-10.5,8.3-10.7c8.1-0.4,12.1,1.1,13.4,11.2l26.9,0.7c0,0,3.3-16.7,19.8-15.2c16.7,1.6,17.7,14.1,17.8,15.2
	c0.4,1.1,10,1.6,10,1.6h20.5c0,0,8.1-16.7,19.8-16.3c0,0,7.3,0,8.6,6.7l1,11.2l11.1,2.2l23.4-0.7l8.1-0.4l2.5-5.6l-1.5-0.7
	c0,0,5.4-11.2,29.4-17.2c0,0,20.5,0.4,30.3,23c0,0,5.2,4.9,24.4,2.9l1-5.6c0,0,6.8-9.2,13.4-12.4c-0.7,6.9-1.2,13-0.9,13
	c0.8,0,160.2,6.5,160.2,6.5L595.3,429.6z"/>
<path fill="#405B0A" d="M-1,427.1c0,0,13.1-1,20.2,3c7,4,3.8,7.8,8.1,10.6s13.5,6,13.5,6s11.4,9,17.6,10.2s26.2,0.6,33.1,3.4
	c6.9,2.8,9-9.9,11.4-9.6s10.9,3.6,13.3,3.8c2.4,0.2,8.8,3.6,9.5,3.6c0.8,0,11.2-1.2,11.9-1.2s8.4,0.6,8.4,0.6l31.4,5.4l24,3.4
	l17.3,1c0,0-33.1,33-34.1,33c-1,0-185.6,6.1-185.6,6.1V427.1z"/>
<polygon fill="#1A2302" points="34.8,350.1 32.1,484.6 42,484.6 43.8,350.2 "/>
<path fill="#1A2302" d="M38,388.2l11-13.7c0,0,0.5-0.8,1,0c0.6,0.8,0,1.9,0,1.9S39.3,390,38.8,391.1S38,388.2,38,388.2z"/>
<path fill="#1A2302" d="M-1.1,350.1l0.4,139H17l-3-119.5c0,0,21.9-17.1,22.2-19.3l-3.6-0.1c0,0-19,15.3-19,15.8
	c0.1,0.4-0.4-10-0.6-15.8H4.2L-1.1,350.1z"/>
<polygon fill="#1A2302" points="55.2,350 56.8,483.5 65.2,483.5 60.2,350 "/>
<polygon fill="#1A2302" points="68.4,349.5 65.6,484 75.9,484 77.8,349.6 "/>
<path fill="#1A2302" d="M63.3,351.2c0,0,11.1,13.2,12.4,16.4s0-3.5,0-3.5s-9.9-13.7-10.6-13.9c-0.7-0.3-2.7,0-2.7,0L63.3,351.2z"/>
<polygon fill="#1A2302" points="83.1,349.1 84.4,482.7 103.7,482.4 95.3,349.1 "/>
<path fill="#547A1F" d="M505.7,442.6l-0.4-33.7l13-14.7l32-1.7l14.8-10.3l14.4-1.3l4,12.7l6.5,4.3l2.2,50.7l0.4,11.3l-72.3,0.3
	l-22.7-11.7l0.4-21.7c0,0,4.3,0.7,4.3-0.3s0-12.3,0-12.3l5.8-0.7l14.8,13.7l2.9,12.3L505.7,442.6z"/>
<path fill="#1A2302" d="M92.3,423.1l11.5-13.7c0,0,0.5-0.8,1.1,0s0,1.9,0,1.9S93.6,424.9,93.2,426C92.7,427,92.3,423.1,92.3,423.1z"
	/>
<polygon fill="#1A2302" points="73,388.5 66.1,382.2 64.8,383.8 72.7,391 "/>
<polygon fill="#1A2302" points="556.2,392.4 567.4,380.9 565.9,387.9 561.5,392.2 "/>
<path fill="#1A2302" d="M522.4,350.2v6.5l-3.3-4.6c0,0-0.4-0.5-0.6,0.1c-0.2,0.6-0.2,0.9,0,1.3c0.2,0.4,1.8,2.9,2.1,3.2
	c0.3,0.3,1.5,1.9,1.5,2.4c0,0.5,0.6,6.7,0.6,6.3c0-0.4-3.2,114-3.2,114h6.2l1.8-129.1C527.5,350.2,522.4,350.2,522.4,350.2z"/>
<polygon fill="#1A2302" points="552.9,350.2 551.8,472.2 562.8,476.1 561.9,350.2 "/>
<g>
	<polygon fill="#1A2302" points="512.3,350.2 513.8,478.7 522.6,478.7 516,350.2 	"/>
	<path fill="#1A2302" d="M530.9,350.2c1.6-1.1-6.8,13.1-14.9,22.2l0.8,6c0,0,13.2-21.6,13.7-22.8S530.9,350.2,530.9,350.2z"/>
</g>
<polygon fill="#1A2302" points="500.8,349.5 502.6,472.7 507.3,460.7 503.7,349.2 "/>
<polygon fill="#1A2302" points="581.5,350.2 582.6,478.7 587.3,478.7 583.5,350.2 "/>
<path fill="#1A2302" d="M591.4,371.2c0.8-0.3-3.3,3.4-7.7,5.7l0.5,1.5c0,0,6.7-5.6,7-5.9C591.5,372.3,591.4,371.2,591.4,371.2z"/>
<polygon fill="#1A2302" points="531.3,350.2 529.6,478.4 550.8,478.1 549.4,402.7 547.8,350.2 "/>
<polygon fill="#1A2302" points="569.9,350.4 571.9,465.9 577.3,454.6 573.3,350.2 "/>
<path fill="#FFFFFF" d="M219.3,453.5c0-0.1,0.1-0.3,0.1-0.3l0,0h-0.1l-2.7-0.1l-0.6,0.1c0,0-0.1-0.1-0.1-0.1s0.5-0.7,0.4-0.9
	c-0.1-0.2-0.3-0.5-0.7-0.3s-0.5,0.2-0.5,0.2l0.1-0.2c0,0,0.1-0.2,0.3-0.3c0.1-0.1,0.3-0.2,0.4-0.2s0.6,0.2,0.7,0.5
	c0.1,0.3-0.1,0.9-0.1,0.9s0.4-0.4,1.3-0.3c0.9,0.1,0.9,0.1,1,0.1c0.1,0.1-0.5-0.2-0.5-0.2s0.1-1.1,0.1-1.8s-0.8-0.3-0.8-0.3l0.3-0.2
	c0,0,0.1-0.3,0.4-0.3c0.3-0.1,0.4,0.5,0.4,0.5l0.1,1.7l0.2,0.3c0,0,0.3-0.5,1.2-0.4c0.9,0.1,1.3,0.4,1.3,0.4s0.1,0.1,0.3,0
	c0.2-0.1,0.5-0.2,0.5-0.2s-0.3,0.5-0.2,0.8c0.1,0.3-2.5,0.3-2.5,0.3L219.3,453.5z"/>
<path fill="#FFFFFF" d="M274.9,453.7l0.2,0.2c0,0,0.5-0.1,0.6-0.2c0.1-0.1,0.2-0.2,0.5-0.2c0.3,0.1,0.4,0.2,0.6,0.2s0.4-0.1,0.4-0.1
	s-0.1-1.3,0-1.5c0.1-0.1,0-0.5,0.1-0.6c0.1-0.1,0.2-0.1,0.3-0.1c0.1,0,0.2,0,0.2,0h0.2l-0.2,0.1c0,0-0.1,0-0.1,0.1
	c0,0.1,0.1,0,0.2,0.2s0.1,0.2,0.2,0.3c0,0.1-0.1,0.1-0.1,0.1s-0.2-0.1-0.2,0c0,0.1-0.1,0.5-0.1,1c0.1,0.5,0.2,0.5,0.5,0.6
	c0.3,0.1,0.5,0.1,0.5,0.1s0.3-1,0.3-1.9s0-0.3,0-0.3s0-0.6,0.2-0.1c0.2,0.5,0,0.2,0,0.2s-0.1,1.4-0.1,1.8c0,0.4,0,0.6,0,0.6
	s-0.4,0-1,0.1c-0.6,0.1-1,0-1.2,0c-0.1,0-1.1-0.1-1.1-0.1l-0.3-0.2L274.9,453.7z"/>
<polygon fill="#1A2302" points="588,348.6 587.3,476.9 596.5,476.6 595.9,401.1 595.2,348.6 "/>
<path fill="#547A1F" d="M197.5,457.2l7.7-3c0,0,3.2-10.3,16.5-10.3c13.3,0-15.7-4.3-15.7-4.3l-16.7,15.8l5.7,2l1.8-0.5L197.5,457.2z
	"/>
<path fill="#547A1F" d="M266.5,457.9l-0.8,1.1l5.6-2.8c0,0,6.8-13.3,16.2-13.3s-8-1-8-1L263,453.4l2.2,5.7L266.5,457.9z"/>
<path fill="#547A1F" d="M367,438.2c0,0,9,1,12.3,10.2c3.3,9.2,12.2,1.7,12.2,1.7l2.5-12.3l-29.3-3L367,438.2z"/>
<path fill="#1A2302" d="M464.2,444.3c0,0,4,1,4.1-3.2c0.2-4.3,0.2-4.3,0.2-4.3l14.5-0.1c0,0-0.2,3.1,0.7,3.7s0.9,0.6,0.9,0.6h2.1
	l2.1,1.6L464.2,444.3z"/>
<path fill="#1A2302" d="M465.7,444.7l-0.2-2.5l0-0.6l-6.4-0.4c0,0,0.9,0.8,0.5,2.3c-0.5,1.5-1.4,2.5-1.4,2.5l10.9-1.9"/>
<g>
	<path fill="#1A2302" d="M54.6,476.3c0,0,2.8-2,0.5-6.5s-2.2-4.5-2.2-4.5s4.8,3.2,4.5,8.8s-2.8,3.5-2.8,3.5V476.3z"/>
	<path fill="#1A2302" d="M54,474.4c0,0,2-1.3,2.8-5.9c0.8-4.6,0.8-4.6,0.8-4.6s0.8,3.9-1.5,8.9s-2.6,2.7-2.6,2.7L54,474.4z"/>
	<path fill="#1A2302" d="M55.9,473.2c0,0,0.5-2.1-0.9-6.4c-1.4-4.3-1.4-4.3-1.4-4.3s2,3,2.8,8.4s-0.3,3.6-0.3,3.6L55.9,473.2z"/>
</g>
<g>
	<path fill="#1A2302" d="M486.9,449c0,0,2.3-1.7,0.4-5.5c-1.9-3.8-1.9-3.8-1.9-3.8s4,2.7,3.8,7.3c-0.2,4.6-2.3,2.9-2.3,2.9V449z"/>
	<path fill="#1A2302" d="M486.3,447.5c0,0,1.7-1.1,2.4-4.9c0.7-3.8,0.7-3.8,0.7-3.8s0.6,3.3-1.3,7.4c-1.9,4.2-2.2,2.3-2.2,2.3
		L486.3,447.5z"/>
	<path fill="#1A2302" d="M488,446.5c0,0,0.5-1.8-0.7-5.4c-1.2-3.6-1.2-3.6-1.2-3.6s1.7,2.5,2.4,7.1c0.7,4.6-0.2,3-0.2,3L488,446.5z"
		/>
</g>
<path fill="#C7E28D" d="M284.3,458.2l-2.2,0l1.7,1.1c0,0,0.4,0.1,0.7,0.1s1.9,1.2,1.9,1.2s1.4,1.7,2,1.8c0.6,0.1,0.2,0.1,0.2,0.1
	s-0.1,0.8,0,0.9c0.1,0.1-0.2,0.1-0.2,0.1l-0.4,0.1l0.1,0.1l0.4,0.1c0,0,0.4,0.5,0.6,0.5s0.7-0.1,0.7-0.4c0-0.2-0.1-0.4-0.1-0.4
	l0.2-0.4h0.4l0.6,0.1l2.2,1.2c0,0,0,0.6,0.1,0.7c0.1,0.1,0.9,0.7,0.9,0.7s0.8,0.2,0.9,0.1c0.2-0.1,0.5-0.4,0.5-0.4s-1.2-1.3-1.7-1.3
	s-0.6,0-0.6,0l-2.3-1.1l0.4-0.2c0,0,1.1-0.1,1.2-0.3c0.2-0.2-0.1-0.5-0.7-0.6s-1.1-0.2-1.1-0.2s-0.1,0-0.1-0.3
	c0-0.3,0.1-0.8,0.1-0.8s0.2,0,0.3-0.1c0.1-0.1,0.6-0.5,0.7-0.8s0.4-1.1,0.4-1.1s-0.1-0.1-0.1-0.2c0-0.1,0.2-0.6,0.1-0.6
	s-5.6,0.1-5.6,0.1s-0.2,0.8-0.1,1.1s0.7,0.8,0.7,0.8l0.5,0.4l0.4,0.6l-0.5-0.1l-0.1-0.3l-0.2-0.4l-0.3,0.1l-0.2,0.2l-1.8-1.3
	l-0.1-0.6L284.3,458.2z"/>
<g>
	<path fill="#1A2302" d="M466.6,449c0,0-2-1.7-0.4-5.5c1.6-3.8,1.6-3.8,1.6-3.8s-3.4,2.7-3.2,7.3s2,2.9,2,2.9V449z"/>
	<path fill="#1A2302" d="M467.1,447.5c0,0-1.4-1.1-2-4.9c-0.6-3.8-0.6-3.8-0.6-3.8s-0.5,3.3,1.1,7.4s1.9,2.3,1.9,2.3L467.1,447.5z"
		/>
	<path fill="#1A2302" d="M465.7,446.5c0,0-0.4-1.8,0.6-5.4c1-3.6,1-3.6,1-3.6s-1.4,2.5-2,7.1c-0.6,4.6,0.2,3,0.2,3L465.7,446.5z"/>
</g>
<g>
	<path fill="#405B0A" d="M130.4,462.4l-0.3-2.6c0,0-0.2-0.5-0.2-0.9s-0.1-1.4-0.2-1.5c-0.1-0.1-0.2-0.5-0.1-0.7s0.5-2.6,0.5-2.6
		s0.9-0.4,1.1-0.5c0.2,0,1.3-7.3,1.3-7.3s8.4-1,14-0.1l1.4,7.2c0,0,1,0.3,1,0.4c0,0.1,0.6,2.6,0.6,2.6s0.2,0.2,0.1,0.6
		c-0.1,0.4-0.2,1.9-0.2,1.9s0.1,0.4,0,0.5c-0.1,0.1-0.1,1-0.2,1.3c-0.1,0.3-0.1,0.7-0.1,0.7l0.1,0.3L130.4,462.4z"/>
	<g>
		<polygon fill="#405B0A" points="134.7,446.1 134.5,445.5 136,445.4 135.8,446.2 134.7,446.3 		"/>
		<path fill="#405B0A" d="M135,445.5c0,0,0-0.7-0.4-0.7s-0.5,0-0.5,0s0.5-0.1,0.7,0c0.2,0.1,0.5,0.1,0.4,0.7c0,0,0,0,0,0
			C135,446,135,445.5,135,445.5z"/>
		<path fill="#405B0A" d="M135.2,445.5c0,0-0.3-1.1,0.2-1.3c0.1-0.1,0.2-0.2,0.3-0.2c0,0,0.1,0,0.2,0c0.1,0,0,0,0.1,0.1
			c0,0,0,0-0.1,0c0,0,0,0,0,0c0.1,0,0.1,0,0.2,0c0,0,0.1,0,0.1,0s0,0.1,0,0.1c0,0,0,0.1,0,0.1c0,0,0,0,0,0c0,0-0.1,0-0.1,0
			c-0.1,0-0.1,0-0.2,0c0,0-0.1,0-0.1,0.1c-0.1,0-0.1,0-0.2,0c0,0,0-0.1,0-0.2c-0.1,0-0.2,0-0.2,0c-0.1,0-0.2,0-0.2-0.1
			c0,0,0.1,0,0.1,0c0,0,0,0,0,0c0,0,0.1,0,0.1,0c0,0,0,0,0.1,0c0,0,0.1-0.1,0.1,0c0.1,0,0,0.1,0,0.2c-0.1,0.1-0.1,0.1-0.2,0.2
			C135.1,444.7,135.2,445.1,135.2,445.5C135.5,446.7,135.2,445.5,135.2,445.5z"/>
		<path fill="#405B0A" d="M135.2,445.5c0-0.1,0.1-0.1,0.1-0.2c0,0,0.1-0.1,0.1-0.1c0.1,0,0.1-0.1,0.2-0.1c0.2,0,0.4,0,0.6,0
			c0.1,0,0.2,0,0.3,0.1c-0.1,0-0.1-0.1-0.2-0.1c0,0-0.1,0-0.1,0c-0.2,0-0.4,0-0.6,0c0,0-0.1,0-0.1,0c-0.1,0-0.1,0-0.2,0.1
			c-0.1,0.1-0.3,0.2-0.4,0.3"/>
	</g>
	<polygon fill="#405B0A" points="141.3,446 141.3,444.7 141,444.6 141,444.5 141.2,444.4 142,443.8 142.9,444.4 143,444.4 
		143,444.6 142.7,444.6 142.8,446.1 	"/>
	<polygon fill="#405B0A" points="136,446 135.8,445.5 136.9,445.5 136.8,446.1 135.9,446.1 	"/>
	<path fill="#405B0A" d="M136.3,445.6c0,0,0-0.5,0.2-0.6c0.2-0.1,0.2,0,0.2,0s-0.2-0.1-0.3,0C136.3,445.1,136.2,445.2,136.3,445.6
		C136.2,445.6,136.2,445.6,136.3,445.6C136.3,446,136.3,445.6,136.3,445.6z"/>
	<path fill="#405B0A" d="M136.2,445.6c0-0.1,0-0.1,0-0.2c0,0,0-0.1,0-0.1c0,0,0.1,0,0.1,0c0.1,0,0.1,0,0.2,0c0,0,0.1,0,0.1,0
		c0,0,0,0-0.1-0.1c0,0,0,0,0,0c-0.1,0-0.1,0-0.2,0c0,0,0,0,0,0c0,0,0,0-0.1,0.1C136.3,445.4,136.2,445.4,136.2,445.6"/>
</g>
<g>
	<g>
		<path fill="#547A1F" d="M491.3,439.9l-0.3-29.5c0,0,1.5-3.3,3.8-0.3l-1,0.7c0,0-0.3-1.8-1.8-0.2l0.2,30.7L491.3,439.9z"/>
		<polygon fill="#547A1F" points="492.8,410.5 493.5,413.6 495.9,413.7 496.5,410.5 		"/>
		<path fill="#547A1F" d="M493.2,410.7l0.3-0.6h2.3c0,0,0.2,0.8,0,0.9C495.6,411.1,493.2,410.7,493.2,410.7z"/>
	</g>
	<g>
		<path fill="#547A1F" d="M491.6,440.1l0.3-29.5c0,0-1.2-3.3-3.1-0.3l0.8,0.7c0,0,0.3-1.8,1.5-0.2l-0.1,30.7L491.6,440.1z"/>
		<polygon fill="#547A1F" points="490.3,410.6 489.8,413.8 487.8,413.9 487.3,410.6 		"/>
		<path fill="#547A1F" d="M490.1,410.9l-0.3-0.6h-1.9c0,0-0.2,0.8,0,0.9C488.1,411.3,490.1,410.9,490.1,410.9z"/>
	</g>
</g>
<g>
	<g>
		<path fill="#547A1F" d="M114.8,444.1l-0.3-29.5c0,0,1.5-3.3,3.8-0.3l-1,0.7c0,0-0.3-1.8-1.8-0.2l0.2,30.7L114.8,444.1z"/>
		<polygon fill="#547A1F" points="116.3,414.7 117,417.9 119.4,418 120,414.7 		"/>
		<path fill="#547A1F" d="M116.7,415l0.3-0.6h2.3c0,0,0.2,0.8,0,0.9C119.1,415.4,116.7,415,116.7,415z"/>
	</g>
	<g>
		<path fill="#547A1F" d="M115.1,444.3l0.3-29.5c0,0-1.2-3.3-3.1-0.3l0.8,0.7c0,0,0.3-1.8,1.5-0.2l-0.1,30.7L115.1,444.3z"/>
		<polygon fill="#547A1F" points="113.8,414.9 113.3,418.1 111.3,418.1 110.8,414.9 		"/>
		<path fill="#547A1F" d="M113.6,415.1l-0.3-0.6h-1.9c0,0-0.2,0.8,0,0.9C111.6,415.6,113.6,415.1,113.6,415.1z"/>
	</g>
</g>
<path fill="#547A1F" d="M284.3,458.3l-2.2,0l1.7-1.1c0,0,0.4-0.1,0.7-0.1s1.9-1.2,1.9-1.2s1.4-1.7,2-1.8c0.6-0.1,0.2-0.1,0.2-0.1
	s-0.1-0.8,0-0.9c0.1-0.1-0.2-0.1-0.2-0.1l-0.4-0.1l0.1-0.1l0.4-0.1c0,0,0.4-0.5,0.6-0.5s0.7,0.1,0.7,0.4s-0.1,0.4-0.1,0.4l0.2,0.4
	h0.4l0.6-0.1l2.2-1.2c0,0,0-0.6,0.1-0.7c0.1-0.1,0.9-0.7,0.9-0.7s0.8-0.2,0.9-0.1c0.2,0.1,0.5,0.4,0.5,0.4s-1.2,1.3-1.7,1.3
	c-0.6,0-0.6,0-0.6,0l-2.3,1.1l0.4,0.2c0,0,1.1,0.1,1.2,0.3c0.2,0.2-0.1,0.5-0.7,0.6c-0.6,0.1-1.1,0.2-1.1,0.2s-0.1,0-0.1,0.3
	c0,0.3,0.1,0.8,0.1,0.8s0.2,0,0.3,0.1s0.6,0.5,0.7,0.8c0.1,0.3,0.4,1.1,0.4,1.1s-0.1,0.1-0.1,0.2s0.2,0.6,0.1,0.6s-5.6-0.1-5.6-0.1
	s-0.2-0.8-0.1-1.1s0.7-0.8,0.7-0.8l0.5-0.4l0.4-0.6l-0.5,0.1l-0.1,0.3l-0.2,0.4l-0.3-0.1l-0.2-0.2l-1.8,1.3l-0.1,0.6L284.3,458.3z"
	/>
<g>
	<path fill="#1A2302" d="M-1.2,514.3l387.3-0.3v-66c0,0-2,0-4.7,0c-2.9,0-6.7,0-9.9,0c-6.1,0-24.7,2.1-29.2,2.1s-18.9,6.1-28.7,8.1
		c-9.8,2-29.5,4.3-36.7,5.2s-27.9-1.7-34.5,0s-14.6,1.1-24.2,2.4c-9.6,1.3-53.4-0.1-60.5,0c-7.2,0.1-39.8,0.5-43,0.2
		c-3.2-0.3-52.4,2.4-67.6,4.6c-10.5,1.5-36.2,1.5-48.2,4.7"/>
	<path fill="#1A2302" d="M511.6,443.9c18.8,1.8,43.7,5.2,50.7,4.9c6.9-0.2,33.3-14.9,33.3-14.9l1,80l-229.8,0.2l17.9-65.8
		c0.1-0.1,0.2-0.2,0.3-0.2C388.4,448.5,447,437.7,511.6,443.9z"/>
</g>
<path fill="#1A2302" d="M214.6,466.3l1.3-1.7c0.8,0.2,2,0.2,2,0.2l1-0.5l1.5,0.7l0.7-0.2c0.8-0.7,0.8-0.8,1.7-0.7
	c0.8,0.2-1.7-0.3,0.8,0.2c2.5,0.5,1,0.7,2.5,0.5c1.5-0.2,3-0.5,3-0.5l0.7-0.7c0,0,1.3,0.2,2.2-0.2c0.8-0.3,2.2-0.2,2.2-0.2h1
	l1.7-0.2l2.3-0.5l4,0.3c0,0,0.3-0.2,1-0.3c0.7-0.2-0.3,0,1.7-0.2s3.3,0,3.3,0s0.7,0,1.2,0s-1.3-0.3,0.5,0c1.8,0.3,1.2-0.2,1.8,0.3
	c0.7,0.5-0.3,0.5,0.7,0.5c1,0,1,0,1,0l0,0l1.7-0.3c0.7,0.7,0.7,0.7,0.7,0.7l0.7-0.3c0,0,2.5-0.2,3-0.2c0.5,0-0.3,0,0.5,0
	s1.5,0.2,1.5,0.2s0.2,0.2,1.2,0c1-0.2-0.5-0.8,1-0.2c1.5,0.7,1.5,0.7,1.5,0.7l0,0c0,0,0.2-0.3,0.7-0.5c0.5-0.2,1.3-0.5,1.3-0.5h1.8
	h1.5l0.8,0.5c2-0.2,2.7-0.3,2.7-0.3c1-0.3,1.2-0.2,1.7,0c0.5,0.2,0.5,0.2,0.5,0.2l4.2-0.8c0,0-0.3,0,0.7-0.5c1-0.5,1.7-0.2,1.7-0.2
	l2,0.2c0,0-0.2,0.3,0.7-0.2c0.8-0.5,0.2-0.3,0.8-0.5c0.7-0.2,1,0,1.7-0.3c0.7-0.3,0.7-0.3,0.7-0.3l1.5,0.2c0,0,4.7-0.5,5.3-0.5
	c0.7,0,17.8-1.7,17.8-1.7l2.5-2.7c0,0-0.3-1.3,0.7-1.3s1.8,0.5,1.8,0.5c0.7-0.7,0-0.3,0.7-0.7c0.7-0.3,0.7-0.3,0.7-0.3l0,0
	c0,0-0.7,0.3,1-0.3c1.7-0.7,1.7-0.7,1.7-0.7s-1.5,0,0.7-0.2c2.2-0.2,1.5-0.2,2.2-0.2c0.7,0,0.7,0,0.7,0l1.2-0.3l1.5-0.8
	c0,0,0.5-0.2,1.2-0.3c0.7-0.2,0.5,0.3,1.7-0.3c1.2-0.6,1.2-0.7,1.2-0.7h2.8l1-0.3l0.8-0.4h1.2h0.8h0.7l1.2-0.8
	c1.3,0.3,1.3,0.3,1.3,0.3l1-0.2c1,0.7,1,0.7,1,0.7s-0.3-0.3,0.3-0.7c0.7-0.3-0.5-0.3,0.7-0.3c1.2,0,0.5-0.2,1.2,0s0.7,0.2,0.7,0.2
	l0,0l1.5-1c0,0,1-0.2,1.5,0.2c0.5,0.4-1.8,0.3,0.5,0.3c2.3,0-0.2,0,1.7,0s0.8,0.2,1.8,0c1-0.2-2.5,0.5,0,0c2.5-0.5,4.7,0.1,1-0.2
	c-1.2-0.1,1.5-0.3,1.5-0.3l4.7,0.2h1.2l1.2,0.2l2-0.5c0,0-0.7-0.3,0.8-0.2s0.7,0.2,1.5,0.2c0.8,0-0.5-0.3,0.8,0
	c1.3,0.3-0.7,0,1.3,0.3c2,0.3,1,0.3,2,0.3s1,0,1,0s1.5-1,2.3-1s-1.5-1,0.8,0c2.3,1,1.8,1,1.8,1l2.2,0.1c0,0-0.3,0.2,1-0.3
	c1.3-0.5-0.2-0.5,1.3-0.5c1.5,0,0.8,0,0.8,0s-2.5,0.3,1.7-0.5c4.2-0.8,4-0.2,4.7-0.2c0.7,0,0.3,0.8,0.7,0c0.3-0.8,0.3-0.8,0.3-0.8
	l3.3-0.5c0,0-2.5,0,0.7,0c3.2,0,1.2,0,3.2,0c2,0,1.2,0.2,2,0c0.8-0.2-0.2,0.2,0.8-0.2c1-0.4,1-0.3,1-0.3l1.3-0.5h0.8l1.5,0.2h1.5
	c0,0-1.2-0.5,0.2-0.7c1.3-0.2,0.8-0.5,1.3-0.2c0.5,0.3-0.7-0.2,0.5,0.3c1.2,0.5,1.2,0.5,1.2,0.5l1.5-0.5h1c0,0-0.3-0.5,0.7-0.3
	s1,0.2,1,0.2s0.3-0.2,0.8-0.2c0.5,0,1,0.2,1.7-0.2c0.7-0.3,1.5-0.3,1.5-0.3l0.8-0.2l0.7,0.3l7,0.2l-78.8,10.5L270,466.6l-54.3,2.5
	L214.6,466.3z"/>
<path fill="#1A2302" d="M449.3,407.4c-0.1-0.1-0.1-0.6-0.3-0.8c0-0.1,0-0.8-0.3-1.1c-0.1-0.3-0.4,0.1-0.4,0.1s-0.3-0.6-0.4-0.7
	c-0.1-0.1-0.6-0.8-0.8-1.1c-0.3-0.3-1.1-1-1.4-1.1c-0.3-0.1-0.4-0.4-0.6-0.6c-0.1-0.1-0.4-1-0.6-1.1c0-0.1-0.7-1-0.8-1.1
	c-0.1-0.1-0.7-0.4-0.8-0.7c0-0.1-0.7-0.3-0.8-0.4c-0.1-0.1-0.3-0.7-0.6-1c-0.1-0.3-0.3-1.1-0.3-1.1s0-0.6,0-0.8s0-1-0.1-1.1
	c0,0-0.3-0.3-0.4-0.6c-0.1-0.1-0.3-0.3-0.4-0.4c0-0.1-0.3-0.3-0.7-0.4c0,0-0.8-0.4-1.1-0.4s-0.7,0-1,0.1c-0.3,0.1-0.8,0.4-0.8,0.4
	l-0.3,0.3l-0.6,0.1l-0.3,0.1l-0.3,0.1l-0.3,0.7l0.1,0.4c0,0,0.1,0.1,0.1,0.3c-0.1,0.1-0.1,1.1,0,1.4c0.1,0.1,0.3,0.4,0.3,0.4
	l-0.1,0.6c0,0-0.1,0.6-0.1,0.7c0,0.1,0.1,0.1,0.3,0.1s0.3,0,0.3,0l0.1,0.1l0.1,0.1l0.1,0.1l0.1,0.1l0.1,0.3
	c-0.1,0.4,0.3,0.6,0.3,0.6s0.4,0.1,0.7,0.1c0.3,0,0.8,0.3,1.1,0.3c0.3,0,1,0.7,1,0.7l-0.4,1l-0.6,1.3c0,0-0.4,1.5-0.8,4.8
	c-0.4,3.2,0.4,6.6,0.4,6.6l-0.8,1c-0.7,0.3-0.4,1-0.4,1l-0.6,0.6c0,0-0.7,0.8-0.8,1c-0.3,0.1-0.1,0.4-0.1,0.7s-0.1,0.4-0.1,0.6
	c0,0.1,0.3,0.6,0.4,0.8c0.1,0.3,0.6,0.4,0.6,0.4c0.1,0.3,0.4,0.3,0.7,0.1c0.3-0.1,0.1-0.3,0.1-0.3s0.1,0.1,0.3,0.1s0.4-0.3,0.4-0.3
	c0.1,0,0.3-0.3,0.3-0.3l-0.3-0.1c0,0,0-0.3-0.1-0.6c-0.1-0.3,0.4-0.8,0.4-0.8l0.3,0.7l0.1,0.4c0,0,0,0.6-0.1,0.7
	c-0.1,0.1-0.4,0.6-0.4,0.6s-0.1,0.7-0.1,0.8c0,0.1-0.3,0.4-0.3,0.4l-0.1,0.7c0,0-0.3,1-0.4,1.3c0,0.3-0.1,0.7-0.3,0.8
	c-0.1,0.1-0.3,1.3-0.3,1.3l0.1,0.3c0,0-0.3,0.6-0.4,0.8c0,0.3,0.1,0.7,0.1,0.8c0,0,0.6,1.4,0.7,1.5c0.1,0.1,0.4,1.4,0.4,1.5
	c0,0.1,0,1.5,0.1,1.8c0,0.1,0.6,3,0.8,3.4c0.3,0.4,0.1,1.7,0.1,2.5s-0.3,1.4-0.4,1.5c0,0.1-0.6,0.6-0.6,0.6H437c0,0-0.7,0.4-0.8,0.6
	c-0.1,0.1-1.3,0.7-1.3,0.7l-1,0.3c0,0-0.6,0-0.8,0.4c-0.3,0.3,0.4,1,0.6,1c0.1,0,1.1,0.1,1.3,0.3c0.1,0.1,1.8,0,2,0
	c0.1,0,1.1-0.3,1.3-0.4c0.1,0,0.8-0.4,0.8-0.4s0.6,0.1,0.7,0.3c0.1,0,1.1-0.1,1.5-0.3c0.4-0.1,0.3-0.4,0.4-0.6
	c0-0.1,0.1-0.4,0.1-0.4l1.1,0.1l1.3-0.1c0,0,0.4,0.1,0.6,0.3c0.1,0.1,0.8,0,1,0c0.1,0,1-0.1,1-0.1s0.3-0.3,0.3-0.4
	c0-0.1-0.1-0.6-0.1-0.7s-0.3-0.3-0.3-0.3s0-0.4-0.1-0.6c-0.1-0.1-0.3-0.6-0.3-0.6c-0.7-2.4-0.4-5.1-0.3-5.3c0.1-0.3,0.1-1.4,0.1-1.4
	c0-3.1-0.3-3.2-0.4-3.5c-0.1-0.3-0.6-1.8-0.7-2c-0.1,0-0.4-1.3-0.4-1.3l0.3-0.3c0,0,0-0.8-0.1-1c-0.1-0.1,0-1.4,0.1-1.7
	c0-0.3,0.3-1.4,0.1-1.7c0-0.3,0.7-1.5,0.7-1.8s0.6-1.5,0.7-2.4c0.1-1-0.1-1.5-0.3-1.7c0-0.1,0-0.6-0.3-1.3c-0.3-0.7-0.3-0.4,0-0.6
	c0.4,0,0.3-0.3,0.1-0.6c0-0.3-0.1-0.3-0.3-0.4c-0.1-0.1,0-0.1,0.1-0.3c0.1,0-0.1-0.4-0.1-0.4s0-0.4-0.1-0.8c-0.1-0.4,0.1-1,0.1-1
	s0.3-0.1,0.4,0c0.1,0.1,0.8,0.3,1.1,0.3c0.3,0,1-0.3,1.1-0.3c0.1,0,0.6-0.8,0.7-1c0.1,0,0.1-1,0.1-1.7c0-0.7-0.1-1-0.1-1
	L449.3,407.4C449.3,407.4,449.4,407.1,449.3,407.4z M443.4,438.7c-0.1,0.7-0.7,0.8-0.7,0.8l-0.3-0.1c0,0-0.4,0.4-0.6,0.6
	c0,0.1-0.8,0.4-0.8,0.4l-0.1-0.3l-0.4-1.4c0,0-0.1-1.7-0.1-2.1c0-0.4,0.1-2.8,0.1-2.8s0,0,0.1-1.1c0.1-1.1,0-1.7-0.1-2.1
	c0-0.4-0.4-1.4-0.4-1.4s-0.1-0.3-0.4-1.1c-0.1-0.8,0.4-1.4,0.4-1.4l0.7,0.3l0.7,0.4l0.1,0.4l0.3,0.4c0,0,0.6,0.8,0.7,1.3
	c0.1,0.4,0.4,1.7,0.4,1.7l0.3,2c0,0,0,0,0.1,0.7c0.1,0.6,0.6,3,0.6,3S443.5,438,443.4,438.7z"/>
</svg>
