<?xml version="1.0" encoding="utf-8"?>
<!-- Generator: Adobe Illustrator 18.0.0, SVG Export Plug-In . SVG Version: 6.00 Build 0)  -->
<!DOCTYPE svg PUBLIC "-//W3C//DTD SVG 1.1 Tiny//EN" "http://www.w3.org/Graphics/SVG/1.1/DTD/svg11-tiny.dtd">
<svg version="1.1" baseProfile="tiny" id="Layer_1" xmlns="http://www.w3.org/2000/svg" xmlns:xlink="http://www.w3.org/1999/xlink"
	 x="0px" y="0px" viewBox="0 0 595.3 841.9" xml:space="preserve">
<g id="Layer_3">
	<rect y="345.5" fill="#E25F4D" width="595.2" height="131.2"/>
	<g id="Layer_4">
		<path fill="#A0381D" d="M-1.1,435.4c0,0,10.4,1.7,17.3-1.4c6.9-3.1,43-21.5,53.7-19c10.7,2.5,10.7,5.6,15.2,2.2s16.3-4.2,32.6-9.5
			c16.3-5.3,17-13.7,20.4-11.8c3.5,2,1.7,0.6,7.3,4.2c5.5,3.6-1,9.8,7.3,8.7c8.3-1.1,32.2,5,39.5,0.3c7.3-4.8,6.6-9.5,17-7.8
			s-6.6,8.7,16.6,4.5c23.2-4.2,34.3-19.6,50.9-17.9s7.3,7,37.4,13.1c30.1,6.1,48.5,3.1,66.5,2.8s22.2-1.1,52.7,0.8
			c30.5,2,21.5-7.8,26.7-9.2c5.2-1.4,0,5.3,8,1.4c8-3.9,4.9-2,10.7-4.8c5.9-2.8,3.5-10.1,10.7-9c7.3,1.1,2.4,7.8,14.2,3.1
			c11.8-4.8,0.3-5,23.2-5c22.9,0,35.7,9,44,10.1c8.3,1.1,0,7.3,7.6,9s15.9,6.7,15.9,6.7l0.8,87.5H0.3L-1.1,435.4z"/>
	</g>
</g>
<g id="Layer_1_1_">
	<path fill="#4D1806" d="M0.7,424.4c0,0,3.9-3,8.3-2.8c4.4,0.2,3.4,1.6,7.1,1.6s24.1,1.8,28.5-0.9s15.4-9.2,15.4-9.2
		s4.1-0.2,7.8,0.2c3.7,0.5,22.1,2.8,26,5.1c3.9,2.3,4.6,4.4,9.4,3.9c4.8-0.5,5.5-1.8,12.2-2.1s7.6-1.8,12.2-2.5
		c4.6-0.7,4.4-4.6,9-3.2c4.6,1.4,7.3,5.5,8,5.8s12.9,3.7,14.3,3.7s13.8,1.2,15.2,1.2s17,2.8,20.9,3.2c3.9,0.5,9,1.2,14,1.4
		c5.1,0.2,16.8,3.5,19.3,2.3c2.5-1.2,20.7-1.6,23.7-4.4c3-2.8,9.9-4.6,16.3-4.9c6.4-0.2,6.9,1.4,11.9,2.3c5.1,0.9,3.9,2.1,12.9,0
		c9-2.1,7.8-4.4,12.9-2.8c5.1,1.6,9,3.5,13.3,4.6c4.4,1.2,7.8,5.3,14,4.9c6.2-0.5,6.4-0.5,11.5-0.5c5.1,0,23.9,0.7,29.2,2.3
		c5.3,1.6,11.2,2.5,13.3,1.6c2.1-0.9-3.7,3.2,4.8-2.3c8.5-5.5,12.2-6.9,14.9-7.2c2.8-0.2-0.5-3.2,6.2-1.2c6.7,2.1,3,2.8,9.2,2.1
		s2.5-0.9,8.7,0.5c6.2,1.4,10.1,3,12.2,2.8c2.1-0.2,2.3-2.3,5.3-1.6c3,0.7-2.7-1.4,6.7,4.4s12.4,8.1,16.5,6.9
		c4.1-1.2,11.5-4.9,12.4-5.3c0.9-0.5,6.2-4.2,8.3-3.2c2.1,0.9,0.9,6.2,7.6,7.2c6.7,0.9,14.3,0.7,14.9,0s3.9-7.9,5.5-6.5
		c1.6,1.4-0.2-0.2,7.6,1.8c7.8,2.1,6,2.8,10.8,1.2c4.8-1.6,4.1-5.3,13.3-4.2c9.2,1.2,5.5,3,14.5,3.9c9,0.9,17.7,1.4,19.8,1.8
		c2.1,0.5,8,1.2,8,1.2s1.2,35.8,0.5,35.8S2.5,472.4,2.5,472.4L0.7,424.4z"/>
</g>
<g id="Layer_2">
	<path d="M0.2,440.7l7-4.2c0,0-1.4,4.5,9,4.9s29.1,0,29.1,0s6.6-9,10.4-9.4c3.8-0.3,8.3,0,11.8,0.3s5.5-0.7,10.4,1
		c4.9,1.7,10,3.1,10,3.1l9,7.3c0,0,3.1,0.3,4.9,0c1.7-0.3,9-2.4,12.1-4.5c3.1-2.1,3.1-3.1,6.6-2.4c3.5,0.7,10.4,0.3,10.7-0.7
		s3.5-5.2,5.2-3.5c1.7,1.7,6.9,4.5,8.3,5.5c1.4,1-0.7,3.8,4.5,5.2c5.2,1.4,27.7,0.3,27.7,0.3s4.5,2.1,7.3,2.4
		c2.8,0.3,5.9-2.1,9.4-1.4c3.5,0.7,6.6,2.1,21.1,3.1s29.5,1.7,35,0s11.1-9.4,18.7-8.7c7.6,0.7,7.6,1,15.9,2.1
		c8.3,1,13.5-1.4,21.5-0.7c8,0.7,7.3,2.1,13.5,4.9c6.2,2.8,9-1.7,21.8,0c12.8,1.7,7.6,0.7,22.2,3.1s13.5-1,17.7-1.4s-2.4-5.2,7.3,0
		c9.7,5.2,19.1,9,29.5,7.6c10.4-1.4,14.2-1,18.4-2.8c4.2-1.7,3.8-3.8,9.4-3.1s2.8,3.8,8.7,4.9c5.9,1,29.5,2.8,29.5,2.8
		s6.6-5.2,8-5.2s6.6,3.1,7.6,4.2s1.7,5.2,9,2.1c7.3-3.1,8-4.2,9.4-3.5s0.3,3.5,6.2,4.9c5.9,1.4,20.1-1.7,20.1-1.7s2.1-1.4,8.7-2.4
		s14.6-2.4,16.6-3.8s19.4-5.9,21.5-4.2s4.6,2.8,4.6,2.8v45.9H0.3L0.2,440.7z"/>
	<g>
		<path d="M217.1,361.7c-2.3,1.4-20.3,12.9-15,36.3c0,0,0,0,0,0l3.2,32.8l1.1,11.7c0,0.2,0.2,0.4,0.5,0.4h4.3c0.4,0,1.1-0.1,0.7,0.1
			c-2.4,1-3,3.4-3.9,6c-0.1,0.3,0.1,0.6,0.4,0.6h17.5c0.3,0,0.5-0.3,0.5-0.6c-0.3-1.2-0.9-5.9-3.6-6.3c-0.5-0.1-0.2-0.1-0.2-0.1
			l5.7-0.4c0.2,0,0.4-0.2,0.4-0.4l4.7-43.8c0,0,3.9-25.6-15.8-36.6C217.4,361.6,217.2,361.6,217.1,361.7z"/>
		<path d="M199.5,424.4c0,0-2.8-4.2-6,0.3c-3.2,4.5-4.1,26.5-4.1,26.5l6.3,0.3v-16c0,0,0.3-4.8,3.2-2.2s8.2,9.4,8.2,9.4l-1.8-12.9
			L199.5,424.4z"/>
		<path d="M235.8,423.3c0,0,2.8-4.2,6,0.3c3.2,4.5,4.1,26.5,4.1,26.5l-6.3,0.3v-16c0,0-0.3-4.8-3.2-2.2c-2.8,2.6-8.2,9.9-8.2,9.9
			l1.8-13.4L235.8,423.3z"/>
	</g>
</g>
</svg>
