<?xml version="1.0" encoding="utf-8"?>
<!-- Generator: Adobe Illustrator 18.0.0, SVG Export Plug-In . SVG Version: 6.00 Build 0)  -->
<!DOCTYPE svg PUBLIC "-//W3C//DTD SVG 1.1 Tiny//EN" "http://www.w3.org/Graphics/SVG/1.1/DTD/svg11-tiny.dtd">
<svg version="1.1" baseProfile="tiny" id="Layer_1" xmlns="http://www.w3.org/2000/svg" xmlns:xlink="http://www.w3.org/1999/xlink"
	 x="0px" y="0px" viewBox="0 0 595.3 841.9" xml:space="preserve">
<rect x="-0.1" y="364.9" fill="#FEFA91" width="595" height="160.4"/>
<circle fill="#FFFBCF" cx="309.8" cy="412.6" r="33.8"/>
<path fill="#FADF7A" d="M282.7,425.9c-3.7,0.2-7.3,1.2-10.5,2.9c-0.1-0.9-0.2-1.9-1-2.5s-2.2-0.1-2,0.8c7.6,0.7,15.2,1.4,22.8,2.1
	c-5.7-0.3-11.4-0.5-17.1-0.8c0-2-0.4-3.9-1-5.8c-1-0.1-2-0.3-3-0.4c-0.5-3.9-5.6-6.5-9.1-4.6c-0.5,0.3-1.1,0.7-1.7,0.6
	c-0.3-0.1-0.6-0.3-0.9-0.5c-2.5-2-5.3-4.5-5.1-7.6c-3.5,0.5-7.3-0.8-9.7-3.4c1.2,0,2.5,0.1,3.7,0.1c-0.9-0.1-1.8-0.2-2.7-0.3
	c0.3,0.8,0.7,1.7,1,2.5c2.8,0.4,5.7,0.8,8.5,1.2c-7.1-4.2-15.8-5.7-24-4.3c-1.3,0.2-3.3,0-3.2-1.3c-4.2,0.8-8.4,1.4-12.7,1.9
	c0.9,0,1.8,0.1,2.7,0.1c-2.9-0.9-6.2-0.2-8.5,1.9c-2.4-0.5-4.7,2.5-3.7,4.7c-2.7,0.9-5.5,1.3-8.3,1.3c-0.1,0.9-0.3,1.7-0.4,2.6
	c-1.9-0.9-4.4,0.5-4.6,2.5c-1.1,0-2.3,0-3.4,0.1c0,0.8,0,1.7,0,2.5c-2,0.5-4.1,1-6.1,1.5c-0.2-1-0.5-2-0.7-2.9
	c-5.5-0.4-11.9-0.4-15.3,3.9c-1.3,1.6-2.1,3.7-4,4.5c3.3,2.1,3.4,6.9,2.3,10.6c-1.1,3.7-2.9,7.6-2,11.4c0.9,3.8,4.2,6.5,7.4,8.9
	c5.8,4.4,11.8,8.9,18.7,11.2c5.1,1.7,10.4,2.3,15.7,3.4c5.3,1.1,10.4,2.7,15.6,4.1c10.3,2.7,21,4.2,31.7,4.6
	c12.4,0.4,24.8-0.7,37.1-1.9c17.3-1.7,34.6-3.7,51.9-3.8c2.6-6.7,5.8-13.2,9.8-19.3c-0.9-2.2-1.7-5.1,0-6.8c0.3-0.3,0.6-0.5,0.8-0.8
	c0.8-1.5-1.5-2.4-3-3.3c-2-1.2-2.9-4-1.8-6c-2.4-0.1-2.5-3.6-1.9-5.9c-0.8,0-1.6,0-2.5,0c0.1-1.3-0.1-2.6-0.7-3.7
	c-0.7,0-1.4,0.2-1.9,0.6c-0.9-0.6-1.6-1.6-1.9-2.6c-0.9,1-2.6,0.6-3.9,0.1c-2.7-1.1-5.4-2.1-8.1-3.2c-0.1-0.7,0.3-1.5,0.9-2
	c-2.2-0.8-4.3-1.5-6.5-2.3c-0.1-1-0.2-2-0.3-3c-2-0.4-4.1-0.8-6.1-1.1c-0.7-0.7-1.4-1.4-2-2c-5.8,2.2-12.3,3-18.5,2.3
	c-0.4,0.8-0.8,1.7-1.1,2.5c-3.1,0.3-6.2,1.3-9,2.8C282.9,424.6,282.8,425.2,282.7,425.9z"/>
<path fill="#FFB00B" d="M122.4,426.1c-3.2,0.2-6.3,1.4-9,3.4c-0.1-1-0.2-2.2-0.8-2.9s-1.9-0.1-1.7,0.9c6.5,0.8,13.1,1.6,19.6,2.5
	c-4.9-0.3-9.8-0.6-14.7-0.9c0-2.2-0.3-4.5-0.9-6.6c-0.9-0.1-1.7-0.3-2.6-0.4c-0.5-4.5-4.8-7.4-7.8-5.2c-0.5,0.3-1,0.8-1.5,0.6
	c-0.3-0.1-0.5-0.3-0.7-0.5c-2.2-2.2-4.6-5.1-4.4-8.8c-3,0.6-6.2-1-8.3-3.9c1.1,0,2.1,0.1,3.2,0.1c-0.8-0.1-1.6-0.3-2.3-0.4
	c0.3,1,0.6,1.9,0.9,2.9c2.4,0.5,4.9,0.9,7.3,1.4c-6.1-4.8-13.6-6.6-20.6-5c-1.1,0.3-2.8,0-2.8-1.5c-3.6,0.9-7.3,1.6-10.9,2.2
	c0.8,0,1.5,0.1,2.3,0.1c-2.5-1.1-5.4-0.2-7.3,2.2c-2.1-0.5-4,2.8-3.2,5.3c-2.3,1-4.7,1.5-7.2,1.5c-0.1,1-0.2,2-0.3,2.9
	c-1.6-1-3.8,0.6-4,2.9c-1,0-2,0-2.9,0.1c0,1,0,1.9,0,2.9c-1.7,0.6-3.5,1.2-5.2,1.8c-0.2-1.1-0.4-2.2-0.6-3.4
	c-4.7-0.4-10.3-0.4-13.2,4.5c-1.1,1.8-1.8,4.3-3.4,5.2c2.9,2.4,2.9,7.9,2,12.2c-0.9,4.3-2.5,8.7-1.8,13.1c0.7,4.4,3.6,7.5,6.3,10.2
	c5,5,10.1,10.2,16,12.9c4.3,2,9,2.6,13.5,3.9c4.5,1.3,8.9,3.1,13.4,4.7c8.9,3.1,18,4.8,27.2,5.3c10.6,0.5,21.3-0.8,31.9-2.2
	c14.9-2,29.7-4.2,44.7-4.3c2.2-7.7,5-15.2,8.4-22.1c-0.8-2.6-1.5-5.9,0-7.9c0.2-0.3,0.5-0.6,0.7-1c0.6-1.7-1.3-2.8-2.6-3.7
	c-1.7-1.3-2.5-4.5-1.6-6.9c-2.1-0.2-2.2-4.1-1.6-6.8c-0.7,0-1.4,0-2.1,0c0.1-1.5-0.1-2.9-0.6-4.2c-0.6-0.1-1.2,0.2-1.6,0.7
	c-0.8-0.7-1.4-1.8-1.6-3c-0.8,1.2-2.2,0.7-3.3,0.1c-2.3-1.2-4.7-2.4-7-3.7c-0.1-0.9,0.2-1.7,0.8-2.3c-1.9-0.9-3.7-1.8-5.6-2.6
	c-0.1-1.2-0.2-2.3-0.3-3.5c-1.7-0.4-3.5-0.9-5.2-1.3c-0.6-0.8-1.2-1.6-1.7-2.3c-5,2.6-10.5,3.5-15.9,2.6c-0.3,1-0.6,1.9-1,2.9
	c-2.7,0.4-5.3,1.5-7.7,3.2C122.5,424.5,122.5,425.3,122.4,426.1z"/>
<polygon fill="#E37D00" points="0,422.1 2.4,420.7 2.2,410.4 4.4,408.3 8,410.4 8,413.3 9.7,413.3 10.1,408 13,406.9 13.6,411.8 
	17.7,408.5 21.6,408.5 21.6,412.7 22.7,415.6 22.7,419.1 29.1,419.1 29.1,412.4 30.2,412.4 30.2,408.5 32,408.5 32,412.4 
	33.4,412.4 33.4,425.5 40.9,425.5 42.6,421.2 52.6,422.3 53.2,419.1 54.5,421.2 58.9,420.9 58.9,425.8 60.9,425.5 69.5,425.5 
	73.7,417.3 78.5,426.7 78.5,423 78.5,418.4 79.5,412.7 80.4,412.7 80.4,415.2 80.8,417 81.2,420.9 81.2,424.4 81.7,415.8 82.1,415 
	82.2,412.2 83.7,412.2 83.7,414.6 83.9,416 84.1,422.9 84.8,415.6 85,411.9 86.2,411.9 86.2,414.2 86.8,418 87.5,425 88.9,424.6 
	90.5,419.8 92.1,424.6 109.7,423.9 112.6,418.9 115.3,423.5 127.4,424.2 130.3,428.7 134.7,428.9 135.8,431.7 140.1,431.7 
	151.5,445.9 147.8,446.4 147.9,488.9 147.7,499.6 0,499.6 0,422.7 2,421.1 "/>
<path fill="#FADF7A" d="M412.5,399.9c-8.5,0-15,1.5-18,2.5s-6.5,3-10,4.5s-7,2.5-7,2.5s-6.5,7-8.5,8s-6.5,6.5-6.5,6.5l-4.5,4.5
	l-4.5-31l-3.5,32l-3.5,0.5l-2,4.5l1.5,3.5l-3.5,4.5l-0.5,5.5v4l-3.5,18.5l2,10.5l28.5-2.5l46-63.5l7-9c0,0-0.4-2.3-2.7-4.1
	C417.9,400.8,415.7,399.9,412.5,399.9z"/>
<path fill="#824305" d="M0,497.8l143.5-6.7l11.5-7.4h214.9l21.1,5.9c0,0,52,0,55,0s113.5,0.4,113.5,0.4s1.5,23,1,24.5
	C560,516,0,524.1,0,524.1V497.8z"/>
<g id="Layer_1_1_">
</g>
<polygon fill="#FEFA91" points="595.3,284.2 0,284.3 0,151.2 595.3,151.2 "/>
<path fill="#FFB00B" d="M0,284v-61.8c5.9-2.6,41.4-15.2,45.2-15.5c5.5-0.4,25.8,2.4,25.8,2.4c-0.2,0,6.2,0.6,10-1
	c2.9-1.3,4.3-3.4,5.8-4.1s3.5-4.8,7.6-4.3c1.3,0.2,13.7,7.4,13.7,7.4l6.7-2.5c0,0,10.3-6.7,11.9-6.7c1.5,0,3.9,1.8,3.9,1.8
	s-0.8,1,1,0.5c1.8-0.5,1.3-1.5,3.6-1.5s-0.5,1.5,7.5-4.6c8-6.2,6-15.3,15.2-13.4c1.3,0.3,11.4,3.9,13.4,4.4c2.1,0.5,6.2,4.4,6.2,4.4
	s25.3,9.8,29.2,10.6s14.2-1,14.2-1s9.6,0.3,13.2,1.8c3.6,1.5-1.8,7.7,14.7,1.3s40.8-19.9,40.8-19.9l5.4-5.9c0,0,6.2-8,7.5-7.5
	s18.8,5.9,20.1,7.2c1.3,1.3,6.2,1.8,7.5,2.1c1.3,0.3,9,1.3,10.3,3.1c1.3,1.8,5.9,4.9,7.2,5.4c1.3,0.5,7,3.4,9.3,4.1
	c2.3,0.8,13.2,2.1,14.2,2.6c1,0.5,15.2-2.3,16.3-3.4c1-1,8.6-6.5,10.6-9c2.1-2.6,11.9-14.7,14.2-14.7s7.7,0.3,9.3,1
	s10.1,2.3,10.6,1.5s2.8-0.5,6.2,1.8s13.2,10.6,17.8,12.1c4.6,1.5,13.4,1.5,13.4,1.5s18.8,8.5,22.7,10.6s35.9,13.7,39,13.4
	s9.6-0.8,15.2-0.3c5.7,0.5,17.3,0.8,19.1-0.8c1.8-1.5,3.6-3.9,5.2-2.6s9,1.8,9,1.8l3.9-2.8l5.9-2.1l5.3,2.1v80.8"/>
<g>
	<path fill="#FF910C" d="M0,268.9c0,0,69.7-1.8,92.2-1.7s45.4-0.2,52,0c6.6,0.2,31.3-0.6,49.3-3.1s57.7-8.8,59.8-10.8
		c2.1-2,32.5-7.3,35.5-9.7c3-2.4,21.9-6.5,25.9-6c3.9,0.5,8.4,1.2,14.4,1.7c6,0.5,13,0.8,16.7-0.3c3.8-1.1,6.8-0.7,13.4-4.5
		c6.6-3.9,22.4-6.2,26.3-8.3c3.9-2.1,12.5-7.1,27.8-5.1c15.3,2.1,28.2,7.6,31,8.2c2.7,0.6,11.4,4.1,11.4,4.1v49.8H0V268.9z"/>
	<path fill="#FF910C" d="M441.5,232c0.2-0.4,0.6-0.6,1.1-0.5c3.4,0.8,17,4.2,21.8,5.5c5.5,1.4,31.9,11.3,36.7,9.8
		c7.2-2.1,27.8-12.4,35.1-12.2c18.4,0.6,24.2,16.5,38,15.5c13.7-1,6.8-1,11.9-0.7c2.8,0.2,4.9-7.2,6.1-14c0.2-1.1,1.9-1,1.9,0.2
		l0.9,47.9c0,0.5-0.4,1-0.9,1l-176-0.1c-0.7,0-1.1-0.7-0.9-1.3L441.5,232z"/>
</g>
<path fill="#E37D00" d="M197.6,172c0,0.1-0.3-0.3-0.6-0.5c-0.4-0.3-0.6-0.5-0.6-0.6l0.1,0.6c0,0,0,0,0.2,0.2
	c0.2,0.2,0.2,0.5,0.3,0.4c0.2-0.1,0.3,0.3,0.4,0.2C197.4,172.1,197.6,172,197.6,172z"/>
<polygon fill="#E37D00" points="151,151.2 154.2,151.2 155.1,282.7 151,282.7 "/>
<path fill="#E37D00" d="M510.2,151.2v6.7l-3.3-4.8c0,0-0.4-0.5-0.6,0.1c-0.3,0.6-0.2,0.9,0,1.3s1.8,2.9,2.1,3.4s1.5,1.9,1.5,2.4
	c0,0.5-0.1,8.5-0.1,8.1s-3.2,116.4-3.2,116.4h6.2l2.5-133.6H510.2z"/>
<polygon fill="#E37D00" points="180.1,151.2 184.5,282.1 181.2,283.5 178.5,154.1 178.5,151.3 179.6,151.3 "/>
<polygon fill="#E37D00" points="480.1,150.7 478.8,283.4 483.5,283.4 484.4,150.8 "/>
<path fill="#E37D00" d="M471.8,151.9c0,0,9.3,9.3,10.4,11.6s0.1-2.5,0.1-2.5s-8.3-9.6-8.9-9.8c-0.6-0.2-2.3,0-2.3,0L471.8,151.9z"/>
<path fill="#E37D00" d="M195,235.1l-6.6-14.3c0,0-0.3-0.9-0.6,0s0,2,0,2s6.5,14.2,6.8,15.3C194.8,239.3,195,235.1,195,235.1z"/>
<path fill="#E37D00" d="M395.3,206.6c0,0,7.4-23.5,7.7-23.3c0.3,0.3,1.4-0.1,1.4-0.1s-9,27.1-9,28.8
	C395.5,213.7,395.3,206.6,395.3,206.6z"/>
<polygon fill="#E37D00" points="43.6,150.7 42.7,278.4 46.7,277.7 46.7,151 "/>
<polygon fill="#E37D00" points="580.5,150.9 579.3,284 585.9,284 585.6,235.1 585.5,223.9 585,150.6 "/>
<polygon fill="#E37D00" points="540.7,151.2 539,276.8 550,280.8 549.8,151.2 "/>
<path fill="#E37D00" d="M106.5,227.9"/>
<polygon fill="#E37D00" points="199.4,151.2 199.3,151.2 197.6,281.5 203.5,281.5 203.5,151.2 "/>
<polygon fill="#E37D00" points="392.2,151.2 399.8,151.2 401.7,284.5 389.7,284.5 390.2,151.2 "/>
<polygon fill="#E37D00" points="5,151.2 2.3,284.3 5.3,281.4 7.2,151.2 "/>
<polygon fill="#E37D00" points="91.3,150.7 90.6,282.8 86.7,282.4 87.4,150.7 "/>
<g>
	<polygon fill="#E37D00" points="122,151.2 120.9,279.6 131.3,279.3 130.6,204.7 130.1,151.2 	"/>
	<polygon fill="#E37D00" points="127.7,222.4 136.3,210.6 136.3,212.6 127.7,223.9 	"/>
	<polygon fill="#E37D00" points="124.8,183.8 119.9,174.4 119.9,179.1 121.8,181.9 	"/>
</g>
<path fill="#824305" d="M164.1,151.2v6.6l-5.8-4.7c0,0-0.7-0.5-1.1,0.1c-0.4,0.6-0.4,0.9,0,1.3c0.4,0.4,3.1,2.9,3.7,3.3
	s2.6,1.9,2.6,2.3s-0.1,8.4-0.1,8s-5.7,115.2-5.7,115.2h11.1l4.4-132.1C173.2,151.2,164.1,151.2,164.1,151.2z"/>
<polygon fill="#824305" points="192.2,151.2 196.6,151.2 197.7,284.1 192.2,284.1 "/>
<polygon fill="#824305" points="207.1,151.1 214.9,282 209.2,283.4 204.2,154 204.2,151.2 206.3,151.2 "/>
<polygon fill="#824305" points="224.4,151.2 225.6,283.3 231.7,283.3 228,151.2 "/>
<g>
	<polygon fill="#824305" points="500.1,151.2 501,283.3 509.8,283.3 503.9,151.2 	"/>
	<path fill="#824305" d="M518.7,151.2c1.6-1.1-7.4,15-15.5,24.2l0.8,6.1c0,0,13.8-23.7,14.3-24.8
		C518.9,155.5,518.7,151.2,518.7,151.2z"/>
</g>
<g>
	<polygon fill="#824305" points="452.6,150.9 450.6,282.8 469,282.4 467.8,205.9 467,150.9 	"/>
	<polygon fill="#824305" points="462.7,224 478,211.9 478,214 462.7,225.6 	"/>
	<polygon fill="#824305" points="457.6,184.4 448.8,174.8 448.8,179.6 452.1,182.4 	"/>
</g>
<polygon fill="#824305" points="58,150.7 59,282.6 66.2,281.6 63.6,150.8 "/>
<path fill="#824305" d="M112.1,227"/>
<polygon fill="#824305" points="108.4,173.9 113.9,171.5 114.3,173.2 108,176 "/>
<polygon fill="#824305" points="486.8,151 488,277.7 492.7,265.6 489.8,150.7 "/>
<path fill="#824305" d="M476.3,270.3c0.5-2.2,0-119.4,0-119.4h-2.7l-1.4,120.4L476.3,270.3z"/>
<polygon fill="#824305" points="19.5,150.6 25.4,150.7 24.5,280.4 15.2,280.3 17.8,150.6 "/>
<polygon fill="#824305" points="30.8,151.2 26,280.1 31.4,277.3 34.7,151.2 "/>
<g>
	<polygon fill="#824305" points="94,151.1 98.2,279.4 106.5,283.1 100.7,150.8 	"/>
	<path fill="#824305" d="M104.5,163.5c0,0-3.3,2.6-4.2,4.3s-3.1,0.9-3.1,0.9s1.1-2.1,7.5-8.2L104.5,163.5z"/>
</g>
<path fill="#2D1200" d="M570.2,164.1c-1.1-2.6-4.1-3.9-6.7-3c2.6-0.6,5.3,0.6,6.4,3.1c1.1,2.5,0.2,5.4-2.1,6.8
	C570.3,169.7,571.4,166.8,570.2,164.1z"/>
<polygon fill="#2D1200" points="173.2,151.2 179.8,151.2 181.6,283.6 173.2,283.6 "/>
<path fill="#FFB00B" d="M468.5,401c3.6,0.2,7.1,1.2,10.3,2.9c0.1-0.9,0.2-1.9,0.9-2.5c0.7-0.6,2.1-0.1,2,0.8
	c-7.4,0.7-14.9,1.4-22.3,2.1c5.6-0.3,11.2-0.5,16.7-0.8c0-1.9,0.4-3.9,1-5.7c1-0.1,2-0.3,3-0.4c0.5-3.9,5.5-6.4,8.9-4.5
	c0.5,0.3,1.1,0.7,1.7,0.5c0.3-0.1,0.6-0.3,0.8-0.5c2.5-1.9,5.2-4.4,5-7.5c3.4,0.5,7.1-0.8,9.5-3.4c-1.2,0-2.4,0.1-3.6,0.1
	c0.9-0.1,1.8-0.2,2.7-0.3c-0.3,0.8-0.7,1.7-1,2.5c-2.8,0.4-5.5,0.8-8.3,1.2c7-4.1,15.5-5.7,23.4-4.3c1.3,0.2,3.2,0,3.1-1.3
	c4.1,0.8,8.2,1.4,12.4,1.9c-0.9,0-1.7,0.1-2.6,0.1c2.8-0.9,6.1-0.2,8.3,1.9c2.4-0.4,4.6,2.4,3.6,4.6c2.6,0.8,5.4,1.3,8.2,1.3
	c0.1,0.8,0.3,1.7,0.4,2.5c1.8-0.8,4.3,0.5,4.5,2.5c1.1,0,2.2,0,3.3,0.1c0,0.8,0,1.7,0,2.5c2,0.5,4,1,6,1.5c0.2-1,0.5-1.9,0.7-2.9
	c5.4-0.4,11.7-0.4,15,3.9c1.2,1.6,2,3.7,3.9,4.5c-3.3,2.1-3.3,6.8-2.3,10.5c1.1,3.7,2.8,7.5,2,11.2c-0.9,3.8-4.1,6.4-7.2,8.8
	c-5.7,4.3-11.5,8.8-18.2,11.1c-4.9,1.7-10.2,2.3-15.3,3.3c-5.1,1.1-10.2,2.7-15.2,4c-10.1,2.6-20.5,4.2-31,4.5
	c-12.1,0.4-24.2-0.7-36.2-1.9c-16.9-1.7-33.8-3.6-50.8-3.7c-2.5-6.7-5.7-13.1-9.5-19.1c0.9-2.2,1.7-5,0-6.8
	c-0.3-0.3-0.6-0.5-0.7-0.8c-0.7-1.4,1.5-2.4,2.9-3.2c2-1.2,2.8-3.9,1.8-6c2.4-0.1,2.5-3.6,1.8-5.8c0.8,0,1.6,0,2.4,0
	c-0.1-1.3,0.1-2.5,0.7-3.7c0.7,0,1.4,0.2,1.9,0.6c0.9-0.6,1.6-1.5,1.9-2.6c0.9,1,2.5,0.6,3.8,0.1c2.7-1.1,5.3-2.1,8-3.2
	c0.1-0.7-0.3-1.5-0.9-1.9c2.1-0.8,4.2-1.5,6.3-2.3c0.1-1,0.2-2,0.3-3c2-0.4,4-0.8,6-1.1c0.7-0.7,1.3-1.3,2-2c5.7,2.2,12,3,18.1,2.2
	c0.4,0.8,0.7,1.7,1.1,2.5c3.1,0.3,6.1,1.3,8.8,2.7C468.3,399.7,468.4,400.4,468.5,401z"/>
<path fill="#2D1200" d="M396.7,151.2c0,0-9,18.3-8.9,19.7s0,5.5,0,5.5s8.3-21.5,11.8-25.3H396.7z"/>
<g>
	<polygon fill="#2D1200" points="573.7,151.2 574.7,283.4 584.9,283.4 578,151.2 	"/>
	<path fill="#2D1200" d="M595.1,151.3c1.8-1.1-8.5,15-17.8,24.2l1,6.1c0,0,15.9-23.7,16.4-24.8S595.1,151.3,595.1,151.3z"/>
</g>
<polygon fill="#2D1200" points="79,214.3 70.2,203.9 69.2,205.7 76.7,214.3 75.6,212.7 "/>
<polygon fill="#2D1200" points="519.1,151.4 516.8,283.3 538,282.9 536.6,206.4 535.6,151.4 "/>
<polygon fill="#2D1200" points="523.5,208.5 541.1,196.4 541.1,198.5 523.5,210.1 "/>
<polygon fill="#2D1200" points="523.7,196.2 511.9,186.8 513.5,192.6 518.1,196.1 "/>
<polygon fill="#2D1200" points="72.8,151.4 70.5,284 83.9,284 83.2,235.3 83.1,224.1 82.1,151.2 "/>
<polygon fill="#2D1200" points="109.4,151.4 106.6,274.5 124.9,278.3 124.4,151.4 "/>
<path fill="#2D1200" d="M127.6,227"/>
<polygon fill="#2D1200" points="123.2,196.4 128.5,191.3 129.6,192.6 123.4,198.5 "/>
<polygon fill="#2D1200" points="558.5,151.4 559.8,270.3 565.2,258.9 561.9,151.2 "/>
<path fill="#2D1200" d="M546.3,262c0.5-2,0-110.6,0-110.6h-3.1l-1.7,111.4L546.3,262z"/>
<polygon fill="#2D1200" points="5.9,151.2 15.5,151.2 17.9,284 2.6,284 3.2,151.2 "/>
<polygon fill="#2D1200" points="38.2,151.2 32.6,280.9 38.8,278 42.6,151.2 "/>
<g>
	<polygon fill="#E37D00" points="287.4,151.2 288.3,282.8 292.8,282.8 290.2,151.2 	"/>
	<polygon fill="#E37D00" points="370.7,151.2 371.4,283.6 381.4,283.2 377,151.2 	"/>
	<polygon fill="#E37D00" points="292.6,151.2 297.2,276.5 306.3,276.5 299.4,151.2 	"/>
	<path fill="#E37D00" d="M290.6,151.4c0,0,1.7,3.7,2.7,4.6c1,1,0.6,3.4,0.6,3.4s-1.3-1.3-5.2-8.3L290.6,151.4z"/>
	<path fill="#E37D00" d="M303.9,151.2c0,0-4.4,15.9-4.3,17c0.1,1.2,0,4.8,0,4.8s4.1-18.6,5.8-21.8H303.9z"/>
	<g>
		<polygon fill="#E37D00" points="364.2,150.5 363.8,284 359.5,284 362.3,150.5 		"/>
		<path fill="#E37D00" d="M355.1,150.6c-0.8-1.1,3.6,15.1,7.5,24.5l-0.4,6.1c0,0-6.7-23.9-7-25.1
			C355.1,154.9,355.1,150.6,355.1,150.6z"/>
	</g>
	<g>
		<polygon fill="#E37D00" points="343.4,151.5 342.3,283.2 352.6,282.9 352,206.4 351.4,151.5 		"/>
		<polygon fill="#E37D00" points="349.1,224.5 357.6,212.4 357.6,214.5 349.1,226 		"/>
		<polygon fill="#E37D00" points="346.2,184.9 341.2,175.3 341.2,180.1 343.1,182.9 		"/>
	</g>
	<path fill="#824305" d="M274,183.4c0.1,0.1-0.6-0.3-1-0.4c-0.7-0.3-1-0.4-1.1-0.5l0.2,0.5c0,0,0,0,0.3,0.2c0.3,0.1,0.4,0.4,0.6,0.3
		c0.3-0.1,0.6,0.2,0.7,0.1C273.7,183.5,274,183.4,274,183.4z"/>
	<polygon fill="#824305" points="236.9,151.1 234.6,284.1 242.9,284.1 244.5,151.2 	"/>
	<path fill="#824305" d="M218.6,151.9c0,0,16.5,10.4,18.4,13c2,2.5,0.1-2.8,0.1-2.8s-14.7-10.7-15.7-10.9c-1-0.2-4.1,0-4.1,0
		L218.6,151.9z"/>
	<path fill="#824305" d="M237.4,193.9l9.3-11.2c0,0,0.4-0.7,0.9,0c0.5,0.7,0,1.5,0,1.5s-9.1,11.1-9.5,11.9
		C237.7,197.1,237.4,193.9,237.4,193.9z"/>
	<path fill="#824305" d="M279.2,169.3c0,0,13.2-18.3,13.7-18.1c0.5,0.2,2.5-0.1,2.5-0.1s-16.1,21.1-16,22.4
		C279.6,174.9,279.2,169.3,279.2,169.3z"/>
	<polygon fill="#824305" points="310.1,151.2 309.1,283.4 312.3,283.4 312.3,151.2 	"/>
	<polygon fill="#824305" points="324.6,151.2 332.5,284.1 348.7,284.1 336.7,151.2 	"/>
	<path fill="#824305" d="M320,151.1c0,0,2.9,2.8,4.9,3.6c1.9,0.8,1,2.6,1,2.6s-2.4-1-9.2-6.4L320,151.1z"/>
	<path fill="#824305" d="M346.2,151.2c0,0-7.8,18.3-7.7,19.7c0.1,1.4,0,5.5,0,5.5s7.2-21.5,10.3-25.3H346.2z"/>
	<path fill="#2D1200" d="M313.8,183.4c0.1,0.1-0.7-0.3-1.2-0.4c-0.8-0.3-1.1-0.4-1.2-0.5l0.2,0.5c0,0,0,0,0.3,0.2
		c0.3,0.1,0.5,0.4,0.6,0.3c0.3-0.1,0.7,0.2,0.8,0.1C313.4,183.5,313.8,183.4,313.8,183.4z"/>
	<path fill="#2D1200" d="M209,151.1l-4.1,133h14.9l-2.6-114.3c0,0,18.4-16.3,18.6-18.5l-3-0.1c0,0-16,14.7-15.9,15.1
		c0.1,0.4-0.3-9.6-0.5-15.1L209,151.1L209,151.1z"/>
	<polygon fill="#2D1200" points="257.7,151.2 259.1,283.3 266.1,283.3 262,151.2 	"/>
	<polygon fill="#2D1200" points="271.1,151.1 268.5,284.1 278,284.1 279.8,151.2 	"/>
	<path fill="#2D1200" d="M250.1,151.9c0,0,19,10.4,21.2,13c2.3,2.5,0.1-2.8,0.1-2.8s-17-10.7-18.2-10.9c-1.2-0.2-4.7,0-4.7,0
		L250.1,151.9z"/>
	<polygon fill="#2D1200" points="305.6,151.2 307,283.3 327.6,283 318.6,151.2 	"/>
	<path fill="#2D1200" d="M308.5,232.6l-13.5-11.2c0,0-0.6-0.7-1.3,0c-0.7,0.7,0,1.5,0,1.5s13.2,11.1,13.8,11.9
		C308.2,235.8,308.5,232.6,308.5,232.6z"/>
	<path fill="#2D1200" d="M319.7,169.3c0,0,15.2-18.3,15.7-18.1c0.6,0.2,2.9-0.1,2.9-0.1s-18.5,21.1-18.4,22.4
		C320.1,174.9,319.7,169.3,319.7,169.3z"/>
	<polygon fill="#2D1200" points="355.3,151.2 354.1,283.4 357.8,283.4 357.8,151.2 	"/>
	<polygon fill="#2D1200" points="371.9,151.2 381.1,284.1 399.7,284.1 385.8,151.2 	"/>
	<path fill="#2D1200" d="M366.7,151.1c0,0,3.4,2.8,5.6,3.6s1.2,2.6,1.2,2.6s-2.7-1-10.6-6.4L366.7,151.1z"/>
	<polygon fill="#2D1200" points="274.8,211.9 280.1,206.8 281.2,208.1 275,214 	"/>
</g>
<polygon fill="#2D1200" points="105.1,174 111,178.4 109.9,179.7 103,174.6 "/>
<g>
	<path fill="#2D1200" d="M0,294.4l385.5,0.9v-45.9c0,0-2,0-4.6,0c-2.9,0-6.7,0-9.9,0c-6.1-0.1-24.6,2.4-29.1,2.4s-18.8,7.1-28.6,9.5
		s-29.4,5.1-36.5,6.1c-7.1,1-27.8-2-34.4,0c-6.6,2-14.6,1.3-24.1,2.8c-9.5,1.4-53.2-0.1-60.3,0c-7.1,0.1-39.7,0.6-42.9,0.3
		c-3.1-0.4-52.2,2.8-67.2,5.4c-10.5,1.8-36.1,1.8-48,5.5"/>
	<path fill="#2D1200" d="M500.2,263.7c18.7,2.1,55-13.3,62-13.5c6.9-0.3,33.2-17.6,33.2-17.6V295l-227.7,0.2l17.9-45.7
		c0.1-0.2,0.2-0.2,0.3-0.2C389.1,249.8,436,256.5,500.2,263.7z"/>
</g>
<path d="M420,230h0.2c0,0-0.1,0.2-0.1,0.7c0,0.5,0,1.2,0.1,1.2c0.1,0.1,0.4,0.7,0.5,0.7s0.6,0.2,0.8,0.2s0.7-0.1,0.8-0.2
	c0.1-0.1,0.3,0,0.3,0s0.2,0.4,0.1,0.7c-0.1,0.3-0.1,0.6-0.1,0.6s-0.2,0.3-0.1,0.3c0.1,0.1,0.2,0.1,0.1,0.2c-0.1,0.1-0.2,0.1-0.2,0.3
	c-0.1,0.2-0.2,0.4,0.1,0.4c0.2,0.1,0.2-0.1,0,0.4s-0.2,0.8-0.2,0.9c-0.1,0.1-0.3,0.5-0.2,1.2c0.1,0.6,0.5,1.5,0.5,1.7
	c0,0.2,0.5,1.1,0.5,1.3c-0.1,0.2,0.1,1,0.1,1.2c0.1,0.2,0.2,1.1,0.1,1.2c-0.1,0.1-0.1,0.7-0.1,0.7l0.2,0.2c0,0-0.2,0.9-0.3,0.9
	c-0.1,0.1-0.4,1.2-0.5,1.4c-0.1,0.2-0.3,0.3-0.3,2.5c0,0,0,0.8,0.1,1c0.1,0.2,0.3,2.1-0.2,3.8c0,0-0.1,0.3-0.2,0.4
	c-0.1,0.1-0.1,0.4-0.1,0.4s-0.2,0.1-0.2,0.2s-0.1,0.4-0.1,0.5s0.2,0.3,0.2,0.3s0.6,0.1,0.7,0.1s0.6,0.1,0.7,0s0.4-0.2,0.4-0.2
	l0.9,0.1l0.8-0.1c0,0,0.1,0.2,0.1,0.3c0.1,0.1,0,0.3,0.3,0.4c0.3,0.1,1,0.2,1.1,0.2c0.1-0.1,0.5-0.2,0.5-0.2s0.5,0.3,0.6,0.3
	c0.1,0.1,0.8,0.3,0.9,0.3c0.1,0,1.3,0.1,1.4,0s0.8-0.2,0.9-0.2c0.1,0,0.6-0.5,0.4-0.7c-0.2-0.3-0.6-0.3-0.6-0.3l-0.7-0.2
	c0,0-0.8-0.4-0.9-0.5s-0.6-0.4-0.6-0.4h-0.2c0,0-0.4-0.3-0.4-0.4c-0.1-0.1-0.3-0.5-0.3-1.1s-0.1-1.5,0.1-1.8
	c0.2-0.3,0.6-2.3,0.6-2.4c0.1-0.2,0.1-1.2,0.1-1.3s0.2-1,0.3-1.1c0.1-0.1,0.5-1.1,0.5-1.1c0-0.1,0.1-0.4,0.1-0.6
	c-0.1-0.2-0.3-0.6-0.3-0.6l0.1-0.2c0,0-0.1-0.8-0.2-0.9c-0.1-0.1-0.2-0.4-0.2-0.6c-0.1-0.2-0.3-0.9-0.3-0.9l-0.1-0.5
	c0,0-0.2-0.2-0.2-0.3s-0.1-0.6-0.1-0.6s-0.2-0.3-0.3-0.4c-0.1-0.1-0.1-0.5-0.1-0.5l0.1-0.3l0.2-0.5c0,0,0.4,0.4,0.3,0.6
	c-0.1,0.2-0.1,0.4-0.1,0.4l-0.2,0.1c0,0,0.1,0.2,0.2,0.2c0,0,0.2,0.2,0.3,0.2s0.2-0.1,0.2-0.1s-0.1,0.1,0.1,0.2s0.4,0.1,0.5-0.1
	c0,0,0.3-0.1,0.4-0.3c0.1-0.2,0.3-0.5,0.3-0.6s-0.1-0.2-0.1-0.4c0-0.2,0.1-0.4-0.1-0.5c-0.1-0.1-0.6-0.7-0.6-0.7l-0.4-0.4
	c0,0,0.2-0.5-0.3-0.7l-0.6-0.7c0,0,0.6-2.4,0.3-4.7c-0.3-2.3-0.6-3.4-0.6-3.4l-0.4-0.9l-0.3-0.7c0,0,0.5-0.5,0.7-0.5
	s0.6-0.2,0.8-0.2s0.5-0.1,0.5-0.1s0.3-0.1,0.2-0.4l0.1-0.2l0.1-0.1l0.1-0.1l0.1-0.1l0.1-0.1c0,0,0.1,0,0.2,0c0.1,0,0.2,0,0.2-0.1
	s-0.1-0.5-0.1-0.5l-0.1-0.4c0,0,0.1-0.2,0.2-0.3c0.1-0.2,0.1-0.9,0-1c0-0.1,0.1-0.2,0.1-0.2l0.1-0.3l-0.2-0.5l-0.2-0.1l-0.2-0.1
	l-0.4-0.1l-0.2-0.2c0,0-0.4-0.2-0.6-0.3s-0.5-0.1-0.7-0.1s-0.8,0.3-0.8,0.3c-0.3,0.1-0.5,0.2-0.5,0.3c-0.1,0.1-0.2,0.2-0.3,0.3
	c-0.1,0.2-0.3,0.4-0.3,0.4c-0.1,0.1-0.1,0.6-0.1,0.8c0,0.2,0,0.6,0,0.6s-0.1,0.6-0.2,0.8c-0.2,0.2-0.3,0.6-0.4,0.7
	c-0.1,0.1-0.6,0.2-0.6,0.3c-0.1,0.2-0.5,0.4-0.6,0.5c-0.1,0.1-0.6,0.7-0.6,0.8c-0.1,0.1-0.3,0.7-0.4,0.8c-0.1,0.1-0.2,0.3-0.4,0.4
	c-0.2,0.1-0.8,0.6-1,0.8c-0.2,0.2-0.5,0.7-0.6,0.8c-0.1,0.1-0.3,0.5-0.3,0.5s-0.2-0.3-0.3-0.1c-0.2,0.2-0.2,0.7-0.2,0.8
	c-0.1,0.2-0.1,0.5-0.2,0.6C419.9,229.8,420,230,420,230z M423.8,250.9c0,0,0.3-1.7,0.4-2.1c0.1-0.5,0.1-0.5,0.1-0.5l0.2-1.4
	c0,0,0.2-0.9,0.3-1.2c0.1-0.3,0.5-0.9,0.5-0.9l0.2-0.3l0.1-0.3l0.5-0.3l0.5-0.2c0,0,0.4,0.4,0.3,1c-0.2,0.6-0.3,0.8-0.3,0.8
	s-0.3,0.7-0.3,1c-0.1,0.3-0.2,0.7-0.1,1.5c0.1,0.8,0.1,0.8,0.1,0.8s0.1,1.7,0.1,2s-0.1,1.5-0.1,1.5l-0.3,1l-0.1,0.2
	c0,0-0.6-0.2-0.6-0.3c-0.1-0.1-0.4-0.4-0.4-0.4l-0.2,0.1c0,0-0.4-0.1-0.5-0.6S423.8,250.9,423.8,250.9z"/>
<circle fill="#FFFDFD" cx="429.4" cy="222.2" r="0.1"/>
<path d="M618,105.6"/>
<image display="none" width="2797" height="1869" xlink:href="../../../../illustration bridge and forest ideas/St_Ives,_Cambridgeshire,_England-7Aug2011.jpg"  transform="matrix(5.721463e-02 0 0 5.721463e-02 909.2156 175.6503)">
</image>
<path d="M768.9,38.3"/>
<path fill="#7BBDCF" d="M1074.3,212.1c-0.5,0-181.4-3.5-181.4-3.5l1.1-31.6l181.7,0.3L1074.3,212.1z"/>
<path d="M997.8,203L997.8,203c0.1,0,0,0.1,0,0.1s0,0.2,0,0.2s0.1,0.1,0.1,0.1c0,0,0.1,0.1,0.2,0.1s0.1,0,0.2-0.1h0.1
	c0,0,0,0.1,0,0.1c0,0.1,0,0.1,0,0.1s-0.1,0.1,0,0.1c0,0,0,0,0,0.1c0,0,0,0-0.1,0.1c0,0.1,0,0.1,0,0.1c0.1,0,0.1,0,0,0.1
	c-0.1,0.1-0.1,0.2-0.1,0.2s-0.1,0.1-0.1,0.2s0.1,0.3,0.1,0.3s0.1,0.2,0.1,0.2c0,0.1,0,0.2,0,0.2s0.1,0.2,0,0.2v0.2h0.1l-0.1,0.2
	c0,0-0.1,0.2-0.1,0.3c0,0.1-0.1,0.1-0.1,0.5v0.2c0,0,0.1,0.4-0.1,0.7c0,0,0,0.1-0.1,0.1v0.1c0,0-0.1,0-0.1,0.1s0,0.1,0,0.1l0.1,0.1
	h0.1h0.1l0.1-0.1h0.2h0.2v0.1c0,0,0,0.1,0.1,0.1c0.1,0,0.2,0.1,0.2,0l0.1-0.1l0.1,0.1l0.2,0.1c0,0,0.2,0,0.3,0
	c0.1,0,0.2-0.1,0.2-0.1s0.1-0.1,0.1-0.2c0-0.1-0.1-0.1-0.1-0.1h-0.1c0,0-0.2-0.1-0.2-0.1l-0.1-0.1h-0.1l-0.1-0.1
	c0,0-0.1-0.1-0.1-0.2s0-0.3,0-0.3s0.1-0.4,0.1-0.4c0-0.1,0-0.2,0-0.3c0,0,0-0.2,0.1-0.2l0.1-0.2c0,0,0-0.1,0-0.1s-0.1-0.1-0.1-0.1
	v-0.1c0,0,0-0.2-0.1-0.2c-0.1,0-0.1-0.1-0.1-0.1s-0.1-0.2-0.1-0.2v-0.1l-0.1-0.1v-0.1l-0.1-0.1v-0.1v-0.1l0.1-0.1
	c0,0,0.1,0.1,0.1,0.1s0,0.1,0,0.1h-0.1c0,0,0,0.1,0.1,0c0,0,0.1,0.1,0.1,0l0,0l0,0c0,0,0.1,0,0.1,0c0,0,0.1,0,0.1-0.1
	s0.1-0.1,0.1-0.1V204c0,0,0-0.1,0-0.1c0-0.1-0.1-0.2-0.1-0.2l-0.1-0.1c0,0,0.1-0.1-0.1-0.1l-0.1-0.1c0,0,0.1-0.4,0.1-0.8
	c-0.1-0.4-0.1-0.6-0.1-0.6l-0.1-0.2l-0.1-0.2l0.1-0.1c0,0,0.1-0.1,0.2-0.1s0.1,0,0.1,0s0.1,0,0.1-0.1v-0.1l0,0l0,0l0,0l0,0l0,0h0.1
	v-0.1v-0.1c0,0,0-0.1,0.1-0.1c0-0.1,0-0.2,0-0.2v-0.1V201v-0.1h-0.1h-0.1h-0.1l-0.1-0.1c0,0-0.1-0.1-0.1-0.1s-0.1,0-0.1,0l-0.2,0.1
	c-0.1,0-0.1,0.1-0.1,0.1s0,0.1-0.1,0.1l-0.1,0.1c0,0,0,0.1,0,0.2c0,0.1,0,0.1,0,0.1s0,0.1-0.1,0.2c-0.1,0.1-0.1,0.1-0.1,0.1
	s-0.1,0-0.1,0.1c0,0-0.1,0.1-0.1,0.1c0,0-0.1,0.1-0.1,0.2l-0.1,0.2l-0.1,0.1c0,0-0.2,0.1-0.2,0.2s-0.1,0.2-0.1,0.2l-0.1,0.1
	c0,0,0-0.1-0.1,0c0,0-0.1,0.1-0.1,0.2c0,0,0,0.1-0.1,0.1C997.8,203,997.8,203,997.8,203z M998.5,206.7c0,0,0.1-0.3,0.1-0.4
	c0-0.1,0-0.1,0-0.1l0.1-0.3c0,0,0.1-0.2,0.1-0.2s0.1-0.2,0.1-0.2l0.1-0.1v-0.1l0.1-0.1l0.1-0.1c0,0,0.1,0.1,0.1,0.2
	c-0.1,0.1-0.1,0.2-0.1,0.2s-0.1,0.1-0.1,0.2c0,0.1-0.1,0.1,0,0.3c0,0.2,0,0.2,0,0.2s0,0.3,0,0.4c0,0.1,0,0.3,0,0.3l-0.1,0.2v0.1
	l-0.1-0.1l-0.1-0.1h-0.1c0,0-0.1,0-0.1-0.1C998.6,206.8,998.5,206.7,998.5,206.7z"/>
<path fill="#FFFFFF" d="M1030.3,202.5l-8.5,0.2c0,0-4.8-0.4-5.8,0c-1.1,0.4-8.6,0.5-8.6,0.5l-0.5,0.3l-2.8,0.5l-5.1-0.4l-14.7,1.1
	l-0.4,2.7l4.5,0.5c0,0,0.8,0.3,1.1,1.4c0.4,1.1,1.2,0.9,1.2,0.9s0.1-2.4,2.2-2.5c2.2-0.1,3.3,0.3,3.6,2.6l7.2,0.2
	c0,0,0.9-3.9,5.3-3.5c4.5,0.4,4.8,3.3,4.8,3.5c0.1,0.3,2.7,0.4,2.7,0.4h5.5c0,0,2.2-3.9,5.3-3.8c0,0,2,0,2.3,1.5l0.3,2.6l3,0.5
	l6.3-0.2l2.2-0.1l0.7-1.3l-0.4-0.2c0,0,1.4-2.6,7.9-4c0,0,5.5,0.1,8.2,5.3c0,0,1.4,1.1,6.6,0.7l0.3-1.3c0,0,2.7-3.2,4.8-3.1
	l-0.2-4.5c0,0-25.7-1.1-27.8-0.7l-0.1-2.9l0.1-1.1l-2.1-0.8l-0.5-0.3h-3.6c0,0-2.7,0.1-2.9,0.1c-0.3,0-1.7,0.3-1.7,0.3l-0.2,2.2
	l0.4,0.2l-0.1,2.7L1030.3,202.5z"/>
<polygon fill="#C1BDBD" points="1039.2,197.7 1039.2,199.1 1039.2,207.7 1039.8,211.5 1041.2,211.2 1041.3,207.8 1040.9,207.3 
	1041,199.6 1041.2,198.4 "/>
<path fill="#1E1E1E" d="M1003.5,210.4h3c0,0,1.1-2.2,3.6-3c0,0-3.5-2.3-6.5,2.8C1003.6,210.3,1003.5,210.4,1003.5,210.4z"/>
<path fill="#1E1E1E" d="M1021.8,210.8c0,0,1.8-3.6,5.5-3.9c0,0-3.5,2-3.9,3.6L1021.8,210.8z"/>
<path fill="#1E1E1E" d="M990.2,210.4l3.5,0.1c0,0,0.3-1.9,1.4-2.2c0,0-0.5-1-2.2-0.8C992.9,207.5,990.4,207.9,990.2,210.4z"/>
<path fill="#1E1E1E" d="M1041.1,211.3l1,0.1c0,0,1.3-3.9,7.3-4.9c0,0,4-0.9,8.4,5l0.1-0.5c0,0-2.4-4.4-8.4-5.3
	C1049.4,205.6,1043.2,207.5,1041.1,211.3z"/>
<polygon points="897.6,232.7 1066.1,222.9 1080.9,251.2 891.2,244.8 896,233.9 "/>
<path fill="#7BBDCF" d="M1112.4,262.3v12.4c0,0,8.4-2.6,8.4-3.1c0-0.5-0.2-10-0.2-10L1112.4,262.3z"/>
<g id="wolves1">
</g>
<polygon fill="#E37D00" points="595.3,410.7 591.7,409.3 591.9,399.3 588.6,397.3 583,399.3 583,402.1 580.5,402.1 580,396.9 
	575.5,395.9 574.5,400.6 568.3,397.4 562.4,397.4 562.4,401.6 560.7,404.3 560.7,407.8 551,407.8 551,401.2 549.3,401.2 
	549.3,397.4 546.5,397.4 546.5,401.2 544.3,401.2 544.3,414 532.9,414 530.4,409.9 515.1,410.9 514.2,407.8 512.3,409.9 
	505.6,409.5 505.6,414.3 502.5,414 489.4,414 483,406.1 475.6,415.2 475.6,411.6 475.6,407.1 474.1,401.6 472.7,401.6 472.7,404 
	472.2,405.7 471.6,409.5 471.6,413 470.7,404.6 470.2,403.8 470,401.1 467.8,401.1 467.8,403.4 467.4,404.7 467.1,411.4 
	466.1,404.3 465.8,400.7 463.9,400.7 463.9,403 463,406.7 461.9,413.5 459.7,413.1 457.3,408.5 454.9,413.1 428.1,412.5 
	423.7,407.6 419.5,412.1 401.1,412.7 396.7,417.1 389.9,417.3 388.3,420 381.7,420 364.5,433.8 370,434.3 369.9,475.7 370.2,486.1 
	595.3,486.1 595.3,411.2 592.2,409.7 "/>
<path fill="#824305" d="M295.8,452l-31.7,0.6c0,0-17.7-1.7-21.7,0c-4.2,1.7-32.1,2.2-32.1,2.2l-1.9,1.1l-10.6,2.2l-18.8-1.5
	l-54.7,4.8l-1.3,11.2l16.7,2.2c0,0,2.9,1.1,4.2,5.8s4.4,3.9,4.4,3.9s0.4-10.2,8.3-10.4c8.1-0.4,12.1,1.1,13.4,10.8l26.9,0.6
	c0,0,3.3-16.2,19.8-14.7c16.7,1.5,17.7,13.6,17.8,14.7c0.4,1.1,10,1.5,10,1.5h20.5c0,0,8.1-16.2,19.8-15.8c0,0,7.3,0,8.6,6.5l1,10.8
	l11.1,2.2l23.4-0.6l8.1-0.4l2.5-5.4l-1.5-0.6c0,0,5.4-10.8,29.4-16.7c0,0,20.5,0.4,30.3,22.3c0,0,5.2,4.8,24.4,2.8l1-5.4
	c0,0,10.2-13.4,17.7-13l-0.6-19c0,0-95.6-4.8-103.3-2.8l-0.4-12.3l0.4-4.8l-7.7-3.2l-1.9-1.1h-13.4c0,0-10,0.4-10.9,0.4
	s-6.1,1.1-6.1,1.1l-0.6,9.1l1.5,0.6l-0.4,11.2L295.8,452z"/>
<path fill="#824305" d="M162.8,454.9L162.8,454.9c0.1,0,0,0.1,0,0.3s0,0.5,0,0.5s0.1,0.3,0.3,0.3c0,0,0.3,0.1,0.4,0.1s0.3,0,0.4-0.1
	h0.1c0,0,0,0.1,0,0.3s0,0.3,0,0.3s-0.1,0.1,0,0.1c0,0,0,0,0,0.1c0,0,0,0-0.1,0.1c0,0.1,0,0.1,0,0.1c0.1,0,0.1,0,0,0.1
	c-0.1,0.3-0.1,0.4-0.1,0.4s-0.1,0.3-0.1,0.5s0.3,0.6,0.3,0.8c0,0.1,0.3,0.5,0.3,0.5c0,0.1,0,0.5,0,0.5s0.1,0.5,0,0.5v0.4h0.1
	l-0.1,0.4c0,0-0.1,0.5-0.3,0.6c0,0.1-0.1,0.1-0.1,1.1v0.4c0,0,0.1,0.9-0.1,1.6c0,0,0,0.1-0.1,0.1v0.1c0,0-0.1,0-0.1,0.1s0,0.1,0,0.3
	l0.1,0.1h0.3h0.3l0.1-0.1h0.4h0.4v0.1c0,0,0,0.1,0.1,0.1s0.4,0.1,0.5,0l0.3-0.1l0.3,0.1l0.4,0.1c0,0,0.5,0,0.6,0
	c0.1,0,0.4-0.1,0.4-0.1s0.3-0.3,0.1-0.4c0-0.1-0.3-0.1-0.3-0.1H167c0,0-0.4-0.1-0.4-0.3l-0.3-0.1h-0.1l-0.1-0.1c0,0-0.1-0.3-0.1-0.5
	s0-0.6,0-0.8s0.3-1,0.3-1c0-0.1,0-0.5,0-0.6c0,0,0-0.5,0.1-0.5l0.3-0.5c0,0,0-0.1,0-0.3s-0.1-0.3-0.1-0.3v-0.1c0,0,0-0.4-0.1-0.4
	s-0.1-0.1-0.1-0.3s-0.1-0.4-0.1-0.4v-0.3l-0.1-0.1v-0.3l-0.1-0.1v-0.3v-0.1l0.1-0.3c0,0,0.1,0.1,0.1,0.3s0,0.1,0,0.1H166
	c0,0,0,0.1,0.1,0c0,0,0.1,0.1,0.1,0l0,0l0,0c0,0,0.1,0,0.3,0c0,0,0.1,0,0.1-0.1s0.1-0.3,0.1-0.3v-0.1c0,0,0-0.1,0-0.3
	s-0.3-0.4-0.3-0.4l-0.1-0.1c0,0,0.1-0.3-0.1-0.3l-0.3-0.3c0,0,0.3-1,0.1-2s-0.3-1.5-0.3-1.5l-0.1-0.4l-0.1-0.4l0.3-0.3
	c0,0,0.3-0.1,0.4-0.1s0.3,0,0.3,0s0.1,0,0.1-0.1v-0.1l0,0l0,0l0,0l0,0l0,0h0.1v-0.3V451c0,0,0-0.1,0.1-0.1c0-0.1,0-0.4,0-0.4v-0.1
	v-0.1V450h-0.1h-0.1h-0.1l-0.1-0.1c0,0-0.1-0.1-0.3-0.1s-0.3,0-0.3,0l-0.4,0.1c-0.1,0-0.3,0.1-0.3,0.1s0,0.1-0.1,0.1l-0.1,0.1
	c0,0,0,0.3,0,0.4s0,0.3,0,0.3s0,0.3-0.1,0.4s-0.1,0.3-0.1,0.3s-0.3,0-0.3,0.1c0,0-0.3,0.1-0.3,0.3c0,0-0.3,0.3-0.3,0.4l-0.1,0.4
	l-0.1,0.1c0,0-0.4,0.3-0.5,0.4c-0.1,0.1-0.3,0.4-0.3,0.4l-0.1,0.3c0,0,0-0.1-0.1,0c0,0-0.1,0.3-0.1,0.4c0,0,0,0.3-0.1,0.3
	C162.8,454.9,162.8,454.9,162.8,454.9z M164.5,464c0,0,0.1-0.8,0.1-0.9c0-0.3,0-0.3,0-0.3l0.1-0.6c0,0,0.1-0.4,0.1-0.5
	s0.3-0.4,0.3-0.4l0.1-0.1v-0.1l0.3-0.1l0.3-0.1c0,0,0.1,0.1,0.1,0.4c-0.1,0.3-0.1,0.4-0.1,0.4s-0.1,0.3-0.1,0.4s-0.1,0.3,0,0.6
	c0,0.4,0,0.4,0,0.4s0,0.8,0,0.9s0,0.6,0,0.6l-0.1,0.5v0.1l-0.3-0.1l-0.1-0.1H165c0,0-0.1,0-0.3-0.3S164.5,464,164.5,464z"/>
<g>
	<path d="M1.3,529.4l385.5,0.9v-45.9c0,0-2,0-4.6,0c-2.9,0-6.7,0-9.9,0c-6.1-0.1-24.6,2.4-29.1,2.4s-18.8,7.1-28.6,9.5
		c-9.8,2.4-29.4,5.1-36.5,6.1c-7.1,1-27.8-2-34.4,0c-6.6,2-14.6,1.3-24.1,2.8c-9.5,1.4-53.2-0.1-60.3,0s-39.7,0.6-42.9,0.3
		c-3.1-0.4-52.2,2.8-67.2,5.4c-10.5,1.8-36.1,1.8-48,5.5"/>
	<path d="M511.7,479.5c18.7,2.1,43.5,6.1,50.5,5.8c6.9-0.3,33.2-17.6,33.2-17.6v62.4l-227.7,0.2l17.9-45.7c0.1-0.2,0.2-0.2,0.3-0.2
		C389.1,484.9,447.5,472.2,511.7,479.5z"/>
</g>
<path fill="#824305" d="M83.9,403c0.1,0.1-0.7-0.3-1.2-0.5c-0.8-0.3-1.2-0.4-1.3-0.6l0.2,0.6c0,0,0,0,0.3,0.2
	c0.4,0.1,0.5,0.4,0.7,0.4c0.3-0.1,0.7,0.2,0.8,0.1C83.4,403.2,83.9,403,83.9,403z"/>
<polygon points="37.5,364.5 34.8,523.1 44.7,523.1 46.6,364.6 "/>
<path d="M17.7,365.5c0,0,19.6,12.4,22,15.5c2.3,3,0.1-3.3,0.1-3.3s-17.6-12.7-18.8-13c-1.2-0.2-4.9,0-4.9,0L17.7,365.5z"/>
<path d="M40.2,415.5l11.1-13.3c0,0,0.5-0.8,1,0c0.6,0.8,0,1.8,0,1.8S41.5,417.2,41,418.3C40.5,419.3,40.2,415.5,40.2,415.5z"/>
<path d="M90,386.2c0,0,15.8-21.9,16.4-21.6c0.6,0.2,3-0.1,3-0.1s-19.2,25.1-19.1,26.7C90.4,392.9,90,386.2,90,386.2z"/>
<polygon points="124.1,364.6 133.6,523.1 152.9,523.1 138.5,364.6 "/>
<path d="M149.9,364.6c0,0-9.4,21.9-9.2,23.5c0.1,1.7,0,6.6,0,6.6s8.6-25.7,12.3-30.1H149.9z"/>
<path d="M0.2,364.8l0.4,164.1h17.7l-3.1-141c0,0,21.9-20.1,22.2-22.8l-3.6-0.1c0,0-19,18.1-19,18.6c0.1,0.5-0.4-11.9-0.6-18.7H5.5
	L0.2,364.8z"/>
<polygon points="64.4,364.6 66.1,522.1 74.4,522.1 69.4,364.6 "/>
<polygon points="80.3,364.5 77.2,523.1 88.6,523.1 90.7,364.6 "/>
<path d="M55.3,365.5c0,0,22.6,12.4,25.3,15.5s0.1-3.3,0.1-3.3s-20.3-12.7-21.7-13c-1.4-0.2-5.6,0-5.6,0L55.3,365.5z"/>
<polygon points="111.5,363.6 112.6,521.1 128.8,520.8 121.6,363.6 "/>
<path d="M120,452.7l-16.1-13.3c0,0-0.7-0.8-1.5,0c-0.8,0.8,0,1.8,0,1.8s15.8,13.2,16.4,14.2C119.6,456.5,120,452.7,120,452.7z"/>
<path d="M118.4,386.2c0,0,18.1-21.9,18.8-21.6c0.7,0.2,3.5-0.1,3.5-0.1s-22,25.1-22,26.7C118.7,392.8,118.4,386.2,118.4,386.2z"/>
<polygon points="84.8,437 91.1,430.9 92.4,432.5 85,439.5 "/>
<path d="M526.2,367.8v7.9l-3.3-5.7c0,0-0.4-0.6-0.6,0.1c-0.3,0.7-0.2,1.1,0,1.5c0.2,0.4,1.8,3.5,2.1,4s1.5,2.2,1.5,2.8
	s-0.1,10.1-0.1,9.6c0-0.5-3.2,138.6-3.2,138.6h6.2l2.5-159H526.2z"/>
<polygon points="556.7,364.8 555,514.3 566,519 565.8,364.8 "/>
<g>
	<polygon points="516.1,364.8 517,522 525.8,522 519.9,364.8 	"/>
	<path d="M534.7,364.8c1.6-1.3-7.4,17.8-15.5,28.8l0.8,7.3c0,0,13.8-28.1,14.3-29.6C534.9,369.9,534.7,364.8,534.7,364.8z"/>
</g>
<polygon points="504.8,364.5 506,515.4 510.7,500.9 507.8,364.2 "/>
<g>
	<polygon points="585.7,364.8 586.2,522.1 590.9,522.1 587.7,364.8 	"/>
	<path d="M595.7,364.9c0.8-1.3-4,17.8-8.3,28.8l0.5,7.3c0,0,7.4-28.1,7.7-29.6S595.7,364.9,595.7,364.9z"/>
</g>
<polygon points="535.1,365.1 532.8,522 554,521.6 552.6,430.5 551.6,365.1 "/>
<polygon points="539.7,421.3 527.9,410.2 529.5,417 534.1,421.2 "/>
<polygon points="574.5,365.1 575.8,506.6 581.2,493 577.9,364.8 "/>
<path d="M562.3,499.6c0.5-2.4,0-131.6,0-131.6h-3.1l-1.7,132.6L562.3,499.6z"/>
</svg>
