<?xml version="1.0" encoding="utf-8"?>
<!-- Generator: Adobe Illustrator 18.0.0, SVG Export Plug-In . SVG Version: 6.00 Build 0)  -->
<svg version="1.2" baseProfile="tiny" xmlns="http://www.w3.org/2000/svg" xmlns:xlink="http://www.w3.org/1999/xlink" x="0px"
	 y="0px" viewBox="0 0 1152.8 257.2" xml:space="preserve">
<g id="Layer_1">
</g>
<g id="sky">
	<polygon fill="#FF7B39" points="1152.8,237.5 0,237.7 0,-20 1152.8,-20 	"/>
</g>
<g id="hill2">
	<path fill="#F16000" d="M0,237.2l0-119.7c11.5-5,80.1-29.5,87.5-30c10.7-0.7,50,4.7,50,4.7c-0.4,0,12,1.2,19.3-2
		c5.7-2.5,8.3-6.5,11.3-8s6.7-9.3,14.8-8.3c2.5,0.3,26.5,14.3,26.5,14.3l13-4.8c0,0,20-13,23-13s7.5,3.5,7.5,3.5s-1.5,2,2,1
		c3.5-1,2.5-3,7-3s-1,3,14.5-9s11.6-29.6,29.5-26c2.5,0.5,22,7.5,26,8.5s12,8.5,12,8.5s49,19,56.5,20.5s27.5-2,27.5-2
		s18.5,0.5,25.5,3.5s-3.5,15,28.5,2.5s79-38.5,79-38.5l10.5-11.5c0,0,12-15.5,14.5-14.5s36.5,11.5,39,14s12,3.5,14.5,4
		c2.5,0.5,17.5,2.5,20,6s11.5,9.5,14,10.5s13.5,6.5,18,8s25.5,4,27.5,5s29.5-4.5,31.5-6.5S767,42.4,771,37.4s23-28.5,27.5-28.5
		s15,0.5,18,2s19.5,4.5,20.5,3s5.5-1,12,3.5s25.5,20.5,34.5,23.5s26,3,26,3s36.5,16.5,44,20.5s69.5,26.5,75.5,26
		c6-0.5,18.5-1.5,29.5-0.5s33.5,1.5,37-1.5s7-7.5,10-5s17.5,3.5,17.5,3.5l7.5-5.5l11.5-4l10.3,4v156.4"/>
</g>
<g id="hill1">
	<g>
		<path fill="#A83400" d="M0,208c0,0,134.9-3.4,178.6-3.2c43.7,0.2,87.9-0.4,100.7,0c12.8,0.4,60.6-1.1,95.5-6
			c34.9-4.9,111.8-17,115.9-20.9s62.9-14.1,68.7-18.7c5.8-4.7,42.5-12.6,50.1-11.7c7.6,0.9,16.3,2.3,27.9,3.2
			c11.6,0.9,25.1,1.5,32.3-0.6c7.3-2.1,13.1-1.3,25.9-8.7c12.8-7.5,43.3-12.1,50.9-16.1s24.2-13.8,53.9-9.8
			c29.7,4,54.7,14.8,60,15.9c5.2,1.1,22,7.9,22,7.9v96.4H0V208z"/>
		<path fill="#A83400" d="M857.5,134.9c0,0,33.1,8.1,43.7,10.9c10.6,2.8,61.7,21.8,71.1,19c14-4.1,53.9-24,67.9-23.6
			c35.7,1.2,46.9,32,73.5,30c26.6-2,13.1-2,23.1-1.4s15.2-48.6,15.2-48.6l2.2,116.3l-345.6-0.2L857.5,134.9z"/>
	</g>
</g>
<g id="Layer_3_copy_2">
	<path fill="#B14700" d="M382.6,20.2c0,0.1-0.6-0.6-1.1-1c-0.7-0.6-1.1-0.9-1.2-1.2l0.2,1.2c0,0,0,0,0.3,0.4
		c0.3,0.3,0.4,0.9,0.6,0.8c0.3-0.1,0.6,0.5,0.7,0.3C382.3,20.5,382.6,20.2,382.6,20.2z"/>
	<polygon fill="#B14700" points="292.5,-20.1 298.7,-20.1 300.4,234.7 292.5,234.7 	"/>
	<path fill="#B14700" d="M988.1-20v12.9l-6.3-9.2c0,0-0.7-1-1.2,0.2s-0.4,1.8,0,2.5c0.4,0.7,3.4,5.7,4,6.5c0.6,0.8,2.9,3.6,2.9,4.6
		s-0.1,16.5-0.1,15.7s-6.2,225.5-6.2,225.5h12L998-20H988.1z"/>
	<polygon fill="#B14700" points="348.8,-20 357.2,233.5 351,236.2 345.6,-14.4 345.6,-19.8 347.8,-19.8 	"/>
	<polygon fill="#B14700" points="556.6,-20 558.3,234.9 567.1,234.9 561.9,-20 	"/>
	<polygon fill="#B14700" points="929.8,-20.9 927.3,236 936.4,236 938.1,-20.7 	"/>
	<path fill="#B14700" d="M913.6-18.6c0,0,18,18.1,20.1,22.5c2.1,4.4,0.1-4.8,0.1-4.8s-16.1-18.6-17.2-19c-1.1-0.3-4.4,0-4.4,0
		L913.6-18.6z"/>
	<polygon fill="#B14700" points="717.9,-20 719.2,236.3 738.7,235.7 730.1,-20 	"/>
	<path fill="#B14700" d="M377.7,142.5l-12.8-27.7c0,0-0.6-1.7-1.2,0c-0.6,1.7,0,3.9,0,3.9s12.5,27.5,13.1,29.7
		C377.3,150.5,377.7,142.5,377.7,142.5z"/>
	<path fill="#33607F" d="M23,337.7"/>
	<path fill="#B14700" d="M765.6,87.3c0,0,14.4-45.6,14.9-45.1s2.8-0.2,2.8-0.2s-17.5,52.4-17.5,55.8
		C766,101.1,765.6,87.3,765.6,87.3z"/>
	<polygon fill="#B14700" points="566.7,-20.1 575.5,222.7 593.1,222.7 579.9,-20 	"/>
	<path fill="#B14700" d="M562.8-19.7c0,0,3.2,7.1,5.3,9c2,1.9,1.1,6.6,1.1,6.6s-2.6-2.5-10-16L562.8-19.7z"/>
	<path fill="#B14700" d="M588.6-20c0,0-8.6,30.7-8.4,33c0.1,2.3,0,9.2,0,9.2s7.9-36,11.2-42.2H588.6z"/>
	<g>
		<polygon fill="#B14700" points="705.3,-21.4 704.5,237.2 696.1,237.2 701.7,-21.4 		"/>
		<path fill="#B14700" d="M687.7-21.2c-1.5-2.2,7,29.3,14.6,47.4l-0.8,11.9c0,0-13-46.3-13.5-48.6C687.6-12.8,687.7-21.2,687.7-21.2
			z"/>
	</g>
	<path fill="#33607F" d="M255.6,400.2"/>
	<g>
		<polygon fill="#B14700" points="665,-19.5 662.8,235.6 682.8,235 681.6,86.8 680.6,-19.5 		"/>
		<polygon fill="#B14700" points="676,121.9 692.6,98.4 692.6,102.5 676,124.9 		"/>
		<polygon fill="#B14700" points="670.4,45.2 660.8,26.6 660.8,35.9 664.5,41.4 		"/>
	</g>
	<polygon fill="#B14700" points="84.4,-20.9 82.7,226.4 90.5,224.9 90.5,-20.4 	"/>
	<polygon fill="#B14700" points="1124.1,-20.6 1121.9,237.2 1134.7,237.2 1134,142.5 1133.9,120.7 1132.9,-21.1 	"/>
	<polygon fill="#B14700" points="1047.1,-20 1043.9,223.2 1065.2,230.9 1064.7,-20 	"/>
	<path fill="#B14700" d="M206.2,128.5"/>
	<polygon fill="#B14700" points="386.1,-20 386,-20 382.7,232.3 394,232.3 394,-20 	"/>
	<polygon fill="#B14700" points="759.6,-20.1 774.3,-20.1 777.9,238.1 754.6,238.1 755.6,-20.1 	"/>
	<polygon fill="#B14700" points="9.7,-20 4.4,237.8 10.3,232.2 13.9,-20 	"/>
	<polygon fill="#B14700" points="176.8,-20.9 175.4,234.8 167.9,234 169.3,-21 	"/>
	<g>
		<polygon fill="#B14700" points="236.3,-20 234.1,228.6 254.2,228 252.9,83.6 252,-20 		"/>
		<polygon fill="#B14700" points="247.3,117.8 264,95 264,98.9 247.3,120.7 		"/>
		<polygon fill="#B14700" points="241.7,43.1 232.2,25 232.2,34 235.8,39.4 		"/>
	</g>
</g>
<g id="Layer_3">
	<path fill="#6E2D00" d="M530.7,42.4c0.1,0.1-1.2-0.5-2-0.8c-1.3-0.5-1.9-0.7-2.1-0.9l0.3,0.9c0,0,0,0,0.5,0.3
		c0.6,0.2,0.8,0.7,1.1,0.6c0.5-0.1,1.1,0.4,1.3,0.2C530,42.6,530.7,42.4,530.7,42.4z"/>
	<path fill="#6E2D00" d="M317.7-20.1v12.8l-11.2-9.1c0,0-1.3-0.9-2.1,0.2s-0.7,1.8,0,2.5s6.1,5.6,7.1,6.4c1,0.8,5.1,3.6,5.1,4.5
		s-0.2,16.3-0.2,15.5c0-0.8-11,223.1-11,223.1h21.4l8.6-255.9H317.7z"/>
	<polygon fill="#6E2D00" points="372.3,-20 380.8,-20 382.8,237.4 372.3,237.4 	"/>
	<polygon fill="#6E2D00" points="401.1,-20.2 416.1,233.2 405.1,235.9 395.5,-14.6 395.5,-20 399.5,-20 	"/>
	<polygon fill="#6E2D00" points="434.5,-20.1 436.8,235.8 448.7,235.8 441.6,-20.1 	"/>
	<polygon fill="#6E2D00" points="458.7,-20.2 454.3,237.4 470.4,237.4 473.4,-20 	"/>
	<path fill="#6E2D00" d="M423.3-18.6c0,0,31.9,20.2,35.7,25.1c3.8,4.9,0.1-5.4,0.1-5.4S430.6-19.6,428.6-20s-7.9,0-7.9,0L423.3-18.6
		z"/>
	<path fill="#6E2D00" d="M459.8,62.6l18-21.6c0,0,0.8-1.3,1.7,0c0.9,1.3,0,3,0,3s-17.6,21.4-18.4,23.1
		C460.3,68.8,459.8,62.6,459.8,62.6z"/>
	<path fill="#6E2D00" d="M540.7,15.1c0,0,25.6-35.5,26.6-35.1c1,0.4,4.9-0.2,4.9-0.2s-31.2,40.8-31,43.4
		C541.4,25.9,540.7,15.1,540.7,15.1z"/>
	<polygon fill="#6E2D00" points="600.6,-20 598.6,235.9 604.8,235.9 604.8,-20 	"/>
	<polygon fill="#6E2D00" points="628.6,-20.1 644,237.4 675.3,237.4 652,-20 	"/>
	<path fill="#6E2D00" d="M619.7-20.2c0,0,5.7,5.5,9.4,7s2,5.1,2,5.1s-4.6-1.9-17.8-12.4L619.7-20.2z"/>
	<path fill="#6E2D00" d="M670.4-20c0,0-15.2,35.5-15,38.2s0,10.7,0,10.7s14-41.7,19.9-48.9H670.4z"/>
	<g>
		<polygon fill="#6E2D00" points="968.5,-20.1 970.2,235.8 987.3,235.8 975.8,-20.1 		"/>
		<path fill="#6E2D00" d="M1004.5-20c3.1-2.1-14.4,29-30,46.9l1.6,11.8c0,0,26.7-45.8,27.7-48.1S1004.5-20,1004.5-20z"/>
	</g>
	<path fill="#213C4D" d="M304.8,338.2"/>
	<g>
		<polygon fill="#6E2D00" points="876.5,-20.6 872.6,234.8 908.3,234.1 906,85.9 904.4,-20.6 		"/>
		<polygon fill="#6E2D00" points="896.1,121 925.7,97.5 925.7,101.6 896.1,124 		"/>
		<polygon fill="#6E2D00" points="886.1,44.2 869.1,25.6 869.1,34.9 875.6,40.4 		"/>
	</g>
	<polygon fill="#6E2D00" points="112.3,-21 114.3,234.5 128.2,232.6 123.2,-20.8 	"/>
	<path fill="#6E2D00" d="M217.1,126.7"/>
	<polygon fill="#6E2D00" points="210,24 220.6,19.3 221.3,22.5 209.1,28 	"/>
	<polygon fill="#6E2D00" points="942.8,-20.5 945,225 954.2,201.5 948.5,-21 	"/>
	<path fill="#6E2D00" d="M922.3,210.7c0.9-4.2,0-231.3,0-231.3h-5.2l-2.8,233.1L922.3,210.7z"/>
	<polygon fill="#6E2D00" points="37.7,-21.1 49.1,-20.9 47.5,230.2 29.4,229.9 34.5,-21.1 	"/>
	<polygon fill="#6E2D00" points="59.7,-20 50.4,229.6 60.8,224.1 67.2,-20 	"/>
	<g>
		<polygon fill="#6E2D00" points="182.1,-20.2 190.2,228.2 206.3,235.4 195.1,-20.7 		"/>
		<path fill="#6E2D00" d="M202.3,3.8c0,0-6.4,5.1-8.2,8.4s-6,1.8-6,1.8s2.2-4.1,14.5-15.9L202.3,3.8z"/>
	</g>
</g>
<g id="Layer_3_copy">
	<path fill="#FFFFFF" d="M1104.3,5c-2.2-5.1-7.9-7.5-13-5.8c5-1.2,10.2,1.2,12.3,6.1c2.1,4.8,0.3,10.4-4,13.2
		C1104.4,15.9,1106.5,10.1,1104.3,5z"/>
	<path fill="#FFFFFF" d="M607.7,42.4c0.1,0.1-1.3-0.5-2.3-0.8c-1.5-0.5-2.1-0.7-2.4-0.9l0.4,0.9c0,0,0,0,0.6,0.3
		c0.6,0.2,0.9,0.7,1.2,0.6c0.6-0.1,1.3,0.4,1.5,0.2C606.9,42.6,607.7,42.4,607.7,42.4z"/>
	<polygon points="335.4,-20 348.2,-20 351.6,236.4 335.4,236.4 	"/>
	<path d="M404.7-20.2l-7.9,257.5h28.8L420.6,16c0,0,35.6-31.6,36-35.8l-5.9-0.2c0,0-30.9,28.4-30.8,29.2c0.1,0.8-0.6-18.6-1-29.3
		H404.7z"/>
	<polygon points="499.1,-20.1 501.8,235.8 515.4,235.8 507.3,-20.1 	"/>
	<polygon points="525,-20.2 519.9,237.4 538.4,237.4 541.8,-20 	"/>
	<path d="M484.3-18.6c0,0,36.7,20.2,41.1,25.1s0.1-5.4,0.1-5.4S492.6-19.6,490.3-20s-9.1,0-9.1,0L484.3-18.6z"/>
	<polygon points="591.8,-20.1 594.5,235.8 634.5,235.2 616.9,-20.1 	"/>
	<path d="M597.5,137.6L571.4,116c0,0-1.1-1.3-2.5,0c-1.3,1.3,0,3,0,3s25.6,21.4,26.7,23.1C596.8,143.8,597.5,137.6,597.5,137.6z"/>
	<path d="M619.2,15.1c0,0,29.4-35.5,30.5-35.1s5.7-0.2,5.7-0.2s-35.8,40.8-35.7,43.4S619.2,15.1,619.2,15.1z"/>
	<polygon points="688,-20 685.8,235.9 693,235.9 693,-20 	"/>
	<polygon points="720.2,-20.1 738,237.4 774,237.4 747.1,-20 	"/>
	<path d="M710.1-20.2c0,0,6.6,5.5,10.8,7s2.3,5.1,2.3,5.1s-5.3-1.9-20.5-12.4L710.1-20.2z"/>
	<path d="M768.3-20c0,0-17.5,35.5-17.2,38.2s0,10.7,0,10.7S767.2-12.8,774-20H768.3z"/>
	<g>
		<polygon points="1111.1,-20 1113,235.9 1132.7,235.9 1119.4,-20 		"/>
		<path d="M1152.4-19.9c3.5-2.1-16.5,29-34.5,46.9l1.9,11.8c0,0,30.7-45.8,31.8-48.1S1152.4-19.9,1152.4-19.9z"/>
	</g>
	<path d="M348,338.2"/>
	<polygon points="153,102.1 136,82.1 134,85.6 148.5,102.1 146.5,99.1 	"/>
	<line fill="none" x1="351.5" y1="288.9" x2="422.2" y2="218.2"/>
	<polygon stroke="#000000" stroke-miterlimit="10" points="1005.3,-19.6 1000.8,235.8 1041.8,235.1 1039.2,86.9 1037.3,-19.6 	"/>
	<polygon stroke="#000000" stroke-miterlimit="10" points="1013.8,91 1047.8,67.5 1047.8,71.6 1013.8,94 	"/>
	<polygon stroke="#000000" stroke-miterlimit="10" points="1014.1,67.1 991.3,49 994.4,60.1 1003.3,66.9 	"/>
	<polygon stroke="#000000" stroke-miterlimit="10" points="141,-19.6 136.5,237.2 162.5,237.2 161.2,142.8 160.9,121.2 159,-20 	"/>
	<polygon stroke="#000000" stroke-miterlimit="10" points="211.8,-19.6 206.5,218.7 241.8,226.2 240.9,-19.6 	"/>
	<path stroke="#000000" stroke-miterlimit="10" d="M247.2,126.7"/>
	<polygon stroke="#000000" stroke-miterlimit="10" points="238.5,67.5 248.9,57.6 250.9,60.1 239,71.6 	"/>
	<polygon stroke="#000000" stroke-miterlimit="10" points="1081.5,-19.6 1084,210.7 1094.6,188.6 1088.1,-20 	"/>
	<path stroke="#000000" stroke-miterlimit="10" d="M1058,194.5c1-3.9,0-214.1,0-214.1h-6l-3.2,215.7L1058,194.5z"/>
	<polygon stroke="#000000" stroke-miterlimit="10" points="11.4,-20 30.1,-20 34.7,237.2 5,237.2 6.2,-20 	"/>
	<polygon stroke="#000000" stroke-miterlimit="10" points="73.9,-20 63.2,231.1 75.2,225.6 82.5,-20 	"/>
	<polygon stroke="#000000" stroke-miterlimit="10" points="532.2,97.6 542.5,87.7 544.5,90.2 532.6,101.6 	"/>
	<polygon stroke="#000000" stroke-miterlimit="10" points="203.5,24.1 215,32.7 212.8,35.1 199.5,25.2 	"/>
</g>
<g id="foreground">
	<g>
		<path d="M0,257.2l746.6,1.7V170c0,0-3.8,0-9,0c-5.6,0-13,0-19.1,0c-11.8-0.1-47.6,4.7-56.3,4.7c-8.7,0-36.4,13.8-55.3,18.4
			s-56.9,9.9-70.7,11.8c-13.8,2-53.8-3.9-66.6,0c-12.8,3.9-28.2,2.6-46.6,5.4c-18.4,2.8-103-0.2-116.8,0c-13.8,0.2-76.8,1.1-83,0.5
			c-6.1-0.7-101,5.5-130.2,10.5c-20.3,3.4-69.9,3.4-92.9,10.7"/>
		<path d="M968.6,197.9c36.3,4.1,106.6-25.7,120-26.2c13.3-0.5,63.5-34.1,63.5-34.1l0.7,120.9l-441,0.4l34.6-88.5
			c0.1-0.3,0.3-0.4,0.6-0.4C753.6,171,844.3,183.9,968.6,197.9z"/>
	</g>
</g>
<g id="Layer_11">
	<path d="M813.3,132.6h0.4c0,0-0.1,0.4-0.1,1.3c0,0.9,0,2.3,0.2,2.4c0.2,0.1,0.7,1.4,1,1.3c0.3-0.1,1.2,0.4,1.5,0.4
		c0.3,0,1.3-0.2,1.5-0.4s0.5,0,0.5,0s0.3,0.8,0.1,1.4c-0.2,0.6-0.2,1.1-0.2,1.1s-0.3,0.5-0.2,0.6c0.2,0.1,0.3,0.2,0.2,0.4
		s-0.3,0.1-0.4,0.5c-0.2,0.4-0.3,0.7,0.1,0.8c0.4,0.1,0.3-0.2,0,0.7c-0.3,0.9-0.4,1.5-0.4,1.7c-0.1,0.2-0.5,1-0.4,2.3
		c0.2,1.2,1,3,1,3.3s1,2.2,1,2.5c-0.1,0.4,0.1,2,0.1,2.3c0.1,0.3,0.3,2.2,0.2,2.4s-0.2,1.4-0.2,1.4l0.3,0.3c0,0-0.4,1.7-0.5,1.8
		s-0.8,2.4-0.9,2.7c-0.1,0.3-0.6,0.5-0.5,4.8c0,0,0,1.6,0.1,1.9c0.1,0.4,0.5,4.1-0.4,7.4c0,0-0.2,0.5-0.3,0.7s-0.1,0.7-0.1,0.7
		s-0.4,0.2-0.4,0.4s-0.1,0.7-0.1,0.9c0,0.2,0.4,0.6,0.4,0.6s1.1,0.2,1.3,0.2s1.1,0.1,1.4,0s0.8-0.4,0.8-0.4l1.7,0.1l1.6-0.1
		c0,0,0.2,0.4,0.2,0.6c0.1,0.2,0,0.6,0.5,0.7c0.5,0.1,1.9,0.4,2.1,0.3c0.2-0.1,0.9-0.4,0.9-0.4s1,0.6,1.2,0.6
		c0.2,0.1,1.6,0.5,1.8,0.5s2.5,0.1,2.8,0c0.3-0.1,1.5-0.4,1.7-0.4c0.2,0,1.1-0.9,0.8-1.4s-1.2-0.6-1.2-0.6l-1.3-0.3
		c0,0-1.6-0.7-1.7-0.9c-0.1-0.2-1.1-0.8-1.1-0.8H830c0,0-0.8-0.5-0.8-0.7c-0.1-0.2-0.6-0.9-0.6-2.1s-0.2-2.9,0.1-3.4
		c0.3-0.5,1.2-4.4,1.2-4.7c0.1-0.3,0.2-2.4,0.2-2.6s0.3-2,0.5-2.2c0.2-0.2,1-2.1,1-2.2s0.1-0.8,0.1-1.2c-0.1-0.4-0.5-1.2-0.5-1.2
		l0.2-0.3c0,0-0.2-1.6-0.3-1.7c-0.2-0.2-0.3-0.8-0.4-1.1c-0.1-0.3-0.5-1.7-0.5-1.7l-0.2-1c0,0-0.3-0.3-0.4-0.5
		c-0.1-0.2-0.1-1.1-0.1-1.1s-0.4-0.6-0.5-0.8s-0.1-0.9-0.1-0.9l0.2-0.6l0.4-0.9c0,0,0.7,0.8,0.6,1.1c-0.1,0.4-0.2,0.7-0.2,0.7
		l-0.3,0.2c0,0,0.1,0.4,0.3,0.3c0,0,0.3,0.4,0.6,0.3c0.3-0.1,0.3-0.1,0.3-0.1s-0.2,0.2,0.1,0.3c0.3,0.1,0.8,0.2,1-0.2
		c0,0,0.6-0.2,0.7-0.5c0.1-0.3,0.5-0.9,0.5-1.1c0-0.2-0.2-0.4-0.2-0.8s0.2-0.8-0.1-1c-0.2-0.2-1.2-1.4-1.2-1.4l-0.8-0.8
		c0,0,0.4-1-0.5-1.4l-1.1-1.3c0,0,1.1-4.7,0.6-9.1c-0.6-4.4-1.1-6.5-1.1-6.5l-0.7-1.7l-0.6-1.4c0,0,1-1,1.3-1s1.2-0.3,1.5-0.4
		c0.3-0.1,0.9-0.2,0.9-0.2s0.5-0.2,0.3-0.8l0.2-0.4l0.1-0.2l0.1-0.2l0.1-0.2l0.1-0.1c0,0,0.1,0,0.3,0c0.1,0,0.3,0,0.4-0.1
		c0.1-0.1-0.1-0.9-0.1-0.9l-0.2-0.8c0,0,0.2-0.3,0.3-0.6s0.1-1.8,0-1.9c0-0.1,0.1-0.4,0.1-0.4l0.2-0.6l-0.3-1l-0.4-0.2l-0.4-0.1
		l-0.7-0.1l-0.4-0.4c0,0-0.8-0.4-1.1-0.5c-0.3-0.1-1-0.1-1.3-0.1c-0.3,0-1.6,0.5-1.6,0.5c-0.6,0.2-0.9,0.4-1,0.6
		c-0.1,0.2-0.3,0.4-0.5,0.6c-0.2,0.3-0.5,0.7-0.6,0.8c-0.1,0.2-0.2,1.2-0.2,1.5c0,0.4,0,1.2,0,1.2s-0.1,1.2-0.4,1.6
		c-0.3,0.4-0.5,1.2-0.7,1.3c-0.2,0.1-1.1,0.3-1.2,0.5c-0.2,0.3-0.9,0.8-1.1,1s-1.1,1.4-1.2,1.6s-0.5,1.4-0.7,1.5s-0.3,0.5-0.7,0.7
		c-0.4,0.2-1.6,1.2-2,1.6c-0.4,0.4-1,1.4-1.2,1.6s-0.5,0.9-0.5,0.9s-0.3-0.5-0.5-0.2c-0.3,0.3-0.4,1.3-0.4,1.5
		c-0.1,0.3-0.1,0.9-0.4,1.1C813.1,132.1,813.3,132.6,813.3,132.6z M820.7,173c0,0,0.5-3.2,0.8-4c0.2-0.9,0.2-0.9,0.2-0.9l0.3-2.7
		c0,0,0.3-1.8,0.5-2.3c0.2-0.5,0.9-1.7,0.9-1.7l0.3-0.5l0.1-0.5l0.9-0.6l0.9-0.3c0,0,0.8,0.7,0.5,1.9c-0.3,1.2-0.5,1.5-0.5,1.5
		s-0.5,1.3-0.6,2c-0.1,0.6-0.4,1.4-0.2,3c0.2,1.6,0.2,1.6,0.2,1.6s0.2,3.2,0.2,3.8s-0.2,3-0.2,3l-0.5,2l-0.2,0.4
		c0,0-1.1-0.3-1.2-0.6c-0.1-0.2-0.7-0.8-0.7-0.8l-0.4,0.1c0,0-0.7-0.2-1-1.2C820.7,175.2,820.7,173,820.7,173z"/>
	<circle fill="#FFFDFD" cx="831.5" cy="130.4" r="0.2"/>
	<path d="M1196.8-108.4"/>
	
		<image display="none" width="2797" height="1869" xlink:href="../../../illustration bridge and forest ideas/St_Ives,_Cambridgeshire,_England-7Aug2011.jpg"  transform="matrix(0.1108 0 0 0.1108 1760.7576 27.3277)">
	</image>
	<path d="M1489.1-238.7"/>
	<path fill="#7BBDCF" d="M2080.5,97.9c-0.9,0-351.2-6.7-351.2-6.7l2.1-61.2l351.8,0.5L2080.5,97.9z"/>
	<path d="M1932.4,80.2L1932.4,80.2c0.1,0,0,0.1,0,0.2s0,0.4,0,0.4c0,0,0.1,0.2,0.2,0.2c0,0,0.2,0.1,0.3,0.1s0.2,0,0.3-0.1
		c0,0,0.1,0,0.1,0s0,0.1,0,0.2s0,0.2,0,0.2s-0.1,0.1,0,0.1c0,0,0,0,0,0.1c0,0,0,0-0.1,0.1c0,0.1,0,0.1,0,0.1c0.1,0,0.1,0,0,0.1
		c-0.1,0.2-0.1,0.3-0.1,0.3c0,0-0.1,0.2-0.1,0.4c0,0.2,0.2,0.5,0.2,0.6c0,0.1,0.2,0.4,0.2,0.4c0,0.1,0,0.4,0,0.4c0,0,0.1,0.4,0,0.4
		c0,0,0,0.3,0,0.3l0.1,0c0,0-0.1,0.3-0.1,0.3c0,0-0.1,0.4-0.2,0.5c0,0.1-0.1,0.1-0.1,0.9c0,0,0,0.3,0,0.3s0.1,0.7-0.1,1.3
		c0,0,0,0.1-0.1,0.1c0,0,0,0.1,0,0.1s-0.1,0-0.1,0.1s0,0.1,0,0.2c0,0,0.1,0.1,0.1,0.1s0.2,0,0.2,0c0,0,0.2,0,0.2,0
		c0,0,0.1-0.1,0.1-0.1l0.3,0l0.3,0c0,0,0,0.1,0,0.1c0,0,0,0.1,0.1,0.1c0.1,0,0.3,0.1,0.4,0c0,0,0.2-0.1,0.2-0.1s0.2,0.1,0.2,0.1
		c0,0,0.3,0.1,0.3,0.1c0,0,0.4,0,0.5,0c0.1,0,0.3-0.1,0.3-0.1s0.2-0.2,0.1-0.3c0-0.1-0.2-0.1-0.2-0.1l-0.2,0c0,0-0.3-0.1-0.3-0.2
		c0,0-0.2-0.1-0.2-0.1h-0.1c0,0-0.1-0.1-0.1-0.1c0,0-0.1-0.2-0.1-0.4s0-0.5,0-0.6c0-0.1,0.2-0.8,0.2-0.8c0-0.1,0-0.4,0-0.5
		c0,0,0-0.4,0.1-0.4c0,0,0.2-0.4,0.2-0.4s0-0.1,0-0.2s-0.1-0.2-0.1-0.2l0-0.1c0,0,0-0.3-0.1-0.3s-0.1-0.1-0.1-0.2
		c0-0.1-0.1-0.3-0.1-0.3l0-0.2c0,0-0.1-0.1-0.1-0.1c0,0,0-0.2,0-0.2s-0.1-0.1-0.1-0.1c0,0,0-0.2,0-0.2l0-0.1l0.1-0.2
		c0,0,0.1,0.1,0.1,0.2c0,0.1,0,0.1,0,0.1l-0.1,0c0,0,0,0.1,0.1,0c0,0,0.1,0.1,0.1,0c0,0,0,0,0,0s0,0,0,0c0,0,0.1,0,0.2,0
		c0,0,0.1,0,0.1-0.1c0-0.1,0.1-0.2,0.1-0.2s0-0.1,0-0.1s0-0.1,0-0.2s-0.2-0.3-0.2-0.3l-0.1-0.1c0,0,0.1-0.2-0.1-0.2l-0.2-0.2
		c0,0,0.2-0.8,0.1-1.6c-0.1-0.8-0.2-1.2-0.2-1.2l-0.1-0.3l-0.1-0.3c0,0,0.2-0.2,0.2-0.2s0.2-0.1,0.3-0.1s0.2,0,0.2,0s0.1,0,0.1-0.1
		l0-0.1l0,0l0,0l0,0l0,0c0,0,0,0,0,0s0.1,0,0.1,0c0,0,0-0.2,0-0.2l0-0.1c0,0,0-0.1,0.1-0.1c0-0.1,0-0.3,0-0.3c0,0,0-0.1,0-0.1l0-0.1
		l0-0.2l-0.1,0l-0.1,0l-0.1,0l-0.1-0.1c0,0-0.1-0.1-0.2-0.1c-0.1,0-0.2,0-0.2,0s-0.3,0.1-0.3,0.1c-0.1,0-0.2,0.1-0.2,0.1
		c0,0,0,0.1-0.1,0.1c0,0-0.1,0.1-0.1,0.1c0,0,0,0.2,0,0.3s0,0.2,0,0.2s0,0.2-0.1,0.3c-0.1,0.1-0.1,0.2-0.1,0.2s-0.2,0-0.2,0.1
		c0,0-0.2,0.1-0.2,0.2c0,0-0.2,0.2-0.2,0.3c0,0-0.1,0.3-0.1,0.3c0,0-0.1,0.1-0.1,0.1s-0.3,0.2-0.4,0.3c-0.1,0.1-0.2,0.3-0.2,0.3
		c0,0-0.1,0.2-0.1,0.2s0-0.1-0.1,0c0,0-0.1,0.2-0.1,0.3c0,0,0,0.2-0.1,0.2C1932.4,80.2,1932.4,80.2,1932.4,80.2z M1933.7,87.4
		c0,0,0.1-0.6,0.1-0.7c0-0.2,0-0.2,0-0.2l0.1-0.5c0,0,0.1-0.3,0.1-0.4c0-0.1,0.2-0.3,0.2-0.3l0.1-0.1l0-0.1l0.2-0.1l0.2-0.1
		c0,0,0.1,0.1,0.1,0.3c-0.1,0.2-0.1,0.3-0.1,0.3s-0.1,0.2-0.1,0.3c0,0.1-0.1,0.2,0,0.5c0,0.3,0,0.3,0,0.3s0,0.6,0,0.7s0,0.5,0,0.5
		l-0.1,0.4l0,0.1c0,0-0.2-0.1-0.2-0.1c0,0-0.1-0.1-0.1-0.1l-0.1,0c0,0-0.1,0-0.2-0.2S1933.7,87.4,1933.7,87.4z"/>
	<path fill="#FFFFFF" d="M1995.2,79.4l-16.5,0.3c0,0-9.2-0.8-11.3,0c-2.2,0.8-16.7,1-16.7,1l-1,0.5l-5.5,1l-9.8-0.7l-28.5,2.2
		l-0.7,5.2l8.7,1c0,0,1.5,0.5,2.2,2.7c0.7,2.2,2.3,1.8,2.3,1.8s0.2-4.7,4.3-4.8c4.2-0.2,6.3,0.5,7,5l14,0.3c0,0,1.7-7.5,10.3-6.8
		c8.7,0.7,9.2,6.3,9.3,6.8c0.2,0.5,5.2,0.7,5.2,0.7h10.7c0,0,4.2-7.5,10.3-7.3c0,0,3.8,0,4.5,3l0.5,5l5.8,1l12.2-0.3l4.2-0.2
		l1.3-2.5l-0.8-0.3c0,0,2.8-5,15.3-7.7c0,0,10.7,0.2,15.8,10.3c0,0,2.7,2.2,12.7,1.3l0.5-2.5c0,0,5.3-6.2,9.2-6l-0.3-8.8
		c0,0-49.8-2.2-53.8-1.3l-0.2-5.7l0.2-2.2l-4-1.5l-1-0.5h-7c0,0-5.2,0.2-5.7,0.2s-3.2,0.5-3.2,0.5l-0.3,4.2l0.8,0.3l-0.2,5.2
		L1995.2,79.4z"/>
	<polygon fill="#C1BDBD" points="2012.5,70.1 2012.5,72.7 2012.5,89.4 2013.7,96.7 2016.3,96.2 2016.5,89.6 2015.7,88.7 2016,73.7 
		2016.3,71.4 	"/>
	<path fill="#1E1E1E" d="M1943.3,94.7h5.8c0,0,2.2-4.2,7-5.8c0,0-6.8-4.4-12.6,5.4C1943.5,94.4,1943.4,94.6,1943.3,94.7z"/>
	<path fill="#1E1E1E" d="M1978.7,95.4c0,0,3.5-7,10.7-7.5c0,0-6.8,3.8-7.5,7L1978.7,95.4z"/>
	<path fill="#1E1E1E" d="M1917.5,94.6l6.8,0.2c0,0,0.5-3.7,2.8-4.2c0,0-1-2-4.3-1.5C1922.8,89.1,1918,89.7,1917.5,94.6z"/>
	<path fill="#1E1E1E" d="M2016.2,96.4l2,0.2c0,0,2.5-7.5,14.2-9.5c0,0,7.7-1.8,16.2,9.7l0.2-1c0,0-4.7-8.5-16.3-10.3
		C2032.3,85.4,2020.2,89.1,2016.2,96.4z"/>
	<polygon points="1738.2,137.9 2064.5,118.9 2093.2,173.6 1725.8,161.2 1735.2,140.2 	"/>
	<path fill="#7BBDCF" d="M2154.2,195.2v24c0,0,16.3-5,16.3-6s-0.3-19.3-0.3-19.3L2154.2,195.2z"/>
</g>
<g id="wolves1">
</g>
<g id="Layer_9">
</g>
</svg>
