<?xml version="1.0" encoding="UTF-8" standalone="no"?>
<svg width="2560px" height="650px" viewBox="0 0 2560 650" version="1.1" xmlns="http://www.w3.org/2000/svg" xmlns:xlink="http://www.w3.org/1999/xlink" xmlns:sketch="http://www.bohemiancoding.com/sketch/ns">
    <title>Artboard 1</title>
    <description>Created with Sketch (http://www.bohemiancoding.com/sketch)</description>
    <defs></defs>
    <g id="Page-1" stroke="none" stroke-width="1" fill="none" fill-rule="evenodd" sketch:type="MSPage">
        <g id="Artboard-1" sketch:type="MSArtboardGroup">
            <rect id="Rectangle-1" fill="#0AADEC" sketch:type="MSShapeGroup" x="0" y="0" width="2560" height="650"></rect>
            <g id="Group" sketch:type="MSLayerGroup" transform="translate(1610.500000, 169.500000) rotate(-5.000000) translate(-1610.500000, -169.500000) translate(831.000000, 0.000000)">
                <path d="" id="Path-1" stroke="#979797" sketch:type="MSShapeGroup"></path>
                <path d="M250.773323,63.7208333 C250.773323,63.7208333 284.372396,115.933329 365.361065,122.139583 C365.361065,122.139583 358.484516,72.5812527 400.461006,56.7083333 C442.4375,40.8354167 462.46224,71.2125 462.46224,71.2125 C462.46224,71.2125 486.844071,64.2104169 498.05069,57.3208333 C509.25731,50.43125 489.130711,82.3937501 474.710321,86.76875 C460.289931,91.14375 497.894783,86.9583334 503.576046,79.0854167 C509.25731,71.2125 495.331667,97.0479168 478.896953,106.960417 C478.896953,106.960417 483.779961,194.018741 417.565081,242.402083 C351.350192,290.785425 277.768161,280.231241 231.987527,252.45 C231.987527,252.45 286.237045,256.372907 313.820175,227.827083 C313.820175,227.827083 275.622873,227.091667 263.198099,188.577083 C263.198099,188.577083 273.768618,193.03125 287.097656,187.604167 C287.097656,187.604167 242.366803,177.127083 242.366799,131.947917 C242.366799,131.947917 272.710526,143.739583 266.226859,137.989583 C238.716488,97.1354167 250.773323,63.7208333 250.773323,63.7208333 Z" id="Path-2" fill="#F7F7F7" sketch:type="MSShapeGroup"></path>
                <path d="M154.527478,158.99793 C154.527478,158.99793 179.823351,234.62913 261.172491,222.406457 C261.172491,222.406457 225.824355,255.910181 184.339286,227.267798 C142.854218,198.625414 154.527478,158.99793 154.527478,158.99793 Z" id="Path-3" fill="#F7F7F7" sketch:type="MSShapeGroup"></path>
                <path d="M139.987721,246.237953 L128.372228,256.839396 C128.372228,256.839396 38.1428797,307.682073 -0.0374827665,310.464456 C-0.0374827665,310.464456 78.5513772,340.37977 132.322495,263.195253 L145,246.634542 L139.987721,246.237953 Z" id="Path-4" fill="#F7F7F7" sketch:type="MSShapeGroup"></path>
                <path d="M586.681607,164.032668 L579.628838,170.768186 C579.628838,170.768186 524.842809,203.070559 501.660214,204.838318 C501.660214,204.838318 549.378297,223.844706 582.027387,174.806314 L589.724994,164.284636 L586.681607,164.032668 Z" id="Path-4" fill="#F7F7F7" sketch:type="MSShapeGroup" transform="translate(545.703984, 186.118378) rotate(-145.000000) translate(-545.703984, -186.118378) "></path>
                <path d="M733.682347,279.12795 L726.711661,283.318729 C726.711661,283.318729 672.563258,303.416979 649.650473,304.516863 C649.650473,304.516863 696.813191,316.342468 729.082294,285.831217 L736.690314,279.284722 L733.682347,279.12795 Z" id="Path-4" fill="#F7F7F7" sketch:type="MSShapeGroup" transform="translate(693.181640, 292.869482) rotate(-145.000000) translate(-693.181640, -292.869482) "></path>
                <path id="Path-4" fill="#F7F7F7" sketch:type="MSShapeGroup" transform="translate(1018.324685, 202.978737) rotate(-93.000000) translate(-1018.324685, -202.978737) " d="M1018.32468,-334.872106 L1018.32468,-170.842778 L1018.32468,658.863359 C1018.32468,658.863359 1018.32468,1121.72381 1018.32468,-72.5026904 L1018.32468,-328.735943 L1018.32468,-334.872106 Z"></path>
                <path id="Path-4" fill="#F7F7F7" sketch:type="MSShapeGroup" transform="translate(229.896682, 166.270948) rotate(-295.000000) translate(-229.896682, -166.270948) " d="M229.896683,89.5205263 L229.896683,112.927239 L229.896682,231.324926 C229.896682,231.324926 229.896682,297.374344 229.896683,126.960206 L229.896683,90.3961465 L229.896683,89.5205263 Z"></path>
                <path d="M202.238648,114.788543 L200.590237,123.524319 C200.590237,123.524319 187.785351,165.419581 182.36699,167.712314 C182.36699,167.712314 193.519917,192.36306 201.150839,128.761657 L202.949965,115.115339 L202.238648,114.788543 Z" id="Path-4" fill="#F7F7F7" sketch:type="MSShapeGroup" transform="translate(192.661137, 143.433082) rotate(-312.000000) translate(-192.661137, -143.433082) "></path>
                <path d="M323.989017,292 L312.376525,299.125154 C312.376525,299.125154 222.170495,333.296151 184,335.166171 C184,335.166171 262.56855,355.272038 316.325772,303.396879 L329,292.266544 L323.989017,292 Z" id="Path-4" fill="#F7F7F7" sketch:type="MSShapeGroup" transform="translate(256.500000, 315.500000) scale(1, -1) translate(-256.500000, -315.500000) "></path>
                <path d="M706.989017,120 L695.376525,127.125154 C695.376525,127.125154 605.170495,161.296151 567,163.166171 C567,163.166171 645.56855,183.272038 699.325772,131.396879 L712,120.266544 L706.989017,120 Z" id="Path-4" fill="#F7F7F7" sketch:type="MSShapeGroup" transform="translate(639.500000, 143.500000) scale(1, -1) translate(-639.500000, -143.500000) "></path>
                <path d="M760.392289,28.2102155 L748.836394,35.448248 C748.836394,35.448248 659.070007,70.1605921 621.085545,72.0602371 C621.085545,72.0602371 699.271171,92.4846274 752.766393,39.7876473 L765.37885,28.4809827 L760.392289,28.2102155 Z" id="Path-4" fill="#F7F7F7" sketch:type="MSShapeGroup" transform="translate(693.232198, 52.082509) scale(1, -1) rotate(205.000000) translate(-693.232198, -52.082509) "></path>
                <path d="M478.90925,190.023177 C478.90925,190.023177 512.678563,183.544357 518.82275,189.902821 C524.966937,196.261285 506.24975,197.038498 506.24975,197.038498 C506.24975,197.038498 539.383812,203.755989 534.780313,209.072049 C530.176812,214.388108 516.937625,209.533073 511.593687,206.622092 C506.24975,203.711111 561.157625,233.798046 539.990188,233.798047 C518.82275,233.798047 482.399,198.068663 482.399,198.068663" id="Path-6" fill="#F7F7F7" sketch:type="MSShapeGroup"></path>
            </g>
        </g>
    </g>
</svg>