<svg width="3180" height="2149" viewBox="0 0 3180 2149" fill="none" xmlns="http://www.w3.org/2000/svg">
<path fill-rule="evenodd" clip-rule="evenodd" d="M2382.67 958.261C2380.65 964.821 2378.73 977.01 2375.24 980.317C2368.42 986.764 2358.23 966.632 2355.93 983.271C2351.02 965.948 2346.1 948.624 2341.19 931.305C2354.31 941.156 2370.49 947.105 2382.67 958.261C2382.52 958.743 2372.54 948.981 2382.67 958.261ZM2394.43 924.741C2403.92 929.976 2396.11 937.193 2387.07 939.507C2375.27 942.538 2372.38 921.924 2361.06 916.389C2373.95 909.646 2396.56 931.439 2394.43 924.741C2399.22 927.383 2395.04 926.67 2394.43 924.741ZM1938.71 1035.75C1943.59 1036.18 1948.47 1036.6 1953.34 1037.02C1947.63 1048.27 1942.75 1047.85 1938.71 1035.75C1943.16 1034.37 1941.59 1037.64 1938.71 1035.75ZM1936.78 1025.29C1941.46 1025.51 1956.41 1022.26 1957.86 1030.31C1953.14 1028.96 1925.5 1030.86 1936.78 1025.29ZM1990.29 1009.09C1982.98 1010.88 1977.14 1014.77 1972.78 1020.77C1973.05 1011.7 1975.25 1002.16 1981.56 995.322C1973.19 1012.85 1991.78 990.597 2002.72 992.457C1996.75 996.655 1992.61 1002.2 1990.29 1009.09C1981.35 1008.56 1992.65 1002.79 1990.29 1009.09ZM1987.64 1018.78C1985.4 1019.96 1983.17 1021.13 1980.93 1022.3C1982.75 1017.71 1985.63 1013.99 1989.57 1011.14C1988.93 1013.68 1988.29 1016.23 1987.64 1018.78C1984.51 1020.16 1988.05 1016.48 1987.64 1018.78ZM2001.46 1019.34C1997.73 1018.82 1994.01 1018.31 1990.28 1017.79C1993.9 1011.74 1999.17 1007.75 2006.09 1005.82C2004.54 1010.33 2003 1014.83 2001.46 1019.34C1997.89 1016.56 2001.18 1015.24 2001.46 1019.34ZM2148.86 993.308C2153.74 1000.72 2157.99 1008.49 2161.62 1016.59C2155.99 1019.68 2143.08 1024.13 2136.42 1023.17C2137.41 1011.94 2141.55 1001.99 2148.86 993.308C2152.61 998.604 2139.38 1003.57 2148.86 993.308ZM2189.26 1009.27C2189.66 1002.94 2190.07 996.607 2190.47 990.273C2192.35 994.147 2198.4 993.863 2199.63 995.816C2200.68 997.486 2191.05 1008.25 2189.26 1009.27C2189.68 1002.65 2190.59 1008.51 2189.26 1009.27ZM2166.32 980.082C2168.08 973.979 2162.75 977.983 2166.32 980.082C2166.65 978.939 2165.53 979.616 2166.32 980.082ZM2180.6 974.02C2192.42 974.348 2184.78 1001.19 2184.14 1010.57C2176.31 1008.49 2172.08 1006.64 2166.22 1012.45C2162.73 1004.89 2158.84 997.551 2154.53 990.427C2166.53 991.432 2175.41 999.143 2183.08 1007.57C2177.44 990.208 2166.57 988.024 2180.6 974.02C2182.58 974.068 2177.35 977.257 2180.6 974.02ZM2196.06 979.527C2194.28 981.893 2192.49 984.255 2190.7 986.618C2191.33 976.548 2190.41 971.629 2196.06 979.527C2193.65 983.749 2195.23 978.372 2196.06 979.527ZM2174.28 940.779C2184.99 941.878 2178.04 938.012 2174.28 940.779C2176.26 940.978 2175.45 939.912 2174.28 940.779ZM2161.69 964.789C2158.47 965.372 2160.16 943.263 2173.8 951.339C2168.27 954.443 2164.23 958.925 2161.69 964.789C2160.6 964.983 2164.5 959.035 2161.69 964.789ZM2174.12 963.905C2176.25 961.178 2162.48 963.188 2174.12 963.905C2174.6 963.293 2172.5 963.804 2174.12 963.905ZM2187.11 967.038L2187.08 967.415L2186.89 967.313L2187.11 967.038ZM2220.31 984.997C2213.66 986.407 2199.78 975.458 2205.72 967.439C2212.81 971.195 2217.67 977.055 2220.31 984.997C2219.16 985.24 2214.68 974.101 2220.31 984.997ZM2235.67 950.298C2251.4 941.63 2262.35 928.347 2281.43 926.568C2272.73 950.075 2270.12 978.1 2281.78 1001.14C2284.24 989.515 2290.15 945.646 2306.63 942.088C2316.28 950.132 2304.79 976.232 2319.23 987.335C2320.88 972.435 2330.96 958.212 2334.95 943.96C2339.71 961.134 2344.44 978.315 2349.18 995.496C2342.97 999.447 2334.93 989.673 2329.69 994.422C2328.63 995.379 2322.66 1004.45 2323.63 1004.05C2319.98 1005.53 2292.3 1024.44 2289.29 1023.83C2273.01 1020.48 2257.96 982.663 2250.1 969.347C2248.01 965.806 2228.68 981.962 2225.72 983.23C2225.6 973.805 2221.99 963.763 2216.85 955.862C2226.08 955.444 2234.82 957.252 2243.08 961.284C2240.62 957.624 2238.14 953.957 2235.67 950.298C2250.78 941.971 2238.91 952.839 2235.67 950.298ZM2242.63 928.578C2238.23 934.924 2235.61 941.946 2234.77 949.633C2227.02 945.67 2218.84 943.276 2210.24 942.453C2220.65 937.521 2229.94 927.225 2242.63 928.578C2238.61 934.365 2229.59 927.184 2242.63 928.578ZM2854.5 876.143C2843.82 885.163 2835.2 868.642 2831.92 863.354C2840.89 865.133 2848.41 869.392 2854.5 876.143C2852.82 877.561 2848.84 870.324 2854.5 876.143ZM2877.47 868.999C2876.28 871.669 2875.08 874.335 2873.89 877.006C2871.58 868.18 2868.24 875.369 2861.64 873.521C2852.38 870.923 2852.42 858.572 2841.2 852.462C2853.87 844.398 2867.26 846.557 2862.79 860.74C2865.16 852.891 2868.94 850.379 2874.13 853.199C2876.14 855.995 2866.18 867.544 2870.19 868.78C2872.62 868.788 2875.04 868.861 2877.47 868.999ZM2540.52 758.649L2535.65 763.621C2537.17 750.293 2538.78 748.636 2540.52 758.649C2540.19 760.16 2539.69 756.505 2540.52 758.649ZM1259.61 960.246C1269.75 950.553 1289.76 940.548 1301.1 931.557C1296.18 949.086 1291.27 966.616 1286.35 984.146C1284.09 968.144 1273.81 987.983 1267.05 981.99C1263.65 978.975 1261.53 966.499 1259.61 960.246C1269.75 950.553 1259.76 960.724 1259.61 960.246ZM1247.86 927.221C1246.2 932.517 1268.6 911.393 1281.23 917.475C1274.21 921.199 1262.68 942.647 1258.03 942.741C1248.87 942.923 1237.8 933.181 1247.86 927.221C1247.25 929.17 1243.06 930.061 1247.86 927.221ZM1713.4 1082.83C1712.82 1077.36 1713.47 1076.66 1715.35 1080.74C1719.27 1086.94 1718.61 1087.64 1713.4 1082.83C1713.5 1081.4 1717.54 1086.45 1713.4 1082.83ZM1697.54 1030.26C1700.52 1028.61 1703.5 1026.95 1706.49 1025.3C1701.77 1030.21 1700.02 1035.95 1701.25 1042.51C1704.87 1037.34 1709.05 1032.67 1713.8 1028.49C1712.46 1047.96 1708.91 1063.61 1710.27 1080.01C1695.11 1066.15 1691.28 1082.29 1682.61 1078.29C1681.56 1063.07 1680.52 1047.85 1679.48 1032.64C1684.85 1037.37 1689.59 1042.66 1693.69 1048.51C1698.58 1045.68 1689.81 1030.72 1687.76 1029.02C1692.67 1027.79 1704.52 1044.21 1697.54 1030.26C1699.61 1027.02 1698.91 1033 1697.54 1030.26ZM1703.57 1019.22C1699.73 1031.46 1694.86 1032.09 1688.94 1021.09C1693.82 1020.47 1698.69 1019.84 1703.57 1019.22C1700.7 1021.23 1699.13 1018.02 1703.57 1019.22ZM1705.5 1008.67C1716.62 1013.72 1689.05 1013.05 1684.42 1014.57C1685.88 1006.45 1700.6 1009.11 1705.5 1008.67ZM1651.99 994.71C1649.69 987.931 1645.55 982.558 1639.58 978.59C1650.47 976.285 1669.08 997.636 1660.72 980.58C1667.09 987.205 1669.23 996.736 1669.51 1005.66C1665.12 999.82 1659.28 996.165 1651.99 994.71C1649.63 988.506 1660.93 993.798 1651.99 994.71ZM1654.65 1004.28C1654 1001.76 1653.36 999.241 1652.71 996.724C1656.66 999.419 1659.54 1003.02 1661.36 1007.53C1659.12 1006.45 1656.88 1005.36 1654.65 1004.28C1654.23 1002 1657.78 1005.53 1654.65 1004.28ZM1640.83 1005.42C1639.29 1000.98 1637.74 996.538 1636.21 992.096C1643.1 993.717 1648.37 997.486 1652 1003.4C1648.28 1004.07 1644.55 1004.75 1640.83 1005.42C1641.1 1001.31 1644.4 1002.48 1640.83 1005.42ZM1621.72 989.296C1632.26 1000.27 1631.8 1012.73 1636.04 1026.23C1637.44 1001.5 1645.38 1008.26 1663.05 1015.86C1653.95 1020.76 1643.73 1016.64 1639.71 1030.21C1645.53 1027.12 1651.75 1025.58 1658.36 1025.58C1652.99 1033.72 1651.19 1042.76 1652.94 1052.68C1655.17 1044.54 1659.61 1038.14 1666.27 1033.47C1664.89 1039.39 1665.28 1045.24 1667.44 1051.03C1670.15 1046.1 1673.1 1041.33 1676.3 1036.71C1677.15 1049.95 1677.99 1063.2 1678.82 1076.44C1656.82 1066.24 1657.63 1103.84 1634.27 1097.78C1622.02 1094.6 1597.04 1050.4 1588.01 1069.08C1595.05 1042.27 1605.94 1012.24 1621.72 989.296C1633.63 1001.7 1610.95 1004.95 1621.72 989.296ZM1493.42 985.54C1500.77 994.009 1504.92 1003.78 1505.87 1014.87C1499.35 1016.1 1486.3 1012.22 1480.66 1009.35C1484.3 1001.08 1488.55 993.146 1493.42 985.54C1502.9 995.403 1489.68 990.99 1493.42 985.54ZM1453.03 1003.19C1451.23 1002.24 1441.63 991.841 1442.66 990.168C1443.93 988.097 1449.95 988.142 1451.82 984.235C1452.22 990.557 1452.62 996.87 1453.03 1003.19C1451.69 1002.48 1452.61 996.582 1453.03 1003.19ZM1475.96 973.039C1479.52 970.798 1474.25 967.098 1475.96 973.039C1476.76 972.536 1475.64 971.912 1475.96 973.039ZM1461.69 967.577C1475.79 981.046 1464.71 984.069 1459.2 1001.23C1466.82 992.55 1475.68 984.413 1487.76 982.898C1483.46 990.188 1479.56 997.688 1476.06 1005.41C1470.31 999.998 1465.75 1001.9 1458.15 1004.27C1457.47 994.366 1450.45 968.351 1461.69 967.577C1464.93 970.677 1459.71 967.71 1461.69 967.577ZM1446.22 973.728C1451.8 965.733 1450.92 970.255 1451.59 980.592L1446.22 973.728C1447.05 972.536 1448.64 977.853 1446.22 973.728ZM1468.01 934.065C1464.28 931.467 1457.12 935.641 1468.01 934.065C1466.84 933.246 1466.02 934.357 1468.01 934.065ZM1480.6 957.56C1478.06 951.801 1474.02 947.486 1468.49 944.609C1482.24 935.896 1483.62 957.965 1480.6 957.56C1477.79 951.915 1481.68 957.701 1480.6 957.56ZM1468.17 957.187C1479.74 955.991 1466.08 954.618 1468.17 957.187C1469.79 957.021 1467.69 956.599 1468.17 957.187ZM1455.18 960.862L1455.4 961.13L1455.2 961.239L1455.18 960.862ZM1421.98 980.207C1424.63 972.147 1429.49 966.093 1436.57 962.041C1442.51 969.854 1428.64 981.346 1421.98 980.207C1427.61 969.08 1423.13 980.406 1421.98 980.207ZM1406.61 946.153C1404.14 949.913 1401.67 953.678 1399.2 957.442C1407.39 953.09 1416.13 950.918 1425.43 950.934C1420.34 958.998 1416.68 969.125 1416.56 978.672C1413.54 977.488 1394.32 962.106 1392.19 965.802C1383.99 980.037 1369.72 1017.37 1352.99 1021.91C1353.06 1021.9 1321.88 1006.78 1318.35 1005.53C1324.49 1007.71 1309.01 991.096 1312.59 994.196C1307.63 989.904 1299.31 999.759 1293.1 996.092C1297.84 978.712 1302.58 961.328 1307.34 943.952C1311.31 957.997 1321.42 971.981 1323.05 986.679C1337.07 975.3 1326.17 949.208 1335.65 940.905C1350.94 943.559 1358.36 988.859 1360.5 998.912C1371.96 975.827 1369.69 947.834 1360.85 924.327C1379.84 925.304 1390.8 938.089 1406.61 946.153C1403.38 948.823 1391.51 938.453 1406.61 946.153ZM1399.66 924.721C1412.26 922.852 1421.52 932.699 1432.04 937.242C1423.38 938.441 1415.21 941.177 1407.52 945.452C1406.7 937.85 1404.07 930.941 1399.66 924.721C1412.7 922.788 1403.68 930.337 1399.66 924.721ZM750.931 864.428C763.014 865.947 771.881 874.076 779.497 882.764C775.847 871.398 771.816 858.99 760.204 853.15C790.183 832.817 791.714 868.93 789.193 868.257C797.646 870.514 828.413 875.81 815.766 894.835C808.23 906.169 771.597 887.153 768.393 899.483C763.164 887.829 757.821 875.28 750.931 864.428C764.687 866.158 754.995 870.83 750.931 864.428ZM1101.77 767.219C1103.47 757.174 1105.09 758.771 1106.63 771.997C1105.01 770.404 1103.39 768.812 1101.77 767.219C1102.59 765.043 1102.09 768.719 1101.77 767.219ZM1960.62 1080.08C1948.39 1078.28 1948.94 1094.14 1933.84 1081.81C1931.25 1079.7 1928.19 1049.88 1928.49 1045.45C1933.24 1049.44 1937.42 1053.93 1941.04 1058.95C1942.29 1052.43 1940.54 1046.77 1935.8 1041.96C1944.46 1042.78 1946.99 1046.54 1943.37 1053.24C1945.46 1048.17 1949.18 1045.39 1954.53 1044.9C1952.65 1046.53 1943.63 1061.98 1948.6 1064.63C1952.7 1058.61 1957.44 1053.12 1962.81 1048.17L1960.62 1080.08ZM2012.73 1108.07C2013.48 1110.08 1997.18 1084.39 2001.27 1087.66C1990.77 1079.25 1970.83 1084.95 1966.58 1081.6C1965.75 1081.47 1964.94 1081.26 1964.16 1080.97C1964.76 1071.35 1965.37 1061.73 1965.99 1052.11C1969.18 1056.6 1972.14 1061.25 1974.84 1066.05C1977.01 1060.25 1977.4 1054.39 1976.02 1048.46C1982.7 1052.86 1987.14 1059.08 1989.34 1067.1C1991.13 1057.24 1989.33 1048.28 1983.93 1040.24C1990.48 1039.94 1996.69 1041.22 2002.57 1044.08C1998.54 1030.62 1988.26 1035.19 1979.24 1030.71C1985.81 1025.41 1993.26 1022.11 2001.6 1020.79C2003.47 1027.1 2005.01 1033.49 2006.24 1039.95C2010.51 1026.21 2010.1 1013.74 2020.58 1002.42C2029.95 1015.68 2036.21 1031.39 2042.24 1046.35C2044.4 1051.69 2057.98 1088.79 2052.64 1075.26C2050.14 1068.93 2016.51 1105.96 2012.73 1108.07C2012.57 1107.64 2015.15 1106.73 2012.73 1108.07ZM255.26 960.246C253.522 965.753 251.374 979.016 247.822 981.99C241.119 987.607 230.713 968.48 228.525 984.146C223.608 966.616 218.691 949.086 213.775 931.557C226.888 941.959 243.1 948.604 255.26 960.246C253.883 964.594 245.13 950.553 255.26 960.246ZM267.014 927.221C274.845 931.86 271.285 945.087 255.71 943.198C250.619 942.583 240.12 920.907 233.64 917.475C246.092 911.478 268.694 932.59 267.014 927.221C271.808 930.061 267.627 929.17 267.014 927.221ZM21.4515 985.54C26.3195 993.146 30.5744 1001.08 34.2121 1009.35C28.2642 1012.37 15.4386 1016.09 9.01161 1014.87C9.95759 1003.78 14.1029 994.009 21.4515 985.54C25.1989 990.99 11.9714 995.403 21.4515 985.54ZM61.8487 1003.19C61.0611 997.377 62.681 990.103 63.0586 984.235C66.5421 991.541 76.0994 995.667 61.8487 1003.19ZM38.9096 973.039C35.694 971.009 36.4858 971.175 40.0586 969.566C39.616 970.737 39.2344 971.912 38.9096 973.039ZM53.1887 967.577C64.7476 968.371 57.3827 994.722 56.729 1004.27C50.7324 1002.43 43.3269 1001.34 38.4427 1005.74C39.8962 1004.43 27.7689 983.919 27.1152 982.898C39.1979 984.413 48.0568 992.55 55.6734 1001.23C50.1599 984.069 39.1004 981.05 53.1887 967.577C55.17 967.71 49.9447 970.677 53.1887 967.577ZM68.6533 973.728C67.7276 976.84 65.9412 979.125 63.2859 980.592C61.1382 968.626 62.9287 966.337 68.6533 973.728C66.2376 977.853 66.9968 971.349 68.6533 973.728ZM46.8631 934.065C48.0405 933.246 49.2585 932.489 50.4766 931.767C56.1971 936.804 49.9569 934.515 46.8631 934.065ZM34.2771 957.56C9.90077 960.777 51.7758 938.016 46.3841 944.609C41.8044 948.41 37.7647 952.729 34.2771 957.56C33.189 957.701 37.0866 951.915 34.2771 957.56ZM46.7048 957.187C45.0849 957.021 43.404 956.944 41.6257 956.972C43.3106 956.157 49.6605 953.552 46.7048 957.187ZM92.8997 980.207C83.5535 981.784 73.1964 963.273 78.308 962.041C85.5551 965.899 90.419 971.957 92.8997 980.207C89.4568 980.791 87.2685 969.08 92.8997 980.207ZM108.263 946.153C124.077 938.093 135.039 925.304 154.023 924.327C145.172 947.883 142.899 975.77 154.376 998.912C156.743 987.793 162.902 943.738 179.224 940.905C188.915 949.394 177.592 975.138 191.822 986.679C193.458 971.977 203.564 958.005 207.534 943.952L221.769 996.092C214.518 1000.4 209.045 989.791 202.272 994.196C200.559 995.314 195.61 1003.81 196.215 1003.58C192.727 1004.9 164.725 1022.57 161.875 1021.92C145.44 1018.16 130.548 979.437 122.684 965.802C120.617 962.22 101.523 977.419 98.3157 978.672C98.1899 969.116 94.5277 959.006 89.4446 950.934C98.5147 949.561 107.085 960.655 115.676 957.442C116.2 952.101 113.728 948.341 108.263 946.153C123.362 938.453 111.499 948.823 108.263 946.153ZM115.218 924.721C110.796 930.937 108.178 937.846 107.361 945.452C107.215 945.342 84.9502 935.613 82.839 937.242C91.8644 928.566 102.656 924.392 115.218 924.721C111.19 930.337 102.181 922.788 115.218 924.721ZM413.105 767.219C412.784 768.719 412.151 769.922 408.245 771.997C409.333 764.792 409.268 757.077 413.105 767.219C412.784 768.719 412.281 765.043 413.105 767.219ZM703.608 864.809C703.039 849.597 701.237 833.234 720.315 844.633C711.691 848.77 706.121 855.497 703.608 864.809C703.279 856.007 707.485 853.839 703.608 864.809ZM739.632 919.218C731.191 906.708 703.713 901.769 699.109 894.835C689.645 880.588 713.75 853.475 727.408 856.364C718.151 861.741 713.323 874.372 711.975 884.373C719.227 877.192 720.522 873.197 730.785 869.87C721.281 881.929 730.229 891.355 730.948 904.014C735.191 890.508 734.716 878.055 745.263 867.074C753.136 878.525 774.946 908.621 758.962 919.307C757.22 920.47 744.179 916.725 739.632 919.218C738.272 917.204 742.324 917.747 739.632 919.218ZM2883 870.773C2894.34 875.794 2895.88 882.578 2897 893.867C2897.67 893.608 2881.45 895.265 2882.81 896.845C2874.05 886.678 2877.63 882.894 2883 870.773ZM2827.05 866.977L2831.09 873.93C2825.15 874.793 2826.09 872.212 2827.05 866.977C2828.33 868.986 2826.95 867.516 2827.05 866.977ZM2868.24 845.528C2861.74 840.791 2850.2 842.238 2848.95 832.731C2847.78 823.776 2881.1 829.692 2882.08 830.32C2875.78 833.878 2871.17 838.948 2868.24 845.528C2863.11 841.792 2871.1 839.482 2868.24 845.528ZM2924.04 818.889C2920.84 820.725 2923.9 822.123 2924.04 818.889C2923.35 819.29 2924 819.627 2924.04 818.889ZM2925.81 788.477C2930.23 799.191 2928.41 805.63 2920.35 807.794C2921.32 801.124 2923.14 794.685 2925.81 788.477C2925.4 794.106 2922.94 795.844 2925.81 788.477ZM2904.66 778.01C2909.94 766.194 2917.51 755.517 2929.77 750.026C2926.28 771.636 2916.36 784.15 2911.02 804.962C2910.57 795.585 2908.45 786.601 2904.66 778.01C2909.24 767.75 2908.57 786.147 2904.66 778.01ZM2939.35 813.455C2937.12 815.307 2934.91 817.171 2932.69 819.039C2931.45 814.42 2933.68 812.56 2939.35 813.455C2939 813.787 2937.06 813.836 2939.35 813.455ZM3180 702C3179.93 717.986 3171.75 688.62 3180 702C3177 684.571 3163.2 710.352 3180 702C3156.92 685.678 3160.97 663.799 3127 658C3137.79 664.945 3158 706 3146.68 713.779C3128.34 706.096 3121.9 683.046 3100 691C3114.67 696.637 3117.04 709.176 3127.9 721.15C3108 718.605 3083.91 706.128 3068.83 727.625C3088.64 721.531 3128.66 741.605 3133.62 740.017L3133.34 739.251C3128.27 740.9 3120.65 743.555 3114.38 745.966C3107.17 748.741 3082.62 752.696 3080.47 754.163C3066.75 763.54 3072.6 772.256 3065.34 779.923C3057.85 787.845 3030.55 792.521 3028.3 796.493C3031.59 790.698 3055.95 853.219 3038.92 848.17C3035.29 847.092 3009.74 829.457 3008.95 828.906C3011.35 830.58 2997.38 827.233 2995.15 825.709C2992.57 823.942 2992.97 801.57 2984.36 804.617C2974.91 807.968 2978.24 815.554 2965.19 814.059C2963.48 813.86 2962.74 797.554 2958.06 797.356C2953.81 797.181 2945.9 811.437 2939.66 804.609C2930.05 794.073 2934.25 769.144 2938.12 750.123C2956.11 758.203 2962.45 773.099 2974.41 787.176C2969.14 771.9 2975.48 758.232 2958.57 748.433C2972.63 748.462 2976.74 752.603 2989.02 758.005C2982.23 746.505 2970.1 734.518 2956.47 731.904C2966.42 726.701 2982.65 730.409 2992.02 734.656C2983.04 724.416 2973.55 717.823 2959.87 716.02C2972.84 702.169 2991.71 697.773 3009.91 695.945C2992.24 689.146 2966.7 688.773 2951.99 702.558C2947.42 688.193 2950.19 668.621 2951.36 654.102C2938.71 665.586 2936.92 686.67 2938.76 702.307C2930.85 686.568 2919.36 671.17 2902.83 663.71C2913.41 672.989 2919.33 691.67 2920.49 705.168C2906.31 693.583 2885.04 689.539 2868.58 698.996C2883.54 700.273 2908.71 706.226 2914.26 722.913C2892.22 725.534 2877.59 735.256 2867.18 754.568C2880.78 746.136 2896.71 735.872 2913.75 740.224C2899.64 753.146 2910.57 780.211 2896.88 766.924C2901.95 777.054 2900.17 793.247 2897.19 803.608C2890.42 791.285 2876.06 784.214 2862.15 788.335C2872.22 792.262 2888.43 803.596 2887.55 816.575C2869.98 814.111 2857.68 830.187 2844.02 821.401C2849.01 816.648 2854.72 813.005 2861.13 810.473C2846.66 806.185 2807.93 825.952 2826.41 789.061C2816.42 798.758 2818.81 814.18 2802.81 804.163C2793.16 798.117 2795.39 739.527 2793.51 727.889C2806.97 733.91 2814.27 745.84 2819.86 758.685C2820.62 744.337 2821.27 728.841 2809.54 718.086C2826.57 713.726 2842.51 723.999 2856.1 732.431C2845.6 712.936 2830.98 703.389 2809.02 700.779C2814.57 684.092 2839.73 678.132 2854.71 676.851C2838.24 667.397 2816.98 671.446 2802.8 683.027C2803.96 669.529 2809.88 650.852 2820.46 641.573C2803.92 649.033 2792.44 664.431 2784.52 680.174C2786.36 664.533 2784.57 643.457 2771.92 631.969C2773.1 646.488 2775.87 666.056 2771.3 680.425C2756.62 666.672 2731.18 666.96 2713.37 673.808C2731.58 675.636 2750.44 680.032 2763.41 693.883C2749.73 695.686 2740.24 702.283 2731.27 712.523C2740.63 708.272 2756.86 704.564 2766.81 709.771C2753.18 712.381 2741.05 724.367 2734.26 735.863C2746.54 730.466 2750.65 726.325 2764.71 726.296C2747.8 736.094 2754.14 749.763 2748.87 765.035C2760.83 750.958 2767.18 736.066 2785.17 727.986C2789.7 750.245 2790.42 778.691 2790.59 796.898C2785.51 792.939 2772.6 774.91 2765.22 775.223C2760.54 775.417 2759.81 791.723 2758.09 791.922C2745.04 793.413 2748.37 785.831 2738.92 782.48C2731.29 779.773 2730.73 799.836 2728.83 800.65C2731.21 799.633 2709.67 810.011 2714.33 806.769C2713.05 807.656 2688.02 824.947 2684.36 826.033C2667.33 831.082 2691.69 768.557 2694.98 774.351C2691.82 768.771 2667.93 767.758 2660.23 760.793C2651.49 752.866 2658.82 742.104 2644.99 731.767C2646.69 733.031 2618.44 725.838 2615.86 725.129C2610.44 723.642 2591.17 719.561 2586.43 716.563C2609.12 711.769 2630.46 698.109 2654.45 705.488C2639.65 684.38 2615.11 696.492 2595.39 699.009C2606.24 687.034 2617.08 681.195 2631.76 675.554C2607.78 666.854 2595.04 687.047 2574.87 692.241C2581.92 667.665 2594.91 651.517 2615.9 638.027C2581.93 643.822 2579.95 664.938 2556.86 681.256C2559.8 664.225 2549.95 629.542 2526.27 632.674C2538.28 640.231 2546.75 670.899 2542.11 684.51C2531.62 674.849 2486.04 671.211 2478.04 686.893C2487.81 686.033 2531.1 689.531 2530.6 706.7C2523.71 703.77 2470.38 692.254 2471.56 711.514C2484.81 707.786 2504.04 711.133 2515.11 719.375C2506.88 720.242 2475.81 738.035 2480.2 750.447C2485.43 741.966 2503.94 733.509 2513.97 737.014C2507.02 740.305 2476.41 769.712 2487.76 777.411C2496.84 764.585 2516.68 758.317 2529.6 750.391C2528.32 755.018 2527.03 759.646 2525.75 764.273C2516.54 753.26 2482.91 779.295 2478.57 787.152C2473.82 795.735 2489.23 838.668 2459.96 817.714C2453.74 813.256 2436.91 849.552 2437.75 853.572C2439.41 861.514 2458 853.556 2460.98 853.434C2477.88 852.717 2438.2 888.79 2442.11 881.974C2438.32 888.575 2437.9 909.14 2429.56 911.405C2420.72 913.812 2424.1 892.639 2408.03 894.471C2395.1 895.946 2393.98 907.259 2389.57 915.818C2383.68 907.685 2371.06 895.224 2359.91 894.815C2369.87 884.794 2389.38 877.541 2403.46 881.098C2404.64 857.381 2350.77 876.779 2344.42 880.685C2343.97 861.668 2383.04 851.25 2396.98 851.457C2388.9 832.756 2342.24 843.064 2332.91 854.5C2328.13 837.699 2335.39 800.901 2348.75 789.32C2322.19 787.48 2315.9 836.006 2318.15 851.862C2294.66 833.611 2296.66 808.605 2259.11 804.236C2282 820.161 2293.5 839.174 2300.15 867.033C2279.27 862.373 2267.88 838.562 2243.27 851.825C2258.73 857.693 2269.02 863.844 2279.63 877.261C2257.27 875.831 2234.91 864.237 2220.57 890.714C2244.25 879.559 2265.56 894.175 2288.59 897.996C2264.66 918.987 2238.31 921.41 2212.61 930.637C2215.86 922.702 2221.12 916.628 2228.38 912.41C2213.7 909.124 2211.07 923.136 2201.16 928.473C2201.62 913.2 2205.61 901.898 2215.38 890.637C2196.37 898.563 2200.62 910.55 2190.46 923.44C2189.95 915.214 2181.85 891.371 2168.43 896.27C2175.98 899.953 2183.83 918.999 2183.26 926.941C2176.37 921.803 2152.55 924.55 2150.49 934.839C2157.45 933.141 2164.38 933.238 2171.3 935.131C2162.42 937.157 2153.01 945.042 2148.68 953.309C2145.6 942.818 2144.07 926.86 2149 916.596C2139.46 926.661 2135.77 942.497 2134.86 955.825C2131.61 943.421 2124.33 927.448 2111.71 921.702C2116.87 932.76 2124.54 946.898 2125.53 959.428C2111.77 952.891 2092.87 959.541 2082.45 969.278C2095.97 965.976 2111.25 964.878 2123.9 971.912C2114.46 976.97 2109.83 984.693 2106.57 994.666C2113.11 987.286 2121.25 983.514 2131 983.348C2121.8 989.073 2116.93 1001.81 2115.57 1012C2122.75 1004.59 2124.18 1000.45 2134.38 996.708C2125.82 1007.94 2133.94 1019.23 2134.53 1030.84C2135.45 1027.95 2142.23 1036.48 2142.46 1038.36C2142.07 1035.25 2114.58 1052.49 2111.86 1052.04C2107.79 1048.15 2105.18 1043.36 2104.05 1037.7C2101.66 1032.83 2074.9 1088.38 2076.71 1086.4C2066.92 1097.1 2033.21 1010.21 2026.24 999.532C2038.24 1000.55 2047.12 1008.25 2054.79 1016.68C2051.18 1005.56 2047.16 993.247 2035.51 987.87C2046.49 979.96 2061.09 984.041 2072.8 986.954C2060.11 975.041 2047.31 970.721 2030.04 974.575C2029.14 961.458 2045.46 948.945 2055.44 944.22C2040.98 941.144 2026.96 949.933 2020.39 962.418C2017.31 951.931 2015.78 935.973 2020.71 925.705C2011.17 935.767 2007.48 951.599 2006.57 964.93C2003.32 952.527 1996.04 936.557 1983.42 930.807C1988.58 941.869 1996.25 956.008 1997.24 968.541C1983.48 962.005 1964.58 968.654 1954.16 978.392C1967.68 975.085 1982.96 973.991 1995.61 981.018C1979.8 989.507 1974.99 1004.69 1965.18 1017.2C1964.9 1012.71 1958.83 994.499 1949.53 997.891C1954.89 1000.5 1960.47 1014.05 1960.07 1019.69C1955.86 1016.56 1934.93 1016.75 1930.91 1020.08C1931.76 1012.37 1934.86 1005.69 1940.22 1000.04C1931.95 997.701 1926.64 1014.22 1926.4 1018.27C1919.31 1009.87 1924.95 1003.7 1910.74 998.965C1917.02 1005.66 1919.38 1012.32 1919.67 1021.98C1915.51 1016.28 1909.82 1013.39 1902.58 1013.31C1907.13 1015.59 1910.43 1019.13 1912.47 1023.94C1905.64 1022.04 1899.22 1016.65 1892.81 1024.39C1900.65 1024.24 1907.71 1026.52 1913.96 1031.24C1905.87 1035.93 1896.88 1032.7 1893.34 1044.78C1898.43 1041.85 1903.93 1040.25 1909.81 1040C1905.12 1047.29 1903.52 1055.34 1905.03 1064.15C1907.01 1056.85 1910.94 1051.03 1916.81 1046.68C1920.98 1052.03 1909.53 1081.05 1925.68 1049.16C1927.23 1073.4 1909.96 1059.55 1896.25 1077.1C1888 1087.66 1912.73 1089.98 1892.67 1097.16C1879.75 1101.79 1878.15 1082.21 1869.9 1084.21C1862.27 1086.06 1860.96 1104.81 1861.5 1104.29C1870.77 1095.21 1847.61 1127.53 1851.49 1118.82C1842.84 1138.24 1836.8 1143.67 1813.95 1138.87C1778.42 1131.41 1800.87 1123.14 1784.42 1108.3C1758.53 1084.94 1763.19 1116.23 1741.27 1115.37C1743.97 1104.36 1748.02 1087.7 1739.36 1077.62C1719.39 1054.38 1713.65 1078.74 1716.6 1032.08C1732.69 1063.13 1721.35 1034.65 1725.47 1029.23C1731.36 1033.35 1735.29 1039.01 1737.26 1046.2C1738.8 1037.44 1737.21 1029.45 1732.47 1022.26C1738.31 1022.25 1743.8 1023.61 1748.94 1026.35C1745.4 1014.36 1736.36 1017.99 1728.33 1013.67C1734.5 1008.72 1741.56 1006.15 1749.48 1005.94C1743.02 998.406 1736.41 1004.19 1729.81 1006.3C1731.85 1001.41 1735.15 997.729 1739.71 995.265C1732.41 995.683 1726.72 998.811 1722.61 1004.65C1722.91 994.872 1725.34 988.158 1731.55 981.253C1717.51 986.525 1722.93 992.566 1715.89 1001.21C1715.65 997.218 1710.31 980.892 1702.06 983.562C1707.45 989.049 1710.56 995.598 1711.37 1003.22C1707.26 999.978 1686.33 1000.8 1682.22 1004.04C1681.81 998.264 1687.43 984.628 1692.76 981.808C1683.42 978.785 1677.38 997.235 1677.11 1001.76C1667.54 989.993 1661.94 974.4 1646.67 966.855C1659.15 959.399 1674.37 959.699 1688.13 962.495C1677.43 952.956 1658.5 947.494 1645.04 954.447C1646.04 941.744 1653.71 927.395 1658.87 916.134C1646.27 922.39 1639 938.555 1635.72 951.222C1634.81 938.121 1631.2 922.334 1621.57 912.588C1626.57 922.792 1624.92 938.859 1621.89 949.289C1615.23 936.897 1601.04 928.943 1586.85 932.553C1596.88 936.885 1613.14 948.803 1612.25 961.851C1594.7 958.67 1581.96 963.776 1569.49 976.013C1581.87 970.113 1594.3 969.894 1606.78 975.369C1595.17 981.208 1591.14 993.624 1587.49 1004.99C1595.11 996.307 1603.97 988.17 1616.05 986.65C1609.25 997.348 1575.1 1085.66 1565.57 1075.62C1567.56 1077.72 1540.72 1022.89 1538.24 1028.06C1537.08 1033.8 1534.48 1038.69 1530.43 1042.72C1529.22 1042.97 1499.99 1028.99 1499.82 1030.32C1500.06 1028.42 1506.84 1019.62 1507.75 1022.48C1508.34 1010.35 1517.53 1000.54 1507.91 988.336C1518.17 991.667 1519.47 995.662 1526.72 1002.84C1525.38 992.842 1520.55 980.211 1511.3 974.834C1520.93 974.554 1529.07 977.987 1535.72 985.131C1532.47 975.324 1527.85 967.779 1518.38 963.095C1530.86 955.643 1546.07 955.947 1559.83 958.735C1549.14 949.196 1530.2 943.737 1516.75 950.691C1517.76 937.987 1525.42 923.643 1530.58 912.381C1517.98 918.642 1510.71 934.798 1507.43 947.465C1506.52 934.369 1502.9 918.577 1493.28 908.836C1498.29 919.027 1496.63 935.106 1493.6 945.533C1489.26 937.432 1479.84 929.952 1470.98 928.294C1477.83 926.123 1484.76 925.738 1491.79 927.136C1489.68 916.693 1465.59 915.441 1459.03 920.607C1458.43 912.483 1466.36 893.292 1473.85 889.316C1460.36 884.952 1452.33 909.099 1451.82 917.406C1441.61 904.848 1446.18 892.87 1426.91 885.637C1436.79 896.622 1440.66 907.746 1441.12 922.885C1431.07 917.892 1428.58 904.058 1413.91 907.952C1421.17 911.875 1426.42 917.73 1429.67 925.523C1404.05 917.435 1377.83 916.268 1353.69 896.047C1376.47 891.322 1397.74 875.644 1421.71 885.941C1407.22 859.784 1384.44 872.646 1362.65 874.947C1373.19 861.202 1383.56 854.508 1399.02 847.996C1374.35 835.726 1362.28 860.246 1342.13 865.579C1348.81 837.359 1360.44 817.831 1383.17 801.067C1345.86 806.972 1347.45 832.067 1324.13 851.153C1326.46 834.693 1320.08 786.95 1293.54 789.887C1307.3 801.246 1313.96 838.068 1309.37 854.403C1299.46 842.675 1253.14 835.572 1245.3 854.042C1258.2 853.317 1298.33 861.741 1297.86 881.074C1289.18 876.094 1237.68 860.906 1238.82 883.959C1252.6 879.907 1272.25 886.087 1282.38 895.848C1271.1 896.736 1258.58 909.731 1252.72 918.091C1248.25 909.606 1247.85 901.339 1236.34 898.11C1217.72 892.882 1220.91 919.031 1212.73 915.352C1200.44 909.82 1210.17 897.384 1203.46 888.623C1206.82 893.016 1162.31 858.678 1181.3 858.686C1184.54 858.69 1202.87 865.927 1204.54 857.859C1205.34 853.957 1187.96 818.65 1182.32 822.925C1151.37 846.395 1167.74 800.273 1163.72 793.145C1158.87 784.563 1124.73 762.029 1116.54 772.228L1112.69 758.507C1125.51 765.838 1145.48 771.373 1154.53 783.785C1165.91 775.587 1135.08 747.4 1128.31 744.482C1138.09 740.657 1156.73 748.052 1162.08 756.505C1166.34 744.304 1136.1 727.455 1127.17 726.888C1138.08 718.317 1157.2 713.969 1170.72 717.203C1171.93 697.473 1117.69 712.053 1111.69 714.857C1111.2 697.963 1153.38 692.359 1164.24 692.861C1156.02 677.078 1110.12 683.578 1100.17 693.149C1095.62 679.955 1103.81 648.846 1116.01 640.653C1092.39 638.505 1082.5 673.711 1085.42 690.511C1062.18 675.044 1060.56 654.147 1026.38 649.746C1047.58 662.478 1060.24 677.544 1067.42 702.246C1046.57 697.752 1034.5 678.237 1010.53 687.938C1025.19 692.959 1035.96 698.251 1046.9 709.869C1026.48 708.122 1002.75 696.926 987.833 718.816C1011.54 710.533 1032.98 723.184 1055.85 727.05C1050.52 730.652 1035.8 734.834 1029.01 737.035C1024.41 738.526 997.212 744.762 997.289 744.701C984.857 753.993 990.018 764.646 983.201 772.807C975.471 782.059 950.518 783.582 947.306 789.373C950.343 783.894 975.666 845.127 957.923 840.609C954.651 839.778 928.488 822.937 927.956 822.593C930.396 824.193 916.345 821.373 914.156 819.971C911.745 818.419 911.846 795.974 903.365 799.329C893.954 803.061 897.185 810.513 884.189 809.573C882.74 809.468 881.575 793.17 877.068 793.17C869.606 793.174 857.158 811.409 851.697 815.911C851.92 792.979 852.562 769.327 857.125 746.768C875.172 754.123 881.404 768.674 893.41 782.302C888.172 767.337 894.652 753.401 877.576 744.227C891.627 743.664 895.598 747.578 908.03 752.526C901.217 741.285 889.008 729.809 875.472 727.783C885.265 722.256 901.424 725.097 911.014 729.056C901.964 719.095 892.46 712.977 878.875 711.757C891.737 697.485 910.51 692.209 928.914 689.591C910.782 683.375 885.424 684.494 870.99 698.624C866.382 684.328 869.204 664.642 870.369 650.196C857.872 662.061 855.879 683.015 857.767 698.928C850.122 684.036 837.86 668.39 821.836 661.83C832.481 670.724 838.352 689.312 839.489 702.546C824.954 691.273 803.635 688.647 787.577 698.539C802.234 699.175 827.698 704.025 833.265 720.554C811.097 724.116 796.525 734.559 786.185 754.167C799.55 745.329 815.518 734.202 832.753 737.881C821.145 749.005 821.657 764.306 822.428 778.914C828.031 765.793 835.347 753.588 848.774 747.019C845.997 764.334 851.096 798.146 843.199 813.354C835.351 828.468 834.292 821.081 822.53 828.606C816.436 832.504 801.962 843.206 795.762 844.406C781.731 847.125 771.942 836.5 754.736 839.624C753.846 826.58 770.107 814.659 780.139 810.331C765.933 806.716 751.764 814.675 745.089 827.066C742.072 816.636 740.404 800.565 745.41 790.366C735.787 800.111 732.174 815.903 731.265 828.999C727.984 816.328 720.705 800.172 708.11 793.907C713.271 805.172 720.932 819.517 721.943 832.221C714.107 828.509 706.04 827.853 697.737 830.26C693.592 829.538 678.464 825.162 671.367 821.434C668.481 819.918 667.571 756.201 666.101 747.019C679.528 753.588 686.844 765.793 692.447 778.914C693.226 764.306 693.73 749.005 682.122 737.881C699.357 734.202 715.325 745.325 728.687 754.167C718.256 734.38 703.701 724.104 681.611 720.554C687.173 704.025 712.641 699.175 727.294 698.539C711.237 688.643 689.922 691.277 675.383 702.546C676.527 689.308 682.398 670.724 693.048 661.83C677.015 668.39 664.758 684.032 657.104 698.928C658.992 683.015 656.999 662.061 644.506 650.196C645.675 664.642 648.493 684.328 643.877 698.624C629.488 684.53 604.215 683.331 585.961 689.591C604.369 692.209 623.138 697.485 636.008 711.757C622.416 712.977 612.915 719.095 603.857 729.056C613.451 725.097 629.61 722.256 639.403 727.783C625.867 729.809 613.654 741.281 606.845 752.526C619.273 747.578 623.244 743.664 637.296 744.227C620.223 753.401 626.703 767.341 621.461 782.302C633.471 768.674 639.703 754.123 657.746 746.768C662.313 769.327 662.955 792.979 663.178 815.911C658.197 811.81 645.403 793.178 637.807 793.174C633.284 793.17 632.147 809.464 630.682 809.573C617.678 810.529 620.921 803.057 611.506 799.329C604.011 796.363 603.094 816.433 601.417 817.082C604.235 815.988 582.006 825.798 586.923 822.593C585.9 823.261 560.228 839.778 556.952 840.613C539.214 845.131 564.536 783.894 567.569 789.369C563.679 782.35 538.402 780.138 530.529 771.259C523.603 763.451 531.772 755.342 517.582 744.701C520.623 746.983 494.707 738.607 493.904 738.347C484.001 735.195 467.899 733.071 459.02 727.05C481.894 723.184 503.335 710.533 527.042 718.816C512.417 697.351 488.215 708.138 467.972 709.869C478.918 698.255 489.681 692.959 504.342 687.938C480.639 678.338 467.773 697.87 447.457 702.246C454.493 678.006 467.4 662.417 488.492 649.746C454.314 654.147 452.703 675.044 429.455 690.511C432.455 673.237 422.464 638.505 398.863 640.653C410.681 648.583 419.467 679.335 414.701 693.149C404.758 683.574 358.859 677.082 350.634 692.861C360.784 692.391 403.694 697.675 403.182 714.857C396.792 711.87 342.972 698.008 344.15 717.203C357.678 713.969 376.8 718.317 387.706 726.888C379.5 727.406 348.445 744.041 352.79 756.505C358.141 748.052 376.78 740.657 386.561 744.482C377.182 748.531 357.475 770.072 357.576 781.589C357.645 789.077 399.967 759.775 402.188 758.507C400.905 763.082 399.622 767.653 398.339 772.228C390.434 762.43 362.119 779.814 357.913 787.241C353.951 794.248 356.764 803.912 354.868 807.466C349.521 817.471 350.248 836.338 332.55 822.925C326.379 818.245 309.514 853.864 310.338 857.859C312.007 865.927 330.334 858.69 333.573 858.686C349.546 858.678 315.624 888.388 317.975 884.251C316.355 887.1 305.868 912.884 305.194 913.131C292.307 917.921 281.812 880.535 262.158 918.091C256.291 909.735 243.774 896.736 232.499 895.848C242.621 886.087 262.275 879.903 276.051 883.959C277.216 860.384 224.091 877.01 217.01 881.074C216.556 862.025 255.999 853.276 269.571 854.042C261.731 835.572 215.419 842.671 205.504 854.403C200.848 837.857 207.802 801.059 221.342 789.887C194.693 786.941 188.562 835.754 190.738 851.153C167.421 832.063 169.013 806.972 131.705 801.067C154.437 817.835 166.069 837.359 172.74 865.579C152.196 860.136 140.641 835.669 115.859 847.996C131.312 854.508 141.689 861.206 152.229 874.947C130.439 872.646 107.654 859.78 93.1596 885.941C117.134 875.644 138.408 891.322 161.181 896.047C137.032 916.263 110.829 917.422 85.2019 925.523C88.4499 917.726 93.7077 911.871 100.963 907.952C86.2941 904.058 83.8053 917.888 73.7567 922.885C74.2115 907.746 78.0888 896.626 87.9668 885.637C68.6939 892.87 73.2614 904.84 63.0505 917.406C62.5389 909.099 54.5123 884.952 41.0249 889.316C48.5156 893.296 56.4367 912.479 55.848 920.607C51.0612 916.839 18.1913 919.137 23.0837 927.136C29.9126 929.032 36.8471 929.421 43.8872 928.294C32.9211 930.345 25.9054 936.861 21.2729 945.533C18.2441 935.106 16.5836 919.027 21.5936 908.836C11.9755 918.577 8.35392 934.369 7.44853 947.465C6.51879 944.499 5.58905 941.533 4.6593 938.567C4.6593 971.39 5.61746 992.234 7.11967 1022.48C6.59999 1022.19 14.7566 1026.44 15.2397 1030.28C14.8337 1027.02 -1.65923 1048.26 1.00004 1044C1.00004 1027.21 -0.81073 1060.68 1.00004 1044C1.00004 1072.78 0 2151 0 2151H3180C3180 2151 3178.02 712.973 3180 702Z" fill="#2C585D"/>
</svg>
