<svg width="3180" height="2155" viewBox="0 0 3180 2155" fill="none" xmlns="http://www.w3.org/2000/svg">
<path fill-rule="evenodd" clip-rule="evenodd" d="M3153.71 623.139C3150.61 632.465 3145.51 639.434 3143.57 649.734C3137.49 639.77 3139.96 627.74 3153.71 623.139ZM2924.06 712.691C2925.38 708.404 2907.17 667.635 2906.72 656.177C2906.12 641.354 2907.01 601.42 2920.83 590.347C2921.14 590.101 2927.22 660.61 2928.92 651.519C2926.11 666.544 2928.33 698.781 2924.06 712.691C2922.45 717.959 2925.68 707.43 2924.06 712.691ZM2890.08 602.097C2887.46 603.731 2884.61 638.947 2886.03 641.796C2873.27 616.242 2884.88 596.779 2881.79 587.767C2882 588.394 2891.2 601.392 2890.08 602.097C2886.84 604.123 2893.31 600.065 2890.08 602.097ZM2893.72 758.061C2892.38 755.385 2853.17 719.263 2856.44 716.946C2851.76 721.357 2849.29 726.742 2849.01 733.101C2844.31 728.052 2835.44 733.767 2827.97 727.884C2815.65 718.188 2819.39 689.382 2821.1 679.172C2824.75 657.425 2853.47 627.729 2847.09 604.728C2861.17 655.516 2869.96 710.514 2893.72 758.061ZM2888.46 781.969C2881.42 790.785 2853.27 772.598 2847.4 791.076C2845.7 796.417 2865.87 826.381 2870.4 827.339C2847.68 822.553 2859.64 842.307 2844.76 846.785C2846.38 846.298 2832.67 761.823 2834.69 750.689C2840.09 720.875 2843.45 756.37 2843.25 756.292C2842.53 756.012 2868.25 754.389 2863.68 762.774C2864.1 761.996 2863.73 751.579 2865.2 752.038C2868.65 753.118 2889.23 781.001 2888.46 781.969C2886.84 783.99 2890.08 779.937 2888.46 781.969ZM2816.04 563.562C2852.44 547.838 2823.17 642.518 2815.48 641.466C2813.37 641.175 2811.61 579.784 2814.01 579.409C2816.3 579.057 2825 589.636 2828.21 586.121C2831.33 582.706 2808.51 566.803 2816.04 563.562C2817.46 562.952 2814.63 564.172 2816.04 563.562ZM2749.73 595.615C2763.79 620.01 2737.52 673.53 2752.82 693.978C2733.05 667.574 2726.84 623.122 2749.73 595.615ZM2749.02 563.708C2752.13 569.949 2734.38 610.113 2730.92 610.415C2715.34 611.77 2732.99 531.621 2749.02 563.708C2750.44 566.546 2747.61 560.875 2749.02 563.708ZM2717.16 567.257C2717.42 566.837 2721.68 592.777 2716.81 591.002C2712.98 589.614 2701.22 574.567 2698.31 570.845C2697.06 569.255 2716.81 567.816 2717.16 567.257C2718.93 564.419 2715.39 570.089 2717.16 567.257ZM2721.05 649.493C2717.52 660.112 2679.06 587.408 2692.86 581.257C2703.27 576.616 2724.65 638.7 2721.05 649.493C2719.64 653.747 2722.47 645.239 2721.05 649.493ZM2679.99 576.829C2685.46 579.868 2681.43 593.476 2679.41 597.21C2687.45 582.348 2605.03 546.164 2603.96 542.397C2601.49 533.743 2645.53 558.351 2646.35 558.748C2656.44 563.556 2671.13 571.897 2679.99 576.829C2683.17 578.598 2676.8 575.054 2679.99 576.829ZM2634.22 568.427C2635.5 586.25 2610.07 561.435 2613.68 562.392C2616.57 563.159 2633.16 553.257 2634.22 568.427C2634.5 572.267 2633.95 564.586 2634.22 568.427ZM2593.42 542.649C2590.95 546.763 2601.25 553.167 2601.98 555.16C2603.69 559.868 2576.64 575.899 2569.81 564.139C2562.5 551.561 2590.39 547.715 2593.42 542.649C2594.24 541.277 2592.59 544.02 2593.42 542.649ZM2563.83 555.535C2558.29 561.642 2558.5 564.961 2570.72 571.584C2572.95 572.787 2544.14 573.638 2548.45 567.38C2549.07 566.484 2541.25 561.194 2545.31 557.097C2550.93 551.437 2560.01 559.75 2563.83 555.535C2566.57 552.523 2561.1 558.552 2563.83 555.535ZM2536.35 564.223C2538.2 561.133 2547.45 572.434 2542.85 573.968C2539.27 575.166 2516.89 568.706 2515.25 572.709C2520.88 559.006 2534.15 567.889 2536.35 564.223C2537.43 562.415 2535.27 566.025 2536.35 564.223ZM2510.01 559.705C2519.84 554.337 2502.12 579.773 2504.61 575.418C2505.8 573.33 2489.04 571.153 2510.01 559.705C2512 558.619 2508.03 560.786 2510.01 559.705ZM2490 573.968C2493.28 566.562 2484.41 605.03 2474.45 588.416C2479.1 583.059 2484.28 578.245 2490 573.968C2490.72 572.345 2489.28 575.597 2490 573.968ZM2475.07 593.224C2469.13 595.357 2463.69 595.788 2460.54 596.393C2463.71 595.783 2473.52 593.784 2475.07 593.224C2473.18 593.902 2476.97 592.547 2475.07 593.224ZM2460.36 602.438C2459.04 602.769 2433.59 622.624 2440.65 602.438C2441.18 600.927 2459.84 602.567 2460.36 602.438C2458.2 602.976 2462.52 601.895 2460.36 602.438ZM2433.9 606.821C2436.14 609.055 2441.14 607.437 2441.14 612.654C2441.14 612.917 2422.3 611.731 2423.31 614.776C2415.17 590.353 2430.85 603.771 2433.9 606.821C2436.2 609.116 2431.61 604.521 2433.9 606.821ZM2566.3 492.197C2565.92 494.447 2550.58 486.66 2552.54 478.544C2553.85 473.131 2567 487.998 2566.3 492.197C2566.04 493.786 2566.56 490.596 2566.3 492.197ZM2551.18 489.801C2562.82 492.549 2505.47 491.194 2511.88 483.923C2512.68 483.027 2546.95 482.708 2537.78 479.842C2542.5 481.32 2547.6 488.955 2551.18 489.801C2555.69 490.87 2546.67 488.743 2551.18 489.801ZM2507.86 483.682C2508.99 482.921 2510.49 494.072 2496.94 489.549C2487.65 486.448 2512.68 480.464 2507.86 483.682C2508.94 482.96 2506.77 484.399 2507.86 483.682ZM2459.39 485.552C2476.32 479.204 2444.63 508.34 2451.43 509.191C2436.45 507.327 2454.25 487.489 2459.39 485.552C2461.51 484.757 2457.27 486.347 2459.39 485.552ZM2440.09 498.55C2447.51 491.737 2431.4 518.551 2428.99 503.997C2429.76 498.36 2433.45 496.546 2440.09 498.55C2442.7 496.154 2437.47 500.946 2440.09 498.55ZM2414.85 510.529C2422.7 503.459 2396.67 532.422 2395.48 527.306C2391.39 509.538 2412.77 512.41 2414.85 510.529C2417.02 508.57 2412.67 512.488 2414.85 510.529ZM2390.04 525.559C2394.1 521.506 2391.02 546.467 2381.12 537.544C2376.01 532.937 2380.38 517.308 2380.26 517.067C2380.51 523.678 2383.77 526.511 2390.04 525.559C2392.22 523.387 2387.87 527.742 2390.04 525.559ZM2755.41 889.557C2738.32 859.223 2737.4 790.27 2751.24 759.724C2757.6 773.029 2767.33 889.154 2755.41 889.557C2752.57 884.508 2762.37 889.322 2755.41 889.557ZM2737.61 797.9C2733.61 775.985 2733.72 765.73 2742.71 745.326C2752.65 758.19 2737.87 780.368 2737.61 797.9C2737.4 796.775 2737.63 796.697 2737.61 797.9ZM2742.56 848.504C2736.14 833.2 2737.98 821.702 2738.06 806.067C2740.35 820.157 2744.42 834.123 2742.56 848.504C2740.81 844.328 2743.05 844.68 2742.56 848.504ZM2732.89 732.804C2722.51 750.252 2719.4 727.979 2724.17 717.953C2726.6 723.176 2729.51 728.124 2732.89 732.804C2730.61 736.622 2730.96 730.162 2732.89 732.804ZM2660.34 941.728C2656.54 925.696 2700.18 857.471 2708.97 840.622C2730.42 901.962 2707.99 866.013 2687.83 906.597C2687.79 906.67 2703.73 973.977 2678.04 964.987C2667.73 961.371 2679.37 941.846 2660.34 941.728C2659.64 938.79 2661.45 941.734 2660.34 941.728ZM2692.64 865.638C2687.32 844.406 2691.39 811.659 2698.66 791.743C2712.71 826.891 2698.04 835.209 2692.64 865.638C2691.83 862.436 2693.22 862.347 2692.64 865.638ZM2702.03 715.988C2692.44 699.374 2690.24 685.24 2698.41 667.305C2707.93 684.608 2704.52 696.783 2702.03 715.988C2701.61 715.25 2702.31 713.817 2702.03 715.988ZM2715.36 764.605C2704.08 732.25 2707.05 723.03 2712.33 690.34C2719.91 708.611 2721.9 744.235 2715.36 764.605C2714.8 763.009 2715.67 763.642 2715.36 764.605ZM2733.37 829.611C2708.05 809.717 2722.02 756.986 2737.08 738.262C2744.29 747.313 2732.73 810.187 2733.37 829.611C2732.98 829.309 2733.34 828.688 2733.37 829.611ZM2718.86 800.218C2731.59 828.346 2735.81 862.459 2751.05 889.367C2722.05 885.656 2715.27 822.793 2718.86 800.218C2719.17 800.917 2718.04 805.407 2718.86 800.218ZM2704.13 727.167C2703.28 724.133 2718.79 789.011 2710.03 788.043C2693.34 786.178 2702.54 735.922 2704.13 727.167C2704.39 728.119 2703.94 728.192 2704.13 727.167ZM2696.04 662.485C2687.8 690.004 2697.93 710.491 2697.93 736.437C2697.93 703.315 2678.75 665.805 2684.54 626.973C2691.32 636.562 2691.32 651.85 2696.04 662.485C2694.84 666.51 2691.23 651.642 2696.04 662.485ZM2634.42 579.325C2617.64 601.14 2585.43 589.267 2564.38 580.803C2578.16 579.314 2592.65 565.566 2604.5 566.075C2615.16 566.534 2618.56 581.626 2634.42 579.325C2631.09 583.652 2625.04 580.686 2634.42 579.325ZM2558.46 581.335C2603.36 598.604 2635.95 568.902 2660.4 600.031C2629.71 594.926 2607.54 617.524 2578.35 617.485C2552.78 617.451 2520.72 603.037 2502.13 586.63C2521.16 580.047 2539.05 582.611 2558.46 581.335C2560.89 582.27 2557.82 581.38 2558.46 581.335ZM2427.34 914.014C2429.8 918.022 2429.31 918.285 2425.88 914.809L2427.34 914.014ZM2424.62 910.538C2420.41 915.436 2428.7 914.708 2424.62 910.538C2423.94 911.333 2425.2 911.131 2424.62 910.538ZM2420.7 907.241C2415.33 910.807 2417.13 912.161 2420.7 907.241V907.241ZM2433.05 913.589L2433.12 913.908L2432.86 913.661L2433.05 913.589ZM2431.67 909.553C2429.37 912.279 2434.95 916.348 2431.67 909.553C2431.19 910.118 2432.19 910.627 2431.67 909.553ZM2429.46 905.819C2422.83 910.443 2432.81 910.667 2429.46 905.819C2428.51 906.491 2429.86 906.401 2429.46 905.819ZM2432.24 905.091L2431.81 904.593L2432.25 904.459L2432.24 905.091ZM2437.88 909.15C2438.22 911.848 2440.78 913.902 2437.88 909.15V909.15ZM2435.12 905.662C2435.79 909.446 2437.81 908.511 2435.12 905.662V905.662ZM2438.44 904.89C2439.01 903.832 2437.54 902.248 2438.44 904.89V904.89ZM2441.86 904.856C2438.6 907.554 2445.71 910.991 2441.86 904.856C2441.22 905.382 2442.42 905.729 2441.86 904.856ZM2449.04 906.116L2449.41 907.022L2448.67 906.491L2449.04 906.116ZM2446.75 901.307C2447.79 902.382 2447.58 903.373 2446.12 904.268C2443.93 903.037 2444.15 902.057 2446.75 901.307ZM2459.55 903.966L2459.46 904.946L2458.95 904.515L2459.55 903.966ZM2411.44 871.874C2412.02 875.692 2412.59 879.498 2413.17 883.316C2404.2 874.791 2403.63 870.973 2411.44 871.874C2412.24 874.964 2409.56 872.641 2411.44 871.874ZM2409.23 865.258C2399.04 871.147 2411.88 871.684 2409.23 865.258C2407.74 866.12 2409.52 865.946 2409.23 865.258ZM2413.18 865.521C2416.57 862.554 2411.47 861.72 2413.18 865.521C2414.15 864.676 2412.85 864.788 2413.18 865.521ZM2419.56 877.103C2420.1 880.03 2419.78 880.069 2418.59 877.214L2419.56 877.103ZM2417.95 868.812C2411.94 871.516 2420.83 879.034 2417.95 868.812C2416.99 869.249 2418.29 870.027 2417.95 868.812ZM2422.22 869.954C2427.28 865.14 2421.17 865.717 2422.22 869.954C2423.59 868.65 2421.99 869.059 2422.22 869.954ZM2427.15 873.397C2427.84 876.895 2428.01 882.051 2426.6 884.794C2421.22 878.877 2421.41 875.071 2427.15 873.397C2427.4 874.651 2425.88 874.125 2427.15 873.397ZM2435.47 876.319C2436.56 878.44 2436.62 880.461 2435.66 882.404C2432.08 886.843 2430.35 879.314 2435.47 876.319C2435.81 877.819 2434.35 876.974 2435.47 876.319ZM2433.79 870.184C2424.93 873.111 2436.27 878.765 2433.79 870.184C2432.58 870.587 2434.09 871.191 2433.79 870.184ZM2438 871.163C2437.84 870.587 2437.68 870.027 2437.5 869.49C2439.34 869.193 2439.5 869.747 2438 871.163C2437.84 870.587 2438.59 870.604 2438 871.163ZM2444.97 877.959C2445.63 880.59 2445.6 883.182 2444.88 885.723C2442.86 885.521 2437.63 882.404 2444.97 877.959C2445.21 879.801 2443.14 879.062 2444.97 877.959ZM2444.16 871.969C2431.77 875.211 2444.84 882.23 2444.16 871.969C2442.57 872.384 2444.2 872.664 2444.16 871.969ZM2446.43 873.195C2444.4 871.695 2444.63 871.292 2447.11 871.975L2446.43 873.195ZM2449.43 880.819C2446.17 874.404 2449.58 871.913 2459.68 873.335C2456.26 875.832 2452.84 878.323 2449.43 880.819C2449.09 879.185 2453.67 878.267 2449.43 880.819ZM2453.46 883.534C2447.9 886.154 2456.47 900.596 2453.46 883.534C2452.45 884.01 2453.86 885.807 2453.46 883.534ZM2457.24 886.199C2468.81 876.588 2453.78 879.801 2457.24 886.199C2459.26 884.52 2456.51 884.85 2457.24 886.199ZM2543.9 839.055C2545.86 844.574 2536.91 848.039 2534.84 844.602C2537.86 842.755 2540.87 840.902 2543.9 839.055C2544.41 840.499 2539.98 840.398 2543.9 839.055ZM2542.78 832.578C2536.8 836.664 2542.89 838.377 2542.78 832.578C2541.47 833.479 2542.8 833.871 2542.78 832.578ZM2551.44 828.794C2552.95 833.933 2554.46 839.072 2555.98 844.21C2554.65 844.529 2543.19 831.806 2551.44 828.794C2553.65 833.485 2549.32 829.567 2551.44 828.794ZM2548.05 821.696L2548.42 822.536L2547.72 821.97L2548.05 821.696ZM2556.58 816.899C2558.25 822.217 2559.91 827.529 2561.59 832.841C2555.97 829.863 2550.55 819.619 2556.58 816.899C2558.41 821.282 2555.2 817.52 2556.58 816.899ZM2553.71 810.198C2554.84 812.219 2554.61 812.359 2553.01 810.635L2553.71 810.198ZM2562.52 806.94C2564.37 811.547 2566.22 816.149 2568.07 820.75C2560.56 818.819 2555.94 808.872 2562.52 806.94C2565.11 812.001 2560.94 807.405 2562.52 806.94ZM2559.57 801.029C2549.42 806.672 2561.48 805.099 2559.57 801.029C2558.11 801.835 2559.98 801.908 2559.57 801.029ZM2566.71 796.73L2569.32 807.506C2566.8 804.069 2562.86 799.613 2566.71 796.73C2567.57 799.792 2565.86 797.368 2566.71 796.73ZM2556.62 791.771L2556.63 792.062L2556.31 792.006L2556.62 791.771ZM2564.03 787.785C2554.88 791.16 2566.25 795.14 2564.03 787.785C2562.71 788.272 2564.34 788.809 2564.03 787.785ZM2573.5 784.342C2574.94 790.679 2576.37 797.016 2577.8 803.352C2570.26 793.276 2566.32 789.851 2573.5 784.342C2575.02 790.024 2572.4 785.193 2573.5 784.342ZM2563.5 779.819C2559.07 781.975 2560.8 783.189 2563.5 779.819V779.819ZM2571.99 776.444C2574.74 781.65 2573.14 783.923 2567.2 783.256C2564.13 778.711 2565.72 776.438 2571.99 776.444C2572.11 778.202 2570.18 777.004 2571.99 776.444ZM2584.7 761.403C2587.49 770.141 2590.01 778.957 2592.27 787.852C2589.61 786.178 2582.16 769.24 2582.76 765.265C2581.45 775.588 2582.4 785.747 2585.61 795.756C2572.43 782.534 2582.1 779.999 2581.43 771.843C2581.22 769.251 2564.88 772.901 2565.07 770.135C2570.61 764.314 2577.15 761.409 2584.7 761.403C2586.61 768.982 2580.41 763.564 2584.7 761.403ZM2512.99 781.622C2508.26 786.134 2502.88 790.31 2496.92 794.01C2501.64 787.628 2506.36 781.253 2511.08 774.865C2511.01 777.211 2511.65 779.456 2512.99 781.622C2511.94 782.618 2511.25 778.331 2512.99 781.622ZM2504.96 800.318L2504.82 800.408L2504.96 800.212V800.318ZM2511.29 795.885C2508.57 792.151 2501.25 803.671 2511.29 795.885C2510.75 795.152 2509.94 796.932 2511.29 795.885ZM2517.68 790.438C2512.82 780.833 2511.23 796.467 2517.68 790.438C2516.96 789.011 2516.9 791.16 2517.68 790.438ZM2525.21 783.514C2520.11 773.13 2515.67 787.544 2525.21 783.514C2524.3 781.656 2524.47 783.833 2525.21 783.514ZM2525.1 789.823C2533.31 798.415 2528.66 784.751 2525.1 789.823C2526.43 791.211 2525.9 788.675 2525.1 789.823ZM2518.55 796.719C2525.97 804.707 2519.06 797.005 2518.55 796.719V796.719ZM2501.6 813.926L2500.5 813.982L2501.27 812.812L2501.6 813.926ZM2510.32 810.433C2504.03 801.432 2500.72 816.585 2510.32 810.433C2509.26 808.922 2508.84 811.38 2510.32 810.433ZM2518.03 804.528C2515.03 809.247 2512.53 808.944 2510.52 803.621C2513.54 798.723 2516.05 799.025 2518.03 804.528C2516.77 805.619 2516.92 803.084 2518.03 804.528ZM2508.85 825.167C2505.16 820.314 2497.58 832.114 2508.85 825.167C2508.14 824.226 2506.77 826.454 2508.85 825.167ZM2516.19 819.53C2509.89 808.441 2507.84 826.93 2516.19 819.53C2515.27 817.918 2515.11 820.487 2516.19 819.53ZM2523.41 812.785C2520.72 806.588 2516.06 808.194 2523.41 812.785V812.785ZM2516.6 825.911C2522.41 830.339 2520.04 822.855 2516.6 825.911C2517.79 826.818 2517.27 825.318 2516.6 825.911ZM2506.25 840.812C2503.9 837.717 2503.69 841.255 2506.25 840.812C2505.81 840.247 2505.43 840.958 2506.25 840.812ZM2515.62 835.909C2512.65 839.67 2510.05 839.335 2507.83 834.907C2511.24 827.96 2513.84 828.296 2515.62 835.909C2514.29 836.832 2514.68 833.787 2515.62 835.909ZM2507.61 854.723C2505.15 849.489 2497.3 860.567 2507.61 854.723C2507.11 853.67 2505.94 855.669 2507.61 854.723ZM2513.49 850.681C2508.02 841.103 2505.87 856.76 2513.49 850.681C2512.63 849.181 2512.61 851.381 2513.49 850.681ZM2459.25 817.05C2453.62 828.391 2463.08 831.878 2452.24 846.69C2451.16 835.763 2448.1 812.801 2459.25 817.05C2458.7 818.136 2456.5 816.009 2459.25 817.05ZM2462.59 822.721C2474.21 823.236 2462.57 814.111 2462.59 822.721C2465.38 822.838 2462.59 820.94 2462.59 822.721ZM2467.52 838.036C2466.66 841.814 2464.17 852.394 2461.04 853.609C2455.63 835.623 2457.79 830.434 2467.52 838.036C2467.17 839.603 2464.77 837.157 2467.52 838.036ZM2470.84 835.601C2469.54 830.138 2460.78 839.044 2462.15 828.441C2463.26 828.811 2487.41 840.622 2470.84 835.601C2470.61 834.627 2473.76 836.48 2470.84 835.601ZM2471.1 843.807C2470.12 836.183 2473.55 836.446 2481.39 844.602C2477.96 844.333 2474.52 844.07 2471.1 843.807C2471.31 842.257 2475.26 844.652 2471.1 843.807ZM2470.52 863.377C2464.19 864.547 2464.2 859.016 2470.6 846.78C2477.76 847.664 2484.04 850.698 2489.44 855.887C2480.12 858.507 2475.52 856.385 2475.65 849.528C2475.1 852.573 2473.28 854.124 2470.21 854.18C2474.19 856.346 2474.29 859.408 2470.52 863.377ZM2485.07 864.508C2478.41 866.45 2475.59 864.547 2476.63 858.787C2486.71 860.113 2489.52 862.022 2485.07 864.508C2483.13 864.48 2485.64 864.306 2485.07 864.508ZM2549.15 850.06C2546.83 850.217 2544.61 849.881 2542.49 849.063C2536.85 842.609 2547.41 845.75 2549.15 850.06C2547.63 849.998 2548.28 847.905 2549.15 850.06ZM2678.38 742.992C2678.41 742.986 2677.38 700.578 2677.71 693.083C2685.8 752.934 2719.81 857.007 2672.84 909.088C2674.66 853.167 2686.68 799.591 2678.38 742.992C2680.27 742.438 2678.59 744.436 2678.38 742.992ZM2602.36 820.151C2600.04 819.463 2600.26 819.004 2602.99 818.791L2602.36 820.151ZM2613.79 821.511C2605.89 816.445 2614.8 818.992 2619.38 812.337C2615.4 809.012 2610.63 807.752 2605.06 808.564C2608.43 807.131 2619.67 805.569 2624.66 805.418C2621.04 810.781 2617.42 816.149 2613.79 821.511C2613.22 821.142 2617.4 815.203 2613.79 821.511ZM2374.83 1138.12C2376.87 1142.11 2376.46 1142.21 2373.6 1138.42L2374.83 1138.12ZM2372.54 1134.52C2369.03 1137.55 2376.05 1139.13 2372.54 1134.52C2371.97 1135.01 2373.03 1135.16 2372.54 1134.52ZM2369.25 1130.76C2365.12 1132.28 2365.94 1134.36 2369.25 1130.76V1130.76ZM2379.61 1139.21L2379.66 1139.49L2379.44 1139.22L2379.61 1139.21ZM2378.44 1135.47C2378.67 1136.95 2381.12 1141.81 2378.44 1135.47V1135.47ZM2376.59 1131.79C2371 1134 2379.42 1136.77 2376.59 1131.79C2375.8 1132.1 2376.93 1132.38 2376.59 1131.79ZM2378.93 1131.87L2378.57 1131.36C2378.99 1131.23 2379.11 1131.4 2378.93 1131.87ZM2383.65 1136.71C2383.9 1138.46 2386.43 1142.09 2383.65 1136.71V1136.71ZM2381.34 1133.08C2381.83 1135.53 2383.91 1136.57 2381.34 1133.08V1133.08ZM2384.13 1133.28L2383.05 1132.19L2384.5 1132.09L2384.13 1133.28ZM2386.99 1134.11C2384.22 1135.59 2390.32 1140.41 2386.99 1134.11C2386.45 1134.4 2387.45 1134.98 2386.99 1134.11ZM2393.01 1136.98L2393.32 1137.83L2392.7 1137.2L2393.01 1136.98ZM2391.09 1132.37C2388.95 1133.12 2389.69 1135.41 2391.09 1132.37V1132.37ZM2401.81 1137.83L2401.74 1138.62L2401.32 1138.14L2401.81 1137.83ZM2361.5 1098.78C2361.98 1102.13 2362.46 1105.47 2362.94 1108.81C2355.14 1099.42 2354.65 1096.08 2361.5 1098.78C2362.16 1101.57 2359.92 1098.95 2361.5 1098.78ZM2359.64 1092.68C2350.9 1095.1 2361.85 1098.77 2359.64 1092.68C2358.39 1093.02 2359.88 1093.33 2359.64 1092.68ZM2362.95 1093.9C2365.52 1092.43 2361.43 1090.04 2362.95 1093.9C2363.76 1093.43 2362.68 1093.2 2362.95 1093.9ZM2368.3 1105.22C2368.74 1107.81 2368.46 1107.77 2367.49 1105.06L2368.3 1105.22ZM2366.95 1097.87C2361.67 1098.65 2369.42 1107.36 2366.95 1097.87C2366.14 1097.99 2367.23 1098.96 2366.95 1097.87ZM2370.52 1099.89C2374.41 1097.38 2369.58 1095.76 2370.52 1099.89C2371.67 1099.15 2370.34 1099.09 2370.52 1099.89ZM2374.66 1104.03C2375.12 1106.54 2375.39 1111.49 2374.2 1113.44C2369.25 1107.48 2369.4 1104.34 2374.66 1104.03C2374.87 1105.14 2373.59 1104.31 2374.66 1104.03ZM2381.64 1108.58C2382.61 1110.39 2382.65 1112.11 2381.79 1113.72C2378.53 1117.32 2377.05 1109.87 2381.64 1108.58C2381.93 1109.92 2380.7 1108.84 2381.64 1108.58ZM2380.23 1103.02C2372.63 1103.21 2382.34 1111.01 2380.23 1103.02C2379.21 1103.04 2380.47 1103.93 2380.23 1103.02ZM2383.76 1104.89L2383.34 1103.37L2384.56 1103.82L2383.76 1104.89ZM2389.6 1112.35C2383.93 1114.08 2391.32 1126.2 2389.6 1112.35C2388.06 1112.82 2389.8 1113.95 2389.6 1112.35ZM2388.92 1107.12C2378.34 1106.68 2389.48 1115.94 2388.92 1107.12C2387.59 1107.07 2388.96 1107.72 2388.92 1107.12ZM2390.82 1108.73C2389.11 1106.98 2389.3 1106.69 2391.39 1107.88L2390.82 1108.73ZM2393.33 1115.87C2411.67 1110.35 2391.98 1108.88 2393.33 1115.87C2396.89 1114.8 2393.05 1114.41 2393.33 1115.87ZM2396.71 1119.17C2391.71 1120.03 2399.27 1134.41 2396.71 1119.17C2395.86 1119.32 2397.05 1121.18 2396.71 1119.17ZM2399.89 1122.36C2408.84 1117.6 2396.82 1115.75 2399.89 1122.36C2401.57 1121.46 2399.27 1121.05 2399.89 1122.36ZM2472.52 1104.73C2455.88 1105.41 2475.42 1113.72 2472.52 1104.73C2469.23 1104.86 2472.95 1106.07 2472.52 1104.73ZM2471.58 1099.01C2466.9 1100.8 2471.69 1104.43 2471.58 1099.01C2470.48 1099.43 2471.6 1100.11 2471.58 1099.01ZM2478.84 1098.03C2480.1 1102.72 2481.38 1107.4 2482.65 1112.1C2478.95 1111.88 2470.63 1098.57 2478.84 1098.03C2480.7 1102.52 2477.06 1098.15 2478.84 1098.03ZM2475.99 1091.23L2476.31 1092.02L2475.71 1091.37L2475.99 1091.23ZM2483.14 1089.36C2484.54 1094.23 2485.94 1099.11 2487.34 1103.98C2483.58 1100.86 2477.38 1090.23 2483.14 1089.36C2484.69 1093.49 2481.99 1089.53 2483.14 1089.36ZM2480.74 1083.02C2481.69 1085 2481.5 1085.06 2480.15 1083.21L2480.74 1083.02ZM2488.12 1082.51C2489.68 1086.83 2491.23 1091.17 2492.78 1095.49C2487.57 1092.58 2481.61 1082.48 2488.12 1082.51C2490.29 1087.4 2486.8 1082.51 2488.12 1082.51ZM2485.65 1076.81C2477.07 1078.98 2487.51 1081.35 2485.65 1076.81C2484.43 1077.12 2485.99 1077.65 2485.65 1076.81ZM2491.64 1075.02C2492.37 1078.25 2493.1 1081.47 2493.83 1084.71C2492.03 1081.71 2488.17 1076.55 2491.64 1075.02C2492.36 1077.79 2490.93 1075.34 2491.64 1075.02ZM2483.18 1068.3L2483.19 1068.55L2482.93 1068.43L2483.18 1068.3ZM2489.4 1066.84C2481.55 1067.36 2491.37 1074.03 2489.4 1066.84C2488.28 1066.91 2489.66 1067.78 2489.4 1066.84ZM2497.33 1066.35C2498.53 1072.02 2499.73 1077.69 2500.94 1083.36C2495.47 1074.42 2490.73 1069.41 2497.33 1066.35C2498.6 1071.49 2496.41 1066.77 2497.33 1066.35ZM2488.95 1060.03C2485.34 1060.69 2486.47 1062.38 2488.95 1060.03V1060.03ZM2496.06 1059.34C2498.47 1064.3 2497.13 1065.8 2492.05 1063.84C2489.35 1059.53 2490.69 1058.03 2496.06 1059.34C2496.16 1060.84 2494.55 1059.35 2496.06 1059.34ZM2504.71 1049.84C2508.82 1057.47 2511.6 1065.53 2513.07 1074.03C2510.96 1072.07 2504.47 1056.59 2505.09 1052.69C2504.02 1061.57 2504.82 1070.33 2507.49 1078.97C2509.09 1081.06 2498.75 1048.96 2496.58 1054.75C2483.81 1048.53 2497.75 1048.09 2504.71 1049.84C2506.48 1054.46 2502.11 1049.18 2504.71 1049.84ZM2446.61 1048.78C2442.69 1051.35 2438.13 1053.51 2433.14 1055.09C2437.1 1050.94 2441.06 1046.79 2445.01 1042.64C2445.01 1044.75 2445.53 1046.8 2446.61 1048.78C2445.74 1049.35 2445.16 1045.58 2446.61 1048.78ZM2439.89 1062.42L2439.77 1062.47L2439.88 1062.33L2439.89 1062.42ZM2445.19 1060.31C2442.94 1056.55 2437.08 1064.11 2445.19 1060.31C2444.74 1059.56 2444.05 1060.84 2445.19 1060.31ZM2450.54 1057.36C2446.54 1048.29 2445.27 1060.69 2450.54 1057.36C2449.94 1055.98 2449.89 1057.76 2450.54 1057.36ZM2456.86 1053.46C2452.63 1043.6 2449.36 1054.35 2456.86 1053.46C2456.09 1051.66 2456.23 1053.53 2456.86 1053.46ZM2456.76 1058.72C2464.06 1068.55 2459.68 1055.45 2456.76 1058.72C2457.88 1060.22 2457.44 1057.95 2456.76 1058.72ZM2451.27 1062.84C2458.13 1072.3 2451.46 1063.01 2451.27 1062.84V1062.84ZM2437.06 1072.98L2436.15 1072.75L2436.78 1071.97L2437.06 1072.98ZM2444.37 1072.26C2439.22 1063.32 2436.54 1074.89 2444.37 1072.26C2443.49 1070.72 2443.14 1072.68 2444.37 1072.26ZM2450.84 1069.26C2444.06 1058.47 2442.96 1073.65 2450.84 1069.26C2449.91 1067.76 2449.78 1069.85 2450.84 1069.26ZM2443.14 1084.24C2440.13 1079.35 2434.38 1087.02 2443.14 1084.24C2442.54 1083.27 2441.39 1084.78 2443.14 1084.24ZM2449.29 1081.36C2444.1 1070.68 2442.41 1085.37 2449.29 1081.36C2448.53 1079.79 2448.39 1081.9 2449.29 1081.36ZM2455.34 1077.54C2452.94 1071.25 2449.62 1072.12 2455.34 1077.54V1077.54ZM2449.64 1086.82C2454.96 1092.47 2452.42 1085.17 2449.64 1086.82C2450.64 1087.88 2450.2 1086.49 2449.64 1086.82ZM2440.96 1096.69C2440.28 1096.61 2439.68 1096.39 2439.22 1096.02C2439.84 1094.31 2440.42 1094.54 2440.96 1096.69C2440.28 1096.61 2440.6 1096.11 2440.96 1096.69ZM2448.81 1094.95C2443.46 1081.27 2439.56 1098.61 2448.81 1094.95C2448.03 1092.93 2447.7 1095.39 2448.81 1094.95ZM2442.11 1108.69C2440.12 1103.95 2434.11 1110.81 2442.11 1108.69C2441.69 1107.69 2440.7 1109.06 2442.11 1108.69ZM2447.03 1106.79C2442.54 1097.58 2440.73 1109.88 2447.03 1106.79C2446.31 1105.32 2446.29 1107.15 2447.03 1106.79ZM2401.57 1064.9C2396.63 1073.34 2405.58 1077.46 2395.69 1087.98C2394.76 1078.22 2391.84 1058.28 2401.57 1064.9C2401.11 1065.68 2399.26 1063.33 2401.57 1064.9ZM2404.37 1070.49C2414.65 1074.05 2404.34 1062.25 2404.37 1070.49C2406.71 1071.3 2404.37 1069.01 2404.37 1070.49ZM2408.51 1084.58C2407.88 1087.12 2405.71 1095.77 2403.07 1096C2399.16 1079.78 2400.97 1075.97 2408.51 1084.58C2408.2 1085.81 2406.2 1083.15 2408.51 1084.58ZM2411.29 1083.37C2410.31 1079 2402.93 1083.15 2404 1075.19C2418.96 1085.04 2421.39 1087.76 2411.29 1083.37C2411.09 1082.51 2413.72 1084.85 2411.29 1083.37ZM2411.5 1090.32C2429.86 1099.58 2412.59 1082.88 2411.5 1090.32C2414.99 1092.08 2411.68 1089.08 2411.5 1090.32ZM2411.02 1106.58C2405.83 1106 2405.85 1101.37 2411.08 1092.69C2417.34 1095.4 2422.61 1099.53 2426.87 1105.08C2419.11 1105.09 2415.26 1102.15 2415.31 1096.27C2414.84 1094.69 2411.49 1105.78 2411.02 1106.58ZM2423.21 1111.21C2417.69 1111.27 2415.33 1108.96 2416.14 1104.28L2424.39 1110.74L2423.21 1111.21ZM2476.92 1115.27C2474.89 1114.78 2473.03 1113.94 2471.34 1112.76C2466.51 1105.37 2474.8 1109.39 2476.92 1115.27C2475.65 1114.84 2476.19 1113.25 2476.92 1115.27ZM2505.3 1006.4C2496.85 1018.15 2505.62 999.312 2507.31 997C2506.64 1000.14 2505.97 1003.27 2505.3 1006.4C2503.99 1008.24 2506.08 1003.14 2505.3 1006.4ZM2501.04 1034.89C2500.86 1032.5 2494.11 1033.1 2501.04 1034.89C2501 1034.34 2499.89 1034.59 2501.04 1034.89ZM2503.14 1045.33C2500.08 1044.38 2497.01 1043.43 2493.95 1042.49C2500.21 1037.78 2503.27 1038.73 2503.14 1045.33C2500.58 1044.31 2502.61 1043.62 2503.14 1045.33ZM2574.47 1042.41C2596.28 1057.27 2579.94 1023.9 2578 1027.59C2585.9 1012.57 2579.33 1013.36 2599.4 1000.81C2596.25 1002.79 2577.73 977.38 2577.72 971.122C2577.7 951.67 2582.01 958.505 2599.75 948.81C2626.64 934.121 2628.36 940.021 2658.49 941.717C2655.02 931.664 2675.57 868.656 2677 854.012C2680.5 818.08 2681.75 779.12 2676.55 743.473C2668.71 744.789 2661.24 747.229 2654.14 750.784C2661.29 747.549 2667.43 748.36 2672.57 753.213C2663.04 756.555 2653.22 758.531 2643.08 759.13C2649.93 758.811 2654.41 761.386 2656.51 766.861C2648.56 768.915 2640.46 769.704 2632.2 769.206C2638.72 768.714 2644.32 770.393 2648.99 774.25C2641.28 776.528 2633.42 778.123 2625.42 779.041C2633.38 778.084 2638.55 780.676 2640.93 786.811C2631.91 790.108 2630.04 784.6 2618.33 790.198C2623.52 792.582 2628.85 794.564 2634.34 796.142C2626.99 799.036 2619.28 800.206 2611.2 799.663C2617.63 808.838 2624.22 800.481 2630.51 802.076C2633.1 802.725 2617.33 828.525 2617.28 829.259C2617.86 828.559 2641.15 802.955 2646.26 808.082C2642.41 815.774 2636.95 822.194 2629.89 827.361C2630.5 827.26 2669.59 819.255 2674.3 827.361C2667.54 833.02 2659.46 834.812 2650.05 832.735C2654.24 835.635 2658.65 838.17 2663.28 840.32C2664.89 846.08 2632.37 839.413 2633.35 839.374C2641.4 839.67 2645.58 842.609 2645.91 848.19C2637.76 848.683 2629.69 847.966 2621.7 846.013C2625.95 847.804 2628.99 850.76 2630.83 854.863C2627.11 852.058 2596.91 850.748 2597.13 850.754C2605.25 867.066 2596.54 845.403 2584.84 857.387C2585.88 869.926 2598.4 856.867 2584.52 874.774C2587.29 871.203 2600.84 857.83 2605.63 859.604C2606.67 864.138 2605.83 868.353 2603.11 872.244C2607.93 866.791 2613.81 863.108 2620.75 861.183C2619.76 865.286 2617.62 868.762 2614.33 871.611C2620.81 866.976 2627.99 864.771 2635.87 864.978C2633.25 870.173 2629.15 873.867 2623.58 876.039C2631.92 872.171 2640.64 870.587 2649.73 871.298C2646.62 875.653 2642.43 878.597 2637.14 880.148C2644.92 879.985 2652.06 881.883 2658.56 885.835C2659.09 886.798 2640.44 886.759 2640.1 886.983C2648.7 890.873 2656.21 896.28 2662.65 903.222C2656.3 901.867 2650.37 899.471 2644.86 896.012C2648.91 900.283 2652.73 904.761 2656.3 909.441C2655.57 907.834 2622.13 892.093 2618.23 891.209C2621.75 895.653 2622.27 900.288 2619.81 905.119C2611.76 902.841 2616.35 887.805 2604.1 890.968C2608.61 894.411 2609.75 898.497 2607.52 903.222C2601.9 906.116 2576.47 890.901 2557.96 903.546C2537.87 917.266 2535.86 941.404 2535.96 962.793C2536.06 982.575 2546.71 1000.68 2545.79 1020.46C2545.3 1031.07 2534.88 1051.23 2537.5 1060.85C2537.49 1049.28 2542.16 1040.63 2551.52 1034.89C2550.01 1039.44 2548.24 1043.89 2546.22 1048.24C2550.55 1046.74 2560.28 1034.67 2564.94 1037.23C2563.23 1040.35 2560.92 1043.02 2558.02 1045.24C2563.97 1043.09 2568.17 1040.72 2574.47 1042.41ZM2540.97 1075.08L2540.85 1075.01L2540.98 1074.99L2540.97 1075.08ZM2539.55 1086.46C2542.85 1078.19 2529.36 1082.2 2539.55 1086.46C2540.15 1084.95 2536.72 1085.28 2539.55 1086.46ZM2535.38 1093.71C2537.93 1088.52 2536.3 1087.89 2535.38 1093.71V1093.71ZM3132.82 570.537C3132.82 554.348 3153 581 3153 581C3151.63 613.316 3129.48 618.801 3134.73 650.73C3118.56 630.556 3132.82 593.835 3132.82 570.537ZM3113.09 631.535C3108.98 645.843 3098.27 693.43 3092.83 649.801C3089.44 622.753 3108.8 604.353 3114.7 576.258C3138.85 601.52 3103.66 607.516 3113.09 631.535C3111.57 636.825 3110.81 625.719 3113.09 631.535ZM3070.14 812.443C3064.61 814.682 3071.49 817.705 3070.14 812.443C3069 812.902 3070.28 812.992 3070.14 812.443ZM3068.8 808.435C3062.63 811.979 3070.4 812.342 3068.8 808.435C3067.9 808.956 3068.98 808.849 3068.8 808.435ZM3071.19 808.592L3070.64 807.472C3072.32 806.465 3072.5 806.834 3071.19 808.592ZM3072.54 811.715C3072.24 811.307 3072.43 811.083 3073.12 811.044L3072.54 811.715ZM3099.08 779.243C3096.63 784.152 3098.41 788.462 3096.35 794.211C3092.45 788.44 3089.44 775.582 3099.08 779.243C3098.75 779.903 3097.42 778.616 3099.08 779.243ZM3099.71 798.544C3101.39 799.999 3098.21 779.165 3099.71 798.544C3100.73 799.434 3099.56 796.478 3099.71 798.544ZM3059.28 836.782L3059.71 836.245C3059.47 837.263 3059.25 837.415 3059.28 836.782ZM3061.33 816.305C3060.61 820.784 3064 823.129 3061.33 816.305C3061.19 817.195 3061.98 817.951 3061.33 816.305ZM3062.18 811.844C3065 812.768 3066.52 815.539 3066.34 820.23C3062.58 817.867 3061.19 815.068 3062.18 811.844ZM3062.98 808.463C3062.25 811.363 3062.98 809.93 3062.98 808.463V808.463ZM3063.36 807.036C3065.11 806.358 3067.09 805.507 3069.24 804.752C3067.5 807.399 3065.28 808.905 3063.36 807.036ZM3022.64 771.731C3021.13 772.246 3015.42 779.321 3016.73 779.355C3007.47 783.939 3006.36 681.893 3010.17 668.486C3016.2 647.209 3038.91 626.078 3038.92 602.623C3038.9 656.473 3044.05 719.593 3022.64 771.731C3022.05 771.938 3024.16 768.019 3022.64 771.731ZM3091.74 771.4C3110.72 831.072 3098 742.04 3095.11 776.002L3095.12 776.612C3091.52 788.003 3092.31 780.088 3091.74 771.4C3092.26 773.013 3091.78 771.882 3091.74 771.4ZM3092.92 766.721C3095.87 768.255 3098.83 769.794 3101.79 771.322C3099.22 772.134 3087.95 772.576 3092.92 766.721C3095.01 768.215 3092.06 767.734 3092.92 766.721ZM3097.02 761.784C3094.14 766.195 3105.98 764.834 3097.02 761.784C3096.52 762.545 3098.17 762.175 3097.02 761.784ZM3099.13 758.061H3099.13L3099.13 758.055V758.061ZM3070.48 721.222C3076.48 723.349 3082.43 725.633 3088.32 728.068C3083.73 726.731 3079.96 727.576 3077 730.593C3082.11 733.179 3087.51 734.948 3093.2 735.911C3088.71 734.584 3084.41 734.707 3080.26 736.269C3084.6 738.928 3089.26 740.887 3094.23 742.147C3094.34 742.135 3081.47 744.302 3082.54 745.169C3085.7 745.74 3088.82 746.446 3091.91 747.28C3091.5 751.585 3089.08 753.113 3084.65 751.876C3092.56 754.159 3092.66 759.869 3084.97 769.01C3086.82 759.259 3054.8 866.696 3080.01 786.962C3080.13 780.088 3079.24 773.36 3077.34 766.782C3075.54 772.951 3074.45 779.265 3074.05 785.725C3074.29 779.338 3073.06 773.298 3070.35 767.605C3070.08 772.442 3069.81 777.284 3069.52 782.12C3070.22 761.795 3069.25 741.604 3070.48 721.222C3073.4 723.512 3069.66 734.769 3070.48 721.222ZM3070.88 713.996C3074.87 716.414 3078.87 718.832 3082.85 721.245C3046.63 700.074 3081.24 723.439 3070.88 713.996ZM3098.83 723.764C3095.29 730.867 3097.63 705.907 3089.52 705.817C3090.67 709.971 3091.55 714.197 3092.15 718.479C3090.25 712.557 3086.55 708.264 3081.08 705.599C3083.28 709.333 3084.78 713.352 3085.58 717.662C3072.65 700.382 3077.07 713.52 3078.81 688.576C3079.49 678.831 3086.52 666.818 3087.69 656.345C3098.75 682.206 3098.36 695.708 3098.83 723.764C3098.39 724.648 3098.79 721.256 3098.83 723.764ZM3110.62 716.711C3107.62 698.423 3106.12 655.55 3116.4 639.344C3119.63 646.862 3126.37 669.281 3126.74 676.983C3128.3 709.35 3127.93 689.959 3110.62 716.711C3110.2 714.158 3112.93 713.162 3110.62 716.711ZM3122.31 734.881C3133.22 715.793 3108.75 743.053 3111.24 741.576C3112.4 738.777 3122.78 722.532 3118.18 719.532C3114.63 724.06 3111.79 729.031 3109.66 734.439C3111.09 730.263 3116.72 708.325 3125.21 712.585C3125.86 712.91 3124.84 733.179 3122.31 734.881C3124.25 731.494 3123.46 734.108 3122.31 734.881ZM998.97 1175.16C1013.78 1159.98 1043.04 1143.41 1059.62 1129.17C1052.43 1155.27 1045.24 1181.37 1038.04 1207.48C1034.8 1183.3 1016.35 1217.06 1006 1205.71C1004.54 1204.11 1000.31 1179.55 998.97 1175.16C1013.78 1159.98 999.178 1175.84 998.97 1175.16ZM981.791 1128.01C979.234 1136.24 1011.73 1102.7 1030.57 1110.52C1018.89 1117.49 1005.95 1147.87 996.648 1149.71C983.485 1152.33 967.72 1137.29 981.791 1128.01C980.883 1130.93 974.781 1132.63 981.791 1128.01ZM1662.4 1310.13C1661.48 1302.16 1662.44 1301.08 1665.25 1306.87C1670.97 1315.56 1670.01 1316.65 1662.4 1310.13C1662.53 1308.03 1668.44 1315.02 1662.4 1310.13ZM1639.19 1234.81C1642.27 1229.9 1646.64 1227.2 1652.29 1226.69C1649.99 1228.74 1638.14 1249.07 1644.62 1252.37C1649.92 1244.45 1656.04 1237.21 1662.96 1230.63C1661.07 1258.39 1655.77 1283.21 1657.82 1306.31C1634.66 1286.63 1630.96 1311.88 1617.37 1306.48C1615.85 1284.34 1614.33 1262.2 1612.81 1240.06C1620.65 1246.45 1627.57 1253.71 1633.56 1261.85C1640.52 1257.39 1628.32 1236.56 1624.9 1233.96C1632.58 1233.75 1638.02 1237.23 1641.21 1244.39C1640.54 1241.2 1639.87 1238 1639.19 1234.81C1642.25 1229.87 1641.2 1238.69 1639.19 1234.81ZM1648.01 1218.09C1642.87 1236.33 1635.75 1237.72 1626.64 1222.25C1633.26 1218.34 1640.39 1216.95 1648.01 1218.09C1643.82 1221.3 1641.52 1216.76 1648.01 1218.09ZM1650.84 1202.48C1666.74 1208.59 1626.48 1210.6 1620.03 1213.17C1622.24 1200.7 1643.2 1203.61 1650.84 1202.48ZM1572.62 1187.28C1569.27 1177.65 1563.23 1170.19 1554.47 1164.93C1570.33 1160.52 1597.47 1189.67 1585.37 1165.77C1594.84 1174.99 1597.83 1188.86 1598.21 1201.58C1591.71 1193.41 1583.18 1188.65 1572.62 1187.28C1569.16 1178.46 1585.67 1185.08 1572.62 1187.28ZM1576.49 1201.02C1575.54 1197.39 1574.6 1193.78 1573.66 1190.15C1579.44 1193.72 1583.65 1198.71 1586.3 1205.11C1583.03 1203.75 1579.76 1202.38 1576.49 1201.02C1575.89 1197.74 1581.07 1202.53 1576.49 1201.02ZM1556.3 1204.03C1554.03 1197.69 1551.78 1191.34 1549.53 1185C1559.55 1186.65 1567.25 1191.65 1572.63 1199.99C1567.18 1201.34 1561.74 1202.69 1556.3 1204.03C1556.69 1197.99 1561.51 1199.39 1556.3 1204.03ZM1528.34 1182.32C1543.96 1197.53 1543.13 1215.75 1549.29 1234.93C1551.34 1199.39 1562.13 1207.4 1588.77 1217.13C1575.7 1225.05 1560.16 1221.44 1554.66 1240.38C1563.04 1235.34 1572.13 1232.47 1581.92 1231.8C1575.01 1243.2 1570.44 1258.72 1574.01 1271.95C1577.29 1259.78 1583.79 1249.98 1593.48 1242.57C1591.46 1251.18 1592.03 1259.69 1595.2 1268.11C1599.17 1260.63 1603.49 1253.37 1608.16 1246.31C1609.39 1265.59 1610.62 1284.87 1611.84 1304.17C1581.38 1292.26 1578.24 1343.74 1551.14 1342.46C1530 1341.47 1493.09 1272.31 1479.07 1302.25C1489.38 1262.34 1505.55 1217 1528.34 1182.32C1545.77 1199.29 1512.61 1206.26 1528.34 1182.32ZM1340.78 1189.33C1351.61 1201.21 1357.68 1215.11 1358.97 1231.01C1349.68 1233.38 1330.5 1229.07 1322.13 1225.39C1327.47 1212.92 1333.68 1200.9 1340.78 1189.33C1354.65 1202.83 1335.3 1197.67 1340.78 1189.33ZM1281.73 1219.08C1279.09 1217.86 1265.11 1203.52 1266.56 1201.05C1268.53 1197.72 1277.29 1197.32 1279.97 1191.49C1280.56 1200.68 1281.14 1209.88 1281.73 1219.08C1279.79 1218.18 1281.11 1209.46 1281.73 1219.08ZM1315.26 1172.77C1320.45 1169.15 1312.88 1164.46 1315.26 1172.77C1316.43 1171.95 1314.79 1171.15 1315.26 1172.77ZM1294.39 1166.15C1315.16 1184.64 1298.48 1191.01 1290.75 1215.61C1301.79 1202.3 1314.68 1189.45 1332.51 1186.02C1326.23 1197.08 1320.53 1208.43 1315.41 1220.06C1306.79 1212.49 1299.99 1216.18 1289.21 1220.17C1288.27 1206.44 1278.33 1168.43 1294.39 1166.15C1299.15 1170.38 1291.49 1166.56 1294.39 1166.15ZM1271.78 1176.68C1279.73 1164.72 1278.62 1170.56 1279.63 1186.18C1277.01 1183.01 1274.39 1179.85 1271.78 1176.68C1273 1174.84 1275.31 1182.45 1271.78 1176.68ZM1303.65 1116.56C1298.2 1113.19 1287.36 1119.99 1303.65 1116.56C1301.91 1115.49 1300.73 1117.18 1303.65 1116.56ZM1322.04 1149.68C1318.33 1141.51 1312.42 1135.59 1304.33 1131.92C1325.44 1117.18 1329.33 1150.19 1322.04 1149.68C1317.93 1141.71 1323.63 1149.79 1322.04 1149.68ZM1303.88 1150.36C1320.63 1147.45 1300.92 1146.97 1303.88 1150.36C1306.24 1149.94 1303.17 1149.55 1303.88 1150.36ZM1284.88 1156.99L1285.2 1157.35L1284.91 1157.53L1284.88 1156.99ZM1236.33 1188.49C1240.23 1176.42 1247.34 1167.1 1257.67 1160.52C1266.41 1171.4 1246.05 1189.62 1236.33 1188.49C1244.57 1171.69 1238.02 1188.69 1236.33 1188.49ZM1213.87 1140.22C1210.26 1145.96 1206.65 1151.71 1203.04 1157.45C1214.83 1150.34 1227.61 1146.31 1241.39 1145.37C1234.05 1157.52 1228.6 1172.56 1228.42 1186.79C1196.63 1176.49 1206.81 1166.02 1184.44 1184.99C1170.97 1196.4 1166.33 1236.01 1150.21 1245.62C1131.19 1256.96 1117.37 1248.98 1090.37 1240.41C1080.46 1237.26 1089.67 1227.21 1083.11 1225.47C1073.49 1222.94 1055.32 1228.16 1047.94 1224.28C1054.85 1198.41 1061.79 1172.54 1068.73 1146.67C1074.51 1166.72 1089.36 1186.58 1091.71 1207.6C1111.72 1190.05 1096.21 1152.58 1110.13 1139.46C1132.18 1141.84 1143.52 1208.25 1146.46 1221.85C1162.76 1187.89 1160.25 1147.21 1146.97 1112.77C1174.46 1112.35 1190.53 1129.87 1213.87 1140.22C1209.14 1144.44 1191.79 1130.43 1213.87 1140.22ZM1203.7 1109.55C1221.93 1105.65 1235.36 1119 1251.05 1124.71C1239.28 1131.84 1226.97 1129.5 1215.19 1139.1C1214.04 1128.19 1210.22 1118.34 1203.7 1109.55C1222.77 1105.47 1209.59 1117.38 1203.7 1109.55ZM768.202 908.344C769.088 905.192 769.98 902.04 770.871 898.889C778.768 916.337 777.882 919.489 768.202 908.344C769.407 905.08 768.678 910.493 768.202 908.344ZM-3.99997 1230C-3.99997 1258.91 -14.8906 2137.48 3.33786e-05 2162C-27.493 2162 10.101 2178.63 3.33786e-05 2162L3190 2160L3180 196C3189.63 193.699 3173.79 198.362 3180 196C3183.84 184.861 3188.45 193.168 3180 196L3104.52 183.806C3080.69 172.23 3059.85 217.896 3037.94 194.318C3027.45 183.022 3061.05 166.509 3031.22 158.611C3014.1 154.082 3011.42 169.05 3007.54 177.089C3001.57 189.488 3021.52 203.101 3004.16 218.607C2996.44 225.504 2966.88 227.597 2958.66 221.501C2953.38 217.583 2986.82 187.808 2935.78 201.791C2927.84 203.963 2882.61 242.918 2875.6 236.408C2867.87 229.243 2874.78 211.873 2862.68 203.124C2853.13 196.216 2831.96 250.94 2831.37 251.337C2837.94 246.853 2784.75 247.676 2797.73 262.381C2799.21 264.05 2879.37 298.123 2812.78 307.857C2806.9 308.714 2817.26 282.477 2814.12 281.587C2813 281.268 2781.34 275.598 2783.42 276.51C2787.79 278.436 2771.68 287.314 2768.98 287.353C2768.14 287.364 2760.76 249.199 2745.63 273.426C2740.7 281.324 2771.66 294.893 2748.47 315.017C2750.98 312.839 2733.02 294.081 2728.36 294.3C2714.06 294.977 2719.81 321.622 2702.83 325.429C2695.52 327.069 2684.54 308.938 2670.23 310.74C2665.51 311.339 2671.43 331.441 2661.19 331.038C2661.43 331.049 2658.12 335.846 2648.82 334.525C2638.39 333.042 2653.13 320.743 2647.46 317.933C2573.72 281.386 2632.43 349.969 2605.94 374.644C2605.03 375.489 2566.34 376.374 2564.18 375.209C2554.55 370.048 2575.01 355.147 2562.88 345.262C2523.78 313.422 2537.51 362.939 2514.31 362.939C2498.22 362.939 2510.35 332.264 2485.78 361.663C2476.78 372.439 2488.54 394.611 2473.78 405.874C2442.49 429.726 2474.96 360.555 2437.8 372.808C2414.98 380.331 2426.49 412.826 2418.4 427.879C2422.99 419.336 2391.06 428.752 2394.25 427.789C2428.75 417.394 2348.83 467.427 2366.58 439.824C2358.75 452.016 2345.66 453.628 2367.17 469.022C2366.45 472.336 2369.03 499.809 2364.79 513.166C2363.56 517.045 2343.47 531.666 2351.48 543.377C2363.7 561.245 2391.57 538.417 2403.27 531.42C2439.2 509.953 2440.08 519.81 2471.87 511.945C2482.49 509.32 2553.59 467.645 2564.25 499.67C2562.72 495.046 2546.77 531.078 2548.95 529.752C2558.99 523.645 2508.35 513.709 2518.9 526.919C2494.12 495.919 2502.29 543.209 2500.42 544.507C2500.9 544.177 2484.93 548.129 2474.84 556.072C2496.49 539.033 2404.43 520.084 2408.94 549.618C2411.78 568.197 2451.66 541.417 2457.76 565.863C2462.42 584.542 2425.36 558.547 2423.76 584.095C2423.27 591.736 2401.25 575.978 2422.05 604.812C2423 606.127 2391.79 595.452 2386.27 603.536C2376.63 617.659 2401.67 626.761 2414.05 627.936C2427.88 629.257 2453.18 608.081 2471.29 603.536C2507.09 594.546 2482.92 593.129 2513.77 600.748C2527.14 604.045 2537.81 613.444 2550.38 616.382C2590.6 625.787 2648.96 580.305 2674.36 619.4C2691.03 645.054 2670.65 705.454 2675.72 738.116C2667.24 737.198 2659.53 739.32 2652.59 744.47C2656.07 738.312 2660.32 732.799 2665.37 727.928C2661.62 723.344 2644.52 742.326 2643.5 743.406C2646.73 737.182 2650.28 731.142 2654.17 725.309C2644.71 722.946 2634.66 749.418 2632.4 753.583C2632.3 753.174 2633.51 728.914 2638.15 727.335C2627.46 736.717 2621.89 748.724 2621.43 763.351C2621.32 762.987 2620.7 729.513 2625.94 727.744C2616.87 730.811 2612.5 759.119 2611.91 762.892C2611.76 753.773 2610.71 744.794 2608.72 735.944C2600.93 738.861 2604.69 768.014 2605.52 771.72C2606.23 772.604 2594.6 747.409 2596.04 745.791C2593.37 756.421 2594.1 766.99 2598.21 777.491C2598.18 777.463 2583.2 755.257 2584.05 753.309C2585.3 761.14 2580.45 762.405 2569.47 757.109C2576.89 754.042 2583.99 750.364 2590.76 746.071C2585.5 743.445 2579.87 743.244 2573.85 745.477C2581.85 743.742 2589.34 740.82 2596.34 736.695C2593.28 731.824 2588.53 730.431 2582.06 732.524C2591.6 729.188 2600.49 724.615 2608.7 718.799C2602.68 715.283 2596.71 716.1 2590.78 721.245C2598.6 715.832 2606.35 710.301 2614.02 704.67C2603.49 701.737 2594.83 705.291 2588.02 715.339C2590.01 708.286 2592.9 701.641 2596.67 695.417C2592.24 691.873 2579.75 715.697 2579.2 716.683C2580.97 709.602 2583.08 702.627 2585.54 695.764C2575.94 695.909 2572.01 725.314 2570.81 729.798C2570.49 729.132 2566.71 704.877 2570.83 702.028C2561.2 708.208 2561.25 734.198 2562.45 742.471C2562.06 741.721 2554.68 708.885 2559.36 705.672C2551.32 711.208 2553.12 740.288 2553.36 744.526C2551.37 735.519 2548.51 726.815 2544.79 718.424C2537.98 723.428 2547.38 751.053 2549.15 755.049C2549.75 755.542 2533.78 733.661 2534.82 731.623C2534.46 742.734 2537.33 753.107 2543.42 762.752C2543.19 762.634 2524.66 744.431 2525.04 742.32C2528.86 753.622 2533.83 764.415 2539.96 774.681C2536.92 773.662 2526.53 758.543 2526.29 754.613C2527.14 765.12 2530.14 775.033 2535.29 784.354C2535.53 784.51 2517.77 763.418 2517.83 762.825C2522.45 769.307 2521.93 774.479 2516.26 778.331C2511.44 773.438 2511.68 768.266 2516.99 762.825C2516.95 763.888 2489.95 784.981 2491.29 784.348C2499.08 775.632 2504.57 765.713 2507.77 754.613C2506.59 759.298 2490.48 773.813 2487.1 774.675C2490.77 769.245 2511.93 750.493 2511.47 742.32C2511.61 744.711 2484.38 762.903 2484.79 762.752C2493.8 753.992 2499.21 743.613 2501.02 731.617C2501.93 733.543 2476.97 756.197 2478.94 755.049C2480.42 753.034 2498.4 723.372 2490.79 718.424C2490.51 718.244 2472.25 748.226 2475.45 744.526C2476.17 741.637 2483.5 711.018 2474.66 705.666C2479.67 708.695 2463.73 743.261 2464.39 742.471C2466.99 735.172 2471.62 708.045 2460.88 702.028C2465.41 704.782 2455.7 730.291 2456.08 729.798C2455.19 724.402 2454.83 695.904 2443.45 695.764C2445.35 702.632 2446.81 709.607 2447.79 716.683C2446.57 714.32 2435.8 691.823 2429.51 695.417C2433.14 701.58 2435.62 708.219 2436.94 715.339C2435.42 713.313 2411.09 695.092 2406.07 704.675C2407.1 704.009 2432.94 721.765 2432.44 721.25C2425.17 716.156 2417.79 715.339 2410.31 718.799C2420.03 724.799 2430.41 729.378 2441.46 732.524C2433.89 730.319 2427.66 731.713 2422.77 736.695C2431.21 740.954 2440.13 743.888 2449.53 745.477C2442.12 743.283 2435 743.485 2428.16 746.071C2436.12 750.459 2444.41 754.137 2453.02 757.109C2444.45 753.986 2437.42 755.201 2431.93 760.765C2441.03 766.586 2445.2 761.336 2456.29 770.135C2455.82 775.588 2436.69 767.163 2435.41 771.837C2442.9 776.858 2451.2 780.077 2460.33 781.482C2454.24 783.721 2448.19 783.727 2442.19 781.499C2441.7 781.415 2465.84 793.685 2463.5 792.006C2457.3 789.755 2451.3 789.75 2445.49 792C2450.31 797.777 2456.38 801.768 2463.72 803.963C2458.16 803.067 2452.61 802.966 2447.06 803.666C2452.43 806.969 2458.21 809.292 2464.43 810.635C2465.35 808.81 2452.41 812.824 2452.71 812.695C2450.95 818.741 2447.62 834.571 2442.35 839.665C2441.32 834.006 2449.73 807.887 2443.81 803.52C2438.48 810.518 2436.3 818.763 2437.27 828.24C2438.35 840.779 2432.62 795.236 2432.39 797.329C2432.63 808.351 2431.09 819.177 2427.75 829.796C2427.95 818.449 2426.47 807.338 2423.33 796.462C2423.94 797.144 2417.11 829.555 2417.9 827.759C2418.3 817.201 2416.27 807.226 2411.78 797.827C2413.89 801.791 2410.71 822.194 2409.06 824.697C2408.52 819.614 2412.11 792.202 2407.03 787.617C2408.53 788.972 2399.8 819.737 2400.23 818.914C2401.55 807.601 2399.17 797.391 2393.1 788.3C2394.68 788.787 2390.5 820.845 2391.4 818.237C2391.3 816.759 2386.12 785.065 2377.81 787.281C2377.22 787.438 2382.5 818.393 2382.57 814.156C2381.24 811.671 2367.83 787.863 2358.58 790.651C2363.79 789.084 2373.4 822.138 2373.4 820.616C2368.67 807.422 2359.72 799.899 2346.5 798.029C2351.25 796.613 2359.83 819.317 2359.8 818.578C2352.05 808.754 2342.2 804.673 2330.25 806.33C2335.73 809.236 2340.97 812.533 2345.97 816.25C2337.3 812.404 2328.66 812.275 2320.06 815.852C2326.26 817.089 2332.03 819.468 2337.38 823C2334.18 822.726 2306.69 828.609 2308.85 837.958C2309.31 836.401 2338.02 829.785 2337.73 829.796C2329.42 831.755 2323.64 836.401 2320.4 843.746C2331.12 840.611 2341.32 836.189 2350.97 830.479C2344.33 834.129 2340.71 839.346 2340.1 846.125C2348.83 842.811 2356.97 838.394 2364.56 832.858C2357.97 836.631 2352.99 841.731 2349.62 848.168C2358.03 845.285 2366.18 841.77 2374.07 837.622C2366.17 841.355 2361.86 847.026 2361.16 854.628C2371.06 851.918 2371.61 845.61 2384.27 843.404C2387.35 847.267 2368.35 855.076 2370.33 859.05C2378.91 856.856 2386.8 853.044 2394 847.608C2391 853.239 2386.67 857.471 2381.01 860.298C2381.15 860.197 2404.65 851.459 2402.61 851.907C2396.84 854.812 2392.54 859.011 2389.69 864.496C2396.91 864.653 2403.66 862.879 2409.97 859.167C2408.51 861.63 2395.17 867.939 2397.86 870.615C2405.31 867.844 2407.82 872.703 2405.37 885.18C2402.7 878.379 2398.48 872.831 2392.73 868.538C2395.21 874.153 2396.98 880.002 2398.05 886.087C2395.12 878.127 2391.26 870.671 2386.45 863.718C2387.66 870.906 2388.84 878.105 2389.98 885.303C2387.66 877.668 2383.13 872.087 2376.39 868.566C2378.88 874.875 2381.18 881.251 2383.3 887.688C2379.48 879.521 2373.33 874.561 2364.88 872.792C2367.82 878.284 2371.43 883.339 2375.68 887.962C2368.44 881.379 2360.44 879.056 2351.65 881.004C2354.98 878.435 2370.72 894.92 2370.7 894.892C2362.89 888.119 2354.25 886.294 2344.78 889.423C2347.73 887.162 2359.88 897.411 2360.15 897.949C2351.36 894.377 2343 894.971 2335.08 899.745C2339.86 899.796 2344.61 900.188 2349.34 900.904C2341.93 901.262 2335.54 903.933 2330.18 908.892C2334.98 907.7 2339.89 907.347 2344.87 907.823C2335.85 911.232 2330.22 917.35 2327.96 926.184C2334.34 921.509 2340.68 916.763 2346.96 911.937C2341.56 915.397 2338.58 920.121 2338.02 926.105C2344.97 920.826 2351.26 914.843 2356.9 908.153C2353 912.189 2351.76 916.578 2353.16 921.314C2358.58 916.572 2363.38 911.232 2367.54 905.304C2363.79 909.497 2361.51 914.249 2360.7 919.561C2366.07 915.134 2371.11 910.359 2375.82 905.237C2371.02 909.665 2369.4 914.557 2370.96 919.903C2374.35 914.02 2378.99 909.25 2384.89 905.589C2383.16 910.409 2381.16 915.128 2378.91 919.729C2384.51 915.738 2389.26 910.863 2393.19 905.102C2392.42 909.754 2390.37 913.757 2387.09 917.11C2387.68 916.281 2401.32 904.621 2400.7 905.035C2397.63 913.605 2383.26 927.98 2408.09 907.207C2405.7 910.627 2403.77 914.277 2402.29 918.162C2406.12 915.246 2409.5 911.87 2412.41 908.008C2411.2 910.633 2410.1 913.286 2409.09 915.99C2414.23 918.593 2417.29 912.044 2423.41 919.181C2416.63 916.119 2410.3 916.326 2404.42 919.797C2410.52 920.043 2416.2 921.901 2421.43 925.361C2414.2 922.299 2407.53 923.01 2401.42 927.488C2405.96 926.928 2410.32 927.779 2414.52 930.04C2407.34 929.525 2401.44 931.921 2396.83 937.222C2400.29 936.142 2403.82 935.308 2407.41 934.72C2402.14 936.713 2398.15 940.133 2395.44 944.986C2398.63 942.999 2402.08 941.589 2405.79 940.766C2400.08 945.339 2397.44 951.082 2397.87 958.007C2401.39 953.12 2404.86 948.199 2408.28 943.24C2405.18 947.007 2404.14 951.121 2405.13 955.577C2408.92 950.136 2412.06 944.326 2414.56 938.174C2412.7 942.003 2412.82 945.468 2414.94 948.563C2417.75 943.861 2419.97 938.885 2421.58 933.617C2419.86 937.53 2419.33 941.499 2419.99 945.524C2422.83 941.068 2425.35 936.439 2427.56 931.63C2425.12 935.952 2425.1 939.87 2427.48 943.369C2428.55 938.319 2430.79 933.785 2434.19 929.755C2434.07 933.645 2433.73 937.525 2433.18 941.376C2436.28 937.177 2438.58 932.537 2440.08 927.454C2444.14 937.11 2430.53 944.774 2445.48 925.646C2445.27 932.554 2438.25 946.324 2451.33 925.478C2450.41 928.507 2449.87 931.602 2449.71 934.748C2451.79 931.748 2453.44 928.512 2454.64 925.047C2454.38 927.225 2454.2 929.402 2454.11 931.591C2456.99 929.066 2459.15 925.999 2460.58 922.383C2459.9 924.762 2460.01 927.074 2460.92 929.313C2463.14 925.372 2465.55 921.537 2468.14 917.821C2467.09 920.799 2466.29 923.838 2465.73 926.939C2467.92 923.038 2470.24 919.209 2472.68 915.458C2471.92 918.291 2471.35 921.168 2471.01 924.073C2488.97 904.291 2510.47 974.324 2507.58 995.226C2501.44 1007.65 2500.95 999.844 2495.07 1019.94C2493.35 1012.09 2493.36 1004.33 2495.09 996.67C2487.89 1005.91 2485.55 1016.51 2488.07 1028.45C2488.61 1029.64 2481.57 998.338 2485.48 996.827C2478.56 999.508 2480.41 1027.18 2480.45 1027.88C2478.72 1019.65 2476.32 1011.64 2473.26 1003.84C2470.97 1014.7 2472.19 1025.3 2476.91 1035.64C2477.84 1036.67 2463.86 1014.13 2464.91 1012.39C2464.73 1022.34 2467.13 1031.77 2472.13 1040.65C2471.84 1040.42 2456.25 1021.28 2456.72 1018.88C2460 1029.52 2464.17 1039.82 2469.21 1049.77C2466.47 1048.02 2458.01 1033.64 2457.76 1029.5C2458.59 1039 2461.1 1048.06 2465.3 1056.71C2465.76 1057.14 2450.51 1035.71 2450.67 1034.24C2454.97 1040.1 2454.53 1044.3 2449.35 1046.85C2445.42 1042.56 2445.62 1038.3 2449.96 1034.04C2449.97 1033.91 2427.63 1045.72 2428.42 1045.59C2435.12 1039.96 2439.72 1033.04 2442.24 1024.83C2441.38 1027.98 2427.15 1036.52 2424.91 1036.42C2432.71 1030.37 2439.52 1023.38 2445.34 1015.45C2445.41 1016.7 2422.34 1025.89 2422.98 1025.84C2430.77 1020.24 2435.3 1012.9 2436.58 1003.85C2437.14 1005.2 2416.82 1018.26 2418.07 1017.91C2425.86 1010.06 2429.17 1000.82 2428 990.205C2427.75 989.964 2413.3 1009.79 2415.15 1008.21C2419.79 996.771 2419.57 985.844 2414.48 975.438C2418.41 978.987 2406.76 1002.89 2405.87 1003.69C2410.52 991.436 2409.54 979.838 2402.93 968.9C2406.34 972.001 2400.06 989.813 2398.91 990.961C2399.81 978.786 2396.28 968.211 2388.32 959.249C2389.9 965.385 2391.11 971.592 2391.96 977.884C2389.21 968.726 2384.1 961.242 2376.64 955.443C2379.6 961.309 2381.67 967.5 2382.86 974.011C2376.81 963.716 2368.19 958.141 2356.99 957.285C2358.32 956.82 2379.52 978.394 2379.09 977.839C2373.93 971.934 2367.75 969.387 2360.55 970.187C2368.55 977.56 2377.25 984.014 2386.65 989.556C2381.08 985.598 2375.86 985.195 2370.98 988.335C2377.88 993.922 2385.36 998.629 2393.41 1002.45C2387.8 998.797 2381.83 997.168 2375.5 997.555C2382.11 1003.19 2389.05 1008.36 2396.35 1013.09C2390.09 1008.04 2384.2 1007.28 2378.66 1010.82C2385.63 1017.39 2391.19 1016.18 2399.08 1024.83C2398.83 1027.72 2382.27 1018.7 2381.58 1020.99C2387.68 1026.93 2394.64 1031.73 2402.48 1035.36C2396.88 1035.54 2391.8 1034.02 2387.27 1030.79C2388.85 1031.54 2405.44 1045.3 2405.13 1044.98C2400.48 1041.6 2395.45 1040.08 2390.03 1040.43C2394 1046.43 2399.09 1051.3 2405.31 1055.07C2400.84 1052.96 2396.19 1051.47 2391.35 1050.6C2395.74 1054.65 2400.59 1058.06 2405.91 1060.83C2402.66 1060 2399.37 1059.31 2396.06 1058.75L2396.08 1059.6C2394.91 1063.1 2391.66 1076.76 2387.41 1079.59C2389.2 1069.66 2389.6 1059.69 2388.62 1049.66C2383.84 1054.66 2382.02 1061.02 2383.14 1068.73C2383.78 1076.26 2379.08 1041.36 2379.06 1041.59C2379.3 1050.45 2378 1059.14 2375.16 1067.64C2375.27 1057.77 2374.03 1048.09 2371.46 1038.57C2371.9 1039.2 2366.62 1064 2366.91 1063.43C2367.11 1054.14 2365.4 1045.26 2361.78 1036.8C2363.3 1040.13 2361.3 1056.45 2359.5 1058.64C2360.02 1048.04 2359.45 1037.51 2357.79 1027.05C2359.04 1028.55 2352.11 1051.53 2352.1 1051.56C2352.95 1041.64 2350.96 1032.48 2346.12 1024.1C2345.85 1032.33 2345.38 1040.55 2344.69 1048.76C2344.42 1037.45 2340.62 1027.65 2333.31 1019.39C2333.84 1027.4 2335.17 1035.31 2337.29 1043.11C2336.1 1040.54 2325.4 1017.36 2317.19 1017.35C2321.9 1017.35 2329.6 1046.27 2329.6 1046.21C2325.8 1034.1 2318.28 1025.52 2307.06 1020.48C2312.34 1026.39 2316.05 1033.25 2318.21 1041.07C2312.46 1031.33 2304.2 1025.42 2293.44 1023.34C2298.06 1027.18 2302.45 1031.28 2306.62 1035.62C2300.19 1030.42 2292.95 1028.14 2284.9 1028.75C2290.24 1031.44 2295.08 1034.9 2299.42 1039.11C2289.64 1035.4 2281.67 1037.18 2275.5 1044.45C2283.56 1044.72 2291.64 1044.86 2299.7 1044.89C2292.91 1044.31 2288.06 1046.75 2285.19 1052.21C2293.87 1052.32 2302.41 1051.19 2310.81 1048.81C2305.08 1050.55 2302.04 1054.01 2301.7 1059.18C2308.77 1058.65 2315.6 1057 2322.2 1054.24C2316.67 1055.75 2312.49 1058.77 2309.67 1063.29C2316.57 1063.03 2323.41 1062.14 2330.17 1060.64C2323.37 1062.18 2319.77 1065.84 2319.35 1071.64C2325.26 1068.28 2331.71 1067.09 2338.72 1068.06C2335.06 1071.54 2331.17 1074.74 2327.04 1077.65C2333.84 1078.01 2340.45 1076.8 2346.87 1074.04C2344.26 1078.06 2340.63 1080.51 2335.98 1081.39C2335.5 1081.6 2356.51 1080.01 2354.09 1079.82C2347.13 1086.46 2327.72 1089.37 2360.26 1087.76C2358.76 1089.84 2347.77 1091.24 2350.1 1094.29C2356.72 1093.99 2358.82 1098.69 2356.41 1108.41C2354.08 1101.91 2350.54 1096.19 2345.8 1091.26C2347.84 1096.45 2349.33 1101.8 2350.26 1107.32C2347.74 1099.76 2344.51 1092.53 2340.55 1085.64C2341.56 1091.95 2342.54 1098.29 2343.5 1104.62C2341.47 1097.52 2337.68 1091.7 2332.12 1087.16C2334.19 1093.04 2336.12 1098.96 2337.89 1104.93C2334.8 1097.22 2329.66 1091.5 2322.47 1087.79C2324.97 1093.22 2328 1098.37 2331.52 1103.24C2326.26 1096.19 2319.54 1092.21 2311.38 1091.33C2317.79 1095.67 2323.12 1101.15 2327.34 1107.79C2321.71 1100.51 2314.47 1096.8 2305.62 1096.65C2310.75 1099.23 2315.05 1102.91 2318.5 1107.68C2312.12 1102.62 2305.12 1101.01 2297.49 1102.86C2301.56 1104.13 2305.54 1105.66 2309.44 1107.43C2303.74 1105.78 2298.39 1106.4 2293.38 1109.29C2297.61 1109.54 2301.72 1110.47 2305.69 1112.1C2298.08 1112.73 2293.36 1116.45 2291.51 1123.22C2296.86 1120.92 2302.17 1118.54 2307.45 1116.08C2302.77 1117.91 2300.28 1121.11 2299.95 1125.7C2305.72 1123.06 2311 1119.63 2315.77 1115.42C2312.51 1118.42 2311.47 1121.79 2312.64 1125.51C2317.18 1122.92 2321.19 1119.65 2324.69 1115.72C2321.46 1118.54 2319.55 1121.96 2318.97 1125.94C2323.44 1123.6 2327.66 1120.87 2331.64 1117.75C2327.62 1120.96 2326.26 1124.65 2327.56 1128.82C2330.41 1124.74 2334.3 1121.9 2339.24 1120.34C2337.8 1123.9 2336.14 1127.35 2334.23 1130.68C2338.85 1128.79 2342.84 1125.91 2346.2 1122.03C2347.19 1133.82 2330.65 1132.02 2352.49 1123.86C2349.86 1130.42 2338 1138.63 2358.68 1127.55C2356.65 1129.87 2355.03 1132.45 2353.83 1135.27C2357.01 1133.81 2359.83 1131.83 2362.3 1129.31C2364.1 1132.02 2366.54 1134.16 2371.53 1141.46C2366.63 1137.22 2361.33 1135.8 2355.61 1137.18C2360.98 1139.06 2365.74 1142.05 2369.87 1146.14C2364.7 1141.83 2359.11 1140.73 2353.1 1142.87C2357.19 1143.64 2360.85 1145.46 2364.08 1148.32C2358.67 1145.95 2353.73 1146.47 2349.25 1149.86C2352.21 1149.84 2355.17 1150.03 2358.11 1150.44C2353.81 1150.71 2350.46 1152.57 2348.07 1156.03C2350.88 1155.14 2353.78 1154.83 2356.76 1155.1C2351.79 1158 2349.58 1162.15 2350.12 1167.55C2342.98 1148.16 2370.46 1176.21 2356.21 1167.35C2359.43 1163.67 2362.06 1159.6 2364.11 1155.14C2363.42 1173.51 2366.75 1157.67 2369.99 1153.1C2368.56 1156.23 2368.11 1159.42 2368.66 1162.68C2371.06 1159.62 2373.18 1156.38 2375 1152.94C2373.12 1156.47 2373.1 1159.74 2374.94 1162.76C2375.75 1158.98 2377.63 1155.74 2380.56 1153.04C2380.46 1156.22 2380.18 1159.38 2379.72 1162.53C2382.39 1159.71 2384.31 1156.4 2385.49 1152.6C2388.89 1161.66 2377.95 1164.27 2390.03 1152.44C2389.86 1157.81 2384.11 1167.77 2394.93 1153.79C2394.14 1156.19 2393.69 1158.65 2393.57 1161.15C2395.35 1159.11 2396.73 1156.81 2397.7 1154.26C2397.49 1156.04 2397.34 1157.82 2397.26 1159.61C2399.7 1158.2 2401.51 1156.17 2402.68 1153.52C2402.13 1155.55 2402.24 1157.5 2402.97 1159.42C2404.82 1156.7 2406.83 1154.1 2409.02 1151.62C2408.12 1153.91 2407.45 1156.24 2407 1158.65C2408.83 1155.94 2410.77 1153.32 2412.82 1150.78C2412.17 1153.02 2411.7 1155.28 2411.43 1157.58C2424.36 1147.22 2411.93 1158.81 2415.9 1156.89C2457.69 1187.58 2411.05 1249.65 2405.5 1242.99C2380.96 1213.48 2374.59 1274.3 2366.96 1285.77C2366.91 1285.84 2355.42 1228.82 2348.17 1229.38C2339.18 1230.07 2330.91 1248.96 2332.41 1257.97C2332.87 1260.82 2321.93 1220.67 2317.65 1219.92C2314.66 1223.4 2313.19 1227.5 2313.24 1232.25C2316.17 1225.13 2300.39 1191.99 2283.62 1201.32C2279.84 1203.42 2273.68 1234.55 2267.65 1242.19C2287.23 1217.37 2204.56 1207.58 2238.66 1237.46C2222.61 1223.4 2219.9 1269.93 2223.87 1262.49C2216.2 1276.87 2216.2 1263.81 2207.29 1271.24C2202.18 1275.5 2219.3 1284.91 2212.35 1291.45C2208.66 1294.92 2200.16 1292.41 2197.97 1294.72C2194.27 1298.65 2182.49 1310.99 2176.89 1309.12C2177.56 1309.34 2178.89 1292.75 2174.43 1288.83C2169.77 1284.74 2177.68 1274.12 2170.64 1268.96C2165.33 1265.05 2146.37 1276.32 2145.76 1275.66C2139.04 1268.36 2149.52 1237.9 2120.49 1231.44C2112.74 1262.61 2139.06 1326.35 2079.9 1301.02C2082.18 1302 2076.71 1280.43 2065.21 1276.46C2055.13 1272.97 2029.28 1283.02 2018.37 1284.27C2001.97 1286.14 2006.77 1298.45 1984.36 1287.75C1974.04 1282.81 1992.71 1260.14 1959.31 1262.86C1920.35 1266.04 1945.16 1287.29 1935.57 1299.68C1907.97 1335.31 1919.69 1288.09 1891.19 1296.89C1867.87 1304.09 1886.64 1332.81 1883.57 1337.33C1879.92 1342.7 1866.48 1345.01 1864.27 1349.3C1874.08 1330.3 1825.72 1390.8 1847.45 1376.78C1832.18 1386.63 1835.71 1386.99 1809.4 1382.25C1794.39 1379.55 1782.2 1378.07 1770.61 1367.77C1768.17 1365.61 1780.62 1354.96 1775.27 1350.14C1763.96 1339.94 1749.7 1327.21 1733.05 1330.8C1719.9 1333.65 1711.76 1372.1 1690.86 1349.14C1687.1 1345.01 1709.85 1314.96 1700.34 1299.98C1698.29 1296.75 1676.32 1294.89 1671.05 1288.57C1659.76 1275.05 1665.82 1255.16 1667.07 1235.63C1690.31 1278.91 1674.19 1238.74 1680.05 1230.59C1688.68 1236.09 1694.43 1243.98 1697.26 1254.27C1699.6 1241.55 1697.27 1230.03 1690.27 1219.72C1698.69 1219.11 1706.72 1220.56 1714.35 1224.08C1709.13 1206.78 1695.81 1213.02 1684.2 1207.55C1693.08 1199.8 1703.38 1195.34 1715.13 1194.2C1705.58 1183.67 1695.48 1193.14 1686.39 1196.64C1689.37 1189.28 1694.2 1183.58 1700.84 1179.54C1690.08 1180.94 1681.75 1186.07 1675.86 1194.93C1676.3 1180.42 1680 1170.38 1688.91 1159.86C1668.79 1168.75 1676.24 1177.35 1666.04 1190.55C1665.68 1184.81 1657.82 1161.42 1645.82 1166.11C1653.77 1173.74 1658.3 1183.02 1659.42 1193.93C1653.19 1189.43 1622.59 1193.03 1616.81 1197.97C1616.17 1189.23 1624.51 1169.04 1632.2 1164.45C1618.5 1160.92 1609.74 1188.39 1609.33 1195.15C1595.41 1178.92 1587.23 1156.67 1564.84 1147.07C1582.72 1135.2 1604.78 1133.85 1625.44 1136.66C1609.13 1123.2 1581.37 1118.06 1562.45 1129.09C1563.95 1110.12 1575.15 1088.66 1582.67 1071.73C1564.33 1082.07 1553.7 1106.12 1548.83 1125.3C1547.53 1106.68 1542.39 1083.68 1528.14 1070.2C1535.62 1084.94 1532.91 1108.73 1528.61 1123.81C1518.59 1105.87 1497.43 1096.32 1477.37 1102.77C1492.12 1108.15 1515.79 1124.19 1514.51 1143.11C1488.28 1140.11 1469.77 1149.37 1451.99 1167.99C1468.01 1162.26 1489.92 1153.28 1506.51 1163.42C1489.64 1173.03 1483.71 1191.41 1478.31 1208.59C1489.34 1195.28 1502.24 1182.44 1520.07 1179.01C1510.52 1194.65 1460.06 1327.59 1446.27 1313.99C1449.62 1317.3 1410.18 1238.84 1406.31 1247.12C1404.58 1255.7 1400.77 1263.11 1394.89 1269.34C1393.25 1269.78 1350.43 1251.91 1350.14 1254.18C1350.49 1251.38 1360.43 1237.88 1361.73 1241.94C1362.73 1224.59 1376.12 1209.03 1361.97 1192.01C1377.09 1195.91 1378.68 1201.42 1389.46 1211.38C1387.54 1197.21 1380.56 1178.95 1366.9 1171.95C1380.74 1170.51 1392.65 1174.73 1402.64 1184.63C1397.9 1170.65 1391.19 1160.05 1377.28 1154.09C1395.15 1142.22 1417.21 1140.86 1437.88 1143.67C1421.57 1130.22 1393.82 1125.07 1374.9 1136.1C1376.38 1117.13 1387.59 1095.68 1395.11 1078.76C1376.77 1089.09 1366.14 1113.14 1361.26 1132.31C1359.97 1113.69 1354.84 1090.7 1340.59 1077.22C1348.07 1091.95 1345.34 1115.75 1341.06 1130.84C1334.04 1118.34 1325.28 1109.9 1307.98 1107.84C1317.81 1104.01 1327.96 1102.76 1338.4 1104.11C1335.2 1088.48 1299.3 1090.25 1290.5 1097.77C1289.51 1084.17 1300.11 1057.77 1312.18 1050.57C1292.29 1045.46 1280.73 1081.36 1279.97 1093.79C1264.55 1075.84 1272.49 1058.71 1243.54 1049.77C1258.25 1065.16 1263.67 1081.03 1264.33 1102.83C1249.25 1096.37 1246 1076.53 1224.54 1083.65C1235.16 1088.68 1242.83 1096.74 1247.58 1107.81C1239.21 1103.34 1230.26 1100.73 1220.71 1099.99C1207.84 1113.13 1197.22 1111.55 1188.85 1095.29C1176.74 1091.89 1146.97 1080.19 1136.51 1072.14C1168.95 1063.23 1200.66 1037.92 1235.95 1050.71C1214.4 1013.26 1180.01 1035.15 1149.6 1040.41C1164.83 1019.53 1180.21 1008.45 1202.77 997.454C1166.43 981.803 1148.69 1019.06 1119.61 1028.71C1129.28 987.137 1146.87 956.753 1179.59 930.393C1127.25 942.159 1126.13 980.291 1093.29 1009.38C1096.33 987.619 1087.83 915.805 1048.56 922.791C1068.45 937.866 1078.01 992.757 1071.72 1015.56C1055.85 997.84 988.926 994.918 978.04 1021.29C997.485 1018.89 1055.57 1027.38 1054.88 1055.67C1040.7 1048.48 966.896 1032.25 968.578 1065.65C988.012 1058.62 1017.01 1065.12 1032.25 1078.79C1015.49 1081.21 997.451 1101.44 988.881 1114.2C982.835 1102.78 981.988 1088.78 964.938 1086.58C943.979 1083.88 937.395 1117.02 930.412 1114.09C912.689 1106.65 926.133 1088.66 916.862 1075.92C921.809 1082.72 855.269 1036.26 884.473 1034.31C961.797 1029.15 879.363 987.372 885.97 981.92C873.811 991.957 874.119 1000.85 858.758 980.521C845.179 962.535 867.597 957.29 858.758 940.2C852.106 927.32 802.291 897.96 789.784 914.227C787.911 907.666 786.037 901.1 784.158 894.534C802.644 903.871 832.134 910.219 845.325 927.409C862.257 914.109 816.761 876.073 807.008 872.507C821.573 865.829 847.636 873.548 856.385 886.798C862.538 868.745 818.18 846.847 805.342 846.886C820.95 833.597 848.617 824.96 869.016 828.497C870.799 799.272 789.33 827.277 782.7 830.815C781.949 805.513 843.435 793.87 859.537 793.54C846.985 770.32 779.156 786.531 765.869 800.206C758.584 779.601 771.803 734.623 789.021 721.917C754.719 721.094 739.857 772.582 744.282 797.794C709.93 777.161 708.348 747.073 657.995 743.944C689.262 760.658 707.479 781.258 717.972 816.697C686.957 812.068 669.341 785.048 634.82 801.326C656.172 807.22 671.752 813.703 687.978 829.846C656.957 829.236 623.115 815.701 601.634 848.677C635.622 834.543 667.226 850.625 701.079 854.085C691.59 861.171 673.328 865.135 661.825 871.303C657.495 873.632 641.696 883.96 637.815 885.611C630.653 888.662 618.488 883.294 615.454 885.6C596.839 899.734 604.876 915.341 594.859 928.076C583.569 942.439 547.54 946.111 542.369 955.784C546.25 948.53 585.487 1034.84 557.905 1029.66C553.922 1028.91 514.303 1006.36 514.09 1006.24C518.975 1009.1 494.92 1004.23 493.916 1003.75C490.921 1002.35 490.253 969.034 478.139 974.632C464.527 980.924 468.902 991.604 450.107 991.464C448.565 991.453 445.907 967.769 439.687 968.183C428.234 968.945 410.814 996.609 402.598 1003.9C402.923 970.193 403.916 935.465 410.539 902.298C437.045 911.316 445.907 931.815 463.596 950.702C456.019 929.565 465.75 908.506 440.433 896.588C460.932 894.394 466.428 899.611 484.953 905.741C474.936 889.86 456.888 874.365 437.365 872.731C451.313 863.942 474.757 866.109 489.328 871.13C475.856 857.225 461.93 849.433 442.323 848.985C460.926 827.126 488.162 817.414 515.492 811.71C487.943 804.108 451.313 809.107 430.814 830.541C423.977 809.812 428.212 780.766 429.894 759.819C411.386 778.61 408.515 807.461 411.476 832.293C399.962 810.635 382.968 789.789 358.935 781.538C375.503 794.279 383.035 819.513 384.746 839.368C362.631 823.672 331.375 823.191 308.862 838.562C329.474 838.081 367.438 842.453 375.649 866.288C343.018 873.705 321.807 890.621 306.821 920.026C325.867 906.16 349.272 887.906 374.897 891.685C358.223 908.769 358.638 930.757 359.816 952.678C368.049 932.834 378.773 914.35 398.329 903.474C393.871 931.585 400.623 997.879 384.291 1016.72C372.598 1030.2 345.065 1026.16 331.577 1042.24C323.899 1051.39 325.71 1083.23 309.636 1085.46C315.654 1097.82 356.125 1078.09 349.743 1114.57C347.118 1129.58 326.989 1126.22 311.178 1131.06C293.265 1136.52 298.178 1128.47 285.901 1137.5C280.421 1141.52 273.45 1158.69 267.6 1164.85C269.075 1163.3 250.001 1161.27 248.29 1162.53C244.314 1165.44 229.277 1187.94 233.489 1185.47C220.634 1193.01 208.088 1210.04 206.069 1180.71C205.138 1182.11 193.584 1197.44 193.517 1197.26C188.509 1184.62 198.066 1174.9 198.593 1162.88C198.991 1153.64 162.149 1202.56 167.381 1202.38C167.796 1202.36 162.844 1160.82 165.301 1158.33C162.586 1161.08 157.269 1207.26 158.823 1207.94C157.112 1207.2 132.648 1188.8 139.546 1187.11C127.953 1189.95 40 1198 -3.99997 1230ZM2609.25 824.294C2617.11 822.446 2615.7 826.947 2605 837.795C2606.42 833.295 2607.83 828.794 2609.25 824.294C2610.5 824.254 2607.03 828.968 2609.25 824.294Z" fill="#1E3B3F"/>
</svg>
