<svg width="3180" height="2155" viewBox="0 0 3180 2155" fill="none" xmlns="http://www.w3.org/2000/svg">
<g clip-path="url(#clip0)">
<rect width="3180" height="2155" fill="#A4D0E6"/>
<rect x="2" width="3176" height="2156" fill="#A4D0E6"/>
<path d="M1840.35 467.14C1835.57 473.839 1836 628 1837.91 633.742L0.25 629.5L0 2160L3182 2154L3179.75 640L2319.75 635.643C2318 624 2321.69 547.236 2321.69 546.088C2321.69 544.94 2319.94 541.782 2319.06 540.346C2321.61 535.96 2326.72 526.71 2326.72 524.796C2326.72 522.404 2325.28 519.772 2323.85 518.337C2322.41 516.901 2323.13 511.638 2322.89 510.442C2322.7 509.485 2322.65 508.608 2322.65 508.289C2322.81 505.896 2323.08 500.729 2322.89 499.198C2322.7 497.667 2318.66 491.223 2316.67 488.193L2319.06 478.145C2318.74 477.348 2318.25 474.557 2318.82 469.772C2319.4 464.987 2313.32 458.687 2310.21 456.135L2307.58 448.001C2305.51 445.928 2300.98 441.542 2299.44 440.585C2297.91 439.628 2295.94 437.794 2295.14 436.997C2294.82 435.083 2294.09 430.776 2293.7 428.863C2293.32 426.949 2291.63 423.918 2290.83 422.643L2287 416.422L2285.33 409.724L2281.74 406.614L2279.11 397.762C2278.63 396.406 2277.44 393.169 2276.48 391.063C2275.52 388.958 2274.01 389.548 2273.37 390.107L2267.39 398.719L2262.6 405.418C2261.96 407.012 2260.21 410.298 2258.3 410.681C2256.38 411.064 2254.95 414.349 2254.47 415.944C2253.51 417.06 2251.21 419.485 2249.68 420.25C2247.77 421.207 2248.25 422.164 2247.53 424.078C2246.81 425.992 2245.14 426.47 2243.94 426.949C2242.99 427.332 2245.14 429.501 2246.33 430.537L2244.9 436.279L2239.88 434.365C2239.64 436.837 2238.92 442.164 2237.96 443.695C2236.76 445.609 2235.81 445.131 2238.68 446.088C2240.98 446.853 2240.43 448.32 2239.88 448.958C2239.08 449.357 2237.24 450.202 2236.29 450.394C2235.09 450.633 2235.81 453.743 2235.57 454.939C2235.33 456.135 2231.98 456.614 2230.78 457.332C2229.83 457.906 2230.86 459.644 2231.5 460.442L2230.54 466.662L2230.31 472.403C2229.43 473.36 2227.48 475.418 2226.72 475.992C2225.95 476.566 2226.08 480.537 2226.24 482.451L2224.56 488.193L2223.37 493.935L2221.93 497.045C2221.69 498.081 2221.55 500.298 2222.89 500.872C2224.23 501.447 2223.45 503.823 2222.89 504.939L2220.98 507.571C2221.14 508.289 2221.88 509.724 2223.61 509.724C2225.33 509.724 2224.01 513.073 2223.13 514.748C2222.41 515.386 2220.93 517.284 2220.74 519.772C2220.54 522.26 2219.54 523.042 2219.06 523.121L2211.41 524.796L2202.32 523.121C2201.76 522.643 2200.5 521.16 2199.92 519.054L2197.77 511.16L2196.57 500.633L2194.66 490.585L2192.27 492.738L2187.24 494.892C2186.53 494.652 2184.85 493.887 2183.89 492.738C2182.94 491.59 2179.83 491.462 2178.39 491.542C2177.83 482.77 2176.57 465.226 2176 465.226C2175.43 465.226 2174.96 464.429 2174.8 464.03L2172.17 454.461L2174.8 452.068C2175.2 451.191 2176.24 448.863 2177.2 446.566C2178.15 444.269 2177.75 437.475 2177.43 434.365L2170.5 430.777L2172.17 425.753L2168.34 425.035L2170.02 415.944L2173.13 413.073V405.896C2173.13 404.748 2170.9 402.387 2169.78 401.351L2166.19 397.762L2164.28 390.585L2166.43 386.279L2168.1 381.733L2164.28 378.623L2161.65 377.188L2160.21 373.839L2157.34 372.882L2154.95 370.728V365.465L2157.34 362.355L2155.66 358.049L2151.84 350.872L2150.16 346.566L2147.29 349.437L2145.38 337.953L2141.55 332.212L2137.96 329.819L2138.2 324.078L2136.53 320.728L2134.37 319.293L2132.94 311.637L2130.54 310.92L2130.07 304.939L2128.15 304.7L2126.72 292.977L2124.09 293.934L2123.13 289.149L2116.19 288.671L2114.52 291.063L2112.84 292.02L2112.36 299.197L2109.25 301.111L2109.01 306.374L2106.38 306.853V312.116L2103.51 313.073L2103.75 318.097L2100.88 318.575L2100.16 330.537L2095.62 333.408L2092.03 335.082L2091.55 340.106L2093.7 341.781L2092.27 347.044L2087 347.283V353.504C2086.37 353.743 2084.52 354.413 2082.22 355.178C2079.35 356.135 2082.7 362.834 2081.74 363.551C2080.98 364.126 2084.61 363.312 2086.53 362.834L2085.09 370.011L2080.78 370.968L2076.96 373.839L2075.76 378.623L2074.32 382.451C2073.61 386.119 2071.41 394.221 2068.34 397.284C2065.28 400.346 2068.66 412.435 2070.74 418.097L2073.13 420.968L2071.45 425.513C2070.9 425.992 2069.54 426.949 2068.58 426.949C2067.63 426.949 2065.31 429.022 2064.28 430.059C2063.96 431.893 2063.37 435.848 2063.56 436.997C2063.75 438.145 2064.44 439.548 2064.75 440.107L2068.58 442.738L2070.26 448.001C2068.82 449.915 2066.09 453.982 2066.67 454.939C2067.24 455.896 2068.02 457.73 2068.34 458.528L2067.86 463.312C2067.39 466.821 2066.43 474.461 2066.43 476.949C2066.43 479.437 2063.24 484.206 2061.65 486.279L2061.41 492.738C2057.26 492.499 2048.68 491.686 2047.53 490.346C2046.38 489.006 2045.14 491.702 2044.66 493.217L2042.98 498.719L2040.59 500.394L2039.87 519.293L2037.96 521.207L2039.87 525.035L2038.92 528.624C2038.6 529.262 2037.82 530.729 2037.24 531.494C2036.53 532.451 2035.57 534.844 2033.42 533.887C2031.26 532.93 2030.78 532.451 2028.63 529.581C2026.48 526.71 2026.48 529.581 2020.97 527.188C2019.25 527.188 2018.18 528.783 2017.86 529.581C2016.75 528.703 2013.37 526.566 2008.77 525.035C2005.42 524.796 2006.62 527.667 2004.71 528.624C2003.18 529.389 2004.87 524.317 2005.9 521.686C2002.71 524.238 1993.46 527.619 1981.98 520.729C1978.15 520.729 1977.83 523.281 1978.15 524.557L1969.54 527.427L1968.58 536.04L1962.84 544.652L1951.36 542.739L1947.53 523.6L1945.62 509.246V503.504V491.064V483.408L1939.87 474.796L1940.83 468.097L1937.96 457.571V450.872L1930.3 440.346L1924.56 437.475L1928.39 426.949C1926.48 425.035 1921.88 420.25 1918.82 416.422C1915.76 412.595 1916.27 410.362 1916.91 409.724L1913.08 404.939L1909.25 397.284C1908.3 393.775 1906.19 385.8 1905.42 381.973C1904.66 378.145 1903.19 376.55 1902.55 376.231L1892.03 372.403C1889.16 377.507 1882.08 388.863 1876.72 393.456L1878.63 403.982L1869.06 410.681C1869.7 413.871 1868.68 421.207 1859.49 425.035C1850.3 428.863 1858.22 434.923 1863.32 437.475L1848.01 445.131C1840.35 448.958 1845.14 460.442 1840.35 467.14Z" fill="#97C0D5"/>
</g>
<defs>
<clipPath id="clip0">
<rect width="3180" height="2155" fill="white"/>
</clipPath>
</defs>
</svg>
