<svg width="3180" height="1993" viewBox="0 0 3180 1993" fill="none" xmlns="http://www.w3.org/2000/svg">
<path fill-rule="evenodd" clip-rule="evenodd" d="M2466.72 355.283C2472.34 348.447 2476.17 349.336 2478.22 357.943C2474.39 357.055 2470.56 356.171 2466.72 355.283C2470.62 355.845 2469.04 353.695 2466.72 355.283ZM2442.19 400.869C2432.31 402.242 2437.68 357.995 2465.81 375.737C2455.02 381.32 2447.15 389.695 2442.19 400.869C2447.68 389.927 2440.07 401.16 2442.19 400.869ZM2466.42 400.161C2463.12 400.019 2459.82 399.873 2456.52 399.727C2469.09 394.887 2472.39 395.033 2466.42 400.161C2467.36 399.019 2463.27 399.83 2466.42 400.161ZM2491.76 407.279L2491.71 408.013L2491.32 407.803L2491.76 407.279ZM2451.24 430.926C2444.32 426.584 2454.51 419.392 2451.24 430.926C2449.68 429.952 2451.87 428.725 2451.24 430.926ZM2206.53 477.687C2202.2 476.482 2197.86 475.276 2193.52 474.075C2197 460.713 2209.36 451.612 2222.32 448.527C2213.08 454.401 2204.87 466.184 2206.53 477.687C2205.27 468.943 2202.8 475.602 2206.53 477.687ZM2150.92 565.826C2149.74 545.792 2148.56 525.758 2147.38 505.724C2156.94 512.435 2170.4 526.577 2171.85 538.699C2178.41 529.242 2171.41 509.337 2162.99 503.355C2176.18 503.402 2184.75 520.574 2191.95 528.684C2193.01 516.532 2182.65 501.484 2171.85 496.288C2182.64 493.07 2202.52 493.383 2213.35 497.79C2203.23 484.634 2187.7 487.488 2173.62 487.453C2172.26 475.727 2208.5 484.767 2211.36 486.87C2210.02 483.703 2210.73 482.957 2213.5 484.634C2206.83 471.994 2220.57 454.217 2233.38 449.874C2229.01 454.967 2218.54 482.819 2232.2 485.214C2227.8 474.319 2237.61 459.417 2245.93 453.697C2247.17 474.731 2248.41 495.76 2249.65 516.794C2239.22 514.438 2217.29 521.617 2218.94 536.15C2219.62 542.132 2242.92 552.726 2243.42 551.584C2242.35 554.017 2226.05 563.92 2223.77 565.032C2226.98 565.718 2230.21 566.405 2233.43 567.091C2223.21 574.085 2206.64 594.836 2193.06 591.721C2181.3 589.026 2181.28 573.429 2189.78 565.804C2187.74 568.996 2184.86 570.944 2181.16 571.648C2184.26 572.309 2163.82 546.358 2160.28 544.401C2154.12 540.99 2151.83 566.963 2150.92 565.826ZM2390.55 522.428C2407.73 519.51 2395.9 534.048 2398.51 535.288C2420.36 545.671 2404.26 530.963 2417.65 531.718C2415.68 531.606 2473.54 536.85 2459.75 550.589C2449.22 561.088 2439.89 547.062 2444.57 565.032C2445.43 568.31 2463.41 564.384 2465.58 568.726C2479.43 596.544 2452.72 576.78 2442.04 587.417C2426.28 603.126 2472.49 607.442 2475.67 612.244C2471.96 606.653 2466.72 560.496 2462.88 550.554C2450.33 518.111 2437.06 483.956 2417.19 455.182C2398.37 474.671 2397.16 497.872 2390.55 522.428C2396.63 499.815 2393.74 521.887 2390.55 522.428ZM2382.06 497.833C2384.92 505.968 2387.19 514.267 2388.85 522.733C2359.36 528.075 2376.61 508.547 2382.06 497.833C2381.65 498.627 2384.3 505.767 2382.06 497.833ZM2353.38 487.642C2365.89 475.014 2371.05 466.381 2388.94 460.606C2380.75 470.959 2378.23 482.798 2381.41 495.43C2369.98 491.135 2366.29 490.157 2353.38 487.642C2359.97 488.925 2368.75 472.127 2353.38 487.642ZM2311.11 399.753C2331.23 398.157 2351.04 401.225 2368.53 411.621C2350.01 420.739 2341.06 435.341 2334.72 454.392C2346.04 442.919 2365.23 430.789 2382.36 434.397C2364.21 444.888 2355.41 467.763 2352.46 487.432C2345.88 485.793 2325.49 480.133 2323.82 483.883C2318.22 483.853 2296.67 486.037 2296.11 492.684C2295.71 497.395 2308.71 498.631 2307.95 502.45C2306.57 509.298 2291.23 500.695 2290.26 508.358C2289.61 513.598 2297.47 519.875 2301.05 522.394C2292.1 527.852 2268.1 523.484 2279.17 506.273C2276.13 510.997 2277.48 526.243 2269.31 527.465C2247 530.795 2252.22 465.673 2251.46 452.831C2263.4 443.807 2275.34 481.459 2275.94 485.806C2282.49 476.353 2275.49 456.444 2267.07 450.462C2280.91 448.587 2293.4 464.077 2296.03 475.791C2298.76 463.777 2291.5 443.262 2275.94 443.395C2285.82 435.324 2307.72 439.452 2317.43 444.901C2308.32 429.879 2292.44 431.231 2277.71 434.56C2275.8 419.066 2312.76 428.339 2317.58 431.741C2309.42 411.54 2291.28 419.019 2277.15 426.545C2278.04 409.909 2309.15 397.599 2322.36 406.335C2318.61 404.138 2314.86 401.946 2311.11 399.753C2315.06 401.057 2334.16 397.925 2311.11 399.753ZM2496.18 599.509C2532.28 586.696 2555.84 647.678 2583.52 658.525C2568.25 656.924 2542.65 660.245 2529.1 654.903C2506.3 645.927 2505.54 624.7 2496.18 599.509ZM2604.11 598.204C2599.25 593.823 2597 576.368 2598.28 570.039C2599.61 571.94 2614.76 599.041 2604.11 598.204C2605.37 598.303 2602.85 597.063 2604.11 598.204ZM2667.14 545.56C2666.5 517.974 2665.39 489.685 2659.87 462.558C2635.39 472.483 2626.29 492.761 2610 511.16C2617.22 490.637 2608.59 471.479 2631.77 459.07C2614.06 458.366 2605.66 464.193 2589.92 470.423C2599.63 454.457 2615.34 439.465 2634.66 436.581C2621.21 429.021 2598.99 432.908 2585.81 438.319C2598.24 424.713 2611.31 416.324 2629.99 414.659C2621.34 405.112 2609.99 397.839 2597.99 393.209C2603.42 404.177 2563.23 385.979 2549.75 388.013C2563.39 409.562 2571.31 436.774 2564.6 462.022C2559.98 451.483 2544.87 409.073 2528.04 409.566C2520.12 419.963 2536.64 443.172 2524.82 457.499C2522.19 449.402 2509.51 426.463 2500.12 424.056C2496.83 475.383 2477.92 550.512 2495.88 598.711C2520.67 557.561 2586.71 605.717 2583.72 609.888C2582.41 611.712 2563.38 569.241 2563.24 560.797C2563.04 547.958 2577.67 515.292 2576.27 509.706C2582.34 533.876 2588.78 548.452 2607.89 566.044C2609.25 545.676 2617.87 515.859 2631.42 503.69C2614.52 518.879 2653.29 589.082 2661.58 601.877C2661.73 580.68 2661.83 562.599 2648.21 544.444C2655.31 547.422 2660.6 552.361 2664.08 559.256C2664.72 554.618 2665.74 550.052 2667.14 545.56C2665.97 549.387 2666.41 514.263 2667.14 545.56ZM2701.32 493.062C2693.16 500.982 2682.93 510.56 2677.13 520.523C2675.81 501.36 2674.4 481.884 2671.35 462.893C2684.49 469.295 2694.62 480.322 2701.32 493.062C2695.33 481.691 2692.91 501.218 2701.32 493.062ZM2693.66 574.42C2693.91 562.569 2702.13 493.872 2707.56 506.522C2708.67 485.801 2711.76 467.939 2693.37 450.402C2717.63 445.232 2738.41 460.194 2757.36 472.676C2753.24 464.437 2748.16 456.83 2742.13 449.853C2750.3 446.965 2765.26 441.941 2774.57 444.245C2763.34 466.922 2752.11 489.599 2740.88 512.276C2725.08 544.191 2717.45 551.709 2693.66 574.42C2700.92 567.49 2693.69 572.931 2693.66 574.42ZM2690.29 601.706C2698.65 587.91 2702.36 575.789 2715.17 564.199C2707.89 578.9 2701.73 600.817 2687.47 610.06L2690.29 601.706C2689.2 604.546 2691.05 600.453 2690.29 601.706ZM2876.86 577.887C2822.72 571.215 2808.51 614.715 2775.34 647.562C2773.71 637.603 2779.35 626.06 2786.68 619.341C2780.29 621.812 2775.19 625.876 2771.35 631.531C2767.16 622.864 2760.19 616.565 2751.2 613.286C2754.18 613.471 2766.67 614.913 2758.13 609.326C2780.56 596.496 2803 583.671 2825.44 570.841C2852.77 555.219 2868.33 535.481 2876.86 577.887C2875.05 568.911 2868.42 576.849 2876.86 577.887ZM992.982 525.56C990.952 531.984 1011.9 510.684 1024.08 516.52C1013.87 521.917 1010.74 541.664 999.833 538.978C991.25 536.867 984.24 530.722 992.982 525.56C988.512 528.199 992.412 527.371 992.982 525.56ZM1426.88 669.925C1426.33 664.849 1426.93 664.202 1428.69 667.982C1432.34 673.74 1431.73 674.388 1426.88 669.925C1430.73 673.285 1426.97 668.591 1426.88 669.925ZM1412.09 621.16C1414.87 619.624 1417.65 618.088 1420.43 616.552C1416.04 621.109 1414.41 626.429 1415.55 632.522C1418.92 627.725 1422.82 623.387 1427.24 619.508C1426 637.573 1422.69 652.093 1423.96 667.312C1409.86 654.457 1406.22 669.424 1398.18 665.708C1397.21 651.591 1396.24 637.478 1395.26 623.366C1400.27 627.747 1404.68 632.651 1408.5 638.079C1409.78 631.188 1407.94 625.163 1402.97 620.01C1407.56 618.865 1418.6 634.097 1412.09 621.16C1413.37 623.7 1414.03 618.144 1412.09 621.16ZM1417.72 610.914C1414.14 622.271 1409.6 622.846 1404.08 612.647C1408.63 612.072 1413.17 611.493 1417.72 610.914C1413.57 609.802 1415.04 612.776 1417.72 610.914ZM1419.51 601.126C1431.12 606.357 1402.88 605.614 1399.86 606.601C1401.23 599.062 1414.93 601.534 1419.51 601.126ZM1369.64 588.172C1367.5 581.886 1363.64 576.9 1358.07 573.219C1368.24 571.078 1385.56 590.901 1377.78 575.064C1383.64 581.509 1386.37 589.266 1385.97 598.329C1381.87 592.914 1376.43 589.528 1369.64 588.172C1377.97 587.327 1367.44 582.422 1369.64 588.172ZM1372.11 597.054C1371.51 594.716 1370.91 592.377 1370.32 590.043C1374.7 592.957 1385.35 602.298 1372.11 597.054C1375.04 598.213 1371.73 594.939 1372.11 597.054ZM1359.23 598.114C1357.8 593.991 1356.36 589.871 1354.92 585.748C1361.35 587.254 1366.26 590.751 1369.65 596.239C1366.18 596.861 1362.71 597.488 1359.23 598.114C1362.56 595.385 1359.49 594.3 1359.23 598.114ZM1221.85 579.668C1228.7 587.524 1232.56 596.595 1233.45 606.88C1227.35 608.017 1215.23 604.417 1209.96 601.761C1213.35 594.089 1217.32 586.726 1221.85 579.668C1218.36 584.727 1230.68 588.82 1221.85 579.668ZM1184.2 596.042C1182.53 595.162 1173.58 585.516 1174.54 583.959C1175.72 582.045 1181.34 582.075 1183.08 578.462C1183.45 584.323 1183.83 590.18 1184.2 596.042C1183.81 589.91 1182.96 595.385 1184.2 596.042ZM1205.58 568.074C1208.89 566.001 1203.99 562.552 1205.58 568.074C1206.32 567.611 1205.28 567.023 1205.58 568.074ZM1192.27 562.998C1205.41 575.501 1195.09 578.308 1189.96 594.222C1196.56 585.134 1205.43 579.466 1216.57 577.218C1212.56 583.98 1208.93 590.94 1205.67 598.097C1200.31 593.068 1196.07 594.857 1188.97 597.05C1188.34 587.868 1181.8 563.71 1192.27 562.998C1190.43 563.127 1195.3 565.877 1192.27 562.998ZM1177.86 568.713C1183.05 561.273 1182.25 565.529 1182.86 575.081C1181.2 572.957 1179.52 570.833 1177.86 568.713C1180.11 572.536 1178.63 567.606 1177.86 568.713ZM1198.17 531.915C1194.68 529.504 1188.04 533.387 1198.17 531.915C1197.07 531.156 1196.31 532.185 1198.17 531.915ZM1209.9 553.708C1207.53 548.37 1203.77 544.363 1198.61 541.694C1211.43 533.61 1212.72 554.094 1209.9 553.708C1210.91 553.846 1207.28 548.473 1209.9 553.708ZM1198.32 553.365C1209.1 552.258 1196.35 550.975 1198.32 553.365C1199.82 553.21 1197.87 552.82 1198.32 553.365ZM1186.21 556.772L1186.41 557.025L1186.23 557.124L1186.21 556.772ZM1155.26 574.721C1157.73 567.242 1162.26 561.625 1168.86 557.866C1174.27 564.933 1161.72 575.819 1155.26 574.721C1156.33 574.905 1160.51 564.397 1155.26 574.721ZM1134.46 523.248C1145.69 524.119 1155.75 527.989 1164.64 534.863C1156.57 535.974 1148.95 538.51 1141.78 542.475C1141.02 535.425 1138.58 529.015 1134.46 523.248C1138.21 528.457 1146.61 521.45 1134.46 523.248ZM856.822 377.127C860.42 393.677 863.685 359.106 856.822 377.127C857.124 378.522 857.586 375.115 856.822 377.127ZM1321.25 436.624C1321.25 453.826 1307.16 456.954 1301 470.796C1306.75 457.829 1313.88 442.872 1321.25 436.624ZM1291.61 461.876C1286.91 459.001 1269.53 440.55 1282.17 435.504C1291.42 431.836 1293.06 458.284 1291.61 461.876ZM1345.09 361.363C1347.25 365.315 1348.61 382.521 1342.41 385.636C1341.3 386.19 1331.02 374.325 1330.51 372.875C1330.21 372.03 1343.85 361.659 1345.09 361.363ZM1302.28 378.307C1302.28 390.21 1304.83 397.891 1296.62 408.034C1294.88 400.555 1285.88 388.009 1286.44 381.345C1286.37 382.238 1301.79 378.26 1302.28 378.307ZM1287.26 360.513C1295.22 368.383 1284.78 376.818 1285.79 383.65C1286.35 387.438 1269.3 349.366 1277.68 354C1280.92 356.111 1284.11 358.278 1287.26 360.513C1287.48 360.728 1287.04 360.294 1287.26 360.513ZM1272.45 376.57C1287.55 396.097 1292.21 397.625 1285.57 420.705C1288.18 411.656 1267.48 383.28 1267.23 370.927L1272.45 376.57ZM1261.78 371.575C1261.78 378.093 1268.75 380.071 1268.75 385.683C1268.75 401.984 1239.4 357.754 1250.25 364.199C1254.28 366.619 1257.52 369.181 1261.78 371.575ZM1267.01 391.978C1268.96 395.874 1270.87 399.457 1272.78 403.263C1269.03 395.767 1254.44 390.789 1248.29 385.031C1229.8 367.726 1238.79 385.971 1233.7 362.247C1235.76 371.837 1255.89 387.447 1267.01 391.978ZM1264.83 431.471C1258.76 435.32 1232.5 435.865 1247.82 425.356C1252.11 422.413 1268.16 425.322 1264.83 431.471ZM1356.09 686.093C1355.68 685.797 1355.23 685.467 1354.76 685.094C1356 684.21 1357.42 683.896 1358.95 684.154L1356.09 686.093ZM1374.74 658.928C1375.98 658.443 1376.32 658.306 1374.74 658.928ZM1300.55 636.204C1297.83 635.114 1297.91 635.015 1300.79 635.912L1300.55 636.204ZM1301.23 642.52L1301.03 642.37C1301.1 642.413 1301.17 642.464 1301.23 642.52ZM1310.12 656.74L1310.15 656.62C1310.27 656.667 1310.25 656.705 1310.12 656.74ZM1310.98 654.264C1310.87 654.749 1310.74 655.272 1310.55 655.813C1310.48 655.234 1310.64 654.599 1310.98 654.264ZM1312.96 650.977C1311.66 650.921 1309.18 659.417 1311.95 650.402L1312.96 650.977ZM1317.56 649.969C1315.71 652.513 1316.14 653.367 1317.56 649.969ZM1318.7 650.733C1319.91 646.832 1318.94 652.642 1318.92 652.994C1317.87 652.621 1318.09 651.741 1318.7 650.733ZM1318.07 648.626C1317.86 648.677 1317.42 650.346 1318.07 648.626ZM1325.9 654.56C1320.97 656.075 1318.95 653.032 1319.59 648.69C1327.92 650.016 1322.5 651.638 1325.9 654.56ZM1324.41 656.632L1323.69 655.611C1325.99 655.251 1327.51 655.204 1324.41 656.632ZM1345.51 678.872C1343.81 678.717 1339.79 675.534 1345.51 678.872ZM1358.98 683.57C1357.54 683.339 1356.21 683.605 1354.99 684.368C1355.68 683.725 1356.31 683.064 1356.93 682.36C1355.76 682.708 1354.7 683.485 1354 684.501C1351.84 682.699 1349.48 681.193 1346.9 679.975C1349.63 677.718 1353.75 680.627 1355.39 678.198C1355.6 678.889 1356.07 679.468 1356.69 679.799C1355.65 678.996 1355.31 678.018 1356.13 676.95C1358.67 678.048 1362.15 684.102 1358.98 683.57C1358.45 683.48 1358.24 683.613 1358.98 683.57ZM1366.43 684.991C1364.53 685.78 1361.08 688.655 1358.91 687.75C1361.49 684.609 1364.48 682.944 1366.43 684.991ZM1297.16 632.844V631.81C1298.33 631.814 1298.33 632.158 1297.16 632.844ZM1297.16 634.367C1298.6 634.221 1298.68 633.054 1297.16 634.367ZM1384.65 638.954C1387.2 635.015 1389.75 631.076 1392.3 627.137C1393.09 639.422 1393.87 651.711 1394.64 664C1389.06 661.425 1384.37 664.004 1378.78 662.447C1377.75 662.155 1384.44 655.86 1376.83 658.134C1377.33 657.435 1377.2 656.663 1376.45 655.817C1383.73 650.891 1386.22 645.515 1384.65 638.954ZM1376.78 629.948C1378.84 628.013 1380.89 626.073 1382.95 624.138C1382.17 628.746 1382.09 633.376 1382.71 638.032C1381.29 632.561 1380.26 634.161 1376.78 629.948C1377.59 630.93 1379.18 626.258 1376.78 629.948ZM1370.71 627.807L1370.5 628.648C1369.69 628.369 1370.01 628.227 1370.71 627.807ZM1322.9 620.414C1328.02 607.992 1333.71 594.321 1341.42 583.156C1349.14 593.347 1353.59 604.769 1354.78 617.419C1356.34 590.009 1364.49 601.169 1379.95 607.794C1371.47 612.342 1361.94 608.515 1358.2 621.109C1363.62 618.238 1369.41 616.809 1375.57 616.818L1371.57 625.013C1363.52 625.172 1347.57 634.08 1343.71 632.99C1342.49 632.647 1345.78 628.631 1345.75 628.652C1337.25 633.814 1325.91 624.456 1322.9 620.414ZM1366.61 686.934C1361.78 691.611 1363.46 686.836 1366.37 685.973L1366.3 686.99L1366.61 686.934ZM1593.98 461.841C1602.38 461.841 1603.21 490.182 1602.58 493.375C1600.75 489.848 1590.9 461.841 1593.98 461.841ZM1575.43 402.757C1573.91 405.919 1572.74 406.756 1569.7 404.542L1575.43 402.757ZM1593.14 395.471C1594.74 399.217 1600.81 429.656 1587.87 420.07C1579.54 413.896 1579.79 389.476 1593.14 395.471C1590.59 394.325 1593.98 397.419 1593.14 395.471ZM1597.47 421.812C1597.21 412.973 1602.47 406.537 1599.52 396.591C1618.6 398.856 1611.86 416.552 1597.47 421.812ZM1519.18 412.973C1518.66 416.788 1517.26 419.667 1512.25 417.517C1514.61 416.067 1516.87 414.492 1519.18 412.973C1518.25 413.587 1519.09 413.63 1519.18 412.973ZM1532.81 411.051C1535.24 416.298 1538.33 421.151 1542.07 425.601C1546.54 431.544 1502.5 398.946 1532.81 411.051C1532.23 410.819 1533.68 413.205 1532.81 411.051ZM1585.35 430.78C1572.17 427.957 1561.94 413.844 1549.37 426.807C1545.19 422.074 1541.98 417.135 1538.91 411.707C1543.42 411.471 1605.83 401.173 1585.35 430.78C1586.39 429.283 1582.51 430.171 1585.35 430.78ZM1520.45 485.492C1526.92 484.145 1535.04 486.771 1541.35 487.325C1534.54 491.495 1528.76 489.157 1520.45 485.492C1523.56 486.866 1520.99 485.381 1520.45 485.492ZM1527.48 672.873C1527.85 673.393 1528.19 673.933 1528.5 674.478C1527.95 674.264 1527.53 673.907 1527.24 673.41C1527.12 673.637 1527.14 673.847 1527.3 674.036C1526.36 673.693 1526.35 673.307 1527.48 672.873ZM1528.53 672.732C1528.31 672.976 1528.31 673.238 1528.5 673.521C1528.12 673.47 1527.86 673.221 1527.72 672.783C1527.99 672.775 1528.26 672.757 1528.53 672.732ZM1519.78 709.826C1518.64 711.993 1519.56 711.817 1519.78 709.826ZM1527.77 715.035C1524.11 712.714 1521.82 713.28 1520.26 709.024C1522.83 710.942 1525.34 712.945 1527.77 715.035ZM1518.9 654.556C1516.18 653.466 1516.26 653.367 1519.13 654.264L1518.9 654.556ZM1519.57 660.872L1519.37 660.722C1519.45 660.765 1519.51 660.816 1519.57 660.872ZM1512.27 698.816C1514.94 697.365 1516.88 697.323 1516.97 700.326C1515.42 699.79 1513.85 699.283 1512.27 698.816ZM1506.64 691.74C1506.75 691.886 1506.87 692.032 1507 692.178L1506.16 692.341L1506.64 691.74ZM1541.44 680.627C1543.41 681.974 1541.27 680.717 1540.75 681.03L1541.44 680.627ZM1537.98 678.73C1538.43 678.087 1538.84 677.409 1539.21 676.714C1540.06 678.456 1539.89 679.391 1537.98 678.73ZM1534.59 678.104C1534.9 676.568 1535.47 674.517 1536 672.697C1539.12 675.74 1538.61 677.199 1534.59 678.104C1535.76 677.842 1534.9 676.568 1534.59 678.104ZM1531.47 677.49L1531.4 678.039C1530.84 677.876 1530.98 677.743 1531.47 677.49ZM1533.45 676.297C1533.09 677.383 1533.4 679.395 1533.45 676.297ZM1523.8 675.559C1525.22 673.646 1526.82 673.556 1528.61 675.027C1527.09 675.396 1525.39 675.581 1523.8 675.559ZM1523.89 674.036C1523.5 673.929 1521.8 676.246 1523.89 674.036ZM1523.3 671.53C1523.35 671.444 1523.38 671.35 1523.4 671.251C1523.84 672.148 1524.6 672.869 1525.55 673.32C1524.73 673.161 1523.78 672.397 1523.3 671.53ZM1526.5 668.042C1526.86 669.505 1527.15 671.028 1527.35 672.539C1523.64 672.341 1524.02 670.496 1523.84 667.312C1524.86 666.75 1525.74 667.064 1526.5 668.042ZM1535.91 668.317C1532.86 675.62 1535.1 672.53 1529.08 674.851C1529.31 671.41 1531.46 672.921 1534.23 670.809C1532.2 671.612 1529.93 672.204 1527.66 672.496C1526.88 667.321 1531.04 667.415 1535.91 668.317ZM1537.04 669.084C1538.32 665.871 1537.25 671.565 1537.11 672.697C1535.39 672.152 1535.95 670.548 1537.04 669.084ZM1536.42 666.978C1536.21 667.029 1535.77 668.698 1536.42 666.978ZM1544.24 672.912C1538.12 674.796 1536.88 674.298 1537.93 667.042C1547.1 668.501 1539.57 670.968 1544.24 672.912ZM1543.26 678.932C1543.21 679.28 1543.02 679.554 1542.71 679.747C1542.42 679.417 1542.14 679.074 1541.89 678.717L1542.42 678.361C1541.66 675.443 1538.21 675.328 1544.3 673.371C1544.91 676.877 1539.14 673.624 1543.26 678.932ZM1544.62 686.179C1539.58 680.022 1541.78 682.704 1544.62 686.179ZM1540.51 698.94C1540.53 699.073 1540.55 699.206 1540.57 699.339C1540.24 699.283 1539.94 699.18 1539.65 699.03L1540.51 698.94ZM1551.02 692.435C1549.75 696.859 1544.78 697.035 1541.35 699.082C1544.92 695.392 1546.36 691.599 1546.08 686.819C1546.61 689.861 1546.7 691.444 1551.02 692.435C1550.72 692.367 1550.87 692.972 1551.02 692.435ZM1554.22 693.439C1553.05 691.465 1553.31 691.912 1554.22 693.439ZM1554.73 695.01C1555.2 697.254 1553.15 696.713 1550.87 696.829C1551.68 695.696 1552.39 694.503 1553 693.25C1553.98 693.559 1554.4 694.147 1554.1 695.143L1554.73 695.01ZM1555.56 694.791C1556.95 695.375 1556.7 695.503 1555.26 696.044C1554.87 695.387 1554.86 694.915 1555.56 694.791ZM1557.51 695.435C1556.79 695.336 1556.6 695.01 1557.16 694.508L1557.51 695.435ZM1512.96 650.724C1509.92 654.187 1512.81 653.809 1512.96 650.724C1511.33 652.582 1512.92 651.604 1512.96 650.724ZM1513.6 712.285L1513.63 713.143C1513.4 713.113 1512.55 712.504 1513.6 712.285ZM1516.66 710.5C1514.26 710.337 1515.95 710.749 1516.66 710.5ZM1517.63 707.196C1515.81 708.333 1516.42 710.422 1517.63 707.196ZM1522.6 701.111C1520.39 704.347 1520.16 707.157 1516.69 704.016C1518.61 701.382 1517.12 698.314 1522.6 701.111C1522.32 700.97 1522.28 701.592 1522.6 701.111ZM1533.67 703.853C1533.69 703.042 1533.75 702.235 1533.83 701.424C1534.75 702.261 1534.9 703.338 1533.67 703.853ZM1532.15 711.529C1527.88 708.805 1517.97 711.293 1525.23 700.481C1529.83 702.514 1530.36 706.539 1532.15 711.529ZM1536.46 714.533C1536.06 714.992 1535.8 714.984 1535.69 714.507C1535.95 714.49 1536.21 714.499 1536.46 714.533ZM1563.85 697.224C1562.09 700.18 1558.54 698.224 1558.16 698.425C1558.34 698.717 1558.58 698.927 1558.9 699.043C1559.87 694.061 1561.14 696.979 1563.85 697.224C1563.36 697.181 1563.52 697.79 1563.85 697.224ZM1140.13 287.899C1139.66 287.899 1133.22 299.725 1125.41 285.372C1131.27 286.402 1136.35 287.899 1140.13 287.899ZM1114.76 256.551C1116.34 255.65 1111.26 279.588 1101.58 253.011C1105.55 255.602 1109.94 256.782 1114.76 256.551C1111.22 258.576 1118.31 254.53 1114.76 256.551ZM979.407 283.154C984.737 285.509 977.688 300.107 970.899 299.588C969.249 297.648 969.067 295.421 970.354 292.907C969.426 302.257 955.143 295.885 951.389 296.155C954.521 288.994 964.826 276.696 979.407 283.154C975.062 281.227 983.761 285.08 979.407 283.154ZM1011.03 296.709C1010.6 296.365 1026.08 302.252 1018.21 305.372C1003.25 311.297 998.692 291.118 1018.21 282.862C1011.14 285.853 1013.41 292.272 1011.03 296.709ZM1014.53 149.378C1012.68 151.215 1009.15 161.273 1006.57 164.341C997.712 146.486 1009.1 154.802 1014.53 149.378C1014.09 149.82 1014.97 148.941 1014.53 149.378ZM1004.37 179.753C1020.39 200.817 976.194 205.035 1003.21 190.322C1005.13 189.275 998.558 184.701 998.182 185.481C998.982 182.173 1001.02 180.234 1004.37 179.753ZM1064.89 140.578C1051.86 167.743 1081.66 159.415 1064.89 140.578ZM1053.4 173.15C1052.03 174.523 1058.61 188.983 1052.74 192.634C1053.52 192.145 1039.46 185.224 1039.27 185.044C1043.92 181.169 1049.12 177.415 1053.4 173.15C1052.96 173.587 1053.84 172.712 1053.4 173.15ZM1083.88 195.599C1086.05 196.835 1100.18 214.998 1101.11 214.535C1097.43 216.363 1080.1 217.907 1076.37 217.178C1080.36 217.976 1075.05 201.564 1075.05 202.645C1078.42 200.83 1081.36 198.478 1083.88 195.599ZM1029.54 232.578C1029.54 234.367 1030.62 248.205 1029.1 247.99C1021.22 246.858 1011.48 241.052 1003.04 239.19C1006.34 232.681 1018.22 226.596 1010.99 219.375C1017.1 225.451 1014.36 229.814 1017.62 236.324C1016.12 233.329 1028.75 232.951 1029.54 232.578ZM1046.78 234.783C1047.97 238.962 1044.96 264.394 1039.87 258.391C1035.23 252.916 1038.85 238.602 1041.47 233.028L1046.78 234.783ZM1068.42 242.704C1072.16 243.953 1088.25 250.26 1085.54 257.014C1086.79 253.895 1048.39 251.342 1050.31 260.76C1049.78 258.117 1055.88 242.374 1056.77 238.855C1056.14 241.352 1066.79 241.739 1068.42 242.704ZM1060.47 302.141C1063.04 305.715 1057.6 315.472 1054.62 314.739C1040.18 311.186 1053.29 302.814 1060.47 302.141ZM1092.04 292.662C1092.73 296.129 1094.98 308.174 1087.42 307.547C1074.68 306.487 1090.03 293.147 1092.04 292.662ZM834.488 144.169C842.405 144.169 843.191 170.871 842.595 173.879C840.759 170.541 831.702 144.169 834.488 144.169ZM833.706 81.6475C837.628 90.86 842.565 99.8321 830.924 104.707C821.578 108.62 817.963 74.6063 833.706 81.6475C831.296 80.5663 834.488 83.4797 833.706 81.6475ZM837.783 106.461C837.537 98.133 842.526 92.07 839.71 82.6988C857.867 84.8528 851.043 101.295 837.783 106.461ZM735.947 175.703C735.947 190.553 723.802 193.257 718.472 205.202C723.426 194.033 729.512 181.028 735.947 175.703ZM710.361 197.509C705.368 194.848 691.115 179.187 702.21 174.737C710.767 171.335 710.957 195.192 710.361 197.509ZM756.536 110.731C758.385 114.125 759.577 129.027 754.221 131.683C753.263 132.164 744.387 121.921 743.942 120.668C744.032 120.922 756.584 110.714 756.536 110.731ZM719.578 125.358C719.578 135.794 721.651 142.088 714.688 151.026C712.779 146.564 705.58 131.88 705.903 127.98C705.839 128.752 719.172 125.328 719.578 125.358ZM706.607 109.997C713.03 116.335 704.456 124.058 705.338 129.971C705.756 132.794 693.68 101.797 698.336 104.376C701.131 106.195 703.886 108.071 706.607 109.997C706.793 110.186 706.417 109.808 706.607 109.997ZM693.827 123.861C706.75 140.604 710.883 141.839 705.152 161.959C707.039 155.334 690.963 128.1 689.313 118.991L693.827 123.861ZM684.614 119.549C684.614 125.191 690.627 126.886 690.627 131.726C690.627 146.083 665.64 107.792 674.65 113.181C678.805 115.661 680.084 117.57 684.614 119.549ZM689.123 137.162C690.817 140.526 692.462 143.616 694.108 146.903C690.847 140.385 678.226 136.236 672.957 131.164C657.192 115.983 664.794 132.142 660.362 111.495C662.677 122.26 678.706 130.782 689.123 137.162ZM687.245 171.257C697.183 152.82 645.22 191.798 687.245 171.257ZM776.439 165.868C779.298 166.512 782.123 167.28 784.909 168.177C781.397 173.296 779.553 170.129 776.439 165.868C777.13 166.816 777.445 165.774 776.439 165.868ZM796.48 151.236C791.681 147.207 790.105 150.279 795.849 146.306C799.373 143.865 797.391 150.34 796.48 151.236C796.739 150.983 795.521 150.43 796.48 151.236ZM805.027 139.479C818.926 146.778 805.584 146.675 823.496 146.07C823.953 153.24 820.209 204.138 822.757 205.215C814.823 201.86 784.127 175.617 787.267 168.451C787.271 168.451 814.598 163.56 814.602 166.057C814.598 156.711 795.521 154.699 805.027 139.479C804.936 139.625 805.688 139.827 805.027 139.479ZM795.443 128.117C799.235 129.576 801.978 125.251 806.69 127.173C811.575 129.16 782.809 139.128 795.443 128.117C795.084 128.426 796.017 128.336 795.443 128.117ZM820.235 112.16C819.764 111.834 819.565 111.323 819.639 110.624C819.915 111.1 820.118 111.615 820.235 112.16ZM825.241 114.631L824.299 114.335C824.632 114.159 825.046 114.073 825.241 114.631ZM818.244 96.82C819.656 99.403 819.708 99.506 818.244 96.82ZM814.054 92.6235L814.244 92.7051L814.011 92.7136L814.054 92.6235ZM813.328 91.4564C812.819 91.1346 812.261 90.6583 811.627 90.1906C817.306 88.5301 818.377 90.8128 813.328 91.4564C813.89 91.3835 812.819 91.1346 813.328 91.4564ZM806.552 91.7696C807.955 90.8643 809.329 90.9072 810.668 91.9026C809.186 92.2459 807.951 91.864 806.552 91.7696ZM799.011 95.1465C801.421 93.8936 803.917 92.7694 806.444 91.804C806.435 97.5408 798.859 98.8023 808.076 105.277C800.617 104.621 801.952 99.8021 799.011 95.1465ZM730.669 163.388C727.335 163.388 717.911 188.948 716.567 192.617C710.741 165.658 715.6 163.002 725.78 139.222C722.61 146.096 719.945 163.388 730.669 163.388ZM622.047 258.267C620.285 259.271 623.524 271.491 611.897 255.538C614.955 257.533 618.337 258.443 622.047 258.267C619.318 259.82 624.786 256.709 622.047 258.267ZM517.823 278.751C520.363 279.871 517.443 290.513 514.104 290.985C510.29 291.169 509.206 289.594 510.852 286.26C510.17 293.109 499.337 289.079 496.245 288.762C499.113 282.798 498.499 285.561 501.082 279.12C506.084 281.459 512.459 276.37 517.823 278.751C514.476 277.267 521.175 280.232 517.823 278.751ZM542.165 289.187C539.837 287.342 552.406 293.984 547.698 295.859C536.201 300.429 532.767 284.84 547.698 278.524C542.701 280.639 543.133 285.334 542.165 289.187ZM544.865 175.737C542.641 177.934 541.246 184.911 538.745 187.258C531.903 173.493 540.732 179.925 544.865 175.737C544.528 176.076 545.206 175.398 544.865 175.737ZM537.043 199.126C538.714 205.013 541.734 212.484 533.683 216.843C526.876 220.533 533.484 200.229 532.275 203.542C532.685 200.723 534.274 199.251 537.043 199.126ZM583.642 168.958C589.684 175.75 584.648 176.75 587.166 183.237C585.637 185.271 583.556 185.482 580.921 183.872C580.632 178.354 582.981 174.248 583.642 168.958ZM574.801 194.042C573.863 194.973 578.122 206.661 574.287 209.042C574.87 208.682 564.115 203.357 563.912 203.203C567.493 200.216 570.965 196.693 574.801 194.042ZM598.271 211.329C600.564 212.638 611.021 226.167 611.53 225.91C608.706 227.317 595.351 228.506 592.487 227.944C595.554 228.553 591.481 215.895 591.468 216.757C594.064 215.354 596.331 213.548 598.271 211.329ZM556.427 239.803C556.427 241.181 557.256 251.835 556.09 251.672C552.164 251.11 539.328 246.673 536.019 244.892C538.499 239.855 547.741 235.225 542.144 229.639C546.839 234.311 544.744 237.68 547.249 242.687C546.286 240.76 555.196 239.821 556.427 239.803ZM569.695 241.503C570.43 244.069 571.358 259.597 566.979 260.151C559.593 261.069 565.437 240.846 565.614 240.147L569.695 241.503ZM586.359 247.604C589.088 248.51 601.523 253.676 599.545 258.623C600.577 256.044 571.008 254.59 572.417 261.507C572.011 259.486 576.714 247.338 577.392 244.639C577.068 245.918 584.039 247.33 586.359 247.604ZM580.243 293.37C582.217 296.121 578.04 303.638 575.734 303.072C570.309 301.746 572.736 296.271 571.738 292.692C573.155 292.576 579.314 293.98 580.243 293.37ZM1036.98 549.542C1034.7 540.99 1036.49 534.412 1042.6 529.589L1036.98 549.542ZM1036.98 590.223C1037.66 573.613 1044 557.141 1048.41 541.085C1052.12 554.116 1061.54 567.087 1063.06 580.723C1076.48 569.893 1065.77 546.131 1074.8 538.257C1089.75 540.844 1095.88 582.302 1097.97 592.073C1108.6 570.734 1106.51 544.646 1098.3 522.878C1121.61 524.076 1139.27 535.948 1134.03 553.605C1141.66 549.563 1149.81 547.551 1158.48 547.564C1153.46 555.339 1150.7 563.916 1150.22 573.296C1147.39 572.202 1129.48 557.926 1127.5 561.359C1120.64 573.201 1106.78 609.133 1092.88 613.351C1088.37 614.72 1063.57 597.938 1058.97 596.402C1053.88 594.707 1044.5 592.364 1036.98 590.223ZM1025.63 540.913C1025.63 551.79 1031.41 581.985 1010.7 575.763C988.75 569.172 1022.03 543.157 1025.63 540.913ZM565.696 313.516C577.82 314.327 601.795 319.742 606.568 333.837C585.758 337.163 572.443 346.602 562.69 365.027C575.142 356.819 590.03 346.495 606.088 349.915C595.269 360.234 595.744 374.428 596.465 387.979C601.692 375.806 608.511 364.482 621.024 358.389C618.147 376.226 624.138 417.088 613.768 428.708C607.997 435.174 599.951 431.183 593.636 435.367C578.325 445.502 571.233 453.865 562.15 443.026C556.242 435.972 554.924 319.364 565.696 313.516C565.035 313.872 582.368 314.636 565.696 313.516ZM585.689 307.659C582.277 307.543 578.71 307.848 575.069 308.749C578.187 303.939 581.361 304.26 585.689 307.659C583.927 306.281 582.277 307.543 585.689 307.659ZM601.864 286.136C606.166 292.512 601.575 292.915 604.421 296.558C603.393 297.211 602.253 297.532 601 297.532C599.027 297.369 594.327 285.69 601.864 286.136C601 286.084 603.069 287.921 601.864 286.136ZM629.597 292.486L629.403 313.778C625.632 306.462 607.103 292.988 617.651 285.956C621.996 287.402 625.978 289.577 629.597 292.486C619.65 288.277 628.518 299.27 629.597 292.486ZM632.763 281.008C631.429 284.239 630.902 286.183 630.25 280.455L632.763 281.008ZM639.872 288.071C646.645 285.076 640.261 277.644 639.872 288.071C640.339 287.865 639.942 286.192 639.872 288.071ZM645.461 310.328C639.959 316.803 638.089 313.653 639.847 300.888C640.46 302.956 642.909 309.907 645.461 310.328C644.814 310.22 644.157 311.285 645.461 310.328ZM708.218 434.831C702.906 432.033 690.367 430.038 692.026 431.068C690.769 430.287 669.661 407.807 671.903 406.923C665.105 409.605 667.113 420.066 656.35 417.513C651.102 416.268 652.942 401.208 647.392 401.208C640.43 401.203 628.846 418.131 623.745 422.297C623.957 401.027 624.557 379.084 628.807 358.158C646.183 365.207 651.145 378.149 662.626 391.124C657.659 376.999 664.215 364.547 647.867 355.798C660.963 355.278 664.664 358.908 676.248 363.5C669.903 353.069 658.522 342.427 645.906 340.544C657.041 336.523 668.085 336.918 679.034 341.724C670.595 332.486 661.736 326.809 649.072 325.68C661.066 312.439 678.559 307.543 695.714 305.119C684.299 301.48 672.693 300.909 660.907 303.402C660.228 295.563 670.314 296.481 661.792 285.574C658.57 281.446 653.503 282.974 650.566 277.348C647.003 270.526 636.46 249.033 636.409 248.587C634.482 231.218 641.358 216.809 639.911 196.209C643.082 201.77 640.335 193.351 643.906 204.061C642.434 199.646 662.837 200.255 667.282 203.949C669.001 205.378 670.905 219.971 671.264 222.79C667.701 222.044 651.75 225.987 652.519 234.547C654.873 260.069 693.149 238.795 699.261 241.854C717.427 250.908 708.218 292.456 708.218 308.474V434.831ZM722.947 409.987C726.091 413.702 730.414 442.893 723.18 445.21C723.111 433.47 723.033 421.731 722.947 409.987C723.046 423.782 723.491 410.626 722.947 409.987ZM822.757 282.836C812.871 274.31 799.326 269.784 786.563 268.144C803.705 278.412 822.476 293.804 821.617 315.7C805.519 308.174 790.882 295.885 771.783 303.578C785.811 308.362 795.024 312.666 805.683 323.93C786.93 322.325 764.294 312.259 750.628 332.224C772.724 324.543 792.709 336.279 814.028 339.866C802.163 347.868 782.702 352.768 769.381 359.84C767.291 360.947 760.16 353.541 757.404 356.085C752.049 361.028 750.472 370.009 746.253 373.69C735.563 383.006 747.401 390.339 722.834 394.316C722.744 381.457 731.961 261.768 723.068 256.83C724.342 258.932 726.255 259.52 728.799 258.589C726.808 250.359 726.674 253.663 732.107 246.261C723.53 247.167 727.184 245.266 730.285 240.537C723.715 233.891 720.74 210.295 725.935 202.898C731.688 194.707 763.831 189.571 764.773 190.279C766.695 191.716 780.723 200.826 781.134 197.839C781.82 192.836 776.702 193.201 776.871 192.536C777.549 189.824 784.049 190.897 782.87 188.107C781.211 184.168 777.869 184.405 774.435 181.851C774.88 180.354 775.51 178.938 776.318 177.612C776.871 176.728 782.581 183.194 784.524 177.247C823.897 205.52 824.07 235.697 822.757 282.836C822.899 277.807 815.181 276.301 822.757 282.836ZM841.251 303.81C841.346 304.522 841.454 305.239 841.584 305.968C840.85 305.573 840.742 304.853 841.251 303.81C841.26 304.458 841.346 304.522 841.251 303.81ZM1036.98 475.632L1039.59 482.759C1035.5 480.425 1037.61 479.85 1036.98 475.632ZM1025.63 448.36C1017.67 447.519 995.094 447.128 990.598 457.679C1003.21 456.971 1029.76 459.035 1025.63 476.924C1021.26 475.649 983.735 468.934 984.56 485.432C996.645 481.888 1016.32 487.985 1025.15 496.46C1013.45 499.961 1004.24 506.835 997.504 517.094C995.224 512.778 993.665 496.589 984.189 499.112C981.515 499.824 957.354 513.992 960.239 514.554C955.812 513.692 933.059 461.987 930.946 461.983C933.966 461.987 951.044 468.702 952.599 461.219C959.19 429.553 918.464 436.603 908.833 421.503C901.404 409.854 917.22 405.215 898.264 389.858C891.306 384.224 878.625 371.867 870.582 381.774C869.386 377.531 868.194 373.287 866.998 369.043C877.916 375.261 898.112 381.753 905.995 392.493C916.598 384.898 887.859 358.745 881.562 356.038C890.675 352.485 908.051 359.346 913.035 367.19C917.16 355.42 888.9 340.243 880.495 339.711C890.014 332.267 909.286 327.92 921.09 330.731C922.213 312.426 871.658 325.955 866.069 328.555C865.607 312.881 904.924 307.68 915.048 308.144C907.274 293.306 864.717 299.425 855.332 308.414C851.09 296.177 858.718 267.312 870.09 259.713C853.738 258.241 842.534 279.451 841.1 292.529C840.578 257.791 838.042 220.551 841.549 186.095C843.433 167.554 853.773 160.839 838.686 143.564C858.187 147.332 868.911 173.416 869.218 150.039C882.84 153.759 905.753 153.42 915.082 146.516C899.763 141.217 886.347 129.52 871.865 124.371C857.63 119.308 848.309 121.209 834.898 118.806C836.246 112.185 861.279 94.7346 862.078 101.132C863.11 109.315 867.715 109.13 869.08 116.579C888.477 116.395 905.554 133.438 922.079 139.501C936.851 126.225 966.251 150.305 969.892 148.709C951.739 169.202 931.547 193.029 927.444 219.714C918.162 280.077 985.644 219.615 989.713 248.278C990.965 257.096 954.883 253.633 948.236 257.126C931.737 265.806 929.564 278.812 925.919 298.077C921.725 320.209 912.176 312.207 932.519 317.798C941.926 320.381 959.708 322.23 969.357 324.62C988.439 329.353 984.379 329.057 1000.11 323.925C1012.16 319.995 990.585 293.606 1014.38 314.666C1042.32 339.402 1025.63 416.835 1025.63 448.36ZM1036.98 399.526C1047.74 411.145 1054.75 442.288 1050.31 458.014C1034.1 438.915 1036.98 428.587 1036.98 399.526ZM1275.27 633.642C1274.95 632.599 1265.96 614.265 1263.62 619.109C1262.54 624.438 1260.12 628.974 1256.34 632.72C1256.07 632.775 1238.16 625.623 1237.32 624.927C1223.91 613.746 1238.35 623.49 1235.21 613.934C1235.79 602.697 1244.3 593.562 1235.35 582.264C1242.93 584.538 1248.77 589.022 1252.88 595.72C1251.63 586.439 1247.13 574.72 1238.51 569.734C1247.49 569.477 1255.08 572.661 1261.27 579.29C1259.1 569.88 1253.71 563.067 1245.12 558.849C1256.75 551.932 1270.93 552.215 1283.75 554.802C1273.78 545.946 1256.13 540.887 1243.59 547.336C1245.56 522.763 1263.24 505.518 1278.75 513.25C1304.74 526.234 1289.13 605.735 1289.13 631.265C1283.23 630.433 1280.57 633.539 1275.27 633.642ZM1297.16 569.546C1307.41 565.126 1317.52 565.354 1327.5 570.232C1317.52 576.823 1311.53 585.984 1309.53 597.711C1316.13 588.623 1325 582.95 1336.14 580.698C1326.54 595.724 1320.99 626.459 1298.42 622.928C1304.97 623.953 1301.82 629.304 1297.16 629.853V569.546ZM1312.96 532.477C1324.05 537.532 1330.59 545.933 1332.6 557.686C1319.11 555.253 1307.55 557.767 1297.16 566.744V524.393C1299.71 525.101 1311.07 531.293 1312.96 532.632L1312.96 532.477ZM1509.27 719.472C1506.48 718.24 1503.68 717.009 1500.89 715.777C1505.32 714.318 1517.54 719.081 1509.27 719.472C1510.24 719.429 1506.48 718.588 1509.27 719.472ZM1520.32 721.879C1518.14 721.574 1507.57 717.996 1511.23 713.722C1516.28 715.297 1517.25 717.974 1520.32 721.879C1519.77 721.175 1519.09 721.707 1520.32 721.879ZM1530.06 724.398C1525.64 723.119 1517.14 717.828 1518.86 712.233C1527.83 714.288 1519.17 715.108 1519.26 715.34C1527.26 713.679 1531.43 716.365 1530.06 724.398ZM1538.9 726.861C1534.77 725.904 1530.97 724.496 1534.72 718.747C1537.67 719.09 1540.62 719.03 1543.54 719.086C1543.51 720.338 1540.21 725.676 1540.14 725.359C1540.49 722.394 1539.57 725.488 1538.9 726.861C1539.09 726.474 1537.81 726.612 1538.9 726.861ZM1543.25 726.23C1542.53 727.062 1541.62 727.23 1540.53 727.14C1541.54 727.084 1542.39 726.796 1543.25 726.23ZM1544.74 721.252C1544.44 724.205 1544.3 725.775 1541.57 726.376C1541.86 726.17 1542 725.882 1541.96 725.518C1541.32 726.131 1540.55 726.526 1539.66 726.702C1541.33 724.84 1543.21 722.827 1544.74 721.252ZM1565.03 700.047C1564.39 700.438 1564.22 700.343 1564.53 699.743C1564.84 699.743 1565.01 699.846 1565.03 700.047ZM1568.81 695.885C1563.76 689.247 1568.91 709.148 1568.81 695.885C1568.53 695.512 1568.81 696.915 1568.81 695.885ZM1601.54 676.405C1602.11 678.344 1602.19 679.619 1601.8 680.49C1600.37 680.086 1600.28 678.726 1601.54 676.405C1601.55 677.739 1602.11 678.344 1601.54 676.405ZM474.481 493.362C463.722 494.199 479.02 466.84 480.372 464.909C481.663 471.298 479.392 488.938 474.481 493.362C475.755 492.212 473.207 493.461 474.481 493.362ZM376.277 387.138C383.045 374.265 393.277 363.126 406.554 356.66C403.462 375.844 402.041 395.522 400.71 414.882C394.849 404.816 384.518 395.14 376.277 387.138C384.769 395.381 382.315 375.651 376.277 387.138ZM384.008 469.329C359.601 446.047 352.561 439.392 336.299 406.55C324.953 383.641 313.607 360.732 302.261 337.819C311.681 335.493 326.78 340.565 335.038 343.483C328.948 350.533 323.817 358.218 319.649 366.542C338.8 353.931 359.787 338.815 384.302 344.041C365.717 361.762 368.853 379.801 369.967 400.736C375.919 386.906 383.758 458.404 384.008 469.329C383.974 467.831 376.675 462.331 384.008 469.329ZM387.412 496.902C388.362 499.712 389.312 502.527 390.267 505.342C375.863 496.001 369.63 473.86 362.279 459.009C375.223 470.719 378.972 482.965 387.412 496.902C386.643 495.632 388.518 499.772 387.412 496.902ZM198.926 472.835C207.879 428.313 227.311 452.247 255.688 468.471C267.073 474.98 320.008 498.61 315.494 508.371C319.403 506.222 322.863 506.299 325.877 508.599C315.46 512.392 311.827 518.995 305.517 527.032C301.647 521.317 296.486 517.215 290.037 514.717C297.427 521.497 303.142 533.172 301.492 543.226C267.716 509.787 254.176 466.029 198.926 472.835C207.452 471.788 200.749 463.768 198.926 472.835ZM562.15 475.636C561.364 468.78 562.15 461.301 562.15 454.392C577.906 458.053 560.055 469.419 565.493 470.865C630.461 488.161 539.155 514.288 565.726 476.945C564.608 476.327 563.416 475.894 562.15 475.636ZM478.316 280.202C484.216 282.06 495.428 318.751 519.602 313.992C536.659 310.632 533.847 291.143 546.606 305.719C564.215 325.83 553.486 373.416 553.417 396.505C553.361 415.788 559.174 445.931 548.601 462.326C547.62 463.849 494.539 504.406 495.078 505.162C496.4 507.007 515.629 464.103 515.767 455.573C515.974 442.593 501.186 409.605 502.602 403.954C496.474 428.373 489.965 443.099 470.658 460.872C469.298 440.289 460.569 410.171 446.895 397.874C463.977 413.162 424.768 484.188 416.423 497.073C416.259 475.662 416.164 457.383 429.925 439.048C422.751 442.061 417.404 447.047 413.892 454.015C409.279 422.276 411.694 388.026 418.147 356.321C442.882 366.345 452.078 386.838 468.529 405.421C461.238 384.688 469.959 365.332 446.536 352.798C464.426 352.086 472.917 357.973 488.811 364.268C479.007 348.139 463.139 332.988 443.616 330.074C457.213 322.441 479.646 326.367 492.966 331.829C480.415 318.09 467.207 309.611 448.333 307.925C455.481 296.151 466.78 287.389 478.316 280.202C464.918 288.552 479.59 280.601 478.316 280.202ZM2116.8 614.029C2118.85 616.449 2121.59 617.676 2125 617.706C2120.97 619.487 2118.23 618.26 2116.8 614.029C2116 619.826 2118.07 615.11 2116.8 614.029ZM1315.13 422.361C1310.8 422.361 1300.82 451.337 1298.8 456.212C1291.63 422.632 1300.46 423.88 1309.47 394.364C1304.65 406.318 1305.55 422.361 1315.13 422.361ZM166.032 663.442C165.323 657.345 166.057 656.495 168.23 660.902C172.635 667.471 171.901 668.321 166.032 663.442C170.688 667.098 166.14 661.824 166.032 663.442ZM148.168 606.048C150.522 602.25 153.882 600.109 158.244 599.629C156.56 601.156 147.33 616.981 152.34 619.422C156.426 613.274 161.138 607.627 166.468 602.495C165.021 623.756 160.935 642.846 162.507 660.584C144.453 645.652 142.043 665.33 131.358 661.31C130.187 644.361 129.017 627.412 127.846 610.463C133.889 615.247 139.214 620.714 143.831 626.858C149.139 623.37 139.888 607.618 137.158 605.61C143.045 605.323 147.235 607.906 149.723 613.364C149.204 610.926 148.686 608.485 148.168 606.048C149.714 608.996 150.513 602.212 148.168 606.048ZM154.957 593.098C151.105 607.155 145.615 608.326 138.493 596.608C143.564 593.51 149.053 592.343 154.957 593.098C149.96 592.18 151.726 595.625 154.957 593.098ZM157.134 581.088C169.288 585.516 138.307 587.709 133.405 589.743C135.111 580.165 151.144 582.088 157.134 581.088ZM96.8912 570.606C94.3257 563.277 89.6697 557.656 82.919 553.738C95.0989 550.13 116.008 572.009 106.717 553.927C114.038 560.883 116.31 571.511 116.604 581.191C111.572 575.012 105.003 571.481 96.8912 570.606C106.946 568.726 94.2306 563.89 96.8912 570.606ZM99.8714 581.079C99.1501 578.316 98.4244 575.557 97.7031 572.794C102.152 575.446 105.395 579.204 107.434 584.07C104.916 583.07 102.394 582.075 99.8714 581.079C103.404 582.174 99.4136 578.569 99.8714 581.079ZM84.3227 583.688C82.5864 578.861 80.8457 574.03 79.1094 569.198C86.8147 570.305 92.7448 574.021 96.9041 580.35C92.7103 581.466 88.5166 582.577 84.3227 583.688C88.3395 580.05 84.6294 579.054 84.3227 583.688ZM62.8004 567.465C74.868 578.93 74.1986 592.909 78.9281 607.472C80.5002 580.359 88.6503 586.13 109.334 593.244C99.2623 599.517 87.2855 597.028 83.0658 611.579C89.4926 607.592 96.4895 605.263 104.057 604.593C98.7743 613.372 95.1937 625.322 97.9623 635.483C100.506 626.09 105.508 618.487 112.963 612.673C111.403 619.268 111.844 625.786 114.284 632.226C117.342 626.438 120.668 620.8 124.261 615.32C125.211 630.085 126.162 644.85 127.099 659.615C103.417 650.861 101.361 690.633 80.3576 689.878C63.9148 689.29 35.6636 636.938 24.8572 660.125C32.8216 629.274 45.2692 594.355 62.8004 567.465C50.681 586.053 76.2199 580.213 62.8004 567.465ZM274.1 716.151C278.203 707.706 280.885 699.043 285.464 690.873C286.82 698.254 285.027 709.873 283.783 717.206C280.583 716.623 277.352 716.271 274.1 716.151C276.311 716.378 275.054 714.185 274.1 716.151ZM248.716 687.677C250.068 683.648 252.625 681.485 256.392 681.198C258.443 695.027 253.411 700.026 260.529 713.323C240.057 706.282 262.65 695.516 248.716 687.677C252.008 689.53 250.029 686.063 248.716 687.677ZM3180 375.793C3179.14 375.051 3173.38 372.15 3180 375.793ZM3180 424.923C3173.28 421.478 3166.27 418.77 3158.98 416.796L3180 414.26V424.923ZM3180 452.672C3164.95 448.45 3148.61 446.12 3133.42 451.398C3144.01 435.933 3163.09 434.414 3180 437.186V452.672ZM2844.34 697.486C2847.73 690.328 2842.62 693.877 2849.85 688.483C2850.49 693.92 2848.99 695.216 2844.34 697.486C2849.5 694.967 2845.21 695.645 2844.34 697.486ZM2810.99 679.807C2807.14 680.327 2803.27 680.786 2799.4 681.185C2792.65 681.622 2826.61 656.062 2825.89 656.71C2827.9 654.886 2815.75 653.938 2815.75 652.106C2815.75 631.029 2877.13 578.29 2878.27 586.125C2878 582.002 2879.7 579.535 2883.39 578.719C2875.15 578.617 2874.29 572.18 2880.8 559.411C2886.69 563.337 2891.8 568.095 2896.13 573.695C2893.44 565.173 2888.82 557.866 2882.26 551.777C2895.76 553.949 2908.03 559.063 2919.09 567.121C2912.11 557.368 2903.69 549.074 2893.82 542.239C2909.55 536.09 2927.16 537.399 2943.63 537.828C2931.71 534.816 2875.26 537.081 2912.19 526.157C2890.14 532.795 2886.72 530.057 2901.95 517.948C2908.21 513.567 2914.41 509.114 2920.56 504.587C2908.55 511.259 2899.27 508.23 2888.58 517.584C2892.65 509.281 2893.72 500.639 2891.8 491.654C2889.48 498.738 2885.06 504.089 2878.54 507.71C2881.34 494.07 2877.26 480.918 2871.78 468.591C2874.83 485.128 2875.94 504.274 2869.7 520.373C2865.34 505.702 2853.9 495.04 2839.14 491.088C2845.54 496.674 2849.56 503.574 2851.22 511.778C2839.59 506.964 2827.94 506.801 2816.26 511.285C2828.22 512.22 2840.12 515.503 2847.73 525.539C2839.46 522.381 2831.83 523.466 2824.84 528.796C2835.5 526.552 2844.41 529.478 2851.57 537.579C2841.26 535.97 2831.79 538.038 2823.15 543.784C2835 540.522 2846.67 541.042 2858.18 545.332C2829.8 560.625 2801.41 575.918 2773.03 591.206C2775.92 587.009 2781.38 586.465 2784.26 582.157C2782.17 585.289 2720.18 603.602 2714.14 602.242C2722.12 588.121 2738.52 581.599 2753.56 578.059C2734.7 574.605 2720.11 581.53 2706.56 593.888C2722.24 562.213 2737.93 530.538 2753.62 498.867C2765.69 474.495 2786.54 409.802 2805.46 476.765C2806.18 466.308 2802.99 457.169 2795.89 449.342C2807.11 450.861 2814.72 456.877 2818.73 467.385C2819.93 458.503 2816.81 451.449 2809.38 446.223C2822.62 447.325 2832.31 455.349 2839.99 465.399C2836.62 453.487 2831.77 442.618 2820.52 435.963C2829.12 433.024 2837.84 432.788 2846.69 435.26C2834.51 424.455 2818.1 420.877 2802.33 424.82C2814.69 410.399 2832.66 401.881 2850.25 395.604C2835.71 397.462 2821.03 400.899 2809.52 410.596C2809.48 402.954 2812.15 396.363 2817.53 390.824C2808.13 393.845 2800.53 399.333 2794.71 407.296C2798.95 387.842 2800.95 367.525 2800.65 347.624C2798.2 361.861 2794.63 375.819 2789.95 389.494C2785.83 415.35 2780.43 416.114 2773.76 391.789C2783.39 428.506 2754.99 379.839 2745.62 371.27C2754.88 384.894 2765.77 399.191 2768.51 415.921C2756.54 411.128 2744.11 408.369 2731.21 407.644C2742.76 413.415 2758.17 419.555 2765.76 430.797C2756.35 428.45 2746.91 428.394 2737.46 430.626C2745.04 431.321 2752.33 433.14 2759.32 436.079C2735.27 444.584 2752.03 442.211 2731.33 440.34C2719.72 439.289 2705.33 428.716 2692.67 426.691C2700.12 404.662 2735.5 397.445 2755.44 396.578C2733.85 383.332 2703.86 386.82 2684.12 402.061C2685.76 382.929 2692.97 359.17 2708.37 346.358C2685.69 355.605 2669.84 376.08 2658.99 397.11C2661.69 374.398 2659.45 347.246 2641.68 330.456C2643.37 351.331 2647.44 376.244 2640.81 396.689C2614.71 371.253 2567.89 378.089 2536.88 361.449C2558.45 352.189 2576.89 332.327 2602.56 337.592C2583.33 315.241 2562.51 332.065 2541.49 338.703C2549.19 322.943 2558.16 314.189 2572.22 304.595C2545.37 297.502 2538.28 324.131 2519.15 333.584C2520.05 304.23 2527.68 282.557 2546.88 261.296C2510.94 274.727 2517.62 299.287 2498.3 322.951C2497.26 306.178 2481.18 260.116 2455.35 268.436C2471.37 276.893 2485.5 312.057 2484.26 329.169C2471.97 319.536 2424.42 321.943 2420.38 341.831C2432.75 338.57 2448.97 340.149 2460.94 344.088C2440.11 347.958 2425.9 360.732 2416.84 377.544C2410.7 356.454 2407.3 326.929 2417.46 306.316C2398.31 325.62 2391.7 355.137 2389.88 381.29C2383.25 355.789 2369.97 325.672 2344.74 313.185C2355.22 335.965 2369.66 361.989 2371.7 387.537C2347.78 375.239 2279.27 387.091 2266.65 415.286C2267.42 397.835 2276.51 386.254 2285.98 372.708C2270.55 374.501 2267.14 395.561 2262.47 406.751C2253.09 409.39 2273.56 360.033 2280.84 355.699C2260.75 361.419 2249.88 379.822 2247.81 399.556C2231.14 391.51 2237.25 365.864 2212.96 359.981C2229.02 374.433 2235.28 396.35 2235.17 417.341C2219.92 397.655 2195.61 388.369 2171.32 386.258C2186.9 392.223 2227.32 406.369 2227.12 428.476C2217.35 418.787 2196.51 411.441 2183.14 418.066C2191.81 418.35 2209.79 422.357 2215.22 431.102C2199.12 425.519 2174.97 436.59 2170.37 453.406C2180.15 445.493 2204.11 430.544 2218.03 440.014C2202.2 441.85 2203.19 452.354 2192.38 460.039C2191.97 464.656 2191.56 469.273 2191.15 473.886C2183.11 473.74 2175.11 474.135 2167.12 475.083C2167.81 462.219 2182.15 449.763 2192.5 443.781C2178.75 445.764 2168.03 455.984 2162.56 468.179C2163.34 450.728 2172.43 439.147 2181.9 425.601C2172.72 426.665 2149.54 457.233 2150.18 457.641C2138.47 450.209 2160.43 398.406 2167.04 390.832C2145.68 396.917 2137.57 431.93 2135.63 450.428C2121.25 443.485 2117.3 430.583 2099.16 426.189C2111.86 437.62 2121.84 446.266 2128.71 462.712C2114.92 465.823 2083.04 440.525 2067.24 439.147C2089.04 447.493 2106.05 460.065 2116.29 480.97C2107.88 472.629 2091.13 464.978 2079.06 470.959C2089.46 471.303 2100.81 476.992 2106.38 485.973C2090.8 480.575 2065.44 489.114 2060.74 506.299C2070.24 495.323 2097.74 491.693 2110.38 498.056C2097.52 499.545 2086.39 520.767 2088.5 532.366C2091.42 521.617 2106.47 504.218 2118.24 501.416C2110.97 508.26 2099.52 529.413 2107.27 539.767C2107.22 526.564 2118.75 510.173 2129.3 502.763C2124.87 509.581 2123.06 530.851 2128.12 538.107C2128.28 527.551 2132.96 513.211 2141.85 506.591C2143.34 531.919 2150.57 552.189 2133.37 571.219C2131.51 573.279 2111.58 584.546 2114.05 579.47C2112.08 583.525 2115.63 605.971 2118.17 603.581C2115.89 602.529 2091.01 587.318 2092.27 594.385C2096.79 600.397 2096.17 604.383 2090.43 606.352C2077.6 610.665 2088.74 585.014 2089.24 585.915C2085.76 579.633 2079.73 579.595 2073.51 572.335C2066.9 564.611 2080.6 560.29 2063.68 556.321C2057.11 554.781 2049.04 551.473 2042.94 550.216C2022.73 546.049 2052.47 580.646 2052.59 580.779C2067.29 596.033 2013.49 588.249 2020.27 586.855C2010.12 588.944 1992.39 589.52 1984.31 600.74C1987.17 596.775 2008.77 613.96 2009.84 617.878C2013.68 632.02 1993.22 624.614 1992.41 627.403C1987.94 642.855 2012.45 637.903 2015.72 639.182C2014.12 638.555 1989.04 670.329 1995.25 669.067C1975.38 673.101 1978.63 663.142 1967.72 645.699C1961.27 635.384 1955 668.179 1959.22 662.919C1954.53 668.763 1951.72 685.132 1935.71 679.987C1908.7 671.307 1932.9 528.066 1934.67 499.047C1943.81 504.093 1948.18 517.888 1948.3 527.47C1952.82 520.304 1952.06 499.588 1947.15 492.916C1958.02 498.55 1969.06 513.555 1969.06 525.925C1975.87 515.284 1966.64 496.014 1958.11 489.487C1969.59 490.242 1984.85 505.153 1987.66 515.292C1989.36 505.248 1978.56 483.828 1965.88 484.729C1976.52 477.301 2004.79 472.127 2015.3 482.57C2010.22 464.382 1983.04 464.347 1969.95 471.822C1975.49 461.876 1986.2 453.427 1997.09 450.252C1983.81 446.987 1967.24 460.207 1960.01 468.891C1970.43 445.382 1987.24 428.484 2008.8 414.11C1991.62 420.521 1964.34 453.436 1947.66 453.547C1954.49 435.796 1965.02 424.164 1977.09 410.137C1960.14 418.585 1954.84 433.256 1940.79 443.022C1939.13 427.433 1931.36 393.699 1909.58 393.99C1917.98 400.731 1935.78 442.872 1926.68 453.148C1927.32 452.419 1904.45 429.201 1894.8 430.372C1904.51 441.713 1913.25 450.17 1914.04 466.321C1908.25 455.251 1897.02 448.686 1884.36 449.377C1894.24 452.908 1908.92 462.035 1909.58 473.817C1894.85 475.817 1871.65 474.958 1863.46 490.616C1866.06 489.367 1904.21 477.756 1903.08 486.75C1888.36 489.363 1873.48 489.148 1863.6 502.613C1874.18 497.013 1893.24 493.499 1904.86 494.812C1895.09 500.995 1883.69 515.773 1884.87 528.036C1892.55 518.914 1900.33 502.373 1913.65 499.815C1906.82 505.664 1897.46 525.826 1904.86 534.764C1906.38 522.068 1919.91 507.144 1929.19 499.137C1927.06 532.559 1925.07 565.989 1923.05 599.419C1922.17 613.904 1926.11 667.973 1918.96 675.868C1917.49 677.842 1915.74 679.563 1913.72 681.026C1906.48 684.759 1915.99 668.038 1915.6 670.05C1920.58 644.991 1883.33 682.463 1899.81 675.491C1904.08 673.68 1885.78 699.12 1880.53 682.545C1881.74 679.97 1883.2 677.546 1884.92 675.276C1884.76 670.818 1867.72 669.14 1864.74 669.299C1864.45 678.134 1854.4 687.428 1844.61 679.134C1837.53 673.135 1845.8 627.313 1846.4 618.062C1854.9 622.988 1858.38 630.089 1856.84 639.366C1866.87 637.418 1858.6 617.603 1855.95 614.968C1865.95 617.427 1874.69 629.828 1872.64 639.997C1883.01 632.505 1870.91 617.011 1864.36 613.501C1874.8 615.273 1885.78 622.765 1886.91 634.217C1891.79 620.795 1881.31 608.056 1867.67 607.382C1877.96 600.225 1895.65 608.936 1903.84 614.638C1900.26 602.474 1880.2 596.904 1869.71 601.066C1876.4 594.493 1884.55 590.82 1894.16 590.052C1884.27 586.143 1867.36 593.205 1860.66 599.753C1860.66 583.551 1892.43 571.146 1903.08 566.31C1884.51 569.657 1866.54 577.582 1854.55 592.515C1854.46 576.793 1859.91 561.865 1871.49 551.031C1854.49 556.617 1857.05 574.652 1845 581.067C1843.4 567.396 1834.02 555.751 1819.9 553.734C1826.61 556.54 1841.48 588.292 1833.91 586.954C1830.29 579.668 1826.79 565.658 1815.96 565.491C1823.18 574.085 1830.1 580.732 1830.73 592.986C1823.41 579.337 1798.34 580.989 1788.31 589.365C1797.07 583.963 1821.86 588.125 1822.7 601.173C1812.55 596.938 1798.16 592.304 1792.01 606.005C1792.18 605.893 1823.79 595.419 1822.32 606.623C1811.71 604.988 1799.12 604.349 1792.14 614.677C1799.43 610.824 1815.83 607.254 1823.6 612.433C1811.8 615.059 1806.7 622.49 1808.31 634.732C1811.68 624.061 1819.03 618.096 1830.35 616.835C1822.53 623.494 1820.28 631.548 1823.6 640.997C1823.83 639.452 1833.3 612.231 1842.19 617.745C1841.16 633.123 1840.18 648.501 1839.27 663.884C1825.27 656.894 1812.52 656.791 1814.36 672.976C1813.6 666.313 1780.57 681.004 1795.19 654.74C1793.85 654.963 1774.31 656.572 1772.5 655.594C1762.28 650.072 1784.08 642.683 1785.23 641.276C1787.86 638.079 1770.62 631.45 1772.13 635.281C1764.17 636.817 1760.05 633.428 1759.78 625.108C1760.16 621.774 1761.47 618.882 1763.71 616.436C1762.56 614.067 1726.69 607.056 1724.5 610.274C1717.31 620.783 1735.4 620.478 1724.92 632.715C1727.38 629.836 1705.62 643.979 1706.66 643.558C1699.66 646.369 1673.52 625.228 1685.01 650.411C1689.19 659.58 1705.51 645.661 1706.02 660.104C1706.57 675.774 1671.24 654.83 1670.74 654.878C1653.97 656.345 1663.66 669.741 1650.76 671.135C1626.35 673.77 1633.71 639.422 1601.42 656.564C1601.04 608.828 1594.92 556.133 1601.19 508.869C1603.89 488.522 1614.72 480.099 1598.44 461.198C1619.12 465.201 1630.52 492.886 1630.84 468.076C1644.05 471.878 1671.19 472.182 1679.53 464.334C1665.26 459.61 1652.05 450.466 1638.87 444.562C1620.01 436.118 1612.58 438.165 1594.41 434.916C1595.87 427.755 1622.5 410.038 1623.27 416.157C1624.36 424.884 1629.03 424.769 1630.7 432.552C1649.86 431.402 1670.83 450.552 1686.96 456.89C1697.95 446.995 1728.25 457.177 1730.97 466.939C1732.44 472.187 1747.01 461.447 1748.53 462.704C1727.41 445.193 1758.11 450.08 1762.39 441.55C1773.28 419.851 1717.35 415.947 1717.41 415.166C1717.73 410.377 1744.55 416.964 1731.54 401.873C1728.38 398.208 1709.23 400.534 1702.68 399.925C1683.67 398.157 1669.37 396.029 1654.05 384.418C1668.35 381.187 1740.73 399.152 1738.97 378.599C1738.41 371.966 1689.98 348.812 1683.51 344.744C1671.32 337.094 1646.78 316.803 1623.66 310.366C1610.12 306.595 1552.51 307.723 1547.9 320.415C1534.34 326.388 1507.04 314.752 1497.48 322.531C1468.24 346.293 1528.98 352.653 1529.32 351.623C1528.37 354.476 1484.2 360.217 1475.15 362.534C1463.49 365.512 1468.18 371.592 1459.99 373.643C1457.41 374.287 1435.08 368.366 1436.44 366.435C1432.09 372.618 1430.15 403.937 1433.26 409.279C1440.96 422.555 1443.95 416.401 1460.35 419.13C1491.11 424.249 1515.05 423.975 1545.52 431.467C1520.93 448.222 1556.46 440.529 1564.47 443.794C1556.13 440.396 1564.62 463.077 1565.57 464.6C1572.62 475.872 1573.06 464.124 1582.31 463.862C1582.8 471.466 1578.81 525.496 1581.52 526.642C1573.1 523.08 1540.52 495.22 1543.85 487.621C1544.14 487.685 1572.86 482.18 1572.86 485.072C1572.86 470.324 1531.56 457.104 1523.3 456.718C1518.34 456.491 1489.95 458.658 1487.33 460.996C1465.23 480.721 1485.15 472.534 1493.35 477.155C1517.56 490.809 1547.25 495.662 1568.44 523.805C1582.94 543.063 1596.9 661.151 1562.05 651.342C1560.83 650.999 1564.12 646.982 1564.09 647.004C1563.14 647.579 1523.66 642.361 1516.76 641.28C1516.99 641.318 1522.07 643.842 1521.38 644.417C1513.88 650.733 1518.08 650.299 1516.6 653.131C1515.48 651.771 1514.63 650.591 1513.12 648.66C1493.82 648.184 1494.79 658.1 1488.02 663.034C1466.8 678.486 1471.38 664.476 1474.9 685.162C1469.59 683.373 1463.8 699.828 1457.62 700.064C1433.89 700.974 1455.97 687.11 1452.67 680.854C1451.45 678.559 1453.27 670.05 1452.48 667.008C1451.15 661.936 1442 666.004 1440.05 661.992C1432.2 645.807 1428.15 649.462 1429.86 622.842C1444.83 651.629 1434.3 625.228 1438.13 620.203C1443.62 624.026 1447.28 629.278 1449.11 635.951C1450.55 627.815 1449.06 620.409 1444.65 613.733C1450.1 613.72 1455.21 614.986 1460 617.526C1456.69 606.4 1448.28 609.781 1440.79 605.76C1446.55 601.169 1453.12 598.783 1460.5 598.595C1454.48 591.605 1448.32 596.973 1442.17 598.929C1444.07 594.394 1447.15 590.978 1451.4 588.687C1444.6 589.077 1439.28 591.978 1435.47 597.393C1435.74 588.331 1438 582.092 1443.79 575.69C1430.72 580.577 1435.75 586.186 1429.2 594.209C1428.94 584.868 1424.65 579.41 1416.31 577.836C1421.33 582.925 1424.22 589 1424.99 596.063C1421.39 593.253 1399.16 595.78 1397.82 596.831C1398.68 588.837 1401.95 581.959 1407.63 576.205C1398.93 573.407 1393.3 590.524 1393.05 594.72C1384.14 583.791 1378.91 569.344 1364.68 562.328C1376.32 555.42 1390.49 555.699 1403.32 558.287C1393.35 549.443 1375.7 544.371 1363.16 550.82C1364.1 539.038 1371.25 525.728 1376.05 515.275C1364.31 521.089 1357.53 536.077 1354.47 547.83C1353.63 535.678 1350.26 521.029 1341.29 511.988C1345.95 521.454 1344.41 536.36 1341.59 546.04C1338.41 540.153 1310.34 524.664 1309.65 525.239C1312.77 522.643 1313.3 521.776 1316.79 518.356C1307.67 521.583 1312.59 516.344 1309.14 511.727C1297.01 499.742 1299.13 477.803 1313.98 465.321C1319.94 460.31 1354 453.032 1354.64 453.504C1358.29 456.246 1368.71 465.107 1373.09 464.236C1380.88 462.695 1369.29 453.53 1368.65 456.122C1369.44 452.989 1376.96 454.212 1375.6 450.99C1373.76 446.613 1369.81 446.442 1365.83 443.743C1366.34 442.009 1367.07 440.374 1368.01 438.838C1374.43 428.549 1380.4 446.819 1366.82 423.589C1370.04 429.098 1373.11 401.559 1376.31 401.77C1376.93 401.813 1393.16 409.755 1393.16 402.671C1393.16 431.848 1414.37 388.674 1388.47 387.863C1388.66 386.138 1397.72 368.087 1395.88 367.383C1401.56 369.563 1424.2 364.049 1416.36 360.904C1430.91 366.718 1435.05 361.496 1420.21 348.688C1405.94 336.369 1391.64 341.621 1402.96 356.051C1384.37 340.132 1380.23 330.568 1355.33 322.981C1344.19 319.587 1311.96 303.085 1308.8 327.937C1296.01 307.105 1269.72 329.546 1256.36 331.79C1249.87 332.876 1237.31 329.572 1227.37 331.117C1228.18 330.992 1185.42 342.732 1193.86 334.301C1187.64 340.492 1186.18 345.148 1183.98 352.871C1201.89 350.55 1188.64 360.097 1180.05 366.709C1199.95 365.984 1197.86 375.012 1211.23 379.56C1215.68 376.089 1227.51 371.704 1220.8 385.821C1231.58 381.212 1237.55 384.855 1247.36 388.129C1257.07 391.373 1243.4 398.457 1243.24 398.178C1235.6 385.529 1224.84 386.713 1216.38 395.973C1202.53 411.149 1222.45 423.799 1222.45 415.149C1222.45 425.301 1212.55 428.72 1211.35 436.405C1210.64 440.945 1209.36 446.06 1208.86 450.462C1208.05 457.744 1217.85 461.708 1217.85 458.761C1217.85 462.318 1213.3 465.45 1214.63 469.466C1212.79 463.957 1236.81 465.566 1241.71 469.338C1246.01 472.654 1243.69 485.325 1246.32 491.169C1242.04 489.848 1223.73 495.207 1224.61 504.788C1226.86 529.225 1245.27 504.509 1234.9 544.35C1234.06 532.198 1230.69 517.545 1221.72 508.509C1226.38 517.97 1224.84 532.881 1222.02 542.556C1218.01 535.043 1209.14 528.083 1200.94 526.564C1207.32 524.548 1213.78 524.187 1220.33 525.487C1218.44 516.193 1195.08 515.288 1189.79 519.433C1189.25 511.894 1196.62 494.087 1203.61 490.401C1191.36 486.458 1183.44 510.564 1183.08 516.464C1173.56 504.81 1177.82 493.701 1159.86 486.99C1169.07 497.181 1172.68 507.505 1173.11 521.544C1163.74 516.914 1161.42 504.076 1147.74 507.689C1154.51 511.328 1159.41 516.76 1162.44 523.994C1137.79 516.202 1115.27 516.331 1091.62 496.653C1112.84 492.263 1132.67 477.717 1155.02 487.265C1141.88 463.674 1120.09 474.954 1099.97 477.07C1109.78 464.322 1119.46 458.108 1133.86 452.067C1110.87 440.683 1099.63 463.425 1080.85 468.381C1087.07 442.202 1097.9 424.086 1119.09 408.532C1082.68 414.265 1086.31 436.869 1064.07 455.002C1069.01 420.203 1042.89 412.051 1036.98 389.313C1034.14 378.402 1034.28 349.46 1038.54 339.025C1041.87 330.851 1050.05 316.288 1061.87 317.296C1080.66 318.897 1072.75 332.979 1081.72 339.6C1088.27 344.431 1112.13 359.848 1117.26 361.183C1124.65 363.101 1131.93 377.87 1131.37 356.218C1130.95 340.085 1110.8 311.19 1099.92 305.153C1101.15 305.835 1119.88 281.116 1137.06 306.299C1143.95 316.391 1170.46 345.658 1172.46 310.212C1173.12 298.669 1146.93 266.574 1141.01 254.092C1134.9 241.215 1127.87 243.545 1129.18 228.368C1129.75 221.752 1141.61 216.74 1143.33 208.369C1144.32 203.507 1139.45 187.563 1138.76 184.864C1132.7 161.2 1132.35 168.507 1117.6 149.683C1101.96 129.718 1075.94 122.282 1043.61 117.081C1029.51 114.811 1036.35 106.792 1013.17 116.575C997.172 123.324 988.745 132.833 975.939 141.99C963.129 130.627 991.937 127.457 993.142 125.054C1003.72 103.994 953.605 103.115 951.083 102.132C981.023 97.3134 960.446 88.6159 940.893 85.5908C921.604 82.6087 907.126 83.3939 891.081 71.2337C910.828 66.7884 938.929 82.244 958.08 74.7264C986.72 63.4802 962.856 65.8659 951.454 56.4732C926.731 36.1089 914.21 30.4107 885.704 13.3718C850.49 -7.67907 823.12 0.383395 789.953 8.82347C789.033 9.05947 776.236 14.2257 773.018 14.8006C764.82 16.2767 755.068 6.77246 746.831 11.2564C709.618 31.5005 772.975 42.1547 773.58 40.3397C772.686 43.0257 731.08 48.4365 722.549 50.6162C711.458 53.4525 716.148 59.391 708.266 61.0816C705.89 61.5922 684.757 56.1771 686.079 54.2935C678.378 65.2651 685.776 77.2023 676.745 84.4752C677.807 83.6214 666.396 83.7844 664.742 84.4066C659.563 86.3503 622.669 90.6669 625.978 87.3629C620.985 92.3532 618.545 97.3348 617.443 103.398C616.757 103.522 628.643 100.733 626.414 102.969C625.447 103.741 625.416 104.415 626.319 104.99C620.579 103.226 616.208 113.477 614.053 115.348C630.107 114.657 630.906 121.81 640.969 126.444C646.386 123.269 652.363 119.896 649.232 131.846C672.024 122.569 668.24 141.917 668.599 142.513C661.261 130.216 652.994 134.026 644.887 140.702C631.895 151.399 650.657 167.22 650.657 157.166C650.657 168.001 639.004 177.093 637.268 189.571C629.869 167.627 619.914 172.497 599.782 163.422C592.971 160.35 567.419 143.86 562.085 143.273C535.359 140.333 512.368 173.733 498.309 191.596C485.542 207.82 454.107 245.244 483.413 255.671C484.929 256.212 523.77 237.916 525.753 251.895C524.699 244.472 436.166 290.976 437.401 289.775C430.698 269.119 434.814 243.948 436.525 222.859C418.57 239.821 416.302 267.256 419.032 290.199C408.07 268.955 392.055 248.265 369.146 238.924C384.704 251.869 391.986 275.872 393.649 295.202C373.742 279.824 343.435 276.263 321.589 289.659C341.495 290.526 377.409 297.601 385.015 320.081C373.241 321.964 356.707 332.88 345.948 333.872C330.827 335.27 337.556 336.592 317.676 329.572C324.737 326.599 332.101 324.758 339.759 324.058C330.209 321.801 320.677 321.861 311.167 324.234C318.833 312.876 334.403 306.672 346.078 300.841C333.047 301.574 320.483 304.363 308.385 309.203C311.162 292.302 322.159 277.855 331.514 264.094C320.254 274.383 307.271 287.084 301.548 301.63C299.488 278.254 298.723 285.488 294.266 302.694C286.107 282.665 279.525 261.541 275.918 240.203C275.616 260.309 277.637 280.837 281.922 300.493C276.044 292.448 268.355 286.9 258.866 283.853C264.3 289.444 266.995 296.104 266.956 303.823C255.333 294.027 240.497 290.556 225.812 288.68C243.585 295.018 261.73 303.625 274.221 318.197C258.292 314.207 241.707 317.824 229.41 328.74C238.342 326.242 247.153 326.483 255.843 329.452C244.479 336.171 239.573 347.16 236.178 359.192C243.935 349.035 253.722 340.934 267.094 339.814C259.588 345.096 256.439 352.223 257.648 361.2C261.7 350.58 269.392 344.504 280.725 342.968C273.556 350.872 270.334 360.11 271.064 370.674C289.761 304.484 311.037 367.971 323.433 392.999C339.284 425 355.131 457.001 370.978 489.002C357.29 476.516 342.545 469.522 323.493 473.006C338.688 476.585 355.256 483.175 363.32 497.438C356.465 498.67 294.568 480.275 292.478 477.151C295.389 481.502 300.9 482.051 303.824 486.291C275.15 470.844 246.475 455.397 217.796 439.945C229.423 435.607 241.219 435.084 253.187 438.379C244.458 432.578 234.891 430.488 224.478 432.114C231.703 423.932 240.705 420.971 251.477 423.241C244.419 417.856 236.714 416.758 228.356 419.95C236.044 409.806 248.069 406.49 260.149 405.55C248.349 401.019 236.58 401.182 224.832 406.048C226.503 397.758 230.572 390.785 237.033 385.138C222.124 389.137 210.566 399.912 206.16 414.732C199.85 398.466 200.977 379.123 204.052 362.418C198.515 374.87 194.395 388.159 197.22 401.933C190.642 398.277 186.176 392.871 183.835 385.713C181.896 394.793 182.975 403.525 187.078 411.909C176.285 402.461 166.904 405.52 154.776 398.779C160.987 403.353 167.254 407.854 173.577 412.278C188.962 424.515 185.511 427.279 163.233 420.572C200.533 431.621 143.516 429.317 131.47 432.363C148.103 431.93 165.898 430.608 181.792 436.822C171.819 443.725 163.311 452.105 156.266 461.957C167.427 453.818 179.831 448.651 193.471 446.459C186.841 452.612 182.172 459.992 179.455 468.599C183.831 462.944 188.992 458.134 194.944 454.169C201.522 467.072 200.649 473.573 192.326 473.676C196.049 474.499 197.773 476.997 197.501 481.159C198.654 473.221 260.659 526.543 260.659 547.817C260.659 549.666 248.388 550.627 250.418 552.468C250.189 552.262 285.213 577.715 277.18 577.196C276.48 577.153 192.883 544.324 199.258 557.493C208.117 575.789 237.573 592.858 245.413 599.689C251.77 605.228 272.083 592.48 248.181 616.479C234.213 630.506 206.044 628.442 194.378 652.372C218.219 656.71 244.177 634.41 263.099 638.186C252.893 636.157 220.638 695.765 203.159 696.662C171.089 698.309 206.471 675.126 198.654 659.422C194.278 650.63 181.939 657.658 177.805 651.093C167.828 635.256 168.165 629.141 169.634 606.258C187.48 639.001 175.145 608.494 179.628 602.208C186.288 606.292 190.707 612.257 192.879 620.096C194.702 610.373 192.909 601.581 187.502 593.72C193.955 593.124 200.135 594.119 206.048 596.707C202.014 583.499 191.717 588.481 182.828 584.486C189.631 578.419 197.57 574.853 206.644 573.789C199.258 565.83 191.389 573.326 184.504 576.085C186.811 570.4 190.521 565.959 195.639 562.762C187.329 564.015 180.915 568.07 176.397 574.931C176.743 563.766 179.624 556.012 186.452 547.856C171.055 554.927 176.678 561.483 168.835 571.725C168.562 567.323 162.49 549.525 153.273 553.288C159.402 559.05 162.892 566.092 163.743 574.416C158.892 571.013 135.336 574.313 130.926 578.145C130.429 571.378 136.869 555.845 142.782 552.215C132.222 549.718 125.484 570.867 125.164 576.094C114.466 563.869 108.168 546.933 90.905 539.9C104.592 530.589 121.54 529.156 137.573 531.018C124.857 520.819 103.461 517.519 89.0694 526.152C90.2183 511.516 98.8477 494.962 104.635 481.884C90.5334 490.075 82.3486 508.599 78.5737 523.445C77.5803 509.298 73.6586 491.68 62.6449 481.519C68.4412 492.774 66.2858 511.087 63.0076 522.608C55.2246 508.882 38.8381 502.055 23.5441 507.243C34.9206 511.156 53.13 523.14 52.1453 537.613C31.8238 535.691 17.6009 543.179 4 557.621C16.1885 553.043 33.1324 545.727 45.9861 553.296C33.0201 560.9 28.4463 575.047 24.274 588.352C32.7438 578.003 42.6647 567.941 56.4254 565.049C48.9965 577.303 -1 665 -1 665C-1 686.253 0 1993 0 1993L3180 1994L3181 710C3152.46 720.156 3210.95 710 3181 710C3181 737.556 3200.72 702.98 3181 710L3180 471.719C3161.55 480.18 3143.38 478.61 3130.06 492.813C3123.81 499.476 3131.6 508.448 3124.2 516.335C3115.88 525.183 3092.15 522.63 3087.79 530.473C3091.21 524.32 3119.74 592.952 3099.75 587.893C3100.33 588.039 3059.98 566.057 3065.44 569.979C3065.31 569.885 3050.21 561.852 3049.68 561.53C3047.37 560.123 3047.37 538.072 3038.32 541.638C3027.73 545.809 3031.35 554.163 3016.73 553.107C3015.1 552.992 3013.79 534.726 3008.71 534.73C3000.29 534.73 2986.32 555.171 2980.15 560.209C2980.4 534.515 2981.12 508.007 2986.26 482.734C3006.58 490.968 3013.6 507.277 3027.12 522.548C3021.23 505.78 3028.5 490.165 3009.28 479.884C3025.11 479.249 3029.57 483.639 3043.57 489.178C3035.91 476.576 3022.15 463.725 3006.92 461.447C3017.95 455.259 3036.14 458.447 3046.94 462.871C3036.74 451.715 3026.04 444.858 3010.74 443.494C3025.23 427.502 3046.36 421.589 3067.09 418.663C3046.68 411.699 3018.13 412.934 3001.88 428.768C2996.68 412.75 2999.85 390.695 3001.17 374.51C2986.61 388.262 2984.77 410.514 2986.98 429.119C2978.09 411.887 2965.1 395.115 2946.53 387.533C2959.15 398.028 2965.05 417.496 2966.4 433.179C2950.04 420.538 2926.04 417.594 2907.96 428.682C2924.46 429.394 2953.13 434.831 2959.4 453.35C2934.44 457.34 2918.03 469.054 2906.39 491.023C2921.44 481.12 2939.42 468.642 2958.82 472.779C2945.74 485.239 2946.32 502.39 2947.2 518.759C2953.51 504.05 2961.75 490.375 2976.86 483.008C2973.52 503.767 2978.46 555.884 2966.05 569.099C2956.96 578.784 2936.09 574.24 2925.46 585.967C2919.59 592.437 2920.8 617.088 2908.56 617.972C2911.33 623.838 2957.26 622.349 2939.7 648.656C2931.84 660.426 2901.85 645.107 2893.12 648.969C2891.4 649.733 2878.98 673.933 2876.19 676.684C2878.82 674.092 2862.28 674.092 2866.51 674.358C2869.18 672.212 2874.89 665.064 2876.53 661.683C2879.85 654.818 2819.69 669.578 2810.99 679.807C2814.48 675.71 2810.18 679.996 2810.99 679.807ZM2483.92 485.634C2481.82 479.108 2459.81 443.163 2460.78 438.491C2462.49 430.278 2482.36 415.282 2490.76 421.915C2493.59 424.155 2488.56 453.976 2488.27 458.147C2485.9 492.65 2483.53 527.157 2481.16 561.659C2465.64 524.385 2450.11 484.282 2428.23 450.05C2452.12 453.032 2468.82 468.484 2483.92 485.634C2470.79 470.723 2478.42 468.591 2483.92 485.634Z" fill="#458995"/>
</svg>
