<svg viewBox="0 0 325 451" version="1.1" xmlns="http://www.w3.org/2000/svg" xmlns:xlink="http://www.w3.org/1999/xlink" id="el_X54focAIm"><style>@-webkit-keyframes el_RaBZ-aX1Fn_iz-5IASB5_Animation{0%{-webkit-transform: translate(0px, 0px);transform: translate(0px, 0px);}32.22%{-webkit-transform: translate(0px, 20px);transform: translate(0px, 20px);}84.44%{-webkit-transform: translate(0px, 0px);transform: translate(0px, 0px);}100%{-webkit-transform: translate(0px, 0px);transform: translate(0px, 0px);}}@keyframes el_RaBZ-aX1Fn_iz-5IASB5_Animation{0%{-webkit-transform: translate(0px, 0px);transform: translate(0px, 0px);}32.22%{-webkit-transform: translate(0px, 20px);transform: translate(0px, 20px);}84.44%{-webkit-transform: translate(0px, 0px);transform: translate(0px, 0px);}100%{-webkit-transform: translate(0px, 0px);transform: translate(0px, 0px);}}@-webkit-keyframes el_uksBF5St0n_e5-7n3Zsv_Animation{0%{-webkit-transform: translate(0px, 0px);transform: translate(0px, 0px);}32.22%{-webkit-transform: translate(-3px, 0px);transform: translate(-3px, 0px);}84.44%{-webkit-transform: translate(0px, 0px);transform: translate(0px, 0px);}100%{-webkit-transform: translate(0px, 0px);transform: translate(0px, 0px);}}@keyframes el_uksBF5St0n_e5-7n3Zsv_Animation{0%{-webkit-transform: translate(0px, 0px);transform: translate(0px, 0px);}32.22%{-webkit-transform: translate(-3px, 0px);transform: translate(-3px, 0px);}84.44%{-webkit-transform: translate(0px, 0px);transform: translate(0px, 0px);}100%{-webkit-transform: translate(0px, 0px);transform: translate(0px, 0px);}}@-webkit-keyframes el_aV7KHZvpkq_IoU1iI9Ec_Animation{0%{-webkit-transform: translate(0px, 0px);transform: translate(0px, 0px);}32.22%{-webkit-transform: translate(18px, 0px);transform: translate(18px, 0px);}84.44%{-webkit-transform: translate(0px, 0px);transform: translate(0px, 0px);}100%{-webkit-transform: translate(0px, 0px);transform: translate(0px, 0px);}}@keyframes el_aV7KHZvpkq_IoU1iI9Ec_Animation{0%{-webkit-transform: translate(0px, 0px);transform: translate(0px, 0px);}32.22%{-webkit-transform: translate(18px, 0px);transform: translate(18px, 0px);}84.44%{-webkit-transform: translate(0px, 0px);transform: translate(0px, 0px);}100%{-webkit-transform: translate(0px, 0px);transform: translate(0px, 0px);}}@-webkit-keyframes el_uksBF5St0n_n7vFo8qL5_Animation{0%{-webkit-transform: scale(1, 1);transform: scale(1, 1);}32.22%{-webkit-transform: scale(1.2, 1.2);transform: scale(1.2, 1.2);}84.44%{-webkit-transform: scale(1, 1);transform: scale(1, 1);}100%{-webkit-transform: scale(1, 1);transform: scale(1, 1);}}@keyframes el_uksBF5St0n_n7vFo8qL5_Animation{0%{-webkit-transform: scale(1, 1);transform: scale(1, 1);}32.22%{-webkit-transform: scale(1.2, 1.2);transform: scale(1.2, 1.2);}84.44%{-webkit-transform: scale(1, 1);transform: scale(1, 1);}100%{-webkit-transform: scale(1, 1);transform: scale(1, 1);}}@-webkit-keyframes el_aV7KHZvpkq__o9UOguHX_Animation{0%{-webkit-transform: scale(1, 1);transform: scale(1, 1);}32.22%{-webkit-transform: scale(1.2, 1.2);transform: scale(1.2, 1.2);}84.44%{-webkit-transform: scale(1, 1);transform: scale(1, 1);}100%{-webkit-transform: scale(1, 1);transform: scale(1, 1);}}@keyframes el_aV7KHZvpkq__o9UOguHX_Animation{0%{-webkit-transform: scale(1, 1);transform: scale(1, 1);}32.22%{-webkit-transform: scale(1.2, 1.2);transform: scale(1.2, 1.2);}84.44%{-webkit-transform: scale(1, 1);transform: scale(1, 1);}100%{-webkit-transform: scale(1, 1);transform: scale(1, 1);}}#el_X54focAIm *{-webkit-animation-duration: 3s;animation-duration: 3s;-webkit-animation-iteration-count: infinite;animation-iteration-count: infinite;-webkit-animation-play-state: running;animation-play-state: running;-webkit-animation-timing-function: cubic-bezier(0, 0, 1, 1);animation-timing-function: cubic-bezier(0, 0, 1, 1);}#el_5iTeEKcBOA{stroke: none;stroke-width: 1;fill: none;}#el_DDCKTHV6VW{fill: #FFFFFF;}#el_X6vsUkMLf5{-webkit-transform: translate(42px, 35px);transform: translate(42px, 35px);}#el_eey-L0cW0c{fill: #EF9DA5;}#el_IbOb2W2erW{fill: #E97984;}#el_4a1QuEJpup{fill: #9C9F9D;}#el_o0eu_-KLiP{fill: #E45665;}#el_aV7KHZvpkq{fill: #069CC7;}#el_RaBZ-aX1Fn{fill: #DE2C3E;}#el_uksBF5St0n{fill: #005085;}#el_aV7KHZvpkq__o9UOguHX{-webkit-transform-origin: 50% 50%;transform-origin: 50% 50%;transform-box: fill-box;-webkit-transform: scale(1, 1);transform: scale(1, 1);-webkit-animation-timing-function: cubic-bezier(0.42, 0, 0.58, 1);animation-timing-function: cubic-bezier(0.42, 0, 0.58, 1);}#el_X54focAIm:hover #el_aV7KHZvpkq__o9UOguHX{-webkit-animation-name: el_aV7KHZvpkq__o9UOguHX_Animation;animation-name: el_aV7KHZvpkq__o9UOguHX_Animation;}#el_uksBF5St0n_n7vFo8qL5{-webkit-transform-origin: 50% 50%;transform-origin: 50% 50%;transform-box: fill-box;-webkit-transform: scale(1, 1);transform: scale(1, 1);-webkit-animation-timing-function: cubic-bezier(0.42, 0, 0.58, 1);animation-timing-function: cubic-bezier(0.42, 0, 0.58, 1);}#el_X54focAIm:hover #el_uksBF5St0n_n7vFo8qL5{-webkit-animation-name: el_uksBF5St0n_n7vFo8qL5_Animation;animation-name: el_uksBF5St0n_n7vFo8qL5_Animation;}#el_aV7KHZvpkq_IoU1iI9Ec{-webkit-transform-origin: 50% 50%;transform-origin: 50% 50%;transform-box: fill-box;-webkit-transform: translate(0px, 0px);transform: translate(0px, 0px);-webkit-animation-timing-function: cubic-bezier(0.42, 0, 0.58, 1);animation-timing-function: cubic-bezier(0.42, 0, 0.58, 1);}#el_X54focAIm:hover #el_aV7KHZvpkq_IoU1iI9Ec{-webkit-animation-name: el_aV7KHZvpkq_IoU1iI9Ec_Animation;animation-name: el_aV7KHZvpkq_IoU1iI9Ec_Animation;}#el_uksBF5St0n_e5-7n3Zsv{-webkit-transform-origin: 50% 50%;transform-origin: 50% 50%;transform-box: fill-box;-webkit-transform: translate(0px, 0px);transform: translate(0px, 0px);-webkit-animation-timing-function: cubic-bezier(0.42, 0, 0.58, 1);animation-timing-function: cubic-bezier(0.42, 0, 0.58, 1);}#el_X54focAIm:hover #el_uksBF5St0n_e5-7n3Zsv{-webkit-animation-name: el_uksBF5St0n_e5-7n3Zsv_Animation;animation-name: el_uksBF5St0n_e5-7n3Zsv_Animation;}#el_RaBZ-aX1Fn_iz-5IASB5{-webkit-transform-origin: 50% 50%;transform-origin: 50% 50%;transform-box: fill-box;-webkit-transform: translate(0px, 0px);transform: translate(0px, 0px);-webkit-animation-timing-function: cubic-bezier(0.42, 0, 0.58, 1);animation-timing-function: cubic-bezier(0.42, 0, 0.58, 1);}#el_X54focAIm:hover #el_RaBZ-aX1Fn_iz-5IASB5{-webkit-animation-name: el_RaBZ-aX1Fn_iz-5IASB5_Animation;animation-name: el_RaBZ-aX1Fn_iz-5IASB5_Animation;}</style>
    <!-- Generator: Sketch 51.2 (57519) - http://www.bohemiancoding.com/sketch -->
    <title>Artboard 4</title>
    <desc>Created with Sketch.</desc>
    <defs/>
    <g id="el_5iTeEKcBOA" fill-rule="evenodd">
        <rect x="0" y="0" width="325" height="451" id="el_DDCKTHV6VW"/>
        <g id="el_X6vsUkMLf5" fill-rule="nonzero">
            <path d="M117.356517,357.92088 C117.980905,357.877402 118.947797,357.877857 119.505172,357.92088 C120.062542,357.964964 119.551667,358.000549 118.369929,357.999994 C117.188166,357.999994 116.732134,357.963383 117.356517,357.91987 L117.356517,357.92088 Z M123.587611,357.92088 C124.211994,357.877402 125.178886,357.877857 125.736261,357.92088 C126.293631,357.964964 125.782755,358.000549 124.601018,357.999994 C123.41926,357.999994 122.963223,357.963383 123.587611,357.91987 L123.587611,357.92088 Z M112.839656,357.712863 C113.10693,357.661508 113.493684,357.663478 113.699115,357.717408 C113.904546,357.771147 113.685874,357.81316 113.213165,357.810777 C112.740461,357.808252 112.572383,357.764421 112.839656,357.71307 L112.839656,357.712863 Z M129.384273,357.712863 C129.651541,357.661508 130.038301,357.663478 130.243732,357.717408 C130.449162,357.771147 130.230491,357.81316 129.757782,357.810777 C129.285077,357.808252 129.116999,357.764421 129.384273,357.71307 L129.384273,357.712863 Z M110.155423,357.501241 C110.364482,357.446816 110.654548,357.450381 110.800021,357.509169 C110.945489,357.567973 110.774449,357.612501 110.419917,357.608143 C110.06539,357.604103 109.946364,357.555652 110.155423,357.501206 L110.155423,357.501241 Z M132.286536,357.501241 C132.49559,357.446816 132.785661,357.450381 132.931128,357.509169 C133.076601,357.567973 132.905556,357.612501 132.551024,357.608143 C132.196498,357.604103 132.077476,357.555652 132.286536,357.501206 L132.286536,357.501241 Z M108.110118,357.293139 C108.257834,357.233588 108.499561,357.233588 108.647278,357.293139 C108.794999,357.352695 108.674164,357.401429 108.378695,357.401429 C108.083257,357.401429 107.962396,357.3527 108.110118,357.293139 Z M134.323664,357.293139 C134.471386,357.233588 134.713107,357.233588 134.860829,357.293139 C135.008546,357.352695 134.887664,357.401429 134.592246,357.401429 C134.296803,357.401429 134.175942,357.3527 134.323664,357.293139 Z M106.404622,357.073982 C106.559728,357.011962 106.745049,357.019582 106.816449,357.090949 C106.887849,357.162291 106.760943,357.213046 106.534439,357.203729 C106.284131,357.193428 106.233219,357.142542 106.404622,357.074013 L106.404622,357.073982 Z M136.042587,357.078527 C136.190304,357.018971 136.43203,357.018971 136.579747,357.078527 C136.727469,357.138083 136.606633,357.186818 136.311164,357.186818 C136.015726,357.186818 135.894865,357.138088 136.042587,357.078527 Z M104.672272,356.863835 C104.819993,356.804279 105.061715,356.804279 105.209437,356.863835 C105.357158,356.923391 105.236272,356.972125 104.940854,356.972125 C104.645416,356.972125 104.524555,356.923396 104.672272,356.863835 Z M137.761505,356.863835 C137.909227,356.804279 138.150948,356.804279 138.29867,356.863835 C138.446386,356.923391 138.325505,356.972125 138.030087,356.972125 C137.734649,356.972125 137.613788,356.923396 137.761505,356.863835 Z M103.181648,356.644678 C103.336753,356.582653 103.522074,356.590278 103.593474,356.661645 C103.664869,356.732987 103.537963,356.783742 103.311464,356.77442 C103.061156,356.764119 103.010244,356.713233 103.181648,356.644704 L103.181648,356.644678 Z M139.265562,356.649223 C139.413283,356.589667 139.655005,356.589667 139.802727,356.649223 C139.950443,356.708779 139.829562,356.757514 139.534144,356.757514 C139.238706,356.757514 139.11784,356.708784 139.265562,356.649223 Z M101.664163,356.434531 C101.811879,356.374975 102.053606,356.374975 102.201323,356.434531 C102.349044,356.494087 102.228209,356.542821 101.932745,356.542821 C101.637302,356.542821 101.516441,356.494092 101.664163,356.434531 Z M140.783047,356.429986 C140.938152,356.367966 141.123474,356.375586 141.194873,356.446953 C141.266268,356.518295 141.139363,356.569049 140.912863,356.559733 C140.662555,356.549431 140.611643,356.498546 140.783047,356.430016 L140.783047,356.429986 Z M100.3884,356.215299 C100.543505,356.153273 100.728826,356.160893 100.800226,356.232266 C100.871621,356.303608 100.744716,356.354362 100.518216,356.345045 C100.267908,356.334744 100.216996,356.283858 100.3884,356.215329 L100.3884,356.215299 Z M142.072238,356.215299 C142.227343,356.153273 142.412665,356.160893 142.484064,356.232266 C142.555459,356.303608 142.428554,356.354362 142.202054,356.345045 C141.951746,356.334744 141.900834,356.283858 142.072238,356.215329 L142.072238,356.215299 Z M99.3140746,356.000606 C99.4691798,355.938581 99.6545015,355.946201 99.7259011,356.017573 C99.7972957,356.088915 99.6703905,356.13967 99.4438908,356.130353 C99.1935827,356.120052 99.142671,356.069166 99.3140746,356.000637 L99.3140746,356.000606 Z M143.361429,356.000606 C143.516534,355.938581 143.701856,355.946201 143.773255,356.017573 C143.84465,356.088915 143.717745,356.13967 143.491245,356.130353 C143.240937,356.120052 143.190025,356.069166 143.361429,356.000637 L143.361429,356.000606 Z M144.435754,355.785914 C144.590859,355.723889 144.77618,355.731509 144.84758,355.802881 C144.91898,355.874223 144.79207,355.924972 144.56557,355.915655 C144.315262,355.905354 144.26435,355.854468 144.435754,355.785939 L144.435754,355.785914 Z M48.4039108,333.228861 C48.1366473,332.888341 48.1442482,332.880761 48.4850389,333.147794 C48.6918441,333.309863 48.8610494,333.478932 48.8610494,333.523505 C48.8610494,333.700214 48.6846071,333.586475 48.4039108,333.228861 Z M46.4701268,331.72602 C46.2028634,331.385499 46.2104642,331.37792 46.5512499,331.644952 C46.9091628,331.925427 47.0229838,332.101731 46.8461423,332.101731 C46.8015176,332.101731 46.6323174,331.932663 46.4701268,331.72602 Z M196.258542,331.805971 C196.258542,331.761382 196.427747,331.592334 196.634558,331.430259 C196.975353,331.163227 196.982939,331.170807 196.715691,331.511327 C196.434989,331.868941 196.258542,331.982685 196.258542,331.805971 Z M45.3958019,330.867255 C45.1285384,330.526735 45.1361342,330.519155 45.4769249,330.786187 C45.6837352,330.948257 45.8529405,331.117325 45.8529405,331.161899 C45.8529405,331.338608 45.6764932,331.224864 45.3958019,330.867255 Z M197.332867,330.947207 C197.332867,330.902618 197.502072,330.733565 197.708883,330.571495 C198.049678,330.304463 198.057264,330.312042 197.790016,330.652563 C197.509314,331.010176 197.332867,331.12392 197.332867,330.947207 Z M117.249731,330.439996 C117.933556,330.397276 118.997137,330.39768 119.613247,330.439996 C120.229357,330.483221 119.669859,330.518185 118.369929,330.517696 C117.069994,330.517696 116.565905,330.481843 117.249731,330.439117 L117.249731,330.439996 Z M123.365543,330.439996 C123.985964,330.396619 125.0012,330.396619 125.621626,330.439996 C126.242047,330.483373 125.734431,330.518832 124.493585,330.518832 C123.252738,330.518832 122.745117,330.483383 123.365543,330.439996 Z M113.592132,330.229515 C113.918742,330.18018 114.402185,330.181493 114.666457,330.232545 C114.930728,330.283491 114.663425,330.323874 114.072624,330.322263 C113.481742,330.320243 113.265522,330.278987 113.592132,330.229601 L113.592132,330.229515 Z M128.307441,330.23204 C128.573335,330.180856 129.008439,330.180856 129.274333,330.23204 C129.540227,330.283198 129.322698,330.325065 128.790885,330.325065 C128.259097,330.325065 128.041542,330.283203 128.307441,330.23204 Z M111.444614,330.020074 C111.653673,329.965649 111.943739,329.969214 112.089212,330.028002 C112.23468,330.086806 112.06364,330.131334 111.709108,330.126976 C111.354581,330.122432 111.235555,330.074485 111.444614,330.020039 L111.444614,330.020074 Z M130.77839,330.020074 C130.985195,329.966058 131.323611,329.966058 131.530416,330.020074 C131.737226,330.074071 131.568016,330.11825 131.154401,330.11825 C130.740785,330.11825 130.57158,330.074066 130.77839,330.020074 Z M109.725691,329.804589 C109.93475,329.750164 110.224816,329.753729 110.370289,329.812517 C110.515757,329.871321 110.344717,329.915849 109.990185,329.911491 C109.635658,329.906946 109.516637,329.859 109.725691,329.804554 L109.725691,329.804589 Z M132.716262,329.804589 C132.925322,329.750164 133.215388,329.753729 133.36086,329.812517 C133.506328,329.871321 133.335288,329.915849 132.980756,329.911491 C132.62623,329.906946 132.507208,329.859 132.716262,329.804554 L132.716262,329.804589 Z M198.622058,329.873699 C198.622058,329.829111 198.791263,329.660057 198.998074,329.497988 C199.338869,329.230955 199.346455,329.238535 199.079207,329.579055 C198.798505,329.936664 198.622058,330.050408 198.622058,329.873699 Z M108.006773,329.591291 C108.215827,329.53687 108.505898,329.54043 108.651366,329.599219 C108.796839,329.658022 108.625794,329.70255 108.271267,329.698192 C107.916735,329.693648 107.797714,329.645701 108.006773,329.591255 L108.006773,329.591291 Z M134.323664,329.597956 C134.471386,329.5384 134.713107,329.5384 134.860829,329.597956 C135.008546,329.657512 134.887664,329.706247 134.592246,329.706247 C134.296803,329.706247 134.175942,329.657517 134.323664,329.597956 Z M106.606061,329.383264 C106.753777,329.323713 106.995504,329.323713 107.143221,329.383264 C107.290942,329.44282 107.170107,329.491554 106.874643,329.491554 C106.5792,329.491554 106.458339,329.442825 106.606061,329.383264 Z M135.827721,329.383264 C135.975438,329.323713 136.217164,329.323713 136.364881,329.383264 C136.512603,329.44282 136.391767,329.491554 136.096303,329.491554 C135.80086,329.491554 135.679999,329.442825 135.827721,329.383264 Z M105.102004,329.168576 C105.249725,329.10902 105.491447,329.10902 105.639169,329.168576 C105.786885,329.228132 105.666004,329.276867 105.370586,329.276867 C105.075148,329.276867 104.954282,329.228137 105.102004,329.168576 Z M137.116912,329.168576 C137.264628,329.10902 137.506355,329.10902 137.654072,329.168576 C137.801794,329.228132 137.680958,329.276867 137.385494,329.276867 C137.090051,329.276867 136.96919,329.228137 137.116912,329.168576 Z M42.8174199,328.720301 C42.5501564,328.379775 42.5577523,328.372196 42.898543,328.639233 C43.1053533,328.801303 43.2745585,328.970371 43.2745585,329.01494 C43.2745585,329.191653 43.0981112,329.077909 42.8174199,328.720301 Z M104.041107,328.949354 C104.196212,328.887329 104.381533,328.894949 104.452933,328.966321 C104.524333,329.037663 104.397422,329.088418 104.170923,329.079101 C103.920615,329.0688 103.869703,329.017914 104.041107,328.949385 L104.041107,328.949354 Z M138.406103,328.953899 C138.553819,328.894343 138.795546,328.894343 138.943263,328.953899 C139.090984,329.01345 138.970149,329.06219 138.674685,329.06219 C138.379242,329.06219 138.258381,329.01346 138.406103,328.953899 Z M102.966782,328.734738 C103.121887,328.672718 103.307208,328.680338 103.378608,328.751705 C103.450003,328.823047 103.323097,328.873801 103.096598,328.864484 C102.84629,328.854183 102.795378,328.803297 102.966782,328.734768 L102.966782,328.734738 Z M139.493856,328.734738 C139.648961,328.672718 139.834283,328.680338 139.905682,328.751705 C139.977082,328.823047 139.850172,328.873801 139.623672,328.864484 C139.373364,328.854183 139.322452,328.803297 139.493856,328.734768 L139.493856,328.734738 Z M200.233548,328.451971 C200.447444,328.215807 200.6708,328.022586 200.729884,328.022586 C200.788972,328.022586 200.66231,328.215807 200.448414,328.451971 C200.234513,328.688129 200.011162,328.88135 199.952073,328.88135 C199.892985,328.88135 200.019647,328.688129 200.233548,328.451971 Z M102.107323,328.520005 C102.262428,328.45798 102.447749,328.465605 102.519144,328.536972 C102.590544,328.608314 102.463638,328.659068 102.237134,328.649747 C101.986831,328.639445 101.935914,328.58856 102.107323,328.52003 L102.107323,328.520005 Z M140.568181,328.520005 C140.723286,328.45798 140.908608,328.465605 140.980007,328.536972 C141.051407,328.608314 140.924502,328.659068 140.697997,328.649747 C140.447689,328.639445 140.396777,328.58856 140.568181,328.52003 L140.568181,328.520005 Z M101.032993,328.305313 C101.188098,328.243287 101.373424,328.250912 101.444819,328.32228 C101.516219,328.393621 101.389314,328.444376 101.162809,328.435059 C100.912501,328.424758 100.861589,328.373872 101.032993,328.305338 L101.032993,328.305313 Z M141.642506,328.305313 C141.797611,328.243287 141.982938,328.250912 142.054332,328.32228 C142.125732,328.393621 141.998827,328.444376 141.772322,328.435059 C141.522014,328.424758 141.471102,328.373872 141.642506,328.305338 L141.642506,328.305313 Z M100.173534,328.09062 C100.328639,328.0286 100.51396,328.03622 100.58536,328.107587 C100.65676,328.178929 100.52985,328.229683 100.30335,328.220367 C100.053042,328.210065 100.00213,328.15918 100.173534,328.090651 L100.173534,328.09062 Z M142.50197,328.09062 C142.657075,328.0286 142.842397,328.03622 142.913796,328.107587 C142.985191,328.178929 142.858286,328.229683 142.631786,328.220367 C142.381478,328.210065 142.330566,328.15918 142.50197,328.090651 L142.50197,328.09062 Z M143.361429,327.875933 C143.516534,327.813908 143.701856,327.821528 143.773255,327.8929 C143.84465,327.964242 143.717745,328.014996 143.491245,328.005679 C143.240937,327.995378 143.190025,327.944492 143.361429,327.875963 L143.361429,327.875933 Z M41.1096455,327.217494 L40.5887436,326.62709 L41.17962,327.147566 C41.7318907,327.634038 41.8690348,327.807893 41.700522,327.807893 C41.6620628,327.807893 41.3961386,327.542214 41.1096455,327.217494 Z M144.220888,327.66124 C144.375993,327.599215 144.56132,327.606835 144.632714,327.678207 C144.704114,327.749549 144.577209,327.800304 144.350704,327.790987 C144.100396,327.780686 144.049484,327.7298 144.220888,327.661271 L144.220888,327.66124 Z M145.080352,327.446548 C145.235457,327.384523 145.420778,327.392143 145.492178,327.463515 C145.563573,327.534857 145.436668,327.585606 145.210163,327.57629 C144.95986,327.565988 144.908948,327.515103 145.080352,327.446573 L145.080352,327.446548 Z M96.7356927,327.231856 C96.8907979,327.16983 97.0761196,327.177455 97.1475192,327.248823 C97.2189138,327.320165 97.0920086,327.370919 96.8655088,327.361597 C96.6152007,327.351296 96.5642891,327.30041 96.7356927,327.231881 L96.7356927,327.231856 Z M145.939811,327.231856 C146.094916,327.16983 146.280237,327.177455 146.351637,327.248823 C146.423032,327.320165 146.296126,327.370919 146.069627,327.361597 C145.819319,327.351296 145.768407,327.30041 145.939811,327.231881 L145.939811,327.231856 Z M202.059899,326.841783 C202.337442,326.546583 202.612877,326.305052 202.671966,326.305052 C202.731054,326.305052 202.552308,326.546583 202.274765,326.841783 C201.997227,327.136982 201.721792,327.378514 201.662703,327.378514 C201.603614,327.378514 201.782361,327.136982 202.059899,326.841783 Z M147.443868,326.802446 C147.598973,326.740425 147.784294,326.748045 147.855694,326.819413 C147.927089,326.890755 147.800183,326.941509 147.573684,326.932192 C147.323376,326.921891 147.272464,326.871005 147.443868,326.802476 L147.443868,326.802446 Z M36.8250963,323.138329 L34.3576547,320.615703 L36.8823201,323.081156 C38.2708834,324.437148 39.4069856,325.572327 39.4069856,325.603782 C39.4069856,325.758403 39.1170054,325.481494 36.8250963,323.138329 Z M205.712611,323.406725 C206.473921,322.639203 207.145157,322.011229 207.204246,322.011229 C207.263334,322.011229 206.688782,322.639203 205.927472,323.406725 C205.166162,324.174246 204.494926,324.80222 204.435837,324.80222 C204.376748,324.80222 204.951296,324.174246 205.712611,323.406725 Z M158.227411,322.869994 C158.404677,322.755522 158.646399,322.661871 158.764576,322.661871 C158.882748,322.661871 158.834404,322.755522 158.657143,322.869994 C158.479877,322.98447 158.238155,323.078116 158.119978,323.078116 C158.001801,323.078116 158.05015,322.98447 158.227411,322.869994 Z M82.5948806,322.118575 C82.2994424,321.949825 82.1544043,321.811756 82.2725816,321.811756 C82.3907589,321.811756 82.7291694,321.949825 83.0246076,322.118575 C83.3200509,322.287321 83.4650839,322.425389 83.3469066,322.425389 C83.2287293,322.425389 82.8903189,322.287321 82.5948806,322.118575 Z M161.020659,321.581844 C161.434274,321.355583 161.869374,321.170452 161.987551,321.170452 C162.105728,321.170452 161.864001,321.355583 161.450391,321.581844 C161.036775,321.808111 160.601671,321.993237 160.483494,321.993237 C160.365322,321.993237 160.607043,321.808111 161.020659,321.581844 Z M164.4585,319.982695 C164.4585,319.923654 164.748571,319.725449 165.103098,319.542277 C165.457625,319.359099 165.747691,319.25751 165.747691,319.316551 C165.747691,319.375592 165.457625,319.573792 165.103098,319.756969 C164.748571,319.940141 164.4585,320.041736 164.4585,319.982695 Z M209.150452,319.797134 C209.150452,319.760171 209.46469,319.446201 209.848761,319.099389 L210.547076,318.46882 L209.915997,319.166565 C209.327738,319.816974 209.150452,319.963006 209.150452,319.797134 Z M76.6734412,319.10104 C76.272925,318.780421 76.275558,318.776472 76.7398022,319.001253 C77.0057012,319.130005 77.2232507,319.280243 77.2232507,319.335144 C77.2232507,319.499425 77.1118202,319.451978 76.6734412,319.10104 Z M32.4103519,318.522493 L31.7792728,317.824743 L32.4775822,318.455312 C32.8616534,318.802129 33.1758967,319.116114 33.1758967,319.153062 C33.1758967,319.318934 32.9986055,319.172806 32.4103519,318.522493 Z M167.251748,318.483913 C167.251748,318.424872 167.445125,318.273149 167.68148,318.146761 C167.917829,318.020372 168.111207,317.96526 168.111207,318.024301 C168.111207,318.083342 167.917829,318.235065 167.68148,318.361453 C167.445125,318.487842 167.251748,318.542954 167.251748,318.483913 Z M74.7396522,318.027563 C74.3391411,317.706943 74.3417741,317.702995 74.8060183,317.927776 C75.0719122,318.056528 75.2894668,318.206766 75.2894668,318.261661 C75.2894668,318.425948 75.1780312,318.378501 74.7396522,318.027563 Z M211.621401,317.073304 C211.835296,316.83714 212.058653,316.643919 212.117736,316.643919 C212.176825,316.643919 212.050162,316.83714 211.836267,317.073304 C211.622366,317.309463 211.399015,317.502684 211.339926,317.502684 C211.280837,317.502684 211.4075,317.309463 211.621401,317.073304 Z M30.5701082,316.4829 C30.3028397,316.142379 30.3104405,316.1348 30.6512313,316.401832 C30.8580365,316.563907 31.0272468,316.732975 31.0272468,316.777544 C31.0272468,316.954258 30.8507995,316.840514 30.5701082,316.4829 Z M213.125458,315.35577 C213.339353,315.119611 213.562705,314.92639 213.621793,314.92639 C213.680882,314.92639 213.554219,315.119611 213.340324,315.35577 C213.126423,315.591934 212.903072,315.785155 212.843983,315.785155 C212.784894,315.785155 212.911557,315.591934 213.125458,315.35577 Z M29.2809172,314.980078 C29.0136487,314.639558 29.0212496,314.631978 29.3620403,314.899016 C29.5688456,315.061085 29.7380558,315.230154 29.7380558,315.274722 C29.7380558,315.451436 29.5616086,315.337692 29.2809172,314.980078 Z M68.3863734,313.906621 C68.1191099,313.566101 68.1267057,313.558521 68.4674964,313.825554 C68.8254093,314.106028 68.9392303,314.282333 68.7623838,314.282333 C68.717759,314.282333 68.5485639,314.113265 68.3863734,313.906621 Z M214.09235,314.201266 C214.09235,314.156677 214.261555,313.987628 214.468365,313.825554 C214.809161,313.558521 214.816747,313.566101 214.549498,313.906621 C214.268797,314.264235 214.09235,314.377979 214.09235,314.201266 Z M28.2065872,313.691934 C27.9393237,313.351409 27.9469246,313.343829 28.2877154,313.610866 C28.4945206,313.772936 28.6637258,313.942005 28.6637258,313.986573 C28.6637258,314.163287 28.4872836,314.049543 28.2065872,313.691934 Z M174.986894,313.557193 C174.986894,313.512605 175.156099,313.343551 175.362909,313.181482 C175.703695,312.914449 175.711296,312.922029 175.444032,313.262549 C175.163336,313.620158 174.986894,313.733902 174.986894,313.557193 Z M66.8823164,312.833165 C66.6150529,312.492644 66.6226487,312.485065 66.9634395,312.752097 C67.1702498,312.914167 67.339455,313.08324 67.339455,313.127809 C67.339455,313.304522 67.1630077,313.190778 66.8823164,312.833165 Z M66.0228574,312.189092 C65.7555889,311.848567 65.7631898,311.840992 66.1039805,312.108025 C66.4618934,312.388494 66.5757093,312.564799 66.3988679,312.564799 C66.3542431,312.564799 66.185048,312.395731 66.0228574,312.189092 Z M65.1633934,311.545015 C64.8961299,311.204495 64.9037308,311.196915 65.2445165,311.463948 C65.6024294,311.744422 65.7162504,311.920727 65.5394089,311.920727 C65.4947841,311.920727 65.325584,311.751658 65.1633934,311.545015 Z M64.3039344,310.900943 C64.036671,310.560418 64.0442718,310.552843 64.3850575,310.819875 C64.7429704,311.100345 64.8567914,311.27665 64.6799499,311.27665 C64.6353252,311.27665 64.466125,311.107581 64.3039344,310.900943 Z M178.424734,310.980895 C178.424734,310.936306 178.59394,310.767253 178.80075,310.605183 C179.141536,310.338151 179.149137,310.34573 178.881873,310.686251 C178.601182,311.043864 178.424734,311.157603 178.424734,310.980895 Z M63.2296095,310.042174 C62.962346,309.701653 62.9699418,309.694073 63.3107325,309.961106 C63.5175428,310.123181 63.6867481,310.292249 63.6867481,310.336818 C63.6867481,310.513531 63.5103008,310.399787 63.2296095,310.042174 Z M179.499059,310.122125 C179.499059,310.077536 179.668265,309.908488 179.875075,309.746419 C180.215866,309.479381 180.223461,309.486961 179.956198,309.827486 C179.675507,310.185095 179.499059,310.298839 179.499059,310.122125 Z M62.1552845,309.183409 C61.888016,308.842889 61.8956168,308.835309 62.2364076,309.102341 C62.4432128,309.264411 62.6124231,309.433485 62.6124231,309.478053 C62.6124231,309.654767 62.4359758,309.541023 62.1552845,309.183409 Z M180.573384,309.263361 C180.573384,309.218772 180.742595,309.049719 180.9494,308.887649 C181.290191,308.620617 181.297792,308.628196 181.030523,308.968717 C180.749832,309.32633 180.573384,309.440074 180.573384,309.263361 Z M60.8772371,308.109952 L60.3563351,307.519548 L60.9472166,308.040029 C61.4994823,308.526495 61.6366314,308.700351 61.4681135,308.700351 C61.4296544,308.700351 61.1637352,308.434672 60.8772371,308.109952 Z M182.184874,307.841587 C182.398775,307.605428 182.622126,307.412207 182.681215,307.412207 C182.740304,307.412207 182.613636,307.605428 182.39974,307.841587 C182.18584,308.07775 181.962493,308.270971 181.903405,308.270971 C181.844316,308.270971 181.970979,308.07775 182.184874,307.841587 Z M59.2684964,306.714457 L58.6374172,306.016711 L59.3357266,306.647281 C59.7197978,306.994093 60.0340411,307.308077 60.0340411,307.345026 C60.0340411,307.510898 59.8567499,307.36477 59.2684964,306.714457 Z M184.01123,306.231399 C184.412126,305.818117 184.788459,305.47998 184.847548,305.47998 C184.906637,305.47998 184.626992,305.818117 184.226096,306.231399 C183.825196,306.64468 183.448862,306.982822 183.389774,306.982822 C183.330685,306.982822 183.610335,306.64468 184.01123,306.231399 Z M56.1591251,303.816119 L54.9847103,302.581643 L56.2201847,303.755104 C56.8996942,304.400534 57.4556592,304.956045 57.4556592,304.98958 C57.4556592,305.148948 57.2501983,304.962968 56.1591251,303.816119 Z M189.373875,300.917787 C190.264278,299.969881 190.457185,299.799433 190.457185,299.96065 C190.457185,299.995089 189.997909,300.454009 189.436572,300.980434 L188.415963,301.937571 L189.373875,300.917787 Z M52.7170592,300.166364 L51.9765963,299.361272 L52.7823388,300.101142 C53.2254986,300.508066 53.5880863,300.87036 53.5880863,300.906233 C53.5880863,301.070171 53.4062618,300.915676 52.7170592,300.166364 Z M191.424077,298.609854 C191.637973,298.37369 191.861329,298.180469 191.920413,298.180469 C191.979501,298.180469 191.852839,298.37369 191.638943,298.609854 C191.425042,298.846013 191.201691,299.039234 191.142603,299.039234 C191.083514,299.039234 191.210176,298.846013 191.424077,298.609854 Z M50.8818541,298.126796 L50.4725393,297.643738 L50.9559878,298.052727 C51.4103064,298.437069 51.537247,298.609854 51.3653026,298.609854 C51.3245187,298.609854 51.1069793,298.392475 50.8818541,298.126796 Z M192.713268,297.107012 C192.927164,296.870849 193.15052,296.677627 193.209604,296.677627 C193.268692,296.677627 193.14203,296.870849 192.928134,297.107012 C192.714233,297.343171 192.490882,297.536392 192.431793,297.536392 C192.372705,297.536392 192.499367,297.343171 192.713268,297.107012 Z M49.6931017,296.731301 C49.4258383,296.39078 49.4334391,296.383201 49.7742299,296.650233 C49.9810351,296.812303 50.1502403,296.981371 50.1502403,297.025945 C50.1502403,297.202658 49.9737981,297.088914 49.6931017,296.731301 Z M48.6187768,295.443151 C48.3515133,295.102631 48.3591142,295.095051 48.6999049,295.362084 C48.9067101,295.524153 49.0759154,295.693222 49.0759154,295.737795 C49.0759154,295.914509 48.8994731,295.800765 48.6187768,295.443151 Z M195.184217,294.020261 C195.184217,293.975672 195.353422,293.806624 195.560233,293.64455 C195.901028,293.377517 195.908614,293.385097 195.641366,293.725617 C195.360664,294.083231 195.184217,294.196975 195.184217,294.020261 Z M47.1147198,293.51093 C46.8474563,293.170404 46.8550572,293.162825 47.1958479,293.429862 C47.4026532,293.591932 47.5718584,293.761 47.5718584,293.805569 C47.5718584,293.982283 47.3954162,293.868538 47.1147198,293.51093 Z M1.8225469,252.540636 C1.83285658,252.29052 1.8837733,252.23966 1.95236304,252.41092 C2.01442836,252.565905 2.00679717,252.751077 1.93543291,252.822419 C1.86403328,252.893761 1.81325302,252.766943 1.82258227,252.540636 L1.8225469,252.540636 Z M240.967444,252.111251 C240.977754,251.861135 241.028681,251.810275 241.097266,251.981535 C241.159341,252.13652 241.151715,252.321692 241.080285,252.393034 C241.008885,252.464376 240.95809,252.337558 240.967414,252.111251 L240.967444,252.111251 Z M1.60768089,250.823102 C1.61799058,250.572986 1.66890729,250.522126 1.73749703,250.693386 C1.79956236,250.848371 1.79193117,251.033543 1.72051637,251.104885 C1.64911674,251.176227 1.59833647,251.049409 1.60766573,250.823102 L1.60768089,250.823102 Z M241.18231,250.393717 C241.19262,250.143601 241.243547,250.092741 241.312132,250.264001 C241.374207,250.418986 241.366581,250.604158 241.295151,250.6755 C241.223751,250.746842 241.172961,250.620024 241.182285,250.393717 L241.18231,250.393717 Z M1.39281994,248.676188 C1.40312963,248.426072 1.45404129,248.375212 1.52263103,248.546472 C1.58469635,248.701457 1.57706516,248.886629 1.50565037,248.957971 C1.43425073,249.029313 1.38347047,248.902495 1.39279973,248.676188 L1.39281994,248.676188 Z M213.894439,248.676188 C213.904749,248.426072 213.955676,248.375212 214.02426,248.546472 C214.086336,248.701457 214.078705,248.886629 214.00728,248.957971 C213.93588,249.029313 213.885085,248.902495 213.894409,248.676188 L213.894439,248.676188 Z M241.397176,248.246803 C241.407486,247.996687 241.458413,247.945827 241.526998,248.117087 C241.589073,248.272072 241.581442,248.457244 241.510017,248.528586 C241.438617,248.599928 241.387822,248.47311 241.397151,248.246803 L241.397176,248.246803 Z M214.1093,246.743962 C214.11961,246.493846 214.170537,246.442985 214.239126,246.614245 C214.301197,246.76923 214.293571,246.954402 214.222146,247.025744 C214.150746,247.097086 214.099951,246.970268 214.109275,246.743962 L214.1093,246.743962 Z M1.19491438,246.225117 C1.19491438,245.929917 1.24368324,245.809154 1.30328739,245.956751 C1.36289658,246.104354 1.36289658,246.34588 1.30328739,246.493482 C1.24368324,246.641084 1.19491438,246.520296 1.19491438,246.225117 Z M241.629013,245.581045 C241.629013,245.28584 241.677782,245.165077 241.737391,245.312679 C241.796995,245.460281 241.796995,245.701808 241.737391,245.849405 C241.677792,245.997007 241.629013,245.876219 241.629013,245.581045 Z M28.4827857,245.15166 C28.4827857,244.85646 28.5315546,244.735697 28.5911638,244.883294 C28.6507679,245.030897 28.6507679,245.272423 28.5911638,245.420025 C28.5315597,245.567623 28.4827857,245.446839 28.4827857,245.15166 Z M214.341142,244.507588 C214.341142,244.212383 214.38991,244.09162 214.44952,244.239222 C214.509124,244.386819 214.509124,244.628351 214.44952,244.775948 C214.389916,244.92355 214.341142,244.802812 214.341142,244.507588 Z M1.00030893,242.8974 C1.00283582,242.425077 1.04670253,242.257125 1.09808924,242.524203 C1.14948101,242.791255 1.14751509,243.177698 1.09354085,243.382967 C1.0397637,243.588212 0.997711297,243.369636 1.00009668,242.8974 L1.00030893,242.8974 Z M28.2838442,241.931289 C28.2838442,241.518008 28.3280646,241.348934 28.3821096,241.555577 C28.4361546,241.762215 28.4361546,242.100358 28.3821096,242.306996 C28.3280646,242.513639 28.2838442,242.344565 28.2838442,241.931289 Z M241.868481,241.716597 C241.868481,241.185233 241.910376,240.96786 241.961581,241.233539 C242.012806,241.499218 242.012806,241.93397 241.961581,242.199649 C241.910382,242.465334 241.868481,242.247975 241.868481,241.716597 Z M214.580609,240.857827 C214.580609,240.326469 214.622505,240.10909 214.67371,240.374774 C214.724935,240.640453 214.724935,241.075206 214.67371,241.340885 C214.62251,241.606564 214.580609,241.38921 214.580609,240.857827 Z M28.089638,232.806898 C28.0906487,231.980335 28.1294111,231.668497 28.1759412,232.113939 C28.2224358,232.559377 28.2216778,233.235656 28.174425,233.616776 C28.1269702,233.997896 28.0889001,233.633541 28.0898553,232.806898 L28.089638,232.806898 Z M214.778823,231.518748 C214.783372,231.164508 214.831357,231.045588 214.885847,231.254463 C214.940316,231.463358 214.936748,231.75319 214.877912,231.898535 C214.819061,232.043905 214.774497,231.872984 214.778859,231.518748 L214.778823,231.518748 Z M3.52450438,225.078002 C3.92539453,224.66472 4.30174359,224.326583 4.36083224,224.326583 C4.4199209,224.326583 4.14026054,224.66472 3.73937038,225.078002 C3.33848023,225.491283 2.96213117,225.82942 2.90304251,225.82942 C2.84395891,225.82942 3.12361422,225.491283 3.52450438,225.078002 Z M239.633886,225.453713 C239.366638,225.113188 239.374219,225.105613 239.71502,225.372646 C239.921825,225.534715 240.09103,225.703784 240.09103,225.748352 C240.09103,225.925066 239.914583,225.811322 239.633886,225.453713 Z M25.3129057,224.916982 L24.9035859,224.43393 L25.3870344,224.842914 C25.841353,225.227255 25.9682935,225.40004 25.7963492,225.40004 C25.7555653,225.40004 25.5380258,225.182661 25.3129057,224.916982 Z M238.774422,224.594944 C238.507174,224.254423 238.51476,224.246844 238.855556,224.513876 C239.062366,224.675951 239.231571,224.845019 239.231571,224.889588 C239.231571,225.066302 239.055124,224.952557 238.774422,224.594944 Z M218.174789,224.449043 C218.174789,224.390002 218.368166,224.23828 218.604516,224.111891 C218.84087,223.985502 219.034248,223.93039 219.034248,223.989431 C219.034248,224.048472 218.84087,224.200195 218.604516,224.326583 C218.368166,224.452972 218.174789,224.508079 218.174789,224.449043 Z M237.297787,223.789852 C237.002344,223.621107 236.863006,223.4796 236.988143,223.475414 C237.113259,223.471374 237.403325,223.609659 237.632741,223.783025 C238.16322,224.18394 237.993797,224.187399 237.297787,223.789893 L237.297787,223.789852 Z M21.7477554,223.106468 C21.9028605,223.044443 22.0881822,223.052063 22.1595819,223.123435 C22.2309764,223.194777 22.1040713,223.245527 21.8775715,223.23621 C21.6272634,223.225909 21.5763518,223.175023 21.7477554,223.106494 L21.7477554,223.106468 Z M220.927748,223.106468 C221.082858,223.044443 221.26818,223.052063 221.339579,223.123435 C221.410979,223.194777 221.284059,223.245527 221.057569,223.23621 C220.807251,223.225909 220.756349,223.175023 220.927748,223.106494 L220.927748,223.106468 Z M8.09448031,222.88965 C8.30353448,222.835225 8.5936056,222.83879 8.73907326,222.897578 C8.88454598,222.956382 8.7135012,223.00091 8.35896926,222.996552 C8.00444237,222.992512 7.88542108,222.94406 8.09448031,222.889615 L8.09448031,222.88965 Z M20.3377035,222.88965 C20.5445088,222.835634 20.8829242,222.835634 21.0897295,222.88965 C21.2965398,222.943646 21.1273295,222.987831 20.713719,222.987831 C20.3001035,222.987831 20.1308932,222.943646 20.3377035,222.88965 Z M221.881212,222.88965 C222.088017,222.835634 222.426433,222.835634 222.633238,222.88965 C222.840048,222.943646 222.670838,222.987831 222.257228,222.987831 C221.843612,222.987831 221.674402,222.943646 221.881212,222.88965 Z M234.347473,222.88965 C234.556537,222.835225 234.846604,222.83879 234.992066,222.897578 C235.137554,222.956382 234.966494,223.00091 234.611972,222.996552 C234.257445,222.992512 234.138429,222.94406 234.347473,222.889615 L234.347473,222.88965 Z M12.160919,222.663646 C13.4247603,222.625774 15.5519216,222.625622 16.8879509,222.663646 C18.2239802,222.701368 17.1899287,222.732368 14.5900581,222.732539 C11.9901926,222.732691 10.8970777,222.701837 12.160919,222.663924 L12.160919,222.663646 Z M225.951744,222.663646 C227.21558,222.625774 229.342747,222.625622 230.678776,222.663646 C232.01481,222.701368 230.980749,222.732368 228.380883,222.732539 C225.781013,222.732691 224.687908,222.701837 225.951744,222.663924 L225.951744,222.663646 Z M104.833421,102.167101 C111.214096,95.7907627 116.482993,90.5737567 116.542082,90.5737567 C116.601171,90.5737567 111.428962,95.7907627 105.048287,102.167101 C98.6676118,108.543438 93.3987149,113.760444 93.3396262,113.760444 C93.2805426,113.760444 98.4527458,108.543438 104.833421,102.167101 Z M116.073557,0.0419641377 C116.228662,-0.0200560898 116.413984,-0.0124310659 116.485379,0.0588805814 C116.556778,0.130222527 116.429873,0.180966808 116.203368,0.17164509 C115.953065,0.161343734 115.902149,0.11046816 116.073557,0.0419338396 L116.073557,0.0419641377 Z M127.246544,0.0419641377 C127.401649,-0.0200560898 127.586971,-0.0124310659 127.658371,0.0588805814 C127.729765,0.130222527 127.60286,0.180966808 127.37636,0.17164509 C127.126052,0.161343734 127.07514,0.11046816 127.246544,0.0419338396 L127.246544,0.0419641377 Z" id="el_eey-L0cW0c"/>
            <path d="M120.905015,357.910669 C121.229971,357.861546 121.761717,357.861546 122.086679,357.910669 C122.411635,357.959793 122.145757,358 121.495844,358 C120.845931,358 120.580053,357.959803 120.905015,357.910669 Z M114.248811,357.701238 C114.457854,357.646879 114.747897,357.650439 114.893353,357.709156 C115.038814,357.767888 114.867783,357.812361 114.513284,357.808009 C114.15878,357.80347 114.039769,357.755581 114.248811,357.701202 L114.248811,357.701238 Z M128.213936,357.701238 C128.422973,357.646879 128.713021,357.650439 128.858478,357.709156 C129.003939,357.767888 128.832908,357.812361 128.478409,357.808009 C128.123905,357.80347 128.004893,357.755581 128.213936,357.701202 L128.213936,357.701238 Z M111.129424,357.493389 C111.277134,357.433906 111.518836,357.433906 111.666546,357.493389 C111.814251,357.552873 111.693379,357.601547 111.397985,357.601547 C111.10257,357.601547 110.981719,357.552878 111.129424,357.493389 Z M131.325142,357.493389 C131.472852,357.433906 131.714554,357.433906 131.862264,357.493389 C132.009974,357.552873 131.889098,357.601547 131.593703,357.601547 C131.298288,357.601547 131.177437,357.552878 131.325142,357.493389 Z M108.994371,357.274501 C109.149464,357.212552 109.334771,357.220167 109.406165,357.291447 C109.477559,357.362702 109.350659,357.413394 109.124177,357.404084 C108.873889,357.393795 108.822981,357.342972 108.994371,357.274526 L108.994371,357.274501 Z M133.701902,357.274501 C133.856995,357.212552 134.042302,357.220167 134.113696,357.291447 C134.185085,357.362702 134.058189,357.413394 133.831703,357.404084 C133.581419,357.393795 133.530512,357.342972 133.701902,357.274526 L133.701902,357.274501 Z M107.060741,357.060071 C107.215834,356.998127 107.401141,357.005737 107.472535,357.077017 C107.543924,357.148272 107.417029,357.198964 107.190547,357.189659 C106.940259,357.17937 106.889351,357.128547 107.060741,357.060101 L107.060741,357.060071 Z M137.139469,356.845646 C137.294562,356.783697 137.479869,356.791307 137.551263,356.862592 C137.622652,356.933847 137.495757,356.984539 137.269275,356.975234 C137.018987,356.964945 136.96808,356.914122 137.139469,356.845676 L137.139469,356.845646 Z M103.838017,356.631216 C103.99311,356.569267 104.178422,356.576878 104.249811,356.648163 C104.321205,356.719417 104.19431,356.77011 103.967823,356.760804 C103.717535,356.750516 103.666627,356.699692 103.838017,356.631247 L103.838017,356.631216 Z M115.426387,330.475331 C115.574097,330.415847 115.8158,330.415847 115.963504,330.475331 C116.111214,330.534814 115.990388,330.583489 115.694948,330.583489 C115.399528,330.583489 115.278677,330.534819 115.426387,330.475331 Z M126.813335,330.475331 C126.961045,330.415847 127.202747,330.415847 127.350452,330.475331 C127.498162,330.534814 127.377336,330.583489 127.081896,330.583489 C126.786476,330.583489 126.665625,330.534819 126.813335,330.475331 Z M129.834636,330.256442 C129.989729,330.194493 130.175036,330.202103 130.24643,330.273388 C130.317819,330.344643 130.190924,330.395336 129.964442,330.38603 C129.714154,330.375741 129.663246,330.324918 129.834636,330.256473 L129.834636,330.256442 Z M43.6934367,329.384379 C43.4261945,329.044275 43.4337948,329.036704 43.7745534,329.30341 C43.9813472,329.465282 44.150539,329.634144 44.150539,329.678663 C44.150539,329.85516 43.9741108,329.741555 43.6934367,329.384379 Z M42.1894993,328.097804 C41.9222571,327.7577 41.9298574,327.75013 42.270621,328.016836 C42.6285004,328.296968 42.7423123,328.473057 42.5654849,328.473057 C42.5208637,328.473057 42.351677,328.304195 42.1894993,328.097804 Z M200.774779,327.963228 C200.774779,327.918694 200.943976,327.749853 201.150765,327.587976 C201.491539,327.32127 201.499119,327.32884 201.231892,327.668945 C200.951212,328.026121 200.774779,328.139726 200.774779,327.963228 Z M40.1554385,326.27516 L39.7461562,325.792693 L40.2295613,326.201182 C40.6838437,326.585049 40.8107793,326.757622 40.6388435,326.757622 C40.5980629,326.757622 40.3805407,326.540514 40.1554385,326.27516 Z M203.138112,325.792693 C203.415628,325.497854 203.691042,325.256618 203.750126,325.256618 C203.80921,325.256618 203.630477,325.497854 203.352956,325.792693 C203.07544,326.087531 202.800027,326.328763 202.740943,326.328763 C202.681859,326.328763 202.860592,326.087531 203.138112,325.792693 Z M207.864768,321.115371 C207.864768,321.078452 208.178982,320.764867 208.563022,320.418479 L209.261281,319.78868 L208.630252,320.485573 C208.042041,321.135187 207.864768,321.28104 207.864768,321.115371 Z M33.4951471,319.627858 L33.0858648,319.145391 L33.5692749,319.55388 C34.0235574,319.937751 34.1504878,320.11032 33.9785571,320.11032 C33.9377765,320.11032 33.7202543,319.893212 33.4951471,319.627858 Z M210.657794,318.099492 C210.657794,318.054958 210.826986,317.886112 211.033775,317.72424 C211.374549,317.457534 211.382134,317.465105 211.114902,317.805209 C210.834228,318.162385 210.657794,318.27599 210.657794,318.099492 Z M31.2322496,317.161924 C30.9650074,316.821815 30.9726076,316.81425 31.3133662,317.080955 C31.5201601,317.242827 31.6893518,317.411689 31.6893518,317.456208 C31.6893518,317.6327 31.5129186,317.519095 31.2322496,317.161924 Z M57.7729796,305.475539 L57.3636974,304.993071 L57.8471024,305.401561 C58.1129802,305.626219 58.3305125,305.843327 58.3305125,305.884028 C58.3305125,306.055613 58.1576065,305.928915 57.7729796,305.475539 Z M186.594811,303.920927 C187.35606,303.154344 188.027243,302.527138 188.086327,302.527138 C188.145411,302.527138 187.570909,303.154344 186.809655,303.920927 C186.048405,304.68751 185.377222,305.314716 185.318138,305.314716 C185.259054,305.314716 185.833562,304.68751 186.594811,303.920927 Z M54.3423048,302.044675 L53.7112808,301.347778 L54.4095348,301.977581 C55.0604084,302.564641 55.2065467,302.741567 55.0405638,302.741567 C55.0035732,302.741567 54.689375,302.427967 54.3423048,302.044675 Z M241.612867,244.935077 C241.623176,244.685267 241.674099,244.634469 241.742678,244.80552 C241.804749,244.960315 241.797118,245.145261 241.725699,245.216515 C241.654305,245.28777 241.603514,245.161107 241.612837,244.935077 L241.612867,244.935077 Z M28.2687433,243.005213 C28.2790522,242.755403 28.3299648,242.704605 28.3985491,242.875655 C28.4606095,243.030451 28.4529789,243.215396 28.3815698,243.286651 C28.3101809,243.357906 28.2593996,243.231243 28.2687281,243.005213 L28.2687433,243.005213 Z M214.542009,242.147499 C214.552318,241.897688 214.603241,241.84689 214.67182,242.017941 C214.73389,242.172736 214.726265,242.357682 214.65484,242.428937 C214.583447,242.500191 214.53266,242.373529 214.541984,242.147499 L214.542009,242.147499 Z M1,241.843718 C1,241.548874 1.04876499,241.428259 1.10836944,241.57568 C1.16796885,241.723102 1.16796885,241.964333 1.10836944,242.111755 C1.04876499,242.259172 1,242.138536 1,241.843718 Z M241.86495,240.235498 C241.867476,239.763754 241.911339,239.596006 241.962727,239.862758 C242.014115,240.129484 242.012149,240.515459 241.958179,240.720472 C241.904401,240.925466 241.862357,240.707158 241.864742,240.235498 L241.86495,240.235498 Z M28.0911175,235.089201 C28.0936441,234.617456 28.1375074,234.449709 28.18889,234.71646 C28.2402777,234.983186 28.2383119,235.369161 28.184342,235.574175 C28.1305691,235.779168 28.08852,235.56086 28.0909052,235.089201 L28.0911175,235.089201 Z M214.798432,233.052126 C214.798432,232.521413 214.840324,232.304305 214.891525,232.569659 C214.942746,232.835013 214.942746,233.269234 214.891525,233.534589 C214.840324,233.799948 214.798432,233.582855 214.798432,233.052126 Z M9.09002017,223.041912 C9.24511304,222.979962 9.43041998,222.987578 9.50181394,223.058858 C9.57320285,223.130113 9.44630777,223.180805 9.21982599,223.171495 C8.96953781,223.161206 8.9186302,223.110383 9.09002017,223.041937 L9.09002017,223.041912 Z M19.6175771,223.041912 C19.77267,222.979962 19.9579769,222.987578 20.0293709,223.058858 C20.1007598,223.130113 19.9738647,223.180805 19.7473829,223.171495 C19.4970947,223.161206 19.4461871,223.110383 19.6175771,223.041937 L19.6175771,223.041912 Z M223.078696,223.041912 C223.233794,222.979962 223.419101,222.987578 223.490495,223.058858 C223.561889,223.130113 223.434979,223.180805 223.208507,223.171495 C222.958209,223.161206 222.907311,223.110383 223.078696,223.041937 L223.078696,223.041912 Z M233.377977,223.046451 C233.525682,222.986968 233.76739,222.986968 233.915095,223.046451 C234.062805,223.105934 233.941979,223.154609 233.646539,223.154609 C233.351119,223.154609 233.230267,223.105939 233.377977,223.046451 Z" id="el_IbOb2W2erW"/>
            <path d="M6.77805198,206.891434 C6.92599088,206.831726 7.16806812,206.831726 7.31600702,206.891434 C7.46394086,206.951136 7.342882,207 7.0470295,207 C6.75115676,207 6.63011814,206.951147 6.77805198,206.891434 Z M37.0139647,206.879588 C37.3410549,206.830127 37.8252094,206.831443 38.0898697,206.882625 C38.35453,206.933701 38.086833,206.974191 37.4951634,206.972576 C36.9034129,206.970551 36.6868745,206.92914 37.0139647,206.879679 L37.0139647,206.879588 Z M203.776404,206.877056 C204.220216,206.830633 204.946452,206.830633 205.390264,206.877056 C205.834076,206.92353 205.470955,206.961494 204.583331,206.961494 C203.695708,206.961494 203.332592,206.923525 203.776404,206.877056 Z M234.442235,206.881613 C234.709902,206.830132 235.097225,206.832101 235.302958,206.886169 C235.508676,206.940039 235.289597,206.982165 234.816283,206.979775 C234.342889,206.977244 234.174548,206.933301 234.442235,206.88182 L234.442235,206.881613 Z M40.7901267,206.671583 C40.94546,206.609405 41.1310542,206.617045 41.2025538,206.688593 C41.2740584,206.760117 41.1469666,206.811 40.9201287,206.80166 C40.6694575,206.791332 40.6184659,206.740317 40.7901267,206.671614 L40.7901267,206.671583 Z M200.763866,206.669558 C200.97098,206.615404 201.309888,206.615404 201.517003,206.669558 C201.724112,206.723692 201.554658,206.767989 201.140434,206.767989 C200.72621,206.767989 200.556756,206.723692 200.763866,206.669558 Z M236.174619,206.671583 C236.329957,206.609405 236.515551,206.617045 236.587056,206.688593 C236.65856,206.760117 236.531453,206.811 236.304631,206.80166 C236.053944,206.791332 236.002968,206.740317 236.174619,206.671614 L236.174619,206.671583 Z M42.282943,206.460825 C42.4308819,206.401117 42.6729592,206.401117 42.8208981,206.460825 C42.9688319,206.520532 42.8477731,206.569391 42.5519206,206.569391 C42.2560478,206.569391 42.1350092,206.520537 42.282943,206.460825 Z M199.046504,206.454142 C199.255876,206.399578 199.546374,206.403152 199.69205,206.46209 C199.837747,206.521044 199.666441,206.565685 199.311392,206.561316 C198.956344,206.55676 198.837158,206.508691 199.046504,206.454107 L199.046504,206.454142 Z M44.0178417,206.241035 C44.173175,206.178852 44.3587693,206.186491 44.4302739,206.258045 C44.5017786,206.329568 44.3746817,206.380447 44.1478488,206.371107 C43.8971726,206.360779 43.846186,206.309764 44.0178417,206.24106 L44.0178417,206.241035 Z M197.643742,206.245591 C197.791676,206.185884 198.033758,206.185884 198.181692,206.245591 C198.329631,206.305299 198.208617,206.354157 197.912719,206.354157 C197.616841,206.354157 197.495803,206.305304 197.643742,206.245591 Z M196.352655,206.030352 C196.500589,205.970645 196.742671,205.970645 196.890605,206.030352 C197.038544,206.09006 196.91748,206.138918 196.621632,206.138918 C196.325754,206.138918 196.204716,206.090065 196.352655,206.030352 Z M195.290197,205.810638 C195.445536,205.748455 195.63113,205.756095 195.702635,205.827648 C195.774139,205.899172 195.647032,205.95005 195.420209,205.94071 C195.169523,205.930382 195.118547,205.879367 195.290197,205.810664 L195.290197,205.810638 Z M194.429474,205.5954 C194.584813,205.533216 194.770407,205.540856 194.841912,205.61241 C194.913416,205.683933 194.786309,205.734812 194.559486,205.725471 C194.3088,205.715144 194.257824,205.664129 194.429474,205.595425 L194.429474,205.5954 Z M239.442681,205.2307 C239.442681,205.185997 239.612136,205.016519 239.819245,204.854032 C240.160547,204.58632 240.168144,204.593919 239.900497,204.935306 C239.619388,205.293829 239.442681,205.407863 239.442681,205.2307 Z M190.986572,204.73447 C191.141911,204.672287 191.327505,204.679926 191.399009,204.75148 C191.470514,204.823004 191.343407,204.873882 191.116584,204.864542 C190.865898,204.854214 190.814921,204.803199 190.986572,204.734495 L190.986572,204.73447 Z M182.634857,201.65293 C182.220633,201.426093 181.978551,201.24049 182.096902,201.24049 C182.215253,201.24049 182.650992,201.426093 183.065216,201.65293 C183.47944,201.879767 183.721517,202.06537 183.603171,202.06537 C183.48482,202.06537 183.049081,201.879767 182.634857,201.65293 Z M179.353341,200.023148 C178.548899,199.586626 178.597866,199.404815 179.407137,199.823406 C179.762185,200.007049 180.052683,200.203258 180.052683,200.259416 C180.052683,200.397922 180.029553,200.390106 179.353341,200.023148 Z M177.565431,198.950574 C177.164326,198.629138 177.166968,198.625179 177.63189,198.850533 C177.89818,198.979613 178.11605,199.130233 178.11605,199.185273 C178.11605,199.349973 178.004455,199.302405 177.565431,198.950574 Z M176.489521,198.304863 C176.088421,197.983427 176.091058,197.979463 176.555985,198.204817 C176.822275,198.333896 177.040145,198.484522 177.040145,198.539557 C177.040145,198.704256 176.92855,198.656689 176.489521,198.304863 Z M174.215342,196.756269 C173.947685,196.414882 173.955292,196.407283 174.296584,196.674995 C174.655023,196.956183 174.769012,197.132936 174.59191,197.132936 C174.54722,197.132936 174.377771,196.963433 174.215342,196.756269 Z M172.709073,195.68008 C172.441416,195.338688 172.449028,195.331094 172.790315,195.598806 C173.148754,195.879989 173.262743,196.056743 173.085641,196.056743 C173.040951,196.056743 172.871502,195.887244 172.709073,195.68008 Z M171.84835,195.034364 C171.580693,194.692977 171.5883,194.685378 171.929592,194.95309 C172.136701,195.115577 172.30616,195.285076 172.30616,195.329758 C172.30616,195.506921 172.129454,195.392887 171.84835,195.034364 Z M70.5254714,194.684046 C70.5254714,194.639344 70.6949255,194.469861 70.9020399,194.307379 C71.2433268,194.039667 71.2509389,194.04726 70.9832823,194.388652 C70.7021782,194.747171 70.5254714,194.861205 70.5254714,194.684046 Z M170.772445,194.173414 C170.504783,193.832027 170.512395,193.824428 170.853687,194.09214 C171.212126,194.373328 171.32611,194.550082 171.149008,194.550082 C171.104318,194.550082 170.934874,194.380578 170.772445,194.173414 Z M71.6013764,193.823091 C71.6013764,193.778389 71.7708305,193.608911 71.977945,193.446429 C72.3192319,193.178712 72.3268439,193.18631 72.0591874,193.527697 C71.7780832,193.886221 71.6013764,194.000255 71.6013764,193.823091 Z M169.595948,193.204844 L169.186031,192.720557 L169.670191,193.130587 C169.936476,193.356093 170.154345,193.57402 170.154345,193.614869 C170.154345,193.787107 169.981171,193.659926 169.595948,193.204844 Z M73.5380095,192.074846 C73.8159656,191.77889 74.0918061,191.536749 74.1509766,191.536749 C74.2101522,191.536749 74.0311476,191.77889 73.7531865,192.074846 C73.4752304,192.370797 73.1993899,192.612938 73.1402194,192.612938 C73.0810438,192.612938 73.2600484,192.370797 73.5380095,192.074846 Z M166.385006,190.191512 L164.021683,187.770086 L166.442471,190.134022 C167.773906,191.434213 168.863258,192.523852 168.863258,192.555448 C168.863258,192.71068 168.580155,192.440619 166.385006,190.191512 Z M76.7657246,188.886547 C76.7657246,188.84949 77.080425,188.534721 77.4650611,188.187021 L78.1644026,187.554847 L77.5323953,188.254373 C76.9432766,188.906433 76.7657246,189.052842 76.7657246,188.886547 Z M163.037082,186.640088 L162.515414,186.048181 L163.107165,186.569987 C163.432625,186.856982 163.69891,187.123337 163.69891,187.161888 C163.69891,187.330699 163.524658,187.193327 163.037082,186.640088 Z M78.9175346,186.505004 C78.9175346,186.460302 79.0869938,186.290824 79.2941032,186.128336 C79.6353951,185.860624 79.6430021,185.868223 79.3753456,186.20961 C79.0942414,186.568134 78.9175346,186.682168 78.9175346,186.505004 Z M161.950017,185.34866 C161.682356,185.007278 161.689968,184.999669 162.03126,185.267397 C162.238369,185.429868 162.407828,185.599367 162.407828,185.644054 C162.407828,185.821213 162.231121,185.707184 161.950017,185.34866 Z M161.089289,184.272472 C160.821633,183.93109 160.829245,183.923476 161.170532,184.191208 C161.377646,184.35368 161.5471,184.523179 161.5471,184.567871 C161.5471,184.745019 161.370398,184.631005 161.089289,184.272472 Z M160.443748,183.411522 C160.176092,183.07014 160.183699,183.062526 160.524991,183.330253 C160.7321,183.492725 160.901559,183.662229 160.901559,183.706921 C160.901559,183.884069 160.724852,183.77005 160.443748,183.411522 Z M150.159489,159.55599 C150.169814,159.305247 150.220801,159.254247 150.289491,159.425948 C150.351653,159.581323 150.34401,159.766966 150.272536,159.838489 C150.201032,159.910008 150.150172,159.782882 150.159515,159.55599 L150.159489,159.55599 Z M149.729125,156.973135 C149.73945,156.722392 149.790442,156.671392 149.859132,156.843093 C149.921289,156.998468 149.913646,157.184111 149.842177,157.255634 C149.770673,157.327153 149.719818,157.200027 149.729161,156.973135 L149.729125,156.973135 Z M149.530934,155.161547 C149.530934,154.865596 149.579774,154.744526 149.639466,154.892499 C149.699158,155.040476 149.699158,155.282618 149.639466,155.430595 C149.579774,155.578568 149.530934,155.457478 149.530934,155.161547 Z M92.5079219,153.224403 C92.5079219,152.928453 92.5567625,152.807382 92.6164593,152.95536 C92.6761511,153.103333 92.6761511,153.345479 92.6164593,153.493452 C92.5567675,153.64143 92.5079219,153.520384 92.5079219,153.224403 Z M149.340379,152.363453 C149.340379,151.830738 149.382337,151.612811 149.433637,151.879171 C149.484927,152.145526 149.484927,152.58138 149.433637,152.847741 C149.382347,153.114096 149.340379,152.896189 149.340379,152.363453 Z M0.000314449426,151.394884 C0.00284504987,150.92136 0.0467762736,150.75299 0.0982385642,151.020727 C0.149710977,151.288465 0.147737109,151.67589 0.0936834834,151.881677 C0.0398221835,152.087464 -0.00229206903,151.868413 9.68177881e-05,151.394884 L0.000314449426,151.394884 Z M241.868287,150.211076 C241.868287,149.678361 241.910245,149.460434 241.961525,149.726789 C242.012825,149.993149 242.012825,150.429003 241.961525,150.695358 C241.91025,150.961718 241.868287,150.743807 241.868287,150.211076 Z M0.178220722,147.933143 C0.188545572,147.6824 0.23953717,147.6314 0.308222728,147.803101 C0.370384397,147.958476 0.362741984,148.144119 0.291267705,148.215642 C0.219763059,148.287161 0.168908112,148.160035 0.178251089,147.933143 L0.178220722,147.933143 Z M241.636429,147.305363 C241.640984,146.950221 241.689045,146.830993 241.743615,147.04041 C241.798159,147.249832 241.794591,147.540401 241.735669,147.686126 C241.676731,147.831846 241.632106,147.66051 241.636474,147.305363 L241.636429,147.305363 Z M0.393402739,145.780872 C0.403727588,145.530129 0.454714126,145.479129 0.523404744,145.65083 C0.585566414,145.806205 0.577924,145.991848 0.506449722,146.063371 C0.434945075,146.13489 0.384090129,146.007764 0.393433106,145.780872 L0.393402739,145.780872 Z M241.413285,145.260711 C241.413285,144.964761 241.462126,144.843685 241.521823,144.991663 C241.581515,145.139641 241.581515,145.381782 241.521823,145.52976 C241.462136,145.677733 241.413285,145.556642 241.413285,145.260711 Z M241.181108,143.41325 C241.191433,143.162513 241.242434,143.111508 241.31112,143.283214 C241.373287,143.438583 241.365644,143.624232 241.294114,143.69575 C241.22261,143.767273 241.17174,143.640148 241.181083,143.41325 L241.181108,143.41325 Z M240.965926,141.906589 C240.976251,141.655847 241.027252,141.604847 241.095938,141.776548 C241.158105,141.931922 241.150467,142.117565 241.078932,142.189089 C241.007428,142.260607 240.956563,142.133482 240.9659,141.906589 L240.965926,141.906589 Z M240.750744,140.615162 C240.761069,140.364419 240.81207,140.31342 240.880756,140.48512 C240.942923,140.640495 240.935285,140.826138 240.86375,140.897661 C240.792246,140.96918 240.741376,140.842055 240.750713,140.615162 L240.750744,140.615162 Z M240.320385,138.247541 C240.33071,137.996803 240.381711,137.945803 240.450397,138.117504 C240.512559,138.272879 240.504921,138.458522 240.433391,138.530045 C240.361887,138.601564 240.311017,138.474438 240.320354,138.247541 L240.320385,138.247541 Z M137.235986,102.755609 C123.72221,89.2365997 124.044462,89.5016284 120.921159,89.3375719 C119.215788,89.2479954 119.065673,89.2784618 117.585848,90.0144785 C116.145916,90.73065 115.210389,91.6123361 104.362707,102.476623 L92.689128,114.168067 L92.689128,96.4103236 L92.689128,78.6525798 L100.210523,71.1152545 C106.132968,65.1802722 107.836963,63.3491482 108.226023,62.5017405 L108.720128,61.4255518 L108.829536,33.7674837 C108.952776,2.61343112 108.818654,4.93314049 110.625007,2.71601328 C112.568083,0.331083267 114.541738,-0.113457959 122.586229,0.0218787977 C127.555959,0.105491631 128.197618,0.158450813 129.239273,0.57098669 C131.444327,1.44427909 132.42284,2.39886569 133.337819,4.56933151 L133.896322,5.89417675 L134.003913,34.3055805 L134.111504,62.7169793 L134.603423,63.7931679 C134.990498,64.6399833 136.607441,66.3837635 142.189814,71.9746503 L149.284286,79.0799439 L149.229235,96.8891888 L149.174185,114.698429 L137.235986,102.755609 Z M222.415911,98.823138 C222.14827,98.4817561 222.155866,98.474142 222.497163,98.7418691 C222.704278,98.9043411 222.873732,99.0738449 222.873732,99.118537 C222.873732,99.2956852 222.697025,99.1816668 222.415911,98.823138 Z M221.555188,97.7469443 C221.287547,97.4055674 221.295138,97.3979533 221.63644,97.6656804 C221.84355,97.8281524 222.013009,97.9976511 222.013009,98.0423483 C222.013009,98.2194965 221.836302,98.1054781 221.555188,97.7469443 Z M220.593889,96.5631362 L220.183967,96.0788541 L220.668126,96.4888789 C221.123103,96.8742037 221.25023,97.0474234 221.078043,97.0474234 C221.037199,97.0474234 220.81933,96.8294964 220.593889,96.5631362 Z M21.2489869,96.5356972 C21.2489869,96.4909951 21.418441,96.3215014 21.6255555,96.1590294 C21.9668424,95.8913023 21.9744544,95.8989164 21.7067979,96.2402983 C21.4256886,96.5988271 21.2489869,96.7128455 21.2489869,96.5356972 Z M219.414543,95.1641096 L218.89288,94.5722031 L219.484625,95.0940087 C219.810091,95.3809988 220.076376,95.647359 220.076376,95.6859102 C220.076376,95.8547154 219.902124,95.7173485 219.414543,95.1641096 Z M22.862847,94.6798224 C23.0770573,94.4430578 23.300732,94.2493449 23.3599075,94.2493449 C23.4190831,94.2493449 23.2922342,94.4430578 23.078024,94.6798224 C22.8638137,94.916582 22.6401339,95.1102999 22.5809634,95.1102999 C22.5217879,95.1102999 22.6486317,94.916582 22.862847,94.6798224 Z M217.912986,93.4422047 L217.171429,92.6350644 L217.978361,93.3768068 C218.729428,94.067205 218.88423,94.2493449 218.719918,94.2493449 C218.683984,94.2493449 218.320843,93.8861333 217.912986,93.4422047 Z M24.046343,93.321043 C24.046343,93.2839853 24.3610434,92.9692171 24.7456795,92.6215221 L25.445016,91.9893482 L24.8130137,92.688869 C24.223895,93.3409236 24.046343,93.4873271 24.046343,93.321043 Z M214.912028,90.2674432 C214.030321,89.379591 213.357363,88.6531627 213.416539,88.6531627 C213.475715,88.6531627 214.245503,89.379591 215.12721,90.2674432 C216.008916,91.1553005 216.681874,91.8817288 216.622698,91.8817288 C216.563523,91.8817288 215.793734,91.1553005 214.912028,90.2674432 Z M29.4258682,87.8998119 C29.827353,87.4854788 30.2042505,87.1464813 30.263426,87.1464813 C30.3226016,87.1464813 30.0425299,87.4854788 29.6410502,87.8998119 C29.2395704,88.314145 28.8626678,88.6531475 28.8034973,88.6531475 C28.7443218,88.6531475 29.0243884,88.314145 29.4258682,87.8998119 Z M211.566584,87.0926716 L210.715994,86.177912 L211.630517,87.0287369 C212.481022,87.8199909 212.643911,88.0074313 212.481108,88.0074313 C212.445983,88.0074313 212.034431,87.5957915 211.566584,87.0926716 Z M31.4700923,86.0702926 C31.6843025,85.833528 31.9079823,85.6398151 31.9671528,85.6398151 C32.0263283,85.6398151 31.8994845,85.833528 31.6852743,86.0702926 C31.4710589,86.3070522 31.2473842,86.5007651 31.1882087,86.5007651 C31.1290331,86.5007651 31.255882,86.3070522 31.4700923,86.0702926 Z M209.731393,85.4783861 L209.20973,84.8864846 L209.801475,85.4082851 C210.126936,85.6952803 210.393226,85.9616354 210.393226,86.0001917 C210.393226,86.1689969 210.218968,86.0316301 209.731393,85.4783861 Z M32.8687703,84.9128351 C32.8687703,84.8681329 33.0382244,84.6986443 33.2453338,84.5361723 C33.5866257,84.2684401 33.5942378,84.2760542 33.3265812,84.6174361 C33.045472,84.9759699 32.8687703,85.0899884 32.8687703,84.9128351 Z M208.328559,84.294578 L207.918643,83.8102959 L208.402797,84.2203207 C208.857779,84.6056404 208.984906,84.7788652 208.812719,84.7788652 C208.771875,84.7788652 208.554005,84.5609332 208.328559,84.294578 Z M33.9446753,84.0518851 C33.9446753,84.0071829 34.1141294,83.8376892 34.3212388,83.6752173 C34.6625307,83.4074902 34.6701428,83.4151042 34.4024862,83.7564862 C34.121377,84.1150149 33.9446753,84.2290334 33.9446753,84.0518851 Z M207.252654,83.4336281 L206.842732,82.9493409 L207.326892,83.3593657 C207.781874,83.7446905 207.909001,83.9179102 207.736814,83.9179102 C207.69597,83.9179102 207.4781,83.6999832 207.252654,83.4336281 Z M206.176749,82.5726781 L205.766827,82.0883909 L206.250987,82.4984158 C206.705964,82.8837405 206.833096,83.0569602 206.660909,83.0569602 C206.620065,83.0569602 206.402195,82.8390333 206.176749,82.5726781 Z M36.0964854,82.3299802 C36.0964854,82.285278 36.2659394,82.1157894 36.4730539,81.9533174 C36.8143408,81.6855852 36.8219528,81.6931993 36.5542963,82.0345812 C36.2731921,82.393115 36.0964854,82.5071335 36.0964854,82.3299802 Z M205.20142,81.8193425 C204.933779,81.4779605 204.941371,81.4703516 205.282673,81.7380787 C205.489782,81.9005506 205.659236,82.0700494 205.659236,82.1147465 C205.659236,82.2918947 205.48253,82.1778763 205.20142,81.8193425 Z M203.830199,80.7781055 L203.184653,80.2232922 L203.883995,80.6862104 C204.268631,80.9408205 204.583331,81.1909654 204.583331,81.242092 C204.583331,81.4032122 204.492204,81.3470738 203.830199,80.7781055 Z M202.32393,79.7019168 L201.678389,79.1471035 L202.377726,79.6100217 C202.762362,79.8646318 203.077062,80.1147767 203.077062,80.1659033 C203.077062,80.3270235 202.985935,80.2708851 202.32393,79.7019168 Z M199.472779,77.8664896 C198.739335,77.3966509 198.50197,77.0811385 199.150011,77.4374296 C199.643721,77.7088828 200.417168,78.3071428 200.279711,78.3112536 C200.220536,78.3127723 199.857415,78.1128832 199.472779,77.8664896 Z M198.007632,76.9108044 C197.606537,76.5893739 197.609184,76.5853999 198.074101,76.8107637 C198.340391,76.9398381 198.55826,77.0904637 198.55826,77.1454934 C198.55826,77.3101929 198.446666,77.2626304 198.007632,76.9108044 Z M196.931727,76.2650932 C196.530632,75.9436577 196.533279,75.9396836 196.998196,76.1650474 C197.264486,76.2941218 197.482355,76.4447525 197.482355,76.4997772 C197.482355,76.6644817 197.370761,76.6169192 196.931727,76.2650932 Z M195.855822,75.619377 C195.454722,75.2979465 195.457369,75.2939724 195.922291,75.5193362 C196.188576,75.6484106 196.40645,75.7990362 196.40645,75.854066 C196.40645,76.0187705 196.294856,75.9712029 195.855822,75.619377 Z M194.20084,74.7548124 C193.396407,74.3182801 193.445364,74.1364642 194.254635,74.555065 C194.609688,74.7387135 194.900181,74.9349172 194.900181,74.9910657 C194.900181,75.1295716 194.877051,75.1217601 194.20084,74.7548124 Z M190.381374,72.7255407 C189.020356,72.0274829 187.981029,71.451341 188.071771,71.4452306 C188.300426,71.4298405 192.963548,73.7804819 192.963548,73.911146 C192.963548,74.058086 193.115425,74.1278174 190.381374,72.7255407 Z M186.508113,70.8960214 C186.21224,70.7268366 186.066994,70.5884167 186.185345,70.5884167 C186.303691,70.5884167 186.642604,70.7268366 186.938477,70.8960214 C187.23435,71.0652012 187.379601,71.2036211 187.26125,71.2036211 C187.142899,71.2036211 186.803991,71.0652012 186.508113,70.8960214 Z M149.315752,70.3579245 C149.315752,70.0619738 149.364592,69.9409033 149.424284,70.0888761 C149.483981,70.236854 149.483981,70.4789951 149.424284,70.626973 C149.364592,70.7749509 149.315752,70.653855 149.315752,70.3579245 Z M184.786667,70.1426858 C184.60914,70.0279333 184.560725,69.9340435 184.679076,69.9340435 C184.797427,69.9340435 185.039504,70.0279333 185.217031,70.1426858 C185.394552,70.2574433 185.442968,70.3513331 185.324617,70.3513331 C185.206271,70.3513331 184.964188,70.2574433 184.786667,70.1426858 Z M183.710762,69.7122134 C183.533235,69.5974558 183.48482,69.503566 183.603171,69.503566 C183.721517,69.503566 183.963599,69.5974558 184.141121,69.7122134 C184.318647,69.8269658 184.367063,69.9208556 184.248712,69.9208556 C184.130366,69.9208556 183.888283,69.8269658 183.710762,69.7122134 Z M182.634857,69.2817359 C182.45733,69.1669783 182.408915,69.0730885 182.527266,69.0730885 C182.645612,69.0730885 182.887694,69.1669783 183.065216,69.2817359 C183.242742,69.3964934 183.291158,69.4903832 183.172807,69.4903832 C183.054456,69.4903832 182.812378,69.3964934 182.634857,69.2817359 Z M180.913406,68.6360247 C180.735879,68.5212671 180.687464,68.4273773 180.805815,68.4273773 C180.924166,68.4273773 181.166243,68.5212671 181.34377,68.6360247 C181.521291,68.7507772 181.569707,68.8446669 181.451356,68.8446669 C181.33301,68.8446669 181.090927,68.7507772 180.913406,68.6360247 Z M176.139074,66.9823273 C176.294407,66.9201492 176.480001,66.9277936 176.551506,66.9992867 C176.623005,67.0708102 176.495914,67.1216786 176.269081,67.1123332 C176.018405,67.1020056 175.967418,67.0510056 176.139074,66.9822969 L176.139074,66.9823273 Z M173.987264,66.336611 C174.142597,66.274438 174.328191,66.2820824 174.399691,66.3535705 C174.471195,66.4250889 174.344104,66.4759623 174.117266,66.4666169 C173.866594,66.4562893 173.815603,66.4052843 173.987264,66.3365806 L173.987264,66.336611 Z M173.126536,66.1213722 C173.281869,66.0591993 173.467468,66.0668437 173.538968,66.1383317 C173.610472,66.2098552 173.483381,66.2607236 173.256543,66.2513782 C173.005866,66.2410506 172.95488,66.1900506 173.126536,66.1213419 L173.126536,66.1213722 Z M172.265813,65.9061386 C172.421146,65.8439605 172.60674,65.8516049 172.678245,65.9230981 C172.749744,65.9946216 172.622653,66.0454899 172.39582,66.0361445 C172.145143,66.0258169 172.094157,65.9748169 172.265813,65.9061082 L172.265813,65.9061386 Z M90.2946891,65.4612632 C90.0270325,65.1198813 90.0346446,65.1122723 90.3759315,65.3799994 C90.7343708,65.6611777 90.8483592,65.837931 90.6712576,65.837931 C90.6265672,65.837931 90.4571182,65.6684323 90.2946891,65.4612632 Z M171.40509,65.6908998 C171.560423,65.6287218 171.746017,65.6363662 171.817517,65.7078593 C171.889021,65.7793828 171.76193,65.8302512 171.535092,65.8209057 C171.28442,65.8105781 171.233434,65.7595782 171.40509,65.6908694 L171.40509,65.6908998 Z M170.544362,65.4756611 C170.699695,65.413483 170.885294,65.4211325 170.956794,65.4926206 C171.028298,65.564144 170.901207,65.6150175 170.674369,65.605672 C170.423692,65.5953445 170.372706,65.5443394 170.544362,65.4756307 L170.544362,65.4756611 Z M169.455009,65.2649077 C169.602948,65.2051951 169.845025,65.2051951 169.992964,65.2649077 C170.140898,65.3246153 170.019839,65.3734687 169.723986,65.3734687 C169.428109,65.3734687 169.30707,65.3246153 169.455009,65.2649077 Z M168.607733,65.0451836 C168.763067,64.9830106 168.948661,64.990655 169.020166,65.062143 C169.091665,65.1336615 168.964573,65.1845349 168.737741,65.1751895 C168.487064,65.1648619 168.436078,65.1138619 168.607733,65.0451532 L168.607733,65.0451836 Z M167.518376,64.8344302 C167.666315,64.7747227 167.908392,64.7747227 168.056331,64.8344302 C168.20427,64.8941378 168.083256,64.9429963 167.787353,64.9429963 C167.491481,64.9429963 167.370442,64.8941428 167.518376,64.8344302 Z M153.034778,64.4507558 C153.264511,64.2666568 153.546936,64.1160261 153.662392,64.1160261 C153.935788,64.1160261 153.813712,64.2154441 153.155037,64.5292201 C152.647798,64.77086 152.64093,64.7663745 153.034778,64.4507558 Z M166.442471,64.6191915 C166.59041,64.5594839 166.832487,64.5594839 166.980426,64.6191915 C167.128365,64.6789041 167.007301,64.7277575 166.711448,64.7277575 C166.415576,64.7277575 166.294537,64.6789041 166.442471,64.6191915 Z M165.263069,64.3973461 C165.472436,64.342772 165.762929,64.3463613 165.908615,64.4053449 C166.054297,64.4643032 165.883006,64.5089548 165.527952,64.5045655 C165.172904,64.5000093 165.053708,64.4519405 165.263069,64.3973714 L165.263069,64.3973461 Z M77.8012817,64.1842336 C77.956615,64.1220556 78.1422143,64.129705 78.2137139,64.2011931 C78.2852186,64.2727166 78.1581267,64.32359 77.9312888,64.3142446 C77.6806126,64.303917 77.629626,64.252912 77.8012817,64.1842032 L77.8012817,64.1842336 Z M163.971982,64.1822086 C164.181349,64.1276345 164.471842,64.1312238 164.617528,64.1902074 C164.76321,64.2491708 164.591919,64.2938173 164.236865,64.2894331 C163.881817,64.2848768 163.762621,64.236803 163.971982,64.1822339 L163.971982,64.1822086 Z M79.0789211,63.9736068 C79.22686,63.9138942 79.4689373,63.9138942 79.6168762,63.9736068 C79.76481,64.0333144 79.6437512,64.0821678 79.3478987,64.0821678 C79.0520259,64.0821678 78.9309873,64.0333144 79.0789211,63.9736068 Z M162.465718,63.9670255 C162.67508,63.9124514 162.965578,63.9160407 163.111259,63.9750243 C163.256946,64.0339826 163.08565,64.0786342 162.730596,64.074245 C162.375548,64.0696887 162.256352,64.0216199 162.465718,63.9670508 L162.465718,63.9670255 Z M80.8003722,63.7583934 C80.9483061,63.6986859 81.1903884,63.6986859 81.3383222,63.7583934 C81.4862611,63.8181009 81.3652478,63.8669544 81.0693497,63.8669544 C80.7734719,63.8669544 80.6524333,63.8181009 80.8003722,63.7583934 Z M154.83614,63.7538371 C154.991473,63.6916591 155.177068,63.6993035 155.248572,63.7707966 C155.320072,63.8423201 155.19298,63.8931885 154.966147,63.883843 C154.715471,63.8735154 154.664484,63.8225155 154.83614,63.7538067 L154.83614,63.7538371 Z M160.740173,63.7523184 C160.947282,63.6981796 161.286195,63.6981796 161.493305,63.7523184 C161.700419,63.8064571 161.53096,63.8507492 161.116741,63.8507492 C160.702517,63.8507492 160.533058,63.806452 160.740173,63.7523184 Z M82.5218182,63.5429015 C82.6697571,63.4831889 82.9118344,63.4831889 83.0597733,63.5429015 C83.2077122,63.6026091 83.0866989,63.6514625 82.7907958,63.6514625 C82.494923,63.6514625 82.3738844,63.6026091 82.5218182,63.5429015 Z M85.4308598,63.5363202 C85.6402265,63.4817461 85.9307192,63.4853354 86.0764059,63.544319 C86.2220875,63.6032773 86.0507962,63.6479289 85.6957429,63.6435397 C85.3406946,63.6389834 85.2214982,63.5909146 85.4308598,63.5363455 L85.4308598,63.5363202 Z M155.901103,63.5332827 C156.168769,63.4817967 156.556098,63.4837711 156.761831,63.537839 C156.967564,63.5917145 156.74857,63.6338348 156.275161,63.6314453 C155.801767,63.628914 155.633441,63.5849712 155.901103,63.5334953 L155.901103,63.5332827 Z M158.913641,63.5332827 C159.181308,63.4817967 159.568631,63.4837711 159.774364,63.537839 C159.980097,63.5917145 159.761104,63.6338348 159.287699,63.6314453 C158.8143,63.628914 158.645974,63.5849712 158.913641,63.5334953 L158.913641,63.5332827 Z" id="el_4a1QuEJpup"/>
            <path d="M116.069793,357.920842 C116.694172,357.877344 117.661051,357.877748 118.218419,357.920842 C118.775781,357.964947 118.264913,358.000549 117.083191,357.999994 C115.901444,357.999994 115.445418,357.963366 116.069793,357.919832 L116.069793,357.920842 Z M124.657085,357.920842 C125.277497,357.877445 126.29272,357.877445 126.913137,357.920842 C127.533549,357.96424 127.025941,357.999716 125.785111,357.999716 C124.544281,357.999716 124.036667,357.96425 124.657085,357.920842 Z M112.195071,357.712812 C112.460966,357.661604 112.896059,357.661604 113.161955,357.712812 C113.427845,357.764 113.210319,357.805882 112.678513,357.805882 C112.146727,357.805882 111.929181,357.764 112.195071,357.712812 Z M129.813779,357.712812 C130.079669,357.661604 130.514762,357.661604 130.780657,357.712812 C131.046548,357.764 130.829021,357.805882 130.297216,357.805882 C129.76543,357.805882 129.547883,357.764 129.813779,357.712812 Z M109.728244,357.500745 C109.9373,357.446293 110.227362,357.44986 110.372833,357.508676 C110.518299,357.567508 110.347261,357.612058 109.992734,357.607698 C109.638212,357.603151 109.519193,357.555181 109.728244,357.500709 L109.728244,357.500745 Z M132.499552,357.500745 C132.70636,357.446702 133.044765,357.446702 133.251573,357.500745 C133.458375,357.554767 133.289172,357.598973 132.875562,357.598973 C132.461953,357.598973 132.29275,357.554767 132.499552,357.500745 Z M107.794486,357.285156 C108.003543,357.230705 108.293605,357.234271 108.43907,357.293088 C108.584541,357.35192 108.413499,357.396469 108.058977,357.392109 C107.704454,357.387562 107.58543,357.339593 107.794486,357.285121 L107.794486,357.285156 Z M134.652266,357.285156 C134.861318,357.230705 135.151385,357.234271 135.296851,357.293088 C135.442321,357.35192 135.271279,357.396469 134.916752,357.392109 C134.56223,357.387562 134.44321,357.339593 134.652266,357.285121 L134.652266,357.285156 Z M105.964066,357.07801 C106.111786,357.018425 106.353505,357.018425 106.501224,357.07801 C106.648944,357.137594 106.528059,357.186352 106.232645,357.186352 C105.937211,357.186352 105.816352,357.137599 105.964066,357.07801 Z M136.259641,357.07801 C136.407361,357.018425 136.649079,357.018425 136.796799,357.07801 C136.944518,357.137594 136.823634,357.186352 136.52822,357.186352 C136.232786,357.186352 136.111926,357.137599 136.259641,357.07801 Z M104.460035,356.863215 C104.60775,356.80363 104.849468,356.80363 104.997188,356.863215 C105.144907,356.922799 105.024073,356.971557 104.728609,356.971557 C104.433175,356.971557 104.312315,356.922804 104.460035,356.863215 Z M137.978541,356.863215 C138.12626,356.80363 138.367979,356.80363 138.515698,356.863215 C138.663413,356.922799 138.542534,356.971557 138.24712,356.971557 C137.951685,356.971557 137.830821,356.922804 137.978541,356.863215 Z M102.969426,356.643953 C103.124529,356.581898 103.309848,356.589522 103.381247,356.660928 C103.452641,356.732305 103.325737,356.783078 103.09924,356.773757 C102.848936,356.763451 102.798025,356.712541 102.969426,356.643979 L102.969426,356.643953 Z M139.482577,356.6485 C139.630297,356.588916 139.872015,356.588916 140.01973,356.6485 C140.16745,356.708085 140.046616,356.756843 139.751156,356.756843 C139.455717,356.756843 139.334858,356.70809 139.482577,356.6485 Z M101.451962,356.433705 C101.599681,356.37412 101.8414,356.37412 101.989114,356.433705 C102.136834,356.493289 102.016,356.542047 101.720541,356.542047 C101.425101,356.542047 101.304242,356.493295 101.451962,356.433705 Z M141.000042,356.429158 C141.155145,356.367103 141.340464,356.374732 141.411862,356.446133 C141.483256,356.517509 141.356353,356.568288 141.129856,356.558962 C140.879551,356.548656 140.82864,356.497745 141.000042,356.429183 L141.000042,356.429158 Z M100.176216,356.214363 C100.331319,356.152308 100.516638,356.159937 100.588037,356.231338 C100.659436,356.302714 100.532527,356.353493 100.30603,356.344172 C100.055726,356.333865 100.004815,356.28295 100.176216,356.214388 L100.176216,356.214363 Z M142.289215,356.214363 C142.444318,356.152308 142.629637,356.159937 142.701036,356.231338 C142.77243,356.302714 142.645526,356.353493 142.419029,356.344172 C142.168725,356.333865 142.117814,356.28295 142.289215,356.214388 L142.289215,356.214363 Z M99.1019056,355.999568 C99.2570087,355.937518 99.4423278,355.945141 99.5137265,356.016543 C99.5851201,356.087919 99.4582167,356.138697 99.23172,356.129376 C98.9814153,356.11907 98.9305043,356.06816 99.1019056,355.999598 L99.1019056,355.999568 Z M143.578389,355.999568 C143.733492,355.937518 143.918811,355.945141 143.990209,356.016543 C144.061603,356.087919 143.9347,356.138697 143.708203,356.129376 C143.457898,356.11907 143.406987,356.06816 143.578389,355.999598 L143.578389,355.999568 Z M98.0275952,355.784777 C98.1826983,355.722722 98.3680174,355.730346 98.4394161,355.801752 C98.5108097,355.873129 98.3839063,355.923907 98.1574096,355.914586 C97.9071049,355.90428 97.8561939,355.85337 98.0275952,355.784808 L98.0275952,355.784777 Z M144.652699,355.784777 C144.807802,355.722722 144.993121,355.730346 145.06452,355.801752 C145.135913,355.873129 145.00901,355.923907 144.782513,355.914586 C144.532209,355.90428 144.481298,355.85337 144.652699,355.784808 L144.652699,355.784777 Z M146.586462,355.355187 C146.74156,355.293132 146.926884,355.300756 146.998278,355.372162 C147.069676,355.443538 146.942773,355.494312 146.716271,355.484991 C146.465966,355.474684 146.415055,355.423774 146.586462,355.355212 L146.586462,355.355187 Z M148.520219,354.925596 C148.675322,354.863541 148.860642,354.87117 148.93204,354.942571 C149.003434,355.013948 148.87653,355.064726 148.650034,355.055405 C148.399729,355.045099 148.348818,354.994189 148.520219,354.925622 L148.520219,354.925596 Z M193.251848,334.15616 C193.251848,334.11155 193.421056,333.942421 193.627859,333.780273 C193.96865,333.513108 193.976236,333.520691 193.708991,333.86138 C193.428293,334.21916 193.251848,334.332958 193.251848,334.15616 Z M196.045059,332.008218 C196.045059,331.963608 196.214261,331.794478 196.421069,331.632326 C196.76186,331.365166 196.769446,331.372749 196.502201,331.713433 C196.221503,332.071217 196.045059,332.185016 196.045059,332.008218 Z M45.6140901,331.069052 C45.3468252,330.728368 45.354426,330.720785 45.6952121,330.987945 C45.9020145,331.150093 46.0712225,331.319242 46.0712225,331.363837 C46.0712225,331.54063 45.8947776,331.426832 45.6140901,331.069052 Z M197.119369,331.149042 C197.119369,331.104432 197.288577,330.935297 197.495379,330.77315 C197.83617,330.50599 197.843756,330.513573 197.576511,330.854257 C197.295814,331.212042 197.119369,331.32584 197.119369,331.149042 Z M120.037543,330.85606 C120.835219,330.814734 122.140509,330.814734 122.938185,330.85606 C123.735861,330.897386 123.083216,330.931215 121.487864,330.931215 C119.892512,330.931215 119.239867,330.897417 120.037543,330.85606 Z M114.55856,330.658301 C114.706274,330.598716 114.947993,330.598716 115.095712,330.658301 C115.243432,330.717885 115.122598,330.766643 114.827134,330.766643 C114.531699,330.766643 114.41084,330.71789 114.55856,330.658301 Z M127.776673,330.651632 C127.985729,330.59718 128.275791,330.600747 128.421262,330.659564 C128.566728,330.718395 128.39569,330.762945 128.041163,330.758585 C127.686641,330.754038 127.567621,330.706068 127.776673,330.651596 L127.776673,330.651632 Z M112.208504,330.438964 C112.363607,330.376909 112.548926,330.384532 112.620319,330.455939 C112.691718,330.527315 112.564815,330.578088 112.338313,330.568767 C112.088013,330.558461 112.037102,330.507551 112.208504,330.438989 L112.208504,330.438964 Z M130.471791,330.438964 C130.626894,330.376909 130.812213,330.384532 130.883611,330.455939 C130.95501,330.527315 130.828107,330.578088 130.601605,330.568767 C130.3513,330.558461 130.300389,330.507551 130.471791,330.438989 L130.471791,330.438964 Z M44.3249166,329.995081 C44.0576568,329.654392 44.0652525,329.646814 44.4060386,329.913974 C44.7639467,330.194578 44.8777661,330.370967 44.700922,330.370967 C44.6562978,330.370967 44.487105,330.201818 44.3249166,329.995081 Z M110.274741,330.224244 C110.429844,330.162189 110.615163,330.169813 110.686562,330.241219 C110.75796,330.312595 110.631052,330.363369 110.404555,330.354048 C110.154251,330.343741 110.10334,330.292831 110.274741,330.224269 L110.274741,330.224244 Z M198.408542,330.075071 C198.408542,330.030461 198.57775,329.861326 198.784553,329.699179 C199.125344,329.432019 199.13293,329.439602 198.865685,329.780285 C198.584987,330.138065 198.408542,330.251864 198.408542,330.075071 Z M43.0357431,328.921109 C42.7684833,328.580421 42.776079,328.572838 43.1168651,328.840003 C43.4747732,329.120607 43.5885926,329.296996 43.4117485,329.296996 C43.3671243,329.296996 43.1979315,329.127847 43.0357431,328.921109 Z M200.020011,328.652615 C200.233908,328.416339 200.457257,328.223025 200.516344,328.223025 C200.575427,328.223025 200.448766,328.416339 200.234874,328.652615 C200.020976,328.888887 199.797628,329.082201 199.73854,329.082201 C199.679452,329.082201 199.806118,328.888887 200.020011,328.652615 Z M41.4312693,327.524945 L41.0219601,327.041656 L41.505397,327.450841 C41.9597094,327.835367 42.0866533,328.00823 41.9147062,328.00823 C41.8739229,328.00823 41.6563864,327.790752 41.4312693,327.524945 Z M201.846342,327.041656 C202.123876,326.746315 202.399307,326.504668 202.458395,326.504668 C202.517483,326.504668 202.338739,326.746315 202.0612,327.041656 C201.783666,327.336997 201.508234,327.578644 201.449146,327.578644 C201.390058,327.578644 201.568803,327.336997 201.846342,327.041656 Z M36.8291582,323.121658 L33.9315034,320.168239 L36.8858607,323.064973 C39.6302672,325.755855 39.9375625,326.075083 39.7835156,326.075083 C39.7523343,326.075083 38.4228677,324.746041 36.8291582,323.121658 Z M205.713862,323.390152 C206.831852,322.267852 207.79491,321.349607 207.853993,321.349607 C207.913081,321.349607 207.046715,322.267852 205.92872,323.390152 C204.810731,324.512452 203.847672,325.430697 203.788585,325.430697 C203.729502,325.430697 204.595868,324.512452 205.713862,323.390152 Z M210.011104,318.879472 C210.288643,318.584126 210.564075,318.342484 210.623162,318.342484 C210.68225,318.342484 210.503506,318.584126 210.225967,318.879472 C209.948428,319.174813 209.672996,319.416455 209.613908,319.416455 C209.554825,319.416455 209.733565,319.174813 210.011104,318.879472 Z M32.0889144,318.181388 L31.5680195,317.590706 L32.158893,318.111431 C32.7111511,318.598131 32.8482934,318.772074 32.6797828,318.772074 C32.6413242,318.772074 32.3754036,318.506263 32.0889144,318.181388 Z M211.837435,316.838922 C212.051328,316.602651 212.274676,316.409337 212.333764,316.409337 C212.392852,316.409337 212.266191,316.602651 212.052298,316.838922 C211.8384,317.075199 211.615052,317.268513 211.555964,317.268513 C211.496876,317.268513 211.623537,317.075199 211.837435,316.838922 Z M30.4732972,316.355638 L30.0639829,315.872349 L30.5474248,316.281534 C31.0017373,316.666054 31.1286761,316.838922 30.9567341,316.838922 C30.9159507,316.838922 30.6984142,316.621444 30.4732972,316.355638 Z M213.019177,315.469049 C213.019177,315.424439 213.18838,315.25531 213.395187,315.093163 C213.735979,314.825997 213.743564,314.833581 213.476314,315.174264 C213.195622,315.532049 213.019177,315.645848 213.019177,315.469049 Z M29.0696978,314.744679 C28.802438,314.40399 28.8100337,314.396412 29.1508198,314.663572 C29.3576222,314.82572 29.5268302,314.994869 29.5268302,315.039464 C29.5268302,315.216257 29.3503853,315.102459 29.0696978,314.744679 Z M182.293876,308.166041 C182.293876,308.121431 182.463079,307.952302 182.669887,307.79015 C183.010678,307.522989 183.018263,307.530573 182.751019,307.871256 C182.470321,308.229041 182.293876,308.34284 182.293876,308.166041 Z M58.6202458,306.475092 L58.2109366,305.991808 L58.6943785,306.400988 C59.148691,306.785514 59.2756298,306.958381 59.1036878,306.958381 C59.0629044,306.958381 58.8453679,306.740903 58.6202458,306.475092 Z M184.65736,305.991808 C184.934899,305.696467 185.210331,305.45482 185.269419,305.45482 C185.328507,305.45482 185.149762,305.696467 184.872223,305.991808 C184.594684,306.287149 184.319253,306.528791 184.260165,306.528791 C184.201082,306.528791 184.379821,306.287149 184.65736,305.991808 Z M188.739744,301.910713 C189.140634,301.497234 189.516962,301.158935 189.57605,301.158935 C189.635138,301.158935 189.355497,301.497234 188.954607,301.910713 C188.553717,302.324193 188.177383,302.662492 188.118295,302.662492 C188.059213,302.662492 188.338854,302.324193 188.739744,301.910713 Z M53.1454114,300.997839 L52.6245164,300.407152 L53.2153899,300.927877 C53.7676481,301.414582 53.9047954,301.58852 53.7362849,301.58852 C53.6977757,301.58852 53.4319056,301.322714 53.1454114,300.997839 Z M190.888365,299.574267 C190.888365,299.529657 191.057567,299.360522 191.264375,299.198375 C191.605166,298.931215 191.612752,298.938798 191.345507,299.279482 C191.064809,299.637267 190.888365,299.751065 190.888365,299.574267 Z M51.2005052,298.849891 C50.9332454,298.509208 50.9408461,298.501624 51.2816322,298.768785 C51.4884347,298.930937 51.6576376,299.100086 51.6576376,299.144676 C51.6576376,299.321475 51.4811978,299.207676 51.2005052,298.849891 Z M1.18197867,245.187106 C1.19228821,244.93687 1.24319918,244.885985 1.31178799,245.057322 C1.37385753,245.212387 1.36622139,245.397647 1.2948581,245.469023 C1.22345943,245.5404 1.17267481,245.413516 1.18200394,245.187106 L1.18197867,245.187106 Z M241.612807,244.327925 C241.623117,244.077689 241.674043,244.026804 241.742626,244.198147 C241.804701,244.353206 241.79707,244.538466 241.725646,244.609842 C241.654247,244.681219 241.603453,244.55434 241.612777,244.327925 L241.612807,244.327925 Z M28.2546169,243.683544 C28.2649265,243.433309 28.3158425,243.382424 28.3844313,243.553766 C28.4464958,243.708825 28.4388647,243.894086 28.3674509,243.965462 C28.2960573,244.036838 28.2452726,243.909959 28.2546018,243.683544 L28.2546169,243.683544 Z M214.540164,242.824363 C214.550473,242.574128 214.601399,242.523243 214.669983,242.694585 C214.732058,242.849649 214.724432,243.034905 214.653003,243.106281 C214.581604,243.177657 214.530814,243.050778 214.540138,242.824363 L214.540164,242.824363 Z M1,240.801713 C1,240.388234 1.04421987,240.219079 1.09826413,240.425821 C1.15230334,240.632559 1.15230334,240.970863 1.09826413,241.1776 C1.04421987,241.384342 1,241.215187 1,240.801713 Z M241.900272,235.53925 C241.900484,233.294645 241.932312,232.405591 241.971023,233.563549 C242.009735,234.721526 242.009583,236.558017 241.971023,237.644643 C241.93211,238.731285 241.900443,237.783849 241.900635,235.53925 L241.900272,235.53925 Z M28.0964513,237.472397 C28.097462,236.527305 28.135011,236.167393 28.1803932,236.672588 C28.2257755,237.177809 28.2251185,237.951069 28.1788771,238.390945 C28.1326863,238.830842 28.095572,238.417469 28.0963502,237.472397 L28.0964513,237.472397 Z M214.792262,234.680069 C214.794789,234.207525 214.838655,234.039492 214.890046,234.306693 C214.941443,234.573879 214.939472,234.960506 214.885498,235.165874 C214.831717,235.371217 214.78967,235.152536 214.79205,234.680069 L214.792262,234.680069 Z M25.3166032,225.282817 L24.9072889,224.799528 L25.3907309,225.208713 C25.8450433,225.593239 25.9719821,225.766106 25.8000401,225.766106 C25.7592567,225.766106 25.5417203,225.548623 25.3166032,225.282817 Z M217.42385,225.336516 C217.637748,225.100239 217.861096,224.906925 217.920184,224.906925 C217.979272,224.906925 217.852611,225.100239 217.638713,225.336516 C217.42482,225.572788 217.201467,225.766106 217.142384,225.766106 C217.083296,225.766106 217.209957,225.572788 217.42385,225.336516 Z M11.9618433,223.028164 C13.3503877,222.990728 15.6225563,222.990728 17.0111057,223.028164 C18.3996501,223.0656 17.2635683,223.096191 14.4864745,223.096191 C11.7093756,223.096191 10.5732938,223.065575 11.9618433,223.028164 Z M225.976741,223.028058 C227.371972,222.990572 229.595797,222.990723 230.918577,223.028058 C232.241373,223.065696 231.099833,223.096337 228.381827,223.096191 C225.663816,223.096039 224.581536,223.065272 225.976741,223.027775 L225.976741,223.028058 Z" id="el_o0eu_-KLiP"/>
            <g id="el_aV7KHZvpkq_IoU1iI9Ec" data-animator-group="true" data-animator-type="0"><g id="el_aV7KHZvpkq__o9UOguHX" data-animator-group="true" data-animator-type="2"><path d="M6.40876406,206.851906 C4.4849443,206.523094 2.66833571,205.507295 1.70812039,204.223449 C-0.0319354399,201.89691 0.091424488,203.826294 0.0177060879,177.784606 C-0.0603899253,150.195521 0.0617848193,147.196263 1.59573476,139.041484 C4.81588278,121.922666 12.3362036,106.877887 24.3740547,93.4723283 C28.5406598,88.8323211 34.8887687,83.3370439 40.3945705,79.6040644 C52.3465084,71.5005543 65.7110284,66.359125 79.8251845,64.4348142 C83.3239313,63.9578018 84.1053957,63.9133645 85.5569074,64.10891 C88.6564088,64.5264706 90.7593374,66.0463723 91.8004075,68.6214363 L92.2845725,69.8190081 L92.3491726,110.601244 C92.3944617,139.186534 92.3425658,152.218001 92.1757323,154.17384 C90.4649884,174.227169 78.476572,191.893519 60.4435948,200.934878 C54.8425094,203.74314 49.5033344,205.421394 42.8254217,206.47278 C40.1396854,206.895632 38.9809191,206.926968 23.7769038,206.988247 C14.331916,207.026314 7.09680583,206.969568 6.40876406,206.851906 Z M212.307004,206.922546 C216.169269,206.88973 222.489342,206.88973 226.351608,206.922546 C230.213878,206.955361 227.053841,206.982174 219.329306,206.982174 C211.60477,206.982174 208.444734,206.955366 212.307004,206.922546 Z M201.37558,206.720028 C201.584212,206.66562 201.873679,206.669179 202.018847,206.727954 C202.164029,206.786745 201.993327,206.831258 201.639533,206.826901 C201.285738,206.822357 201.166967,206.774421 201.37558,206.719988 L201.37558,206.720028 Z M199.347902,206.507514 C199.502692,206.445503 199.687631,206.453121 199.758884,206.524477 C199.830136,206.595803 199.703478,206.646546 199.477456,206.637232 C199.227654,206.626933 199.176858,206.576059 199.347902,206.507545 L199.347902,206.507514 Z M148.80156,151.365588 C148.811849,151.115539 148.86266,151.06468 148.931108,151.235906 C148.993046,151.390851 148.98543,151.575987 148.914213,151.647308 C148.842966,151.718634 148.792286,151.591859 148.801596,151.365588 L148.80156,151.365588 Z" id="el_aV7KHZvpkq"/></g></g>
            <g id="el_RaBZ-aX1Fn_iz-5IASB5" data-animator-group="true" data-animator-type="0"><path d="M115.669335,358.863899 C99.7056137,358.11716 83.9857226,354.095196 69.4755268,347.045136 C56.8479517,340.909768 46.6784281,333.648359 36.7738994,323.694967 C30.1248002,317.01306 26.1774412,312.260629 21.7327625,305.58621 C10.0134126,287.987673 3.33571622,269.059438 1.49364873,248.217539 C1.02250276,242.886777 0.841063141,233.865408 1.16028758,231.641975 C1.65891259,228.168965 3.00423221,226.118183 5.63880529,224.815042 L7.28658667,224 L14.5043164,224 C21.5409253,224 21.7528241,224.012456 22.9485547,224.495932 C25.5182021,225.534916 27.386246,228.020496 27.8338544,230.996177 C27.9496195,231.765756 28.1004279,235.010906 28.1689914,238.207621 C28.390539,248.537666 29.4381074,255.624059 32.0582959,264.517197 C35.9811915,277.831894 42.6674944,289.89546 51.960694,300.425567 C57.8495278,307.098199 66.037322,313.954479 73.5013056,318.463202 C76.9865199,320.568494 83.8651508,323.95624 87.6972557,325.454736 C108.689637,333.663574 132.037693,334.015194 152.997389,326.43818 C165.893248,321.77627 177.541768,314.358469 187.253726,304.623707 C199.028246,292.821541 206.81028,279.64313 211.429224,263.683918 C213.749445,255.667223 214.703374,249.088059 215.01383,238.961059 C215.135434,234.994765 215.334335,231.243991 215.455853,230.626025 C215.993341,227.892782 217.920047,225.473671 220.338208,224.495932 C221.533928,224.01244 221.745842,224 228.782451,224 L236.000171,224 L237.66302,224.82249 C239.572664,225.767059 240.682881,226.976774 241.501095,229.004503 C241.993021,230.223671 242.000702,230.367016 241.999968,238.315255 C241.999968,246.715474 241.892799,248.370079 240.909398,255.278581 C237.684873,277.93087 228.117034,299.022868 213.01078,316.780096 C209.992486,320.328062 202.553199,327.747068 199.312351,330.441138 C191.386385,337.029902 183.621538,342.155644 175.207238,346.353373 C156.701434,355.585575 136.469409,359.836863 115.669335,358.863899 Z" id="el_RaBZ-aX1Fn"/></g>
            <g id="el_uksBF5St0n_e5-7n3Zsv" data-animator-group="true" data-animator-type="0"><g id="el_uksBF5St0n_n7vFo8qL5" data-animator-group="true" data-animator-type="2"><path d="M202.192606,206.881798 C201.836557,206.840434 200.622752,206.703011 199.495265,206.576379 C192.177878,205.754568 182.993348,202.500977 176.483639,198.424629 C171.45342,195.274707 166.353992,190.870129 162.665795,186.489607 C154.738243,177.073937 150.068762,165.479978 149.224531,153.116 C148.920719,148.666574 148.927302,72.3713913 149.231637,70.5023132 C149.685057,67.7178385 150.87276,65.9351604 152.954905,64.9139003 C154.964902,63.9280224 156.909538,63.775313 160.959777,64.2852832 C188.797051,67.7903121 213.946966,84.0920879 228.506907,108.068275 C236.221519,120.772058 240.761033,135.050646 241.785097,149.833343 C241.908938,151.620885 242.000601,162.993423 241.999997,176.492444 C241.997967,202.662136 242.042631,201.813282 240.584305,203.93711 C239.689111,205.240826 238.644141,205.981344 236.849718,206.583606 C235.579509,207.009937 235.116841,207.020576 219.192628,206.989209 C210.198656,206.971561 202.548634,206.923163 202.192585,206.881798 L202.192606,206.881798 Z" id="el_uksBF5St0n"/></g></g>
        </g>
    </g>
<script>(function(){var a=document.querySelector('#el_X54focAIm'),b=a.querySelectorAll('style'),c=function(d){b.forEach(function(f){var g=f.textContent;g&amp;&amp;(f.textContent=g.replace(/transform-box:[^;\r\n]*/gi,'transform-box: '+d))})};c('initial'),window.requestAnimationFrame(function(){return c('fill-box')})})();</script></svg>