<svg width="3180" height="1943" viewBox="0 0 3180 1943" fill="none" xmlns="http://www.w3.org/2000/svg">
<path fill-rule="evenodd" clip-rule="evenodd" d="M1536.43 962.272L1532.45 970.203C1532.45 970.203 1556.12 984.084 1631.98 981.475C1707.84 978.871 1742.21 970.203 1742.21 970.203C1742.21 970.203 1683.49 904.65 1636.4 911.746C1589.32 918.842 1536.43 962.272 1536.43 962.272Z" fill="#898D70"/>
<mask id="mask0" mask-type="alpha" maskUnits="userSpaceOnUse" x="1361" y="849" width="412" height="1094">
<path fill-rule="evenodd" clip-rule="evenodd" d="M1361.42 1942.86H1772.2V849.104H1361.42V1942.86Z" fill="white"/>
</mask>
<g mask="url(#mask0)">
<path fill-rule="evenodd" clip-rule="evenodd" d="M1690.98 1046.36C1690.98 1046.36 1745.82 1027.57 1762.27 1046.36C1778.73 1065.15 1773.24 1185.94 1756.79 1236.93C1740.34 1287.93 1711.75 1355.42 1690.29 1362.41C1686.19 1363.76 1714.29 1395.97 1682.08 1515.41C1649.53 1636.06 1638.9 1626.14 1638.9 1626.14L1599.82 1656.33C1599.82 1656.33 1614.17 1653.87 1628.61 1718.74C1640.26 1771.08 1634.78 1856.3 1634.78 1869.73C1634.78 1883.15 1651.23 1932.13 1651.23 1932.13C1651.23 1932.13 1619.71 1942.87 1573.09 1942.87C1526.47 1942.87 1510.03 1942.87 1501.8 1934.81C1493.58 1926.76 1564.86 1856.98 1564.86 1856.98L1527.86 1704.65L1436.44 1780.66C1436.44 1780.66 1483.75 1899.78 1491.96 1910.52C1491.96 1910.52 1521.1 1919.9 1490.94 1922.6C1460.77 1925.28 1431.59 1940.51 1420.63 1937.83C1409.66 1935.15 1349.74 1758.86 1363.45 1753.49C1377.15 1748.12 1389.39 1730.82 1389.39 1730.82C1389.39 1730.82 1450.02 1616.19 1476.54 1607.53C1501.22 1599.49 1507.29 1591.25 1507.29 1591.25C1507.29 1591.25 1472.34 1510.72 1472.34 1481.2C1472.34 1451.66 1459.31 1316.79 1470.27 1314.11C1481.24 1311.42 1427.77 1309.4 1427.77 1287.93C1427.77 1266.45 1457.94 1100.04 1477.13 1097.35C1496.33 1094.67 1534.71 1073.2 1542.93 1070.51C1551.16 1067.83 1584.05 1057.09 1595.02 1057.09C1595.02 1057.09 1594.3 1043.9 1597.05 1033.15C1597.05 1033.15 1577.66 1019.83 1577.66 998.355C1577.66 996.287 1569.55 999.395 1566.89 992.03C1561.62 977.419 1556.69 949.592 1557.2 941.952C1558.34 924.804 1570.66 943.009 1570.66 943.009C1557.74 864.446 1607.09 847.927 1644.98 849.167C1709.6 851.258 1707.97 911.896 1704.75 938.786C1704.64 939.683 1713.42 930.621 1713.78 940.289C1714.85 969.288 1693.82 1001.96 1693.82 1001.96L1688.58 999.904C1687.01 1016.63 1677.56 1027.15 1677.56 1027.15L1664.95 1037.42L1669.74 1053.19L1690.98 1046.36Z" fill="#CEAE84"/>
</g>
<mask id="mask1" mask-type="alpha" maskUnits="userSpaceOnUse" x="1360" y="1629" width="254" height="312">
<path fill-rule="evenodd" clip-rule="evenodd" d="M1360 1940.75V1629.31H1613.71V1940.75H1360Z" fill="white"/>
</mask>
<g mask="url(#mask1)">
<path fill-rule="evenodd" clip-rule="evenodd" d="M1613.7 1645.44C1613.7 1645.44 1594.26 1648.46 1582 1646.44C1569.72 1644.43 1544.15 1629.31 1544.15 1629.31C1544.15 1629.31 1440.83 1686.75 1412.19 1689.77C1412.19 1689.77 1368.21 1750.21 1361.05 1758.27C1353.89 1766.33 1385.6 1845.92 1385.6 1857C1385.6 1868.07 1391.74 1913.4 1391.74 1913.4C1391.74 1913.4 1415.62 1943.07 1430.61 1940.61C1461.29 1935.58 1496.75 1930.33 1504.25 1921.47C1514.49 1909.38 1476.63 1880.16 1476.63 1880.16L1440.83 1789.49C1440.83 1789.49 1614.72 1648.46 1613.7 1645.44Z" fill="#AF906D"/>
</g>
<path fill-rule="evenodd" clip-rule="evenodd" d="M1606.02 1654.45C1606.02 1654.45 1638.4 1705.8 1637.7 1750.08C1637.42 1768.15 1638.4 1881.58 1638.4 1881.58C1638.4 1881.58 1654.34 1925.77 1652.27 1930.79L1650.19 1935.82L1625.22 1938.83C1625.22 1938.83 1608.1 1898.12 1575.85 1891.09L1538.54 1884.21L1564.33 1858.8L1527.4 1716.96L1606.02 1654.45Z" fill="#AF906D"/>
<path fill-rule="evenodd" clip-rule="evenodd" d="M1625.57 1062.92C1625.57 1062.92 1673.96 1056.85 1684.26 1046.76C1694.57 1036.66 1741.01 1039.23 1751.19 1040.7C1776.95 1044.44 1776.68 1100.94 1768.71 1175C1761.18 1244.98 1736.48 1316.64 1718.06 1332.63C1696.89 1351.01 1706.91 1283.03 1681.18 1276.98C1655.43 1270.93 1663.66 1268.91 1663.66 1268.91L1673.96 1255.78L1705.72 1258.52L1718.24 1225.48L1719.27 1197.2C1719.27 1197.2 1701.43 1184.76 1693.19 1184.76C1684.96 1184.76 1706.42 1124.29 1706.42 1124.29C1706.42 1124.29 1697.65 1125.52 1666.76 1115.42C1637.9 1105.99 1609.08 1086.14 1610.13 1076.04C1611.15 1065.94 1625.57 1062.92 1625.57 1062.92Z" fill="#AF906D"/>
<path fill-rule="evenodd" clip-rule="evenodd" d="M1681.7 1143.1C1681.7 1143.1 1676.37 1193.44 1655.79 1219.95C1643.99 1235.16 1649.56 1234.92 1649.56 1234.92H1644.39L1656.48 1174.39L1657.86 1138.11L1659.94 1161.07L1664.37 1145.36L1667.19 1156.08L1681.7 1143.1Z" fill="#AF906D"/>
<path fill-rule="evenodd" clip-rule="evenodd" d="M1467.91 1312.26C1467.91 1312.26 1580.86 1307.49 1597.4 1296.44C1597.4 1296.44 1671.75 1369.23 1693.45 1362.2C1693.45 1362.2 1712.32 1408.13 1693.56 1489.26C1681.14 1542.9 1656.88 1606.04 1656.88 1606.04C1656.88 1606.04 1647.03 1471.18 1627.39 1433.03C1607.74 1394.86 1579.82 1339.63 1574.66 1335.61C1569.48 1331.6 1471.01 1315.27 1467.91 1312.26Z" fill="#AF906D"/>
<path fill-rule="evenodd" clip-rule="evenodd" d="M1511.5 1420.63C1511.5 1420.63 1543.46 1455.39 1552.83 1463.42L1561.69 1450.2C1561.69 1450.2 1560.74 1467.69 1558.15 1476.43C1541.56 1532.31 1557.88 1579.92 1546.3 1583.63C1503.66 1597.31 1495.36 1599.59 1497.57 1601.96C1499.66 1604.18 1472.85 1520.91 1462.19 1420.55C1460.46 1404.29 1466.03 1313.59 1466.03 1313.59L1506.66 1317.96L1511.5 1420.63Z" fill="#AF906D"/>
<path fill-rule="evenodd" clip-rule="evenodd" d="M1505.23 1235.93C1505.23 1235.93 1489.07 1230.22 1473.85 1234.41C1458.62 1238.61 1448.74 1245.01 1448.74 1245.01C1448.74 1245.01 1477.72 1182.29 1483.16 1168.65C1488.59 1155.01 1488.59 1135.09 1488.59 1135.09C1488.59 1135.09 1512.5 1162.36 1517.94 1161.31C1523.37 1160.26 1523.37 1173.9 1523.37 1173.9L1505.23 1235.93Z" fill="#AF906D"/>
<path fill-rule="evenodd" clip-rule="evenodd" d="M1603.04 1003.34L1621.7 995.018C1621.7 995.018 1629.37 997.103 1633.76 997.103C1638.15 997.103 1644.72 991.886 1644.72 991.886L1665.56 1002.3L1664.47 1031.45C1664.47 1031.45 1664.47 1056.44 1633.76 1055.39C1603.05 1054.35 1603.05 1040.81 1603.05 1034.57L1603.04 1003.34ZM1661.02 1008.36L1607.19 1010.38C1607.19 1010.38 1612.88 1029.09 1619.45 1029.09C1626.04 1029.09 1630.64 1014.93 1630.64 1014.93H1640.76C1640.76 1014.93 1644.85 1029.12 1651.42 1028.08C1658 1027.04 1661.02 1008.36 1661.02 1008.36Z" fill="#FFFFFE"/>
<path fill-rule="evenodd" clip-rule="evenodd" d="M1563.92 1090.72C1563.92 1090.72 1545.9 1108.22 1536.09 1105.04C1526.26 1101.86 1511.52 1109.81 1511.52 1109.81L1500.06 1130.49V1140.04L1495.13 1149.58L1529.54 1182.99L1539.36 1205.26L1563.92 1248.21C1563.92 1248.21 1591.32 1301.77 1594.82 1300.45C1598.33 1299.12 1541 1175.03 1541 1175.03C1541 1175.03 1562.29 1149.58 1570.48 1149.58C1578.67 1149.58 1578.67 1119.35 1578.67 1119.35L1563.92 1090.72Z" fill="#AF906D"/>
<path fill-rule="evenodd" clip-rule="evenodd" d="M1704.65 1175.86C1704.65 1175.86 1691.75 1168 1676.92 1175.86C1662.09 1183.7 1661.61 1204.9 1654.74 1204.67C1647.87 1204.44 1651.29 1186.51 1651.29 1186.51C1651.29 1186.51 1667.83 1168 1678.09 1167.45C1688.36 1166.89 1704.89 1169.13 1704.89 1169.13L1704.65 1175.86Z" fill="#AF906D"/>
<path fill-rule="evenodd" clip-rule="evenodd" d="M1496.97 1221.82C1496.97 1221.82 1541.93 1236.8 1554.34 1237.95L1566.73 1239.1L1538.83 1246.02L1504.73 1241.4L1483.03 1233.34L1496.97 1221.82Z" fill="#AF906D"/>
<path fill-rule="evenodd" clip-rule="evenodd" d="M1637.33 926.67C1637.33 926.67 1641.06 937.429 1645.42 937.429C1649.77 937.429 1669.69 934.448 1675.3 934.448C1680.9 934.448 1687.75 937.429 1687.75 937.429L1671.57 921.294C1671.57 921.294 1661.6 927.273 1654.13 927.865C1646.66 928.468 1637.33 926.67 1637.33 926.67Z" fill="#080A0B"/>
<path fill-rule="evenodd" clip-rule="evenodd" d="M1628.25 924.672L1622.06 938.438C1622.06 938.438 1601.64 928.262 1597.93 928.262C1594.21 928.262 1573.79 934.843 1573.79 934.843L1598.54 919.277C1598.54 919.277 1612.16 927.065 1615.87 927.065C1619.59 927.065 1628.25 924.672 1628.25 924.672Z" fill="#080A0B"/>
<path fill-rule="evenodd" clip-rule="evenodd" d="M1667.58 950.539C1667.58 953.314 1664.64 955.582 1661.02 955.582C1657.4 955.582 1654.47 953.314 1654.47 950.539C1654.47 947.747 1657.4 945.497 1661.02 945.497C1664.64 945.497 1667.58 947.747 1667.58 950.539Z" fill="#080A0B"/>
<path fill-rule="evenodd" clip-rule="evenodd" d="M1611.11 946.511C1611.11 949.295 1608.19 951.548 1604.55 951.548C1600.94 951.548 1598 949.295 1598 946.511C1598 943.716 1600.94 941.463 1604.55 941.463C1608.19 941.463 1611.11 943.716 1611.11 946.511Z" fill="#080A0B"/>
<path fill-rule="evenodd" clip-rule="evenodd" d="M1627.13 927.345C1627.13 927.345 1625.45 953.588 1624.89 957.949C1624.32 962.327 1624.89 989.652 1624.89 989.652L1626.01 994.568C1626.01 994.568 1631.61 996.754 1633.29 995.123C1634.96 993.475 1643.38 986.367 1643.38 986.367C1643.38 986.367 1636.08 998.945 1632.73 998.945H1626.01C1624.32 998.945 1613.12 989.108 1613.12 989.108L1621.53 990.19L1620.96 933.359L1627.13 927.345Z" fill="#080A0B"/>
<path fill-rule="evenodd" clip-rule="evenodd" d="M1565.62 947.766L1568.18 976.547L1579.65 984.827L1570.67 948.755C1570.67 948.755 1564.62 889.766 1589.13 874.673C1602.59 866.393 1598.61 865.415 1616.56 868.35C1628.99 870.368 1628.03 869.316 1628.03 869.316L1639.51 872.234C1639.51 872.234 1650.67 860.314 1665.45 862.009C1682.4 863.954 1693.75 920.822 1692.37 944.854C1691 968.904 1679.41 983.849 1679.41 983.849L1695.34 976.484L1702.35 944.854C1702.35 944.854 1718.58 881.651 1681.67 860.274C1644.76 838.909 1646.12 844.255 1646.12 844.255L1613.32 833.558L1620.15 845.585L1604.6 843.004L1608.08 849.333C1608.08 849.333 1588.63 853.234 1573.17 870.295C1561.6 883.067 1561.69 937.058 1561.69 937.058L1565.62 947.766Z" fill="#FFFFFE"/>
<path fill-rule="evenodd" clip-rule="evenodd" d="M1481.56 1540.86C1481.56 1540.86 1486.86 1537.73 1510.41 1538.94C1519.69 1539.42 1543.49 1541.43 1543.49 1541.43C1546.37 1552.65 1548.82 1565.52 1548.82 1565.52C1548.82 1565.52 1574.8 1541.79 1611.82 1548.08C1648.84 1554.37 1659.3 1590.91 1659.3 1590.91C1659.3 1590.91 1695.85 1497.92 1695.89 1452.69C1695.89 1433.6 1700.23 1367.41 1690.2 1365.77C1680.04 1364.12 1657.26 1353.66 1648.93 1344.85C1648.93 1344.85 1569.63 1376.71 1525.57 1372.93C1481.51 1369.15 1462.78 1364.12 1462.78 1364.12C1462.78 1364.12 1460.88 1407.06 1460.05 1418.25C1457.32 1454.9 1481.56 1540.86 1481.56 1540.86Z" fill="#A2A494"/>
<path d="M1638.34 1101.81C1637.6 1104.23 1637.25 1107.08 1637.34 1109.88" stroke="#FFFFFE" stroke-width="0.217" stroke-linecap="round"/>
<path d="M1632.28 1092.73C1629.05 1094.31 1626.2 1097.16 1624.22 1100.8" stroke="#FFFFFE" stroke-width="0.217" stroke-linecap="round"/>
<path d="M1625.23 1107.86C1627.58 1106.51 1629.93 1105.17 1632.28 1103.83" stroke="#FFFFFE" stroke-width="0.217" stroke-linecap="round"/>
<path d="M1631.28 1097.77C1631.34 1098.24 1631.76 1098.66 1632.28 1098.78" stroke="#FFFFFE" stroke-width="0.217" stroke-linecap="round"/>
<path d="M1645.39 1098.78C1643.7 1097.62 1642.32 1096.25 1641.36 1094.75" stroke="#FFFFFE" stroke-width="0.217" stroke-linecap="round"/>
<path d="M1645.38 1109.88C1645.49 1111.11 1644.91 1112.13 1644.39 1112.9" stroke="#FFFFFE" stroke-width="0.217" stroke-linecap="round"/>
<path d="M1635.31 1119.96C1634.08 1120.06 1632.95 1120.43 1632.28 1120.97" stroke="#FFFFFE" stroke-width="0.217" stroke-linecap="round"/>
<path d="M1625.88 1114.92C1625.39 1115.18 1625.15 1115.57 1625.25 1115.93" stroke="#FFFFFE" stroke-width="0.217" stroke-linecap="round"/>
<path d="M1621.2 1127.02C1621.12 1128.25 1621.54 1129.54 1622.2 1130.05" stroke="#FFFFFE" stroke-width="0.217" stroke-linecap="round"/>
<path d="M1617.32 1145.17C1616.97 1146.18 1617.19 1147.38 1617.86 1148.2" stroke="#FFFFFE" stroke-width="0.217" stroke-linecap="round"/>
<path d="M1608.08 1136.1V1139.09" stroke="#FFFFFE" stroke-width="0.217" stroke-linecap="round"/>
<path d="M1598 1141.14C1597.66 1142.15 1597.33 1143.16 1596.99 1144.16" stroke="#FFFFFE" stroke-width="0.217" stroke-linecap="round"/>
<path d="M1589.93 1143.16C1590.07 1144.33 1590.43 1145.41 1590.94 1146.18" stroke="#FFFFFE" stroke-width="0.217" stroke-linecap="round"/>
<path d="M1580.85 1135.09C1580.32 1136.28 1579.97 1137.67 1579.84 1139.12" stroke="#FFFFFE" stroke-width="0.217" stroke-linecap="round"/>
<path d="M1584.89 1148.2C1585.89 1146.6 1587.35 1145.5 1588.92 1145.17" stroke="#FFFFFE" stroke-width="0.217" stroke-linecap="round"/>
<path d="M1598 1139.12C1599.34 1138.79 1600.68 1138.45 1602.03 1138.11" stroke="#FFFFFE" stroke-width="0.217" stroke-linecap="round"/>
<path d="M1603.04 1156.27C1604.38 1155.25 1605.73 1154.25 1607.07 1153.24" stroke="#FFFFFE" stroke-width="0.217" stroke-linecap="round"/>
<path d="M1616.15 1136.1C1617.16 1134.75 1618.17 1133.4 1619.17 1132.06" stroke="#FFFFFE" stroke-width="0.217" stroke-linecap="round"/>
<path d="M1613.12 1128.03C1613.82 1127.37 1614.99 1126.99 1616.15 1127.02" stroke="#FFFFFE" stroke-width="0.217" stroke-linecap="round"/>
<path d="M1605.06 1145.49C1606.41 1145.6 1607.77 1145.49 1609.09 1145.17" stroke="#FFFFFE" stroke-width="0.217" stroke-linecap="round"/>
<path d="M1598 1148.2C1598.49 1147.67 1599.69 1147.27 1601.02 1147.19" stroke="#FFFFFE" stroke-width="0.217" stroke-linecap="round"/>
<path d="M1594.97 1160.3C1596.39 1160.18 1597.77 1159.84 1599.01 1159.29" stroke="#FFFFFE" stroke-width="0.217" stroke-linecap="round"/>
<path d="M1586.9 1156.27C1587.09 1155.1 1587.44 1154.04 1587.91 1153.24" stroke="#FFFFFE" stroke-width="0.217" stroke-linecap="round"/>
<path d="M1581.86 1154.25C1581.99 1153.17 1582.33 1152.12 1582.87 1151.22" stroke="#FFFFFE" stroke-width="0.217" stroke-linecap="round"/>
<path d="M1593.96 1151.22C1594.24 1152.55 1594.31 1153.91 1594.14 1155.26" stroke="#FFFFFE" stroke-width="0.217" stroke-linecap="round"/>
<path d="M1590.94 1167.36C1590.96 1168.54 1591.35 1169.69 1591.95 1170.38" stroke="#FFFFFE" stroke-width="0.217" stroke-linecap="round"/>
<path d="M1598 1175.43C1599.01 1174.42 1600.02 1173.41 1601.02 1172.4" stroke="#FFFFFE" stroke-width="0.217" stroke-linecap="round"/>
<path d="M1603.04 1166.35C1605.39 1166.02 1607.75 1165.68 1610.1 1165.34" stroke="#FFFFFE" stroke-width="0.217" stroke-linecap="round"/>
<path d="M1596.99 1164.33C1598.34 1164 1599.68 1163.66 1601.02 1163.32" stroke="#FFFFFE" stroke-width="0.217" stroke-linecap="round"/>
<path d="M1610.1 1156.04L1612.22 1153.24" stroke="#FFFFFE" stroke-width="0.217" stroke-linecap="round"/>
<path d="M1624.22 1146.18C1624.67 1144.74 1625.84 1143.56 1627.24 1143.16" stroke="#FFFFFE" stroke-width="0.217" stroke-linecap="round"/>
<path d="M1640.35 1133.07C1640.76 1132.38 1642.15 1131.93 1643.38 1132.1" stroke="#FFFFFE" stroke-width="0.217" stroke-linecap="round"/>
<path d="M1636.32 1125C1637.1 1124.32 1638.23 1123.94 1639.34 1124" stroke="#FFFFFE" stroke-width="0.217" stroke-linecap="round"/>
<path d="M1629.28 1135.09C1629.19 1136.27 1629.37 1137.78 1630.25 1138.11" stroke="#FFFFFE" stroke-width="0.217" stroke-linecap="round"/>
<path d="M1632.28 1148.2C1633.63 1148.54 1634.98 1148.87 1636.32 1149.21" stroke="#FFFFFE" stroke-width="0.217" stroke-linecap="round"/>
<path d="M1648.42 1149.21H1649.92" stroke="#FFFFFE" stroke-width="0.217" stroke-linecap="round"/>
<path d="M1650.44 1137.1C1651.45 1136.17 1653.11 1135.84 1654.47 1136.3" stroke="#FFFFFE" stroke-width="0.217" stroke-linecap="round"/>
<path d="M1644.39 1138.79C1645.39 1138.56 1646.4 1138.34 1647.41 1138.11" stroke="#FFFFFE" stroke-width="0.217" stroke-linecap="round"/>
<path d="M1654.47 1122.99C1655.48 1122.65 1656.48 1122.32 1657.5 1121.98" stroke="#FFFFFE" stroke-width="0.217" stroke-linecap="round"/>
<path d="M1641.36 1121.11L1643.68 1119.96" stroke="#FFFFFE" stroke-width="0.217" stroke-linecap="round"/>
<path d="M1636.32 1113.91C1636.36 1115.09 1636.74 1116.23 1637.33 1116.94" stroke="#FFFFFE" stroke-width="0.217" stroke-linecap="round"/>
<path d="M1641.41 1106.85C1641.29 1107.86 1641.39 1108.9 1641.72 1109.88" stroke="#FFFFFE" stroke-width="0.217" stroke-linecap="round"/>
<path d="M1620.21 1101.81C1620.08 1102.91 1620.4 1104.09 1621.03 1104.83" stroke="#FFFFFE" stroke-width="0.217" stroke-linecap="round"/>
<path d="M1648.49 1088.7C1648.37 1089.7 1648.4 1090.73 1648.6 1091.72" stroke="#FFFFFE" stroke-width="0.217" stroke-linecap="round"/>
<path d="M1661.53 1092.73V1094.23" stroke="#FFFFFE" stroke-width="0.217" stroke-linecap="round"/>
<path d="M1648.42 1106.85C1649.42 1107.06 1650.43 1107.1 1651.45 1106.98" stroke="#FFFFFE" stroke-width="0.217" stroke-linecap="round"/>
<path d="M1659.51 1102.82C1660.52 1102.48 1661.53 1102.14 1662.54 1101.81" stroke="#FFFFFE" stroke-width="0.217" stroke-linecap="round"/>
<path d="M1657.5 1114.92H1658.14" stroke="#FFFFFE" stroke-width="0.217" stroke-linecap="round"/>
<path d="M1660.52 1109.88C1660.19 1109.98 1659.85 1110.09 1659.51 1110.2" stroke="#FFFFFE" stroke-width="0.217" stroke-linecap="round"/>
<path d="M1621.19 1086.68C1622.49 1087.29 1623.9 1087.38 1625.23 1086.96" stroke="#FFFFFE" stroke-width="0.217" stroke-linecap="round"/>
<path d="M1617.16 1090.72C1618.49 1091.02 1619.84 1091.15 1621.19 1091.1" stroke="#FFFFFE" stroke-width="0.217" stroke-linecap="round"/>
<path d="M1644.39 1081.64C1643.15 1082.34 1642.09 1083.4 1641.36 1084.66" stroke="#FFFFFE" stroke-width="0.217" stroke-linecap="round"/>
<path d="M1658.5 1080.63C1657.06 1081.53 1655.7 1082.54 1654.47 1083.66" stroke="#FFFFFE" stroke-width="0.217" stroke-linecap="round"/>
<path d="M1661.53 1086.63C1663.77 1085.71 1666.24 1085.44 1668.59 1085.88" stroke="#FFFFFE" stroke-width="0.217" stroke-linecap="round"/>
<path d="M1671.61 1093.74C1674.26 1094.32 1676.98 1094.55 1679.68 1094.42" stroke="#FFFFFE" stroke-width="0.217" stroke-linecap="round"/>
<path d="M1646.4 1130.05C1647.72 1130.42 1649.09 1130.52 1650.44 1130.34" stroke="#FFFFFE" stroke-width="0.217" stroke-linecap="round"/>
<path d="M1668.67 1119.96L1667.58 1122.31" stroke="#FFFFFE" stroke-width="0.217" stroke-linecap="round"/>
<path d="M1653.46 1117.94C1652.15 1119.2 1651.13 1120.56 1650.44 1121.98" stroke="#FFFFFE" stroke-width="0.217" stroke-linecap="round"/>
<path d="M1582.87 1138.11C1582.53 1139.46 1582.2 1140.81 1581.86 1142.15" stroke="#FFFFFE" stroke-width="0.217" stroke-linecap="round"/>
<path d="M1582.21 1131.05C1582.09 1131.27 1581.98 1131.47 1581.86 1131.68" stroke="#FFFFFE" stroke-width="0.217" stroke-linecap="round"/>
<path d="M1594.97 1115.82C1597.2 1114.96 1599.66 1114.71 1602.03 1115.09" stroke="#FFFFFE" stroke-width="0.217" stroke-linecap="round"/>
<path d="M1596.99 1127.34L1600.42 1127.02" stroke="#FFFFFE" stroke-width="0.217" stroke-linecap="round"/>
<path d="M1588.15 1126.01C1587.63 1127.37 1588.01 1129.34 1588.92 1130.05" stroke="#FFFFFE" stroke-width="0.217" stroke-linecap="round"/>
<path d="M1591.14 1135.09C1590.65 1136.14 1591.1 1137.83 1591.95 1138.11" stroke="#FFFFFE" stroke-width="0.217" stroke-linecap="round"/>
<path d="M1593.96 1123.99H1595.89" stroke="#FFFFFE" stroke-width="0.217" stroke-linecap="round"/>
<path d="M1612.12 1119.96V1121.24" stroke="#FFFFFE" stroke-width="0.217" stroke-linecap="round"/>
<path d="M1616.33 1106.85C1615.98 1108.19 1616.15 1109.64 1616.79 1110.88" stroke="#FFFFFE" stroke-width="0.217" stroke-linecap="round"/>
<path d="M1608.71 1109.88C1608.85 1110.92 1608.62 1112.01 1608.08 1112.9" stroke="#FFFFFE" stroke-width="0.217" stroke-linecap="round"/>
<path d="M1623.21 1119.96C1621.74 1120.68 1620.64 1121.77 1620.18 1122.99" stroke="#FFFFFE" stroke-width="0.217" stroke-linecap="round"/>
<path d="M1617.16 1119.96C1616.82 1120.3 1616.49 1120.63 1616.15 1120.97" stroke="#FFFFFE" stroke-width="0.217" stroke-linecap="round"/>
<path d="M1605.06 1126.01C1605.24 1127.08 1605.58 1128.11 1606.06 1129.04" stroke="#FFFFFE" stroke-width="0.217" stroke-linecap="round"/>
<path d="M1603.04 1121.98C1604.05 1122.32 1605.06 1122.65 1606.06 1122.99" stroke="#FFFFFE" stroke-width="0.217" stroke-linecap="round"/>
<path d="M1605.06 1106.85V1107.49" stroke="#FFFFFE" stroke-width="0.217" stroke-linecap="round"/>
<path d="M1614.13 1101.81C1613.68 1102.68 1613.33 1103.71 1613.12 1104.83" stroke="#FFFFFE" stroke-width="0.217" stroke-linecap="round"/>
<path d="M1616.15 1093.74V1096.09" stroke="#FFFFFE" stroke-width="0.217" stroke-linecap="round"/>
<path d="M1610.3 1081.64C1610.23 1081.97 1610.16 1082.31 1610.1 1082.65" stroke="#FFFFFE" stroke-width="0.217" stroke-linecap="round"/>
<path d="M1670.23 1075.59C1670.02 1075.92 1669.81 1076.26 1669.6 1076.6" stroke="#FFFFFE" stroke-width="0.217" stroke-linecap="round"/>
<path d="M1682.07 1077.61C1681.94 1078.61 1681.83 1079.62 1681.7 1080.63" stroke="#FFFFFE" stroke-width="0.217" stroke-linecap="round"/>
<path d="M1668.22 1135.09C1668 1135.2 1667.79 1135.3 1667.58 1135.41" stroke="#FFFFFE" stroke-width="0.217" stroke-linecap="round"/>
<path d="M1659.82 1131.05C1659.72 1132.06 1659.62 1133.07 1659.51 1134.08" stroke="#FFFFFE" stroke-width="0.217" stroke-linecap="round"/>
<path d="M1624.22 1161.31C1623.21 1162.65 1622.2 1164 1621.19 1165.34" stroke="#FFFFFE" stroke-width="0.217" stroke-linecap="round"/>
<path d="M1605.06 1177.44H1606.77" stroke="#FFFFFE" stroke-width="0.217" stroke-linecap="round"/>
<path d="M1603.04 1172.4C1604.17 1173.28 1605.69 1173.61 1607.07 1173.28" stroke="#FFFFFE" stroke-width="0.217" stroke-linecap="round"/>
<path d="M1620.18 1178.45C1620.52 1178.12 1620.86 1177.78 1621.19 1177.44" stroke="#FFFFFE" stroke-width="0.217" stroke-linecap="round"/>
<path d="M1637.33 1168C1637.54 1167.78 1637.75 1167.57 1637.97 1167.36" stroke="#FFFFFE" stroke-width="0.217" stroke-linecap="round"/>
<path d="M1624.22 1155.26C1621.91 1156.35 1619.56 1157.36 1617.16 1158.28" stroke="#FFFFFE" stroke-width="0.217" stroke-linecap="round"/>
<path d="M1631.28 1153.24C1629.65 1154.29 1628.56 1155.74 1628.25 1157.27" stroke="#FFFFFE" stroke-width="0.217" stroke-linecap="round"/>
<path d="M1637.33 1161.31C1637.49 1161.9 1637.91 1162.31 1638.34 1162.32" stroke="#FFFFFE" stroke-width="0.217" stroke-linecap="round"/>
<path d="M1646.4 1153.24C1646.52 1156.19 1647.6 1159.08 1649.43 1161.31" stroke="#FFFFFE" stroke-width="0.217" stroke-linecap="round"/>
<path d="M1532.73 1194.59C1532.88 1195.6 1532.79 1196.67 1532.45 1197.61" stroke="#FFFFFE" stroke-width="0.217" stroke-linecap="round"/>
<path d="M1528.41 1186.52C1527.41 1187.53 1526.39 1188.54 1525.39 1189.54" stroke="#FFFFFE" stroke-width="0.217" stroke-linecap="round"/>
<path d="M1525.46 1186.52C1525.21 1188.03 1525.62 1189.8 1526.4 1190.55" stroke="#FFFFFE" stroke-width="0.217" stroke-linecap="round"/>
<path d="M1532.45 1186.52C1532.43 1187.67 1532.81 1188.82 1533.46 1189.54" stroke="#FFFFFE" stroke-width="0.217" stroke-linecap="round"/>
<path d="M1538.15 1201.65C1537.92 1201.98 1537.71 1202.32 1537.49 1202.65" stroke="#FFFFFE" stroke-width="0.217" stroke-linecap="round"/>
<path d="M1524.38 1194.59C1524.04 1194.92 1523.71 1195.26 1523.37 1195.6" stroke="#FFFFFE" stroke-width="0.217" stroke-linecap="round"/>
<path d="M1610.1 1189.54V1191.47" stroke="#FFFFFE" stroke-width="0.217" stroke-linecap="round"/>
<path d="M1617.16 1189.54C1618.02 1191.15 1619.43 1192.56 1621.19 1193.58" stroke="#FFFFFE" stroke-width="0.217" stroke-linecap="round"/>
<path d="M1629.26 1190.55V1191.84" stroke="#FFFFFE" stroke-width="0.217" stroke-linecap="round"/>
<path d="M1611.11 1103.83C1609.27 1106.06 1607.88 1108.85 1607.07 1111.89" stroke="#FFFFFE" stroke-width="0.217" stroke-linecap="round"/>
<path d="M1618.17 1121.98C1618 1123.21 1617.63 1124.3 1617.16 1125" stroke="#FFFFFE" stroke-width="0.217" stroke-linecap="round"/>
<path d="M1635.31 1138.11C1633.98 1139.27 1632.94 1140.66 1632.28 1142.15" stroke="#FFFFFE" stroke-width="0.217" stroke-linecap="round"/>
<path d="M1653.46 1114.92C1649.22 1117.06 1645.16 1119.77 1641.36 1122.99" stroke="#FFFFFE" stroke-width="0.217" stroke-linecap="round"/>
<path d="M1633.29 1114.92C1631.38 1116.46 1629.87 1119.47 1629.26 1122.99" stroke="#FFFFFE" stroke-width="0.217" stroke-linecap="round"/>
<path d="M1645.39 1105.84C1644.05 1108.53 1642.71 1111.22 1641.36 1113.91" stroke="#FFFFFE" stroke-width="0.217" stroke-linecap="round"/>
<path d="M1629.6 1101.81C1629.48 1102.14 1629.37 1102.48 1629.26 1102.82" stroke="#FFFFFE" stroke-width="0.217" stroke-linecap="round"/>
<path d="M1647.41 1093.74C1646.9 1095 1646.56 1096.37 1646.4 1097.77" stroke="#FFFFFE" stroke-width="0.217" stroke-linecap="round"/>
<path fill-rule="evenodd" clip-rule="evenodd" d="M1564.25 937.429C1564.25 937.429 1541.14 831.386 1633.83 827.6C1726.52 823.808 1705.98 937.429 1705.98 937.429C1705.98 937.429 1692.34 906.541 1631.84 909.06C1572.16 911.538 1564.25 937.429 1564.25 937.429Z" fill="#CCCDBF"/>
<path fill-rule="evenodd" clip-rule="evenodd" d="M1561.48 911.751C1561.48 911.751 1531.1 950.158 1532.49 968.691C1532.49 968.691 1580.88 926.929 1628.2 926.929C1675.21 926.929 1742.21 968.691 1742.21 968.691C1742.21 968.691 1722.88 918.97 1707.34 914.465C1707.34 914.465 1682.3 896.677 1629.11 897.098C1596.47 897.352 1561.48 911.751 1561.48 911.751Z" fill="#F9F8F5"/>
<path fill-rule="evenodd" clip-rule="evenodd" d="M1636.35 827.71C1636.35 827.71 1641.52 827.426 1654.47 829.196C1654.47 829.196 1652.28 816.314 1635.46 817.499C1618.64 818.69 1617.16 829.524 1617.16 829.524L1636.35 827.71Z" fill="#F9F8F5"/>
<path d="M1632.28 874.905L1632.62 827.507" stroke="#B2B4A7" stroke-width="0.435"/>
<path fill-rule="evenodd" clip-rule="evenodd" d="M1563.21 889.305C1563.21 889.305 1595.23 870.297 1633.72 873.187C1672.2 876.082 1706.47 892.177 1706.47 892.177C1706.47 892.177 1707.97 902.111 1707.91 906.244C1707.86 910.37 1707.92 915.243 1707.92 915.243C1707.92 915.243 1672.17 897.552 1632.02 897.558C1591.87 897.563 1561.76 912.023 1561.76 912.023C1561.76 912.023 1561.61 904.528 1561.76 900.407C1561.9 896.281 1563.21 889.305 1563.21 889.305Z" fill="#787C71"/>
<path fill-rule="evenodd" clip-rule="evenodd" d="M1596.99 848.685C1596.99 850.912 1595.41 852.718 1593.46 852.718C1591.51 852.718 1589.93 850.912 1589.93 848.685C1589.93 846.457 1591.51 844.651 1593.46 844.651C1595.41 844.651 1596.99 846.457 1596.99 848.685Z" stroke="#B2B4A7" stroke-width="0.435"/>
<path fill-rule="evenodd" clip-rule="evenodd" d="M1680.69 850.702C1680.69 852.929 1679.11 854.735 1677.16 854.735C1675.21 854.735 1673.63 852.929 1673.63 850.702C1673.63 848.474 1675.21 846.668 1677.16 846.668C1679.11 846.668 1680.69 848.474 1680.69 850.702Z" stroke="#B2B4A7" stroke-width="0.435"/>
<path fill-rule="evenodd" clip-rule="evenodd" d="M1595.5 1046.46C1595.27 1044.9 1572.82 1059.89 1571.4 1062.97C1569.97 1066.05 1581.21 1056.88 1537.15 1072.3C1493.1 1087.72 1480.8 1094.38 1472.69 1102.31C1464.58 1110.24 1438.41 1196.91 1439.72 1215.68C1439.72 1215.68 1453.35 1205.52 1466.41 1204.98C1479.46 1204.44 1510.61 1217.7 1510.61 1217.7L1507.84 1227.36C1507.84 1227.36 1559.8 1244.26 1561.79 1242.92C1563.77 1241.58 1532.58 1179.61 1532.58 1179.61C1532.79 1181.34 1503.31 1167.82 1488.97 1135.15C1486.08 1128.57 1511.86 1094.4 1523.15 1093.15C1534.43 1091.89 1563.16 1088.78 1563.26 1091.8C1563.36 1094.81 1579.35 1118.85 1579.35 1118.85C1579.35 1118.85 1575.84 1145.44 1574.76 1146.78C1573.68 1148.11 1644.39 1236.21 1644.39 1236.21C1644.39 1236.21 1612.96 1102.91 1614.18 1099.7C1615.41 1096.48 1606.14 1096.9 1606.03 1093.15C1605.93 1089.39 1607.5 1080.87 1607.54 1078.67C1607.59 1076.47 1599.96 1076.05 1595.5 1046.46Z" fill="#CCCDBF"/>
<path fill-rule="evenodd" clip-rule="evenodd" d="M1465.96 1312.73C1465.96 1312.73 1502.83 1311.46 1531.04 1308.34C1559.24 1305.22 1594.59 1298.46 1594.59 1298.46C1594.59 1298.46 1643.96 1340.47 1649.62 1344.52C1655.29 1348.57 1672.62 1359.07 1672.62 1359.07C1672.62 1359.07 1634.01 1386.91 1596.07 1386.91C1558.14 1386.91 1498.61 1394.37 1485.5 1386.91C1472.38 1379.45 1461.85 1374.47 1461.85 1374.47L1465.96 1312.73Z" fill="#CCCDBF"/>
<mask id="mask2" mask-type="alpha" maskUnits="userSpaceOnUse" x="1608" y="1039" width="168" height="201">
<path fill-rule="evenodd" clip-rule="evenodd" d="M1775.08 1039.46V1239.54H1608.54V1039.46H1775.08V1039.46Z" fill="white"/>
</mask>
<g mask="url(#mask2)">
<path fill-rule="evenodd" clip-rule="evenodd" d="M1622.28 1140.01C1621.56 1138.25 1627.23 1089.78 1632.24 1089.31C1637.25 1088.83 1641.15 1089.31 1642.3 1084.7C1643.44 1080.09 1655.05 1077.42 1661.54 1062.63C1668.02 1047.84 1666.49 1042.75 1666.49 1042.75L1671.71 1053.59C1671.71 1053.59 1681.53 1039.31 1707.89 1039.47C1734.26 1039.62 1751.82 1038.45 1758.74 1043.69C1772.76 1054.31 1782.04 1071.07 1768.4 1183.52C1768.4 1183.52 1739.89 1172.7 1726.41 1170.73C1704.53 1167.54 1673.98 1178.67 1673.98 1178.67C1673.98 1178.67 1665.71 1207.68 1663.69 1212.75C1661.66 1217.82 1648.85 1236.09 1647.95 1238.95C1647.04 1241.81 1641.43 1233.4 1638.94 1230.29C1636.45 1227.2 1607.54 1153.86 1608.56 1149.82C1609.59 1145.8 1622.28 1140.01 1622.28 1140.01Z" fill="#CCCDBF"/>
</g>
<path fill-rule="evenodd" clip-rule="evenodd" d="M1629.44 1097.36C1629.44 1097.36 1627.44 1086.58 1636.77 1086.68C1646.11 1086.79 1658.5 1105.84 1658.5 1105.84L1629.44 1097.36Z" fill="#A2A494"/>
<path fill-rule="evenodd" clip-rule="evenodd" d="M1677.42 1060.46C1677.42 1060.46 1673.42 1082.14 1667.89 1089.22C1662.36 1096.31 1657.5 1102.82 1657.5 1102.82C1657.5 1102.82 1674.54 1089.1 1676.46 1084.04C1678.39 1078.99 1677.42 1060.46 1677.42 1060.46Z" fill="#A2A494"/>
<path fill-rule="evenodd" clip-rule="evenodd" d="M1605.6 1092.29L1607.07 1077.94C1607.07 1077.94 1591.24 1072.59 1587.13 1083.22C1583.02 1093.84 1580.17 1098.78 1580.17 1098.78C1577.27 1098.79 1594.13 1098.4 1605.6 1092.29Z" fill="#A2A494"/>
<path fill-rule="evenodd" clip-rule="evenodd" d="M1569.08 1072.56C1569.08 1072.56 1569.08 1081.41 1571.11 1085.4C1573.14 1089.37 1578.84 1096.77 1578.84 1096.77C1578.84 1096.77 1565.87 1090.68 1565.73 1087.61C1565.59 1084.53 1569.08 1072.56 1569.08 1072.56Z" fill="#A2A494"/>
<path fill-rule="evenodd" clip-rule="evenodd" d="M1621.19 1138.11C1621.19 1138.11 1618.52 1155.86 1617.89 1159.9C1617.26 1163.94 1616.06 1167.18 1615.92 1173.32C1615.79 1179.46 1615.51 1189.34 1614.77 1191.7C1614.02 1194.05 1613.12 1196.6 1613.12 1196.6C1613.12 1196.6 1613.73 1183.55 1614.02 1178.4C1614.31 1173.26 1613.13 1160.93 1614.02 1157.78C1614.9 1154.64 1621.19 1138.11 1621.19 1138.11Z" fill="#A2A494"/>
<path fill-rule="evenodd" clip-rule="evenodd" d="M1573.79 1303.5C1573.79 1303.5 1567.96 1318.75 1566.89 1326.51C1565.83 1334.28 1567.97 1346.39 1566.9 1349.5C1565.83 1352.6 1564.92 1379.62 1564.61 1381.17C1564.31 1382.73 1564.61 1388.21 1564.61 1388.21C1564.61 1388.21 1560.91 1371.54 1561.85 1366.58C1562.78 1361.61 1565.53 1351.13 1565.22 1344.72C1564.92 1338.32 1563.39 1320.93 1565.22 1317.2C1567.06 1313.47 1573.79 1303.5 1573.79 1303.5Z" fill="#A2A494"/>
<path fill-rule="evenodd" clip-rule="evenodd" d="M1640.35 1381.15C1640.35 1381.15 1666.24 1412.08 1678.87 1414.92C1691.5 1417.76 1698.84 1418.47 1698.84 1418.47C1698.84 1418.47 1677.33 1410.82 1672.4 1406.08C1667.47 1401.35 1640.35 1381.15 1640.35 1381.15Z" fill="#808272"/>
<path fill-rule="evenodd" clip-rule="evenodd" d="M1547.05 1390.87C1547.05 1390.87 1553.2 1468.16 1556.91 1480.61C1560.62 1493.06 1561.69 1503.94 1561.69 1503.94L1545.76 1541.5C1545.76 1541.5 1524.78 1538.28 1507.69 1538.81C1490.61 1539.34 1483.72 1540.93 1483.72 1540.93C1483.72 1540.93 1448.82 1419.3 1463.4 1375.1C1463.4 1375.1 1506.76 1382.88 1515.11 1384.75C1523.47 1386.62 1547.05 1390.87 1547.05 1390.87Z" fill="#808272"/>
<path fill-rule="evenodd" clip-rule="evenodd" d="M1494.13 1395.27C1494.13 1395.27 1479.84 1412.54 1471.14 1416.86C1462.45 1421.18 1463.97 1418.84 1463.97 1418.84C1463.97 1418.84 1471.14 1409.31 1474.87 1407.37C1478.6 1405.43 1494.13 1395.27 1494.13 1395.27Z" fill="#5C5D51"/>
<path fill-rule="evenodd" clip-rule="evenodd" d="M1550.9 1565.7C1550.9 1565.7 1574.37 1545.18 1601.64 1547.17C1601.64 1547.17 1601.02 1480.83 1603.82 1464.91C1606.6 1449 1603.82 1439.64 1603.82 1439.64C1603.82 1439.64 1559.2 1472.41 1555.78 1488.63C1552.37 1504.86 1545.56 1541.57 1545.56 1541.57L1550.9 1565.7Z" fill="#808272"/>
<path fill-rule="evenodd" clip-rule="evenodd" d="M1537.97 1044.87L1538.15 1044.58L1537.97 1044.87H1537.97ZM1564.05 1087.33C1564.05 1087.33 1560.92 1084.21 1553.07 1078.16C1554.95 1075.79 1560.41 1068.83 1564.78 1062.84H1564.78C1564.8 1062.8 1564.83 1062.77 1564.85 1062.74L1564.97 1062.58H1564.96C1567.02 1059.72 1569.28 1056.42 1570.14 1054.82C1567.4 1050.53 1557.71 1044.17 1557.71 1044.17C1557.71 1044.17 1548.01 1037.81 1542.99 1037.01C1541.76 1038.58 1539.93 1041.52 1537.97 1044.87C1537.91 1044.96 1537.85 1045.06 1537.8 1045.15L1537.78 1045.19C1534.42 1050.94 1530.72 1057.81 1528.98 1061.07C1528.09 1060.48 1527.18 1059.87 1526.24 1059.27L1528.24 1056.21C1529.08 1054.92 1528.72 1053.19 1527.44 1052.35L1518.13 1046.25C1516.84 1045.4 1515.12 1045.76 1514.27 1047.05L1512.27 1050.11C1511.35 1049.49 1510.43 1048.9 1509.53 1048.32C1511.76 1045.49 1516.37 1039.59 1520.23 1034.31L1520.32 1034.18C1520.47 1033.98 1520.61 1033.78 1520.76 1033.58L1520.75 1033.58L1520.94 1033.29L1520.77 1033.57C1523.04 1030.43 1524.99 1027.58 1525.93 1025.83C1523.19 1021.54 1513.5 1015.18 1513.5 1015.18C1513.5 1015.18 1503.8 1008.82 1498.78 1008.02C1497.63 1009.5 1495.94 1012.17 1494.11 1015.28L1493.75 1015.88C1489.97 1022.33 1485.7 1030.32 1484.26 1033.03C1475.58 1028.24 1471.49 1026.62 1471.49 1026.62C1453.13 1019.8 1456.79 1030.44 1456.79 1030.44C1436.64 1052.26 1417.94 1077.7 1407.96 1091.85C1407.91 1091.92 1407.87 1091.98 1407.82 1092.05C1407.8 1092.09 1407.76 1092.14 1407.73 1092.18C1403.14 1098.72 1400.49 1102.75 1400.49 1102.75C1399.18 1104.75 1406.6 1111.94 1417.07 1118.8C1427.29 1125.5 1436.62 1129.42 1438.28 1127.75C1438.31 1127.71 1438.35 1127.68 1438.37 1127.64L1438.38 1127.63C1439.47 1126.3 1441.96 1121.92 1444.89 1116.49C1444.91 1116.46 1444.93 1116.42 1444.95 1116.39C1444.99 1116.32 1445.02 1116.25 1445.06 1116.18C1451.67 1103.86 1460.55 1086.24 1460.55 1086.24C1462.31 1082.63 1463.53 1082.82 1463.53 1082.82C1466.03 1082.52 1474.61 1090.41 1478.96 1091.06C1480.37 1091.14 1482.43 1087.31 1482.43 1087.31L1486.31 1089.85L1484.06 1093.29C1483.22 1094.57 1483.59 1096.3 1484.87 1097.14L1494.18 1103.25C1495.46 1104.09 1497.18 1103.74 1498.02 1102.45L1500.27 1099.02L1488.09 1091.02L1504.15 1101.55C1504.15 1101.55 1501.47 1104.98 1502.11 1106.23C1504.44 1109.98 1515.09 1114.7 1515.82 1117.12C1515.82 1117.12 1516.48 1118.16 1513.88 1121.22C1513.88 1121.22 1501.32 1136.43 1492.69 1147.42C1492.63 1147.5 1492.57 1147.57 1492.52 1147.65C1492.48 1147.69 1492.44 1147.75 1492.4 1147.79C1488.58 1152.69 1485.57 1156.73 1484.86 1158.2L1484.84 1158.23C1484.84 1158.23 1484.84 1158.23 1484.83 1158.24C1483.9 1160.4 1491.23 1167.44 1501.49 1174.17C1511.96 1181.03 1521.51 1184.98 1522.81 1182.97C1522.81 1182.97 1525.45 1178.91 1529.61 1172.06C1529.63 1172.02 1529.65 1171.98 1529.68 1171.94C1529.72 1171.88 1529.75 1171.82 1529.8 1171.76H1529.79C1538.75 1156.94 1554.52 1129.6 1566.43 1102.34C1566.43 1102.34 1577.62 1101.45 1564.05 1087.33Z" fill="#0E100F"/>
<path fill-rule="evenodd" clip-rule="evenodd" d="M1494.51 1017.1L1494.32 1017.38L1494.13 1017.69L1494.15 1017.71C1494.22 1017.6 1494.28 1017.5 1494.34 1017.39C1494.39 1017.29 1494.45 1017.19 1494.51 1017.1Z" fill="#0E100F"/>
<path fill-rule="evenodd" clip-rule="evenodd" d="M1648.07 1093.74L1652.45 1097.88C1652.45 1097.88 1628.83 1215.39 1628.31 1214.75C1627.79 1214.12 1625.23 1210.95 1625.23 1210.95C1625.23 1210.95 1630.31 1191.14 1631.26 1187.44C1632.21 1183.74 1632.46 1162.95 1633.44 1160.09C1634.42 1157.24 1644.14 1120.41 1644.95 1111.07C1645.76 1101.73 1648.07 1093.74 1648.07 1093.74Z" fill="#0E100F"/>
<path fill-rule="evenodd" clip-rule="evenodd" d="M1557.66 1070.04C1557.66 1070.04 1564.55 1089.52 1563.25 1090.7C1561.94 1091.88 1565.73 1094.75 1565.73 1094.75C1565.73 1094.75 1565.42 1071.95 1561.7 1068.69C1557.97 1065.43 1557.66 1070.04 1557.66 1070.04Z" fill="#0E100F"/>
<path fill-rule="evenodd" clip-rule="evenodd" d="M1486.06 1067.52C1486.06 1067.52 1503.43 1214.41 1516.55 1228.05L1525.39 1230.89C1525.39 1230.89 1513.66 1214.53 1513.66 1207.12C1513.66 1199.71 1501.87 1139.82 1501.45 1134.88C1501.03 1129.94 1496.8 1090.24 1496.6 1085.08C1496.41 1079.93 1486.06 1067.52 1486.06 1067.52Z" fill="#0E100F"/>
<path fill-rule="evenodd" clip-rule="evenodd" d="M1533.08 1178.45C1533.08 1178.45 1508.54 1172.24 1501.08 1153.5C1496.88 1143 1489.08 1133.59 1489.08 1133.59C1489.08 1133.59 1501.83 1104.03 1511.17 1099.98C1520.5 1095.93 1522.19 1095.38 1523.34 1092.07C1524.49 1088.76 1531.24 1076.1 1534.61 1077.75C1537.98 1079.4 1564.65 1091.8 1565.73 1094.49C1566.81 1097.18 1568.56 1099.09 1569.67 1103.28C1570.8 1107.47 1560.68 1148.44 1555.46 1153.53C1550.25 1158.62 1533.08 1178.45 1533.08 1178.45Z" fill="#AF906D"/>
<path fill-rule="evenodd" clip-rule="evenodd" d="M1594.11 1077.61C1594.11 1077.61 1589.04 1078.11 1586.9 1083.1C1586.9 1083.1 1600.63 1149.03 1589.97 1168.39C1589.97 1168.39 1593.39 1172.19 1594.75 1173.38C1596.11 1174.56 1599.66 1144.3 1598.9 1139.33C1598.14 1134.37 1593.67 1090.51 1594.11 1087.63C1594.55 1084.75 1594.11 1077.61 1594.11 1077.61Z" fill="#0E100F"/>
<path fill-rule="evenodd" clip-rule="evenodd" d="M1547.53 1210.72L1551.61 1220.07C1551.61 1220.07 1546.72 1238.42 1545.23 1237.94C1543.74 1237.47 1541.52 1236.8 1541.52 1236.8C1541.52 1236.8 1546.24 1226.79 1546.57 1224.33C1546.89 1221.88 1547.53 1210.72 1547.53 1210.72Z" fill="#0E100F"/>
</svg>
