<svg version="1.1" id="Capa_1" xmlns="http://www.w3.org/2000/svg" xmlns:xlink="http://www.w3.org/1999/xlink" x="0px" y="0px" viewBox="0 0 15 15" style="enable-background:new 0 0 15 15;" xml:space="preserve">
	<g>
		<path style="fill:rgba(255,255,255,0.6);" d="M7.5,0C3.358,0,0,3.358,0,7.5C0,11.643,3.358,15,7.5,15c4.143,0,7.5-3.357,7.5-7.5
				C15,3.358,11.643,0,7.5,0z M9.85,7.855l-3.243,3.243c-0.195,0.194-0.512,0.194-0.707,0c-0.195-0.195-0.195-0.513,0-0.707
				L8.791,7.5L5.9,4.609c-0.195-0.195-0.195-0.512,0-0.707s0.512-0.195,0.707,0L9.85,7.145C9.95,7.243,9.997,7.372,9.996,7.5
				C9.996,7.629,9.948,7.757,9.85,7.855z"/>
	</g>
</svg>